<svg width="45" height="46" viewBox="0 0 45 46" fill="none" xmlns="http://www.w3.org/2000/svg"><path fill-rule="evenodd" clip-rule="evenodd" d="M21.401.68c.22 2.634.665 11.943-3.41 16.967C14.372 22.11 4.554 22.368 0 22.231.364 10.542 9.733 1.123 21.401.68Zm1.736 0c-.22 2.636-.665 11.943 3.41 16.967 3.615 4.458 13.417 4.72 17.977 4.584-.364-11.684-9.726-21.1-21.387-21.55Zm21.385 23.025c-4.561-.136-14.36.127-17.975 4.584-4.043 4.984-3.637 14.185-3.416 16.903 11.643-.447 20.995-9.83 21.39-21.487ZM21.407 45.193c.22-2.718.627-11.92-3.416-16.904-3.618-4.462-13.434-4.721-17.989-4.584.396 11.661 9.755 21.048 21.405 21.488Z" fill="#FCFCFC"/></svg>