<svg width="46" height="45" viewBox="0 0 46 45" fill="none" xmlns="http://www.w3.org/2000/svg"><path d="M22.884 44.563c12.467 0 22.568-9.821 22.568-21.942C45.452 10.501 35.351.68 22.884.68S.315 10.5.315 22.62c0 12.121 10.102 21.942 22.569 21.942ZM10.642 22.146l21.76-8.157c1.01-.355 1.892.24 1.565 1.724l.002-.002-3.705 16.97c-.275 1.203-1.01 1.496-2.039.93l-5.642-4.043-2.721 2.548c-.301.293-.555.54-1.138.54l.4-5.582 10.457-9.185c.455-.39-.102-.609-.701-.221l-12.923 7.91-5.57-1.69c-1.21-.373-1.236-1.175.255-1.742Z" fill="#FCFCFC"/></svg>