<svg width="46" height="46" viewBox="0 0 46 46" fill="none" xmlns="http://www.w3.org/2000/svg"><path d="M27.355 22.921a4.257 4.257 0 1 1-8.514 0 4.257 4.257 0 0 1 8.514 0Z" fill="#FCFCFC"/><path d="M33.055 15.39a3.958 3.958 0 0 0-.956-1.47 3.955 3.955 0 0 0-1.468-.955c-.45-.174-1.126-.383-2.371-.44-1.347-.06-1.751-.074-5.161-.074-3.41 0-3.815.013-5.161.074-1.246.057-1.922.266-2.372.44a3.953 3.953 0 0 0-1.468.956 3.96 3.96 0 0 0-.956 1.468c-.175.45-.383 1.127-.44 2.372-.06 1.347-.074 1.75-.074 5.16 0 3.411.013 3.815.075 5.162.056 1.245.264 1.921.44 2.371.204.555.53 1.057.954 1.469.412.424.914.75 1.469.955.45.175 1.126.383 2.372.44 1.346.061 1.75.074 5.16.074 3.411 0 3.815-.013 5.161-.074 1.245-.057 1.922-.265 2.372-.44a4.23 4.23 0 0 0 2.424-2.424c.175-.45.383-1.126.44-2.371.061-1.347.074-1.751.074-5.161 0-3.41-.013-3.814-.074-5.161-.057-1.245-.265-1.922-.44-2.372Zm-9.956 14.09a6.558 6.558 0 1 1-.001-13.117 6.558 6.558 0 0 1 0 13.117Zm6.817-11.843a1.533 1.533 0 1 1 0-3.066 1.533 1.533 0 0 1 0 3.066Z" fill="#FCFCFC"/><path d="M23.1.68C10.816.68.856 10.64.856 22.922c0 12.281 9.96 22.241 22.242 22.241s22.242-9.96 22.242-22.241C45.341 10.64 35.381.68 23.1.68Zm12.694 27.507c-.062 1.36-.278 2.288-.594 3.1a6.53 6.53 0 0 1-3.735 3.736c-.812.315-1.74.531-3.1.593-1.362.062-1.797.077-5.265.077-3.47 0-3.904-.015-5.266-.077-1.36-.062-2.288-.278-3.1-.593a6.257 6.257 0 0 1-2.262-1.474 6.259 6.259 0 0 1-1.473-2.262c-.316-.812-.532-1.74-.594-3.1-.063-1.362-.077-1.797-.077-5.265 0-3.469.014-3.904.077-5.266.061-1.36.277-2.288.593-3.1a6.257 6.257 0 0 1 1.474-2.262 6.255 6.255 0 0 1 2.261-1.474c.813-.315 1.741-.531 3.1-.593 1.363-.062 1.798-.077 5.266-.077 3.469 0 3.904.015 5.266.077 1.36.062 2.288.278 3.1.593.852.32 1.624.824 2.262 1.474a6.26 6.26 0 0 1 1.473 2.262c.316.812.532 1.74.594 3.1.062 1.362.077 1.797.077 5.266 0 3.468-.015 3.903-.077 5.265Z" fill="#FCFCFC"/></svg>