<svg width="46" height="46" viewBox="0 0 46 46" fill="none" xmlns="http://www.w3.org/2000/svg"><path d="m20.052 27.088 7.235-4.167-7.235-4.167v8.334Z" fill="#FCFCFC"/><path d="M22.823.68C10.54.68.58 10.64.58 22.922c0 12.281 9.96 22.241 22.242 22.241s22.242-9.96 22.242-22.241C45.065 10.64 35.105.68 22.823.68ZM36.72 22.944s0 4.511-.572 6.686a3.482 3.482 0 0 1-2.45 2.45c-2.176.572-10.876.572-10.876.572s-8.678 0-10.876-.595a3.483 3.483 0 0 1-2.45-2.45c-.572-2.152-.572-6.685-.572-6.685s0-4.51.572-6.686a3.553 3.553 0 0 1 2.45-2.473c2.176-.572 10.876-.572 10.876-.572s8.7 0 10.876.595a3.485 3.485 0 0 1 2.45 2.45c.595 2.175.572 6.708.572 6.708Z" fill="#FCFCFC"/></svg>