<svg width="45" height="46" viewBox="0 0 45 46" fill="none" xmlns="http://www.w3.org/2000/svg"><path d="M22.517.68a22.273 22.273 0 1 0 0 44.546 22.273 22.273 0 0 0 0-44.546Zm12.837 30.99c-.648.09-3.817 0-3.981 0a3.11 3.11 0 0 1-2.2-.871c-.668-.646-1.265-1.354-1.918-2.025a5.114 5.114 0 0 0-.625-.567c-.522-.4-1.038-.312-1.283.306a11.987 11.987 0 0 0-.4 2.032c-.043.623-.438 1.013-1.137 1.056-.432.023-.865.033-1.293.02a9.834 9.834 0 0 1-4.477-1.106 12.187 12.187 0 0 1-3.83-3.346c-1.688-2.156-3.037-4.525-4.242-6.968-.063-.124-1.298-2.75-1.329-2.875-.11-.413 0-.81.342-.949.218-.084 4.288 0 4.356 0a1.427 1.427 0 0 1 1.367.985 21.262 21.262 0 0 0 3.057 5.36c.179.217.388.407.62.565.332.227.646.149.782-.236.163-.53.258-1.078.284-1.632.023-1.099 0-1.82-.06-2.919-.041-.703-.29-1.318-1.327-1.518-.319-.058-.347-.322-.142-.585.428-.544 1.012-.632 1.668-.665.977-.056 1.954-.018 2.931 0h.213a6.06 6.06 0 0 1 1.265.129 1.167 1.167 0 0 1 .929 1.04c.05.277.071.559.063.84-.025 1.197-.083 2.397-.096 3.594-.012.475.032.95.13 1.415.138.638.576.797 1.011.337a15.778 15.778 0 0 0 1.547-1.906 19.184 19.184 0 0 0 2.025-3.936c.283-.711.506-.868 1.265-.868h4.318c.257-.005.513.03.76.101a.654.654 0 0 1 .453.848c-.213.947-.724 1.754-1.266 2.531-.878 1.243-1.805 2.455-2.703 3.683a4.998 4.998 0 0 0-.296.493c-.34.613-.314.954.177 1.46.785.808 1.622 1.562 2.38 2.392a14.12 14.12 0 0 1 1.497 1.947c.54.87.198 1.69-.835 1.837Z" fill="#FCFCFC"/></svg>