<svg xmlns="http://www.w3.org/2000/svg" viewBox="0 0 53.8 53.85">
    <path d="M52.2 45.51c-1.04-4.31-.52-5-3.27-6.8-2.92-1.92-10.2-5.33-14.13-5.78-.39.89-1.74 1.79-2.58 3.39 3.54 1.61 2.65 3.15 4.62 6.54.62 1.08 1.01 1.22 1.6 2.4-3.98-.35-9.08-2.99-10.21-5.51-2.15.17-2.09.08-4.02-.33-.91 3.16-7.54 5.72-10.35 5.78.37-1.01 1.07-1.45 1.68-2.45 1.49-2.45 1.37-5.81 5.38-6.75-.45-1.09-1.46-2.39-2.24-3.05-3.99.79-14.39 5.05-15.72 7.57L.06 52.28c-.46 2.2 2.01 1.44 6.93 1.44 5.34 0 45.25.45 46.73-.3.47-1-1.28-6.92-1.52-7.92ZM31.69 1.82C29.2.95 30.33-.82 28.1.43c-.7.39.19.42-1.46.38-6.35-.15-9.01-.35-13.65 5.73-2.64 3.46 1.2 4.73 1.4 4.88-.12 2.99.2 4.89.33 7.7.07 1.48-.23 1.98 1.11 2.85 1.39.89.86.77 1.44 2.53 2.76 8.47 11.67 13.15 17.46 2.98.55-.97.92-1.63 1.28-2.69.77-2.27.19-1.92 1.27-2.72 1.07-.79 1.31-.71 1.4-2.44.08-1.42.21-2.84.19-4.27 6.79-.48.94-10.69-7.18-13.54ZM31.5 29.3c-1.47 1.37-3.27 3.27-6.44 2.24-2.19-.71-3.83-2.67-4.93-4.37-1.15-1.78-2.16-4.45-2.31-6.99-.24-4.06.16-4.82 1.59-7.9 1.87-.44 11.16 1.36 14.24 1.92 1.18.22.99-.04 1.49.89 1.42 2.65.19 10.65-3.64 14.21Z"/>
</svg>
