<svg xmlns="http://www.w3.org/2000/svg" viewBox="0 0 145.83 131.74">
    <path d="M59.18 25.97c.38-3.17-2.39-5.67-5.1-5.16-1.57.53-2.56 1.33-3.66 2.07-1.29-.36-2.88-.03-4.4.13-.77-.45-1.84-.2-2.65-.54-.58.22-.85-.25-1.39-.13-.26-.05-1.25-.26-.88-.55 1.32-.75 2.26-1.67 3.51-2.46.33-.71 1.15-1.2 1.49-1.91.27-.31.43-.66.48-1.07.57.27.62-.27.9-.57 0-1.77-.42-3.72-1.12-5.8-1.66-3.37-3.7-5.9-5.94-7.95-1.81-.41-3.38-1.85-5.22-2-.18-.02-.4.21-.58.22-.08 0-.42-.25-.54-.24-.34.02-.91.19-1.24.25-1.95.36-3.42 1.21-4.78 2.05-1.27 1.68-2.06 3.58-2.78 5.52-.46 2.1-1.87 3.78-2.43 5.83-.77.46-.93 1.2-1.57 1.71.02.65.39 1.46.09 1.97-1.01 1-1.37 2.29-2.55 3.21-.33.55-1.6.68-1.98 1.21-.28.3-.28.73-1.01.83-.7 1.4-2 2.54-3.25 3.7-1.31 1.13-2.28 2.42-3.79 3.46-2.2 2.5-5.19 4.66-7.24 7.23-1.62 4.1-2.53 8.52.26 14.59 2.07 2.94 4.63 4.76 7.44 6.05.74-.09 1.31.19 1.92.37 1.92-.09 3.74.03 5.71-.19 5.14-1.41 7.34-4.13 9.36-6.93.55-1.47 1.19-2.9 1.38-4.53 1.05-1.35 1.53-2.96 2.57-4.32.56-1.95 1.47-3.74 2.85-5.32 1.79 1.04 4.22.63 6.59.36-1.25 2.66-2.97 5.11-1.17 9.13 2.01 1.75 4.22 3.03 7.7 1.5 2.29-2.03 3.72-4.45 5.15-6.87.78-.72.65-1.85 1.46-2.56 1.05.17 2.09.36 3.12.58.96-.35 1.59.04 2.55-.31.65.34 1.85-.53 2.43-.04-.92 1.3-2.19 2.46-3.25 3.7-3.87 1.65-4.57 4.72-6.05 7.44-.06 1.31-.29 2.55-.55 3.77.21 1.97.56 4 1.53 6.31 3.23 5.74 7.99 8.06 14.14 7.26 1.29-.5 2.59-.99 3.88-1.49 1.22-.85 2.14-1.84 3.16-2.77.13-.59.66-.99.72-1.61-.15-.76 1.02-.94 1.18-1.57.73-4.45 3.12-8.15 4.11-12.48.55-.56 1.11-1.11 1.57-1.71 0-.96.3-1.8 0-2.89.77-.78.61-1.98 1.66-2.64.79-.83.73-2.03 1.85-2.71 2.36-.64 5.19-1.05 7.74-1.86 1.09-.34 2.36-.98 3.3-1.27-.02.96.24 2.04.8 3.25.66.69 1.41 1.16 2.06 1.88.75.12 1.31.66 2.19.49 1.03-.06 1.25.88 1.79 1.76.02.6-.81.82-1.33 1.18-.29.46-.55.94-1.06 1.3-.4 1-.85 1.98.03 3.55.95.89 2.39.66 3.89.29.63.98 1.45 1.55 1.97 2.81-.47.81-1.77 1.25-1.27 2.49-.24.56.96.94 1.01 2.06 2.6 6.78 5.38 13.43 8.01 20.29 3.43 8.93 7.18 18.05 9.81 26.72 1.47 4.85 3.91 9.05 5.87 13.55 1.74 4.01 2.8 8.47 5.78 11.58 1.28 2.06 3.06 3 4.73 4.19 1.28-.12 2.08.87 3.62.17 1.4-.77 1.73-2.02 2.09-3.25-.37-1.93-.37-3.99-.92-5.88-.29-.98-.77-1.87-1.12-2.91-1.02-3.07-1.77-6.52-3.19-9.46-2.16-4.5-3.93-9.02-5.99-13.28-1.24-2.56-2.85-5.09-4.1-7.77-1.25-2.71-2.22-5.58-3.39-8.27-4.13-9.46-8.77-18.33-12.86-27.11-.59-1.27-.92-2.81-1.68-3.81-.63-.81-1.59-.81-2.25-1.81-.17-1.04-.55-2.17-.53-3.13-.01-.7 1.12-.9 1.18-1.57.26-.58.39-1.22.11-2.04-.4-.68-.9-1.11-1.45-1.45-.68-.16-1.7.44-2.24-.03l-1.26-3.3c.32-1.52.67-3.02-.43-5.17-.9-.98-1.97-1.6-3.06-2.17-1.14-.57-1.83-2.16-3.25-2.09-.81.46-1.55.02-1.67.86-.83.27-.23 1.18-1.25 1.37-1.16.09-2.52.6-3.47.22-2.41.61-4.77 1.08-6.68.56.34-1.83 1.45-3.32 2.61-4.79 1.6-1.27 2.42-2.89 3.95-4.19.26-1.44-.6-3.38-1.35-5.27-.86-1.24-1.47-2.54-2.26-3.58-1.08-1.41-2.96-3.11-4.19-3.96-.18-.12-.56 0-.61-.43-2.11.05-3.69-1.1-5.89-.85-1.44-.12-3.94.97-5.31 1.82-.88 1.91-1.5 3.94-1.9 6.07-.77 1.96-.8 4.25-1.63 6.19-1.21-.11-2 1.21-2.88 1.77-2.44 1.11-4.94 2.2-7.68 3.17Z" style="fill:#391616"/>
    <path d="M30.08 4.65c.43-.83 1.63-.3 2.4-.7 4.88 1.23 9.2 5.55 10.89 12.73-1.54-2.07-2.48-5.5-4.26-7.04-1.42-2.35-3.56-3.07-5.46-4.36-1.25-.07-2.22-.79-3.58-.63Z" style="fill:#fff"/>
    <path d="M30.91 5.67c-.29 2.44-1.81 4.34-2.87 6.44-.93.17-1.71-.02-2.75.39 1.03-2.27 2.21-4.48 2.91-6.9 1.05-.32 1.87-.11 2.7.08ZM31.98 6.14c.29-.17.4.06.66-.03 2.88 1.36 5.35 3.64 7.23 7.24.77 1.9 1.28 3.68 1.62 5.39-.81.76-1.47 1.6-2.46 2.28-.66-.94-1.71-.98-2.33-2 1.2-.54 2.36-1.09 3.07-1.85-.98-.88-2.6.6-3.83 1.03-.37-1.33-1.07-1.94-1.58-2.95-.74-.74-1.54-1.36-2.33-2-.59.13-.78-.66-1.34-.6-.24-.53-1.01.11-1.15-.67 1.06-1.62 2.12-3.24 2.46-5.17.04-.2.08-.39-.03-.66Z" style="fill:#e41b1b"/>
    <path d="M35.42 25.52c-.55-.76-.59-2.07-.93-2.98-1.81-4.92-5.67-8.85-10.58-7.29-.71.02.44-.42.7-.49.45-.17.91-.35 1.36-.52 2.83-.58 4.93.5 6.8 2.06 1.51 2.4 3.74 7.01 2.65 9.22Z" style="fill:#f6a320"/>
    <path d="M24.19 17.15c-.9 1.21-1.83 2.4-2.87 3.55-.12-.75.67-1.1.91-1.68.43-.51.87-1.01 1.18-1.56l.78-.3Z" style="fill:#fff"/>
    <path d="M32.73 24.33c-1.2.75-1.3 1.99-2.51 2.74-1.41-1.89-2.74-3.97-4.56-4.92-.4-.43-1.02-.36-1.42-.79-.44-.22-1.04-.06-1.34-.6 1.43-1.13 2.65-2.36 3.18-3.89.29-.18.4.05.66-.03 2.58 1.19 4.73 3.34 5.99 7.49Z" style="fill:#e41b1b"/>
    <path d="M31.11 35.19c-2.16-6.83-5.98-9.92-10.33-11.84-1.16.2-1.96-.41-3.28.15-.23.05-.18-.15-.07-.19.52-.81 1.66-.53 2.52-.97 1.51.47 3.12.69 4.53 1.38.12.34.34.45.61.43 1.44 1.34 2.67 3.15 3.9 4.95.56 1.04 1.1 2.11 1.65 3.15.19 1.35 1.76 2.33.46 2.94Z" style="fill:#f6a320"/>
    <path d="M17.52 25.27c-.41 2.44-2.33 4.22-3.6 6.28-1.47-.07-3.13.28-4.83.74 2.17-2.3 5.12-4.26 7-6.69.35.17.91-.13 1.43-.33ZM28.21 33.41c.29.67-.45.87-.6 1.34-.08.5-.28.95-.6 1.34-.07 1.04-.46 1.94-1.19 2.68-.48-1.7-1.41-2.38-1.95-3.92-2.46-2.06-5.4-3.03-8.75-3.09.92-1.2 1.61-2.5 2.6-3.67.41-.84 1.04-1.57 1-2.61.19-.07.39-.15.58-.22 3.69 1.11 6.61 3.93 8.92 8.15ZM32.94 26.03c.87 1.36.01 3.33-.99 4.38-.25-.65-.5-1.29-.74-1.94.55-.83 1.2-1.61 1.73-2.45Z" style="fill:#e41b1b"/>
    <path d="M37.07 25.78s.15-.09.2-.08c2.07.91 4.29 1.4 6.65 1.68 1.1-.3 2.01-.19 3.25-.8-.97 1.49-2.06 2.94-2.96 4.47-3.56.54-7.28 1.43-10.23.59-.26-.86.79-1.15 1.1-1.76.65-1.11 1.42-2.15 1.82-3.37-.03-.28.23-.44.17-.73Z" style="fill:#fff"/>
    <path d="M76.55 11.51c.21 1.49-.55 2.54-.21 4.09-.92 1.74-1 3.84-2.39 5.37-.51-.17-.99-.43-1.66-.26 1.21-2.62 1.96-5.45 2.32-8.46.65-.25 1.29-.5 1.94-.74Z" style="fill:#e41b1b"/>
    <path d="M18.39 34.51c.19.04.39.08.66-.03 1.41.56 2.41 2.05 3.5 3.33 2.75 5.46 2.05 9.38.51 12.93-1.08 1.18-2.31 2.29-3.33 3.5-1.36.52-2.71 1.04-4.07 1.56-.68.2-1.12-.13-1.89.28-1.21-.53-2.95.12-3.92-.94 2.42.34 5.05.21 8.24-1.16 1.3-1.1 2.86-2.21 3.98-3.53.37-.43.54-1.01 1.06-1.3.56-2.54 1.23-5.03.42-8.17-.87-1.66-1.88-3.01-2.83-4.48-.58-.61-1.26-1.02-1.91-1.49-.44.05-.53-.14-.42-.51Z" style="fill:#f6a320"/>
    <path d="M88.72 18.86c-1.4 1.04-2.36 2.27-3.33 3.5-.55.61-.76 1.38-1.49 1.91-.39.63-.4 1.43-1.3 1.83-1.96-2.47-4.51-3.6-7.23-4.35-.08-.95.51-1.6.88-2.34.18-.78.47-1.51.69-2.27.57-1.52.75-3.2 1.03-4.85-.18-.29.05-.4-.03-.66.19-.07.39-.15.58-.22 2.26.46 4.13 1.79 6.29 2.48.64.71 1.49 1.23 2.13 2.08.67.88 1.06 1.93 1.77 2.88Z" style="fill:#e41b1b"/>
    <path d="M13.23 36.71c.15-.1.21 0 .27.12-.2 4.57-.26 9.21.84 14.36-2.26-.1-3.62-2.21-5.11-4.05-1.39-3.35-1.8-6.27-.31-8.34.9-.94 3.43-1.15 4.31-2.1ZM15.41 51.67c-1.34-5.69-1.23-10.73-.63-15.56.15-.1.21 0 .27.12 1.65-.45 2.54.79 3.8 1.21.4.77.92 1.29 1.4 1.91 1.27 2.6.95 4.5.95 6.53-1.34 1.82-1.77 4.04-3.63 5.62-.77.16-1.4 0-2.16.16Z" style="fill:#604a98"/>
    <path d="M55.57 24.69c-.75 1.65-2.21 2.98-2.61 4.79-.98.03-1.68-.56-2.54-.81-.84.2-1.47-.08-2.36.24 1.35-1.71 2.98-3.29 4.85-4.76 1.06-.22 1.91.05 2.65.54Z" style="fill:#fff"/>
    <path d="M33.26 33.25c2.6.77 5.43 1.05 8.76.2-.3.46-.45.98-.79 1.42-2.87.66-5.34.43-7.76.08.03-.52-.33-1.22-.21-1.7Z" style="fill:#f6a320"/>
    <path d="M28.76 35.42c.19-.07.24.18.34.31.53 1.1-.14 1.65.12 2.62-.96 1.66-1.14 3.68-2.47 5.17.01-.96 0-1.93-.27-3.01.74-1.71 1.85-3.25 2.27-5.1Z" style="fill:#e41b1b"/>
    <path d="M56.28 25.97c.66.46-.39 1.54-.23 2.31-.69 1.03-.97 2.25-1.9 3.18-.1-.73-.57-.63-.71-1.28 1.06-1.35 1.92-2.79 2.84-4.2Z" style="fill:#fff"/>
    <path d="M46.53 31.27c.04-.52 1.19-.54 1.67-.86 1.29-.32 3.47-.1 4.27 1.26.44.76.88 1.8.12 2.62-.61-.03-.39-1.01-.52-1.36-.15-.26-.6.16-.73-.16-1.2-1.39-2.96-1.52-4.8-1.49ZM82.81 32.48c-1.32-2.93-3.01-5.04-5.08-6.28-1.28-.73-2.64-1.29-4.03-1.79-1.51-.22-2.79-.96-4.62-.45-.03-.55.61-.8.87-1.22 3.65-.12 6.75.98 9.53 2.8.81 1.59 3.06 4.17 3.34 6.95ZM66.13 25.53c-.03 1.22-1.76 1.68-3.12 2.31-1.43.2-2.79.25-4.37.79-.15-.39.43-.45.09-.92a30.09 30.09 0 0 0 7.4-2.17Z" style="fill:#f6a320"/>
    <path d="M50.31 33.6c.07.89-.67 1.42-1.22 2.03-.25.69-.68 1.3-1.3 1.83-.74 1.28-1.21 2.68-2.33 3.79-.93-2.01-2.33-2.96-3.61-4.18 1.57-1.18 1.42-3.12 3.57-4.04 1.76-.11 3.59-.35 4.89.57ZM89.33 16.4c-.05-.23.15-.18.19-.07.05.23-.15.18-.19.07Z" style="fill:#fff"/>
    <path d="M71.26 25.56c.07 1.43-1.16 2.27-1.55 3.49-1.25.7-1.16 2.6-2.78 2.62.98-2.03 2.29-3.91 3.02-6.05.55-.27.76.21 1.31-.06Z" style="fill:#e41b1b"/>
    <path d="M66.51 28.27c-.1 1.35-1 2.34-1.55 3.49-3.1.47-6.54 1.68-9.52 1.87.55-.93 1.58-1.65 1.85-2.71 2.7-.2 6.51-1.25 9.22-2.65ZM88.89 19.9c.59.07.05.97.33 1.43-.78 1.32-1.99 2.44-2.79 3.74-.33.66-.95 1.18-1.03 1.95-.81.24-.57 1.77-1.18 1.57-1.17-1.7 1.24-3.05 1.3-4.73 1.11-1.33 2.21-2.66 3.37-3.97Z" style="fill:#fff"/>
    <path d="M81.02 33.61c-1.61.62-2.11 1.74-2.7 2.82-.7-.11-1.04-1.05-1.64-1.37-.55-.34-1.02-.84-1.57-1.18-1.03-.81-2.27-1.15-3.37-1.82-.82-.08-1.72.02-2.27-.69 1.48-1.48 2.52-3.16 3.2-5.01.19-.07.39-.15.58-.22.6.34 1.28.49 2 .57.87.57 1.73 1.18 2.64 1.66 1.09 1.65 2.24 3.17 3.13 5.25Z" style="fill:#e41b1b"/>
    <path d="M41.09 39.14c.59.12 1.04.55 1.37 1.25-1.15.29-1.34 1.01-2.1 1.48.06-.99.5-1.81.73-2.73Z" style="fill:#fff"/>
    <path d="M62.18 34.39c-.15.79-.65 1.42-.96 2.15-2.72.32-5.46.7-7.76.08-.33-.16-.19-.28-.22-.58.12-.16.24-.32.51-.42 1.11.03 2.34-.19 3.24.32.8-.11 1.71-.46 2.48-.51.9-.35 1.81-.7 2.71-1.04Z" style="fill:#f6a320"/>
    <path d="M43.37 41.61c.45 1.04 1.03 1.77 1.38 3.03-1.75.2-3.7.85-4.58-.91.97-.75 1.61-1.64 3.19-2.12ZM64.97 36.43c-.49 1.71-1.95 2.99-2.69 4.59-.4-.19-1.06.21-1.63.4 1.03-1.63 3-2.84 3.54-4.69l.78-.3Z" style="fill:#fff"/>
    <path d="M76.89 39.65c.1.95-.56 1.57-1.15 2.22-.67 2.11-1.98 3.94-2.29 6.22-.72.1-.66-.84-.91-1.21-.65-.95-1.85-1.84-2.5-3.05-1.3-1.05-2.67-1.94-4.13-2.64-.83.05-1.5-.24-2.31-.22 1.25-1.48 2.35-3.03 3.08-4.74 4.59-1.52 7.64.42 10.22 3.42ZM85.49 31.89c.15-.1.21 0 .27.12 2.25.25 4.5.49 6.98.21.25-.21.79-.17 1.24-.25.33-.06 1.01-.69 1.12.02-3.11.72-6.27 1.56-9.37 2.26-.36-.91.17-1.43-.24-2.36Z" style="fill:#e41b1b"/>
    <path d="M81.55 34.97c.13.54-.26.85-.67 1.15-.12.43-.11.92-.67 1.15.07.57-.27.95-.33 1.46-.37-.13-.62-.53-.83-1.02.61-.42.84-1.02 1.18-1.57.7-.18.65-1.52 1.33-1.18Z" style="fill:#fff"/>
    <path d="M73.12 58.23c-.72-.07-1-1.12-1.76-1.1-.04-1.2.16-2.29-.03-3.55-1.76-4.95-3.86-9.16-7.66-9.52-1.85.29-3.86 1.35-5.36 2.28-1.06.63-1.61 1.82-2.17 3.06-.85 1.91-1.4 3.62-.63 6.47.54 2 1.44 3.62 2.52 4.82 1.85 1.38 4.03 2.03 6.41 2.21.97-.5 1.6-.22 2.6-.77.85-.21 1.36.32 1.88.84-7.54 3.9-14.07-.96-15.49-9.63.5-2.67 1.52-5.11 2.96-7.37 1.86-1.45 3.51-2.14 6.18-3.04.6.03 1.43.18 2.12.3.33.06 1.34.06 1.73.45.08.08.06.33.15.39.63.38 1.17.53 1.76 1.11.22.21.48.55.76.82 2.54 2.47 4.52 8.54 4.03 12.25Z" style="fill:#f6a320"/>
    <path d="m99.15 28.65.39-.15.15.39-.39.15-.15-.39ZM85.08 36.06c-.14-.06.05-.3.12-.27.14.06-.05.3-.12.27Z" style="fill:#fff"/>
    <path d="M102.01 30.89c1.03.81 1.64 2.4 1.95 3.92-.66 1.12-2.56 2.2-4.12 2.03-.73-.54-1.49-.99-1.94-2.15-.83-2.17 1.84-3.52 4.1-3.8ZM77.56 41.39c.15-.1.21 0 .27.12.43.78.35 1.34.55 2.01-.18.62-.47 1.19-.38 1.92-.58 1.14-1.24 2.24-1.55 3.49-.47.49-.44 1.2-.91 1.68-.31.51-.02 1.28-.72 1.61-.25-.65-.5-1.29-.75-1.94.14-1.71.97-3.11 1.3-4.73.74-1.39 1.35-2.83 2.18-4.17Z" style="fill:#e41b1b"/>
    <path d="M63.04 47.63c.12 1.45.12 2.84.06 4.21.8 2.55.72 4.72 1.44 7.24-2.2-.11-3.61-2.02-5.04-3.85-1.21-2.63-.79-4.53.05-6.25.54-.36 2.35-.8 3.49-1.34ZM65.66 59.09c-.77-3.99-1.89-8.13-1.3-11.52 3.41-.4 5.09 6.25 4.81 9.06-.98.9-1.51 2.01-3.51 2.46Z" style="fill:#604a98"/>
    <path d="M57.13 53.68c1.37 2.58 2.52 5.67 4.69 6.43-.48.7-1.46-.57-2.19-.49-.64-.73-1.29-1.43-1.94-2.15 0-.59-.23-1.28-.55-2.01.09-.55.23-1.08-.01-1.77ZM105.45 41.59c-.63.45-.57-.66-.84-1.02-.24-.43-.59-.61-.72-1.28.55-.04.6-1.1 1.09-.64 0 .91 1.01 2.27.46 2.94Z" style="fill:#fff"/>
    <path d="M108.85 41.17c.15.39.62.04.69.63.09 1.49-2 2-3.09 2.97-1.24.02-2.77.69-4.1.91-.26-1.14.36-1.88 1.27-2.49.07.68.45.67.76.82 1.42-.18 2.01-1.57 3.03-1.38.7-.38.23-1.29 1.45-1.45Z" style="fill:#e41b1b"/>
    <path d="M70.91 58.85c.46.29.82.8 1.54.52.05.78-.91 1.1-1.1 1.76-.76.03-1.59.2-2-.57.87-.42.78-1.26 1.57-1.71Z" style="fill:#fff"/>
    <path d="M108.13 45.68c.02 1.19.71 2.67.83 3.91-.39.15-.78.3-1.16.45-.47-1.6-1.51-1.9-2.12-3.19.99-.31 1.77-.71 2.45-1.16ZM111.17 51.85c.58-.45.53.49.76.82.15.39.3.78.45 1.16 4.51 10.85 9.42 21.43 14.06 31.99 2.71 6.17 5.85 12.2 8.77 18.22 2.34 5.46 5.72 12.38 7.39 18.08.45 1.55.59 3.32.48 4.71-.04.5.27 1.14-.4 1.27-3.82-4.52-6.71-10.29-9.61-16.34-5.81-12.12-10.55-26.33-15.65-39.61-2.6-6.78-5.58-13.15-7.71-19.52l.78-.3c.36-.11.32-.39.7-.49Z" style="fill:#e41b1b"/>
    <path d="M35.15 3.37c.23-.49 1.3.2 1.97-.09.58.39 1.2.67 1.88.84 2.5 2.32 4.36 6.09 5.87 10.65-1.19-.94-1.36-2.66-1.95-3.92-1.28-2.73-3.3-4.58-5.01-6.09-.88-.55-1.73-1.17-2.76-1.39Z" style="fill:#fff"/>
    <path d="M37.42 23.2c.99.55 2.05.93 3.03 1.51.98-.16 1.6.5 2.58.35.39.21.86.24 1.39.13.19.04.39.08.66-.03.05.26-.31.34-.39.15-2.8.63-4.96-.19-7.2-.8.02-.42.05-.83-.06-1.31Z" style="fill:#f6a320"/>
    <path d="M14.23 34.1c-2.84.64-5.33 2.16-7.83 2.79-1.62 1.64-2.34 3.67-2.63 5.9-.17 2.23-.27 4.49.79 7.26.33.82.81 1.32 1.21 1.98.01.34-.2.09-.27-.12-.16-.12-.32-.24-.42-.51-.24-.31-.41-.77-.76-.82-.88-1.85-2.03-3.17-2.13-4.97-.13-2.42.51-5 1.14-6.89 1.81-1.77 3.92-3.4 7.16-4.53.64 0 1.53-.54 2.09-.36.64-.11 1.39-.48 1.65.26Z" style="fill:#fff"/>
    <path d="M74.94 10.8c-.2-1.69 2.56-1.46 3.73-1.88 1.92.26 3.75.72 5.46 1.46 1.77 1.57 3.61 2.97 4.98 5.43-2.83-3.87-6.72-5.38-10.99-6.02-1.01.23-2.03.48-3.18 1Z" style="fill:#f6a320"/>
    <path d="M6.75 41.87c.45.58.35 2.3.61 3.33.61 2.04 1.44 3.2 2.64 4.55.73.82 1.54 1.75 2.32 2-.1.54-.98-.17-1.39-.14-.49-.1-.8-.61-1.34-.6-1.04-1.04-1.98-2.29-2.92-3.55-1.27-2.44-.61-4.03.08-5.59ZM55.85 23.69c-.05-.53.7.06.92.09-.07.81-.58-.34-.92-.09Z" style="fill:#fff"/>
    <path d="M63.44 35.91c-.03-1.19 1.48-1.7 2.66-2.35 2.58-.73 4.33.38 6.35.9.12.48-.61-.01-.73-.16-1.34-.13-2.91.27-4.09-.21-.27.12-.53.24-.65.03-1.47.47-2.61 1.09-3.54 1.8Z" style="fill:#f6a320"/>
    <path d="M107.76 53.39c.57-.44.74.02.88.55.15.39.3.78.45 1.16 10.24 24.44 18.87 52.48 31.01 72.66.03.18.15.15.27.12.04.3-.34.15-.46-.05-1.25-.56-2.13-1.95-3.16-3.01-.09-.28-.18-.56-.42-.51-2.63-5.52-5.25-11.34-7.55-17.35-2.3-5.98-5.05-11.84-7.12-17.96-2.1-6.21-4.51-12.33-6.8-18.31-2.29-5.98-5.15-11.52-7.09-17.31Z" style="fill:#fff"/>
</svg>
