<?xml version="1.0" encoding="utf-8"?>
<!-- Generator: Adobe Illustrator 27.0.0, SVG Export Plug-In . SVG Version: 6.00 Build 0)  -->
<svg version="1.1" id="Слой_1" xmlns="http://www.w3.org/2000/svg" xmlns:xlink="http://www.w3.org/1999/xlink" x="0px" y="0px"
	 viewBox="0 0 229 153.9" style="enable-background:new 0 0 229 153.9;" xml:space="preserve">
<style type="text/css">
	.st0{fill:#391616;}
	.st1{fill:#FFFFFF;}
	.st2{fill:#604A98;}
</style>
<path class="st0" d="M151,94.3c-0.3-1.1-1.2-1.7-1.6-2.7c-2.5-3.2-5.1-6.3-7.6-9.5c-1-1.9-3-2.8-3.5-5.2c-0.8-0.2-0.8,0.5-1.6,0.3
	c-1.5-2.5-3.7-4.3-5.4-6.5c-2-3.7-4.5-6.9-7.1-10c-2.3-3.4-5.5-5.9-7.6-9.5V48c-1.2-3.4-2.1-7.1-3.8-10c-2.9-6.3-5.9-12.5-9.5-18.2
	c-1.6-3-4-5.2-5.4-8.4c-1.5-1.2-2.8-2.6-4.1-4.1c-1.5-0.6-2.8-1.4-4.1-2.2c-2.9,0.1-5.3-1.7-8.9-1.6c-1.2-0.8-3.2-1-4.3-1.9
	c-2-0.1-2.7-1.4-4.9-1.4c-0.7,0.7-0.9,1.8-1.4,2.7c-0.1,2.1,0.2,3.8,0.8,5.1c0.2,1.8,1.6,2.4,2.2,3.8c5,3.2,11.3,5.2,13,11.7
	c-1.1,1.3-2.8,1.9-4.6,2.4c-9.3-0.5-15.9-3.8-23.8-5.7c-1.2-3.9-3.2-7.1-4.9-10.6c-1-1.5-1.7-3.4-3-4.6c-0.3-1.2-1.4-2.2-1.9-2.7
	c-0.6-0.6-0.3-1.8-1.1-2.2c-1.8-0.8-2.9,0.5-4.3,0c-0.4,0.7-1.7,0.5-1.9,1.4c-0.5,0.6-1.9,0.4-1.9,1.6c-0.3,0.5,0.2,1.8,0,3
	c1.1,2.7,1.8,5.8,3.2,8.1c0,1,1.3,1.9,0.8,2.4c-1.2-0.7-2.5-1.2-3.5-2.2c-0.7-2.2-1.8-4.4-3-6.2c-0.5-0.9-1.2-1.9-1.9-2.7
	c-0.7-0.9-1.4-2.1-2.7-2.2C30.8,2.9,29.6,4,28.4,4c-0.5,0.8-0.9,1.6-1.4,2.4c-0.4,1.4,0.8,2.6,0,3.5c-4-0.9-7-2.8-11.9-2.7
	c-0.5,0.6-1.7,0.5-2.2,0.8c-0.5,0.4-0.5,1-0.8,1.4c-0.4,0.5-0.9,0.7-1.1,1.1c-0.5,1.1-0.4,2.1-0.5,3c-2.3-1.3-5.8-0.6-8.1,0.3
	c-1.3,1.3-2.2,3-2.4,5.4c1.5,3.1,4.5,4.7,6.5,7.3c-2.4,0.6-3.2,2.8-3,6c1.3,3,4.1,4.4,6,6.8c0.9,0.5,1.3,1.4,2.2,1.9
	c0.5,0.2,0.8,0.6,1.1,1.1c0.2,0.2,1.5,0.7,0.8,0.8c-3.6-0.3-5.3,1.2-6,3.8c0.2,1.9,1.6,2.5,2.2,4.1c5.9,4.2,11.7,8.6,18.7,11.7
	c0.4,3.1,1.9,5.1,2.7,7.9c0.6,3,1.9,5.3,2.4,8.4c3.4,6.8,7.6,12.8,11.9,18.7c2,1.3,3.3,3.2,5.2,4.6c2.1,0.4,3.8,1.3,5.2,2.4
	c1.2,1.5,1.8,3.6,2.4,5.7c0.8,0.9,1.5,2,2.2,3c0.4,0.6,0.5,1.2,0.8,1.6c0.4,0.5,0.9,0.8,1.4,1.4c0.2,0.2,0.1,0.6,0.3,0.8
	c0.6,0.8,1.6,1.3,2.2,1.9c0.1,0.1-0.1,0.4,0,0.5c0,0,0.5,0.2,0.5,0.3c0.8,0.7,1.4,1.3,2.2,1.9c1,1.3,2.6,2.2,3.2,3.8
	c-1.6,1.8-3.6,3.2-5.4,4.9c-1.9,1.6-4.3,2.7-5.2,5.4c2.1,3.4,4,7,6.2,10.3c2.6,3,4.6,6.5,8.7,7.9c3.2-1.2,6.4-2.5,8.9-4.3
	c1.3-0.9,2.6-1.8,3.8-2.7c1.6-0.6,2.7-1.8,4.1-2.7c3.9-1.6,6.3-4.5,8.9-7.3c2.7-2.7,5.3-5.5,7.9-8.4c1.3,0.9,2.2,2.1,3.8,2.7
	c1.5-0.8,2.5-2,4.3-2.4c1.3-0.9,2.6-1.9,4.1-2.7c2.5-2.1,5.2-3.8,7.6-6c4.9-4.2,10.1-8.2,14.4-13c1.2-0.2,1.6-1.3,2.7-1.6
	c1.2-1.4,2.5-2.7,3.8-4.1c0.7-0.7,1.1-1.7,1.9-2.2c0.2-1.2,1.6-1.1,1.4-2.7C152.6,95.4,151.4,95.3,151,94.3L151,94.3z M116,8.9
	c-0.2,0.1-0.3,0.2-0.3,0.5c1.5,2.9,3.1,5.6,4.3,8.7c0.5,1.7,0.9,3.4,1.4,5.1c0.1,1,0.2,1.9,0.5,2.7c-0.2,0.8,0.4,0.7,0.3,1.4
	c0.7-0.1-0.2,1.5,0.8,1.1c1.3-0.8,0.7-3.5,0.8-5.4c-1.6-5.4-3.1-10.8-6.8-14.1C116.7,8.6,116.4,8.6,116,8.9L116,8.9z M126.8,12.5
	c-0.5-0.8-1.2-1.8-2.2-1.9h-0.5c-0.1,0.4-0.4,0.5-0.3,1.1c1,2.3,1.9,4.8,3,7c0.1,1.5,0.6,2.6,0.8,4.1c0,0.8,0.3,1.3,0.5,1.9
	c0.2,0.7-0.1,1.9,0.8,1.9c1.6-0.1,1.3-1.9,1.6-3.2c0-0.9-0.5-1.4-0.3-2.4C129,18.2,128.3,14.7,126.8,12.5L126.8,12.5z M111.1,14.6
	c0,0.7-0.4,0.6,0,1.1c1.1,1.9,2.4,3.7,3.5,5.7c0.3,0.9,0.8,2.2,1.4,3.2c0.5,1,0.8,2.8,1.9,2.4c0.9-6-3-9.5-6-12.5L111.1,14.6
	L111.1,14.6z M21.4,86.2c0.4,0.4,0.8,0.1,1.1,0c0.3-1-0.8-2-1.4-3c-0.6-1.1-0.9-2.6-1.9-3.2c-0.9-2.5-2.4-4.5-3-7.3
	c-0.8-0.1-0.6-1.2-1.4-1.4c0,0.5-0.7,0.3-0.5,1.1v2.4c0.6,3.2,2.1,5.4,3.5,7.9c0.9,0.4,1.4,1.5,2.2,2.2c0.4,0.4,0.9,0.5,1.4,0.8
	C21.5,85.7,21.3,86.1,21.4,86.2L21.4,86.2z M9.8,75.6c0,0.4-0.7,0.2-0.5,0.8c0.2,3.7,1.7,6,3.2,8.4c0.7,1.2,1.4,2.4,2.4,3.2
	c1,1,1.5,2.5,3.5,2.4c0.8-1.6-1-2.5-1.4-3.8c-2.7-3.1-4.7-6.8-6.5-10.8C10.2,75.9,10.2,75.5,9.8,75.6L9.8,75.6z M5.7,79.7
	c-0.1,0.5-0.3-0.1-0.8,0c-0.3,0.4-0.4,0.8-0.8,1.1c0.1,0.9,0.5,1.5,0.5,2.4c1.8,2.6,3.5,5.3,5.7,7.6c1.2,0,0.9,1.4,2.4,1.1
	c0.3-1.1,0.1-1.2-0.3-1.6c-0.2-0.2-0.1-0.5-0.3-0.8c-0.5-0.7-1.4-1.3-1.9-1.9c-1.2-1.4-2.1-2.7-3-4.3C6.8,82,6.6,80.5,5.7,79.7
	L5.7,79.7z"/>
<path class="st1" d="M48,5.4c2.4,4.7,4.6,9.7,7.3,14.1c-1.2,0.5-3-0.8-4.9-0.5c-1.3-0.6-3.2-0.6-4.6-1.1c-1.3-4.6-3.7-8.1-4.9-12.7
	c0.3-1.6,1.4-2.6,2.4-3.5c0.4,0.4,0.6-0.1,1.1,0C46.1,2,46.8,4.3,48,5.4L48,5.4z M75.6,4.3c1.2,0,1.6,0.8,2.7,0.8
	c-0.3,0.5-0.7,0.9-1.1,1.4C75.8,6.7,75.9,5.3,75.6,4.3L75.6,4.3z M37.1,13.6c-1.2,0.5-2.7-0.9-4.1-1.1c-1.1-0.6-2.4-1.2-3.8-1.6
	c-0.1-1.5-0.7-2.5-0.5-4.3c0.5-0.6,1.6-0.5,2.2-1.1C33.9,7.2,35,10.9,37.1,13.6L37.1,13.6z M14.1,10.8c1.2,0.7,2.2,1.6,3.5,2.2
	c-0.2,0.6-0.2,1.4-0.5,1.9c-1.2-0.4-2.1-1.1-3.5-1.4C13.4,12.4,13.7,11.6,14.1,10.8z M3.8,15.4c1.3,0.9,2.4,2,3.8,2.7
	c-0.5,0.8-1.3,1.2-1.1,2.7c-1.8-0.5-3.1-1.4-4.1-2.7C2.7,17.1,3.1,16.2,3.8,15.4L3.8,15.4z M12.2,31.7c-0.5,0.9-1.6,1.1-1.4,2.7
	C9,33.7,7.1,33,6,31.4c0.3-1.5,0.9-2.5,2.2-3c0.8,0.2,1.1,1.1,1.6,1.6C10.8,30.4,11.2,31.4,12.2,31.7L12.2,31.7z M11.1,46.3h0.8
	c0.9,1.2,4.1,1.5,3,3.8c-1.8-0.2-2.6-1.4-4.1-1.9C10.7,47.4,11.3,47.3,11.1,46.3L11.1,46.3z M27.6,56.9c0.5,0,0.5,1.7,0,1.6
	C26.4,58.5,28,57.8,27.6,56.9z M32,63.7c0.3,0,0.5,0.1,0.5,0.3c9,2.6,15.4,7.8,23.6,11.1c3.7,2.1,9,2.5,12.7,4.6
	c6.1,1.5,11.9,4,19.8,3c0.9,2.5,0.5,6.4,1.3,8.9c0.6,2.8,1.4,5.3,2.7,7.3c1.8,4.9,5.1,8.3,5.4,14.6c-3.6,2.6-8.3,4.2-11.9,6.8
	c-1.8,1.3-3.6,2.5-5.4,3.8c-1.9,1.1-3.2,2.9-5.7,3.5c-0.4-1.5-1.1-2.7-1.9-3.8c-2.4-3.1-5.2-5.8-8.4-8.1c-0.6-1.2-1.4-2.1-2.2-3
	c-1.6-4.2-3.5-8.1-6.2-11.1c-2.3-1.1-4.5-2.3-6.8-3.5c-2.3-2.4-4.3-5.1-6.2-7.9c-2.1-2.6-3.6-5.8-5.7-8.4
	c-1.8-5.8-4.1-11.1-5.4-17.3C31.9,64.5,32,64,32,63.7L32,63.7z M50.9,92.1c-0.7-0.7-1.2-1.4-1.9-2.2c-1-1.1-2-2.3-3-3.5
	c-1-1.3-1.9-2.5-2.7-3.8c-1.4-1.5-2.4-3.4-3.5-5.2c-0.2-0.5-0.7-0.8-0.8-1.3c0-0.7-1-0.9-0.3-0.3c0,1.4,1,1.9,1.1,3.2
	c2,3.7,3.9,7.5,6.8,10.3c1,1.9,2.8,2.9,4.1,4.6c1.8,1.1,3,2.8,5.4,3.2C55,95,52.7,93.9,50.9,92.1L50.9,92.1z M78.3,93
	c-5.3-0.3-8,1.9-11.1,3.8c-0.9,1.1-1.6,2.4-2.7,3.2c-1,0.8-2.7,0.9-4.6,0.8c0.3,1.8,3.2,1.3,4.9,1.1c0.6-0.4,1.1-0.9,1.9-1.1
	c1.5-2.4,3.8-3.9,6.8-4.9c0.6,0.4,1.6,0.6,2.4,0.8H80c0.3-0.4,1.2-0.3,1.9-0.3c0.8-0.8,2.6-0.6,2.7-2.2C82.9,93.4,80,93.8,78.3,93
	L78.3,93z M137.7,81c0.7,0.4,0.9,1.2,1.4,1.9c-2.3,4.7-6,8.1-8.9,12.2c-4.4,3.4-8.5,7.1-12.7,10.6c-2.3,1.5-4.8,3-7.1,4.6
	c-1.9,1-3.5,2.3-5.2,3.5c-0.6,0.6-1.1,0.6-1.6,0c-0.8-1.8,1.9-2.4,2.7-3.5c3.7-2.9,8-5.2,11.7-8.1c4.7-4.1,9-8.6,13.8-12.5
	c1.9-2.7,3.9-5.3,6-7.9L137.7,81L137.7,81z"/>
<path class="st2" d="M150.1,96.2c-0.9,0.5-1.1,1.8-2.2,2.2c-0.7,0.7-2,0.9-2.7,1.6c-1.5,1.3-3.3,2.5-4.6,4.1c-3.1,2.6-6.4,5-9.2,7.9
	c-1.9,1-3,2.8-4.9,3.8c-1.3,1.5-3,2.6-4.3,4.1c-3.2,2.5-5.5,5.9-8.9,8.1c-1.4-2.1-3.2-3.8-4.3-6.2c-0.9-0.9-1.6-2-2.2-3.2
	c-0.8-0.9-1.6-1.8-1.9-3.2c6.4-4.3,13.4-8.1,19-13.3c2.9-2.5,6-4.9,8.7-7.6c1-1.7,2.6-2.9,3.8-4.3c1.3-1.3,2.1-3.1,3.5-4.3
	c-0.1-0.4,0.3-0.5,0.3-0.8c0.4-0.1,0.5,0.3,0.8,0.3c1.2,2.2,3.2,3.7,4.3,6c1.1,0.6,1.6,1.8,2.4,2.7
	C148.5,94.6,149.6,95.1,150.1,96.2L150.1,96.2z M116,121.7c0.1-4.9-2.2-7.3-6-8.4c-1,0.2-1.7,0.6-1.9,1.6c0,2,1.3,2.7,1.6,4.3
	c1.4,1.1,2.1,3,3.2,4.3C115,123.9,115.4,122.7,116,121.7L116,121.7z"/>
<path class="st1" d="M109.2,103.3c0.4,0.1,0.4,0.5,0.8,0.5c-0.1,0.9-1.1,0.9-1.6,1.4c-0.5,0.5-1.1,0.8-1.6,1.4
	c-1.2,0.7-2.3,1.5-3.2,2.4c-0.8-0.7,1-1.2,1.1-1.9c0.7-0.4,1.2-1,1.6-1.6c1.2-0.1,1.3-1.2,2.4-1.4
	C108.8,103.7,109.2,103.7,109.2,103.3L109.2,103.3z M109.8,115.5c2.2,0.3,3,2.1,3.5,4.1C111.7,118.6,110.6,117.2,109.8,115.5z"/>
<path class="st2" d="M100.6,116.3c0,1.5-1.5,1.6-1.9,2.7c-1.1,0.4-1.7,1.4-2.7,1.9c-1.7,1.3-3.3,2.7-5.2,3.8
	c-1.7,1.3-3.8,2.2-5.4,3.5c-1.7,1.3-4.1,1.9-5.7,3.2c1.9,0.6,3.9-1,5.4-1.6c1.6-0.9,3.2-1.9,4.9-2.7c3.1-1.9,5.8-4.1,8.7-6.2
	c1.3-0.7,1.7-2.2,3.2-2.7c1.4,2.6,3.4,4.5,4.9,7.1c-0.6,2.2-2.7,2.9-3.8,4.6c-3.9,2.1-6.6,5.5-10,8.1c-3,3.1-6.4,5.7-9.2,8.9
	c-3.1,1.6-5.5,3.7-8.7,5.1c-0.5-1.2-1.3-2.2-2.2-3.2c-2.3-2.8-5.1-5.7-6.8-9.5c0.7-0.1,1.2-0.4,1.6-0.8c0.3,1.9,1.5,3.1,2.4,4.3
	c0.8,1.4,2.2,2.4,3,3.8c1.1,0.3,1.4,1.4,3.2,1.1c0.6-0.1,0.6-0.8,1.1-1.1c-0.1-2.1-0.7-3.8-1.6-5.1c-0.7-0.9-1.5-1.7-2.4-2.4
	c-0.2-0.6-0.9-0.7-1.1-1.4c-0.4-0.4-1.4-0.2-1.3-1.1c1.6-0.8,3.2-1.5,4.3-2.7c-2-0.6-4,1.3-5.7,1.9c-1.6,0.6-3.4,3.2-5.2,1.9
	c0-1.6,2.1-1.2,2.7-2.2c1.4-0.2,2.2-1.1,3.5-1.4c2.1-1.2,4.2-2.2,5.7-4.1c3-0.8,5.3-2.6,7.6-4.3c0.2-0.2,0.6-0.1,0.8-0.3
	c0.4-0.3,0.7-0.8,1.1-1.1c0.4-0.3,1-0.3,1.3-0.5c3.4-2.1,6.7-4.4,10.6-6.2c0.6-0.1,0.5-0.9,1.4-0.8c0.1-0.4,0.5-0.4,0.5-0.8
	C100.2,115.9,100.2,116.3,100.6,116.3L100.6,116.3z"/>
<path class="st1" d="M73.2,128.7c-0.8,1.8-3.1,2.1-4.3,3.5c-1.7,0.9-2.8,2.2-4.9,2.7c2.8-2.2,5.6-4.4,8.4-6.5
	C72.8,128.4,72.8,128.7,73.2,128.7L73.2,128.7z M70.5,140.4c1-0.6,1.7,1.6,2.7,1.9c-0.1,0.7,0.4,0.9,0.8,1.1c-1.1,0.5-1.9-1.8-3-2.2
	C71,140.7,70.8,140.5,70.5,140.4z M51.8,33.1c0-1.6-1.1-2.2-3-1.9c-1.1-1.1-2.8-1.1-4.3-1.6c-1.4-0.5-2.8-1.1-4.1-1.6
	c-2.9-0.9-4.9-2.7-7.9-3.5c-2.5-1.4-5.3-2.3-7.9-3.5c-2.5-1.3-4.9-2.8-7.6-3.8c0.3-0.4,1-0.4,1.4-0.8c-0.2-2,1.4-2.1,1.6-3.5
	c0-1.1-1.4-0.9-1.9-1.6c-0.4-0.7-1.2-0.9-1.9-1.4c4-0.5,7.5,1.9,10.6,3.2c3.3,1.4,6.4,3,10,4.1c-0.3,0.8-1.4,0.8-1.9,1.4
	c-0.7,1.6-2.2,3.7-1.4,6c1.8-0.1,1.8-2,2.4-3.2c0.9-0.9,1.3-2.3,1.9-3.5c2.9,1.6,6.9,2.2,10.3,3.2c7.1,1.9,13.9,4.1,20.9,6.2
	c3.8,0.7,7.9,1.1,11.1,2.4c5.3-0.6,8.4-3.3,9.5-8.1c-0.6-1.4-2.1-1.9-2.4-3.5C85,16,83.4,13.5,79.7,13c-1.6-1.7-3.8-2.9-5.4-4.6
	c-0.5-1.6-1.6-2.7-1.6-4.9c0.7,0.8,0.8,1.8,1.3,2.7c0.8,1.2,2,2,3,3c1.6-0.5,2.3-1.8,3-3.2c2.5,0.3,4.3,1.5,7.3,1.3
	c1.3,0-0.3,0.6-0.3,1.1c-0.6,0.3-0.6,1-0.5,1.9c1.6,0.8,2.3-2.8,4.3-1.6c-0.4,1.2-2.1,1-2.2,2.4c1.2,0.8,2.7-0.6,3.5-1.1
	c4.6,4,7.6,9.6,10.6,15.2s5.6,11.5,9.2,16.5c1,2.6,1.5,6.3,1.6,8.9c-0.1,0.8,0.7,1.3,1.1,1.9c0.3,0.6,0.4,1.3,0.8,1.9
	c0.4,0.6,0.9,1,1.3,1.6c0.4,0.5,0.7,1.2,1.1,1.6c1.2,1.6,2.6,3,3.8,4.6c1.1,1.5,2.4,3.2,3.5,4.9c0.2,0.3,0.3,0.8,0.5,1.1
	c0.1,0.1,0.5,0.2,0.5,0.3c0.1,0.1-0.1,0.4,0,0.5c0.1,0.1,0.5,0.2,0.5,0.3c0.1,0.1-0.1,0.4,0,0.5c0.1,0.1,0.5,0.2,0.5,0.3
	c0.1,0.1-0.1,0.4,0,0.5c0.4,0.6,1,1.1,1.4,1.6c1,1.5,2,3.3,3.2,4.9c0.6,1.2,2.1,1.6,2.4,3c-1.7,1.7-3.1,3.7-4.6,5.7
	c-0.8,0.3-1.4,0.9-2.2,1.4c-1.6,1-2.3,2.8-4.1,3.5c-0.5,1.3-1.8,2.1-2.7,3c-2.6,2.6-5.3,5.4-8.1,8.1c-1.6-0.3-1.7-2.1-3.2-2.4
	c-0.8-1-1.7-1.9-2.7-2.7c-3.7-5.1-7.8-9.7-10.8-15.4c-0.9-0.1-1.1-0.9-1.6-1.4c-4.2-0.8-9.8-0.3-14.4-0.8c-0.2-0.6-1.3-0.2-1.3-0.8
	c-4.8-0.7-9.4-1.8-13.8-3c-2.2-0.6-4.5-1.1-6.5-1.9c-2-0.8-3.6-2-5.4-2.7c-6-5.1-14.4-7.8-22.5-10.8c-0.5-1.9,0.1-3.3,0-5.4
	c-0.8-0.6-1.6,0.4-1.9,1.1c-0.7-0.3,0.3-2.2-0.8-2.2c-1.8,0.2-1.2,2.8-2.2,3.8c-0.7,0.5-1.7-0.7-2.7-0.8C22,55.9,21,55.6,20.4,55
	c-1.7-0.8-3.3-1.8-4.6-3c0.3-1.5,1.1-2.5,1.9-3.5c-0.7-1-2.1-1.3-3-2.2c0.2-0.5,1.3,0.5,1.9,0.5c0.7,0.2,1.5,0.3,1.9,0.8
	c1.5,0.3,2.3,1.3,3.8,1.6c2.4,1.2,5.1,2.2,7.3,3.5c0.9,0,1.4,0.5,2.4,0.3c2.5,1.7,7,1.5,10,2.7c0,0.3,0.3,0.2,0.5,0.3
	c1.2,1.5,2.6,2.8,4.1,4.1c0.7-0.2,0.7-1.1,1.1-1.6c0.1-1-0.5-1.3-0.8-1.9c-3.3-3.2-8.8-4-13.5-5.7c-5.4-1-8.8-3.9-13.3-5.7
	c-3.5-2.9-6.8-6-10.6-8.7c0.5-0.8,1,0.6,1.9,0.3c0.7-0.3,0.6-1.4,0.8-2.2c0.8-0.6,1.1-1.7,2.2-1.9c-0.7-1.3-1.7-2.3-3-3
	c1.1-1,1.4,0.9,2.4,0.8c0.4,0.9,1.6,0.9,1.9,1.9c1.6,0.8,2.9,2,4.3,3c3.1,1.9,6.1,3.9,9.8,5.2c-0.6,1.3-0.9,3.1-1.1,4.9
	c-1-1,0.6-2.8-0.3-3.8c-1.8,0.2-1.3,2.7-1.4,4.6c0.3,0.5,1.6,0,1.1,1.3c2.6-0.5,2.6-3.8,2.7-6.8c4.3,1.4,7.8,3.6,12.7,4.3
	c1.2,0.9,2,2.2,3.5,2.7c1.8-1.4-1-3.5-2.2-4.3h-1.6c-2.6-1.4-5.6-2.3-8.7-3.2c-2.3-1.6-5.3-2.5-7.6-4.1c0.5-2,2-3,1.9-5.7
	c-2.2,0.5-2.7,2.6-3,4.9c-0.4-0.3-2-0.7-1.4-1.1c0.5-0.5,0.5-1.5,0.8-2.2c0.2-1.5,1.5-2.9,1.1-4.1c-1.5-0.1-1.5,1.4-2.4,1.9
	c-0.1,1.5-1.1,2-0.8,3.8c-5.6-3.8-11.5-7.3-17.1-11.1c0.2-0.7,0.8,0.4,1.6,0c1.2-1,0.4-4.1,1.6-5.1c-0.5-0.9-1.7-1.2-2.4-1.9
	c-0.5-0.2,0.3-0.4,0.3,0h1.1c0.6,0.1,1,0.4,1.9,0.3c2.3,1.5,4.8,2.8,7,4.3c2.7,1,4.6,2.8,7.9,3.2c3.6,1.9,7,3.6,10.6,5.4
	c3.5,1.8,7.4,3.1,11.9,3.8C48.5,33.8,50.8,33.8,51.8,33.1L51.8,33.1z M22,13c-0.1,0.9,0.5,1,0.3,1.9c-0.5-0.1-0.5,0.4-0.8,0.5
	c0.1,0.8-0.1,2.1,0.8,2.2c1.2-0.7,1.5-4.2,0.5-5.4C23,12.9,22.2,12.7,22,13z M38.2,19c-1,1.5-2.2,2.6-2.4,4.9
	c1.1,0.2,1.7-1.2,1.9-1.6c0-0.1,0.5-0.2,0.5-0.3c0.6-1.1,0.5-1.8,0.8-3C39,19,38.2,19,38.2,19z M61.8,30.9c1.2,1,2.6,1.8,4.1,2.4
	c1.3,0.6,3,2,4.6,1.4c-0.2-2.1-2.2-2.5-3.5-3.5c-1.9-0.5-2.9-1.8-5.2-1.9h-0.5C61,30.3,61.9,30.1,61.8,30.9L61.8,30.9z M29.5,36.6
	c2-0.1,1.6-2.7,2.2-4.3c-0.4,0-0.4-0.4-0.8-0.3C30.3,33.3,28.8,34.7,29.5,36.6z M26.6,47.7v-6.5c-0.4,0-0.4-0.3-0.8-0.3
	C24.4,42.3,23.9,47.4,26.6,47.7z M65.3,45.3c-2.3-1-4.7-2-7.3-2.7c-0.4,0-0.6,0.1-0.8,0.3v0.8c1,1.3,2.7,2,4.6,2.4
	c1.3,0.8,3.9,1.6,5.4,0.5C67.1,45.6,65.9,45.8,65.3,45.3L65.3,45.3z M55.3,55.6c0,0.4,0.1,0.6,0.3,0.8c2.4,0.5,5,3.2,7.6,1.9
	C61.5,56.5,58.1,55.2,55.3,55.6z M55.8,67.2c2.1,1.3,6.7,1.8,9.5,0.8c-0.2-1.7-2.5-1.3-4.3-1.4c-1.4-0.4-2.8-0.8-4.6-0.8h-0.5
	C55.8,65.9,55.8,67.2,55.8,67.2z M111.4,69.4c-0.3,0-0.4-0.3-0.8-0.3c-1,1.1-1.8,2.3-3,3.2c0.1,1.4-1.3,1.9-0.8,3
	C110,74.9,112.3,72.2,111.4,69.4L111.4,69.4z M96.8,77.5c-2.2-0.7-4.9-1.1-7.6-1.1c-0.8,0.1-0.9,0.9-1.9,0.8
	c-4.8-0.2-9.2-0.9-13.6-1.6c-0.4-0.4-1.4-0.2-2.2-0.3c-0.1-0.4-0.7-0.2-1.1-0.3c-0.1-0.8-1.1,0.3,0,0c6.5,3.3,16.6,2.9,25.5,3.8
	c1.8,0.9,3.9,1.5,6.2,1.9C101.3,78.8,98.9,78.1,96.8,77.5L96.8,77.5z"/>
<path class="st1" d="M91.3,82.9c0.6-0.5,1.8,0.8,2.7,0.8c2.7,2.6,3.9,6.6,6.2,9.5c1,1.6,2.2,3,3.5,4.3c1.2,1.2,2.9,2.2,3.5,4.1
	c-2.8,1.7-5.8,3.3-7.3,6.2c-0.7-0.7-0.7-2-1.1-3c-1.1-2.2-2.2-4.3-3.5-6.2c-0.6-3.3-1.7-6.1-2.7-8.9C92.7,87,92.1,84.9,91.3,82.9
	L91.3,82.9z"/>
<path class="st0" d="M129.5,51.6c-0.4,0-0.7-0.1-0.9-0.2c-0.2-0.2-0.4-0.3-0.5-0.5s-0.2-0.3-0.3-0.4c0-0.1-0.1-0.3-0.1-0.4
	c0-0.1,0-0.2,0-0.3c0-0.1,0.1-0.2,0.1-0.3c0.1-1,0.7-2.4,2-4.3c0-0.1,0.1-0.2,0.1-0.3l0.9-2.4c0.5-1.5,1.1-3.1,1.8-5
	c1-3,1.9-5.2,2.6-6.6c0.2-0.4,0.4-0.8,0.5-1s0.4-0.5,0.6-0.9c0.2-0.3,0.5-0.6,0.9-0.8c0.3-0.2,0.7-0.3,1.1-0.3
	c0.7,0,2.3,0.4,4.5,1.2c2.1,0.8,3.8,1.3,5.3,1.7l2.3,0.5c0.4,0.1,0.6,0.3,0.9,0.7c0.2,0.3,0.3,0.7,0.2,1.1c-0.1,0.4-0.3,0.7-0.7,0.9
	c-0.4,0.2-0.7,0.3-1.1,0.2l-2.3-0.5c-1.6-0.4-3.4-1-5.6-1.8c-1.5-0.6-2.6-0.9-3.3-1c-0.2,0.3-0.5,0.7-0.8,1.3
	c-0.6,1.4-1.5,3.5-2.5,6.3c-0.2,0.7-0.4,1.3-0.6,1.7c1.5-0.7,3-0.7,4.6,0.2c1.4,0.8,2.4,2,3,3.3c0.5,1.3,0.7,2.6,0.5,3.6
	c-0.2,1.3-1.3,2.5-3.3,3.6c-1.7,1-3.3,1.5-4.8,1.8c-1.5,0.2-2.8,0.2-3.8-0.1C130.3,52.1,129.8,51.8,129.5,51.6L129.5,51.6z
	 M132.5,46.4c-0.4,1-0.7,1.9-1,2.6c0.2,0.2,0.4,0.3,0.5,0.5c0.7,0.2,1.5,0.2,2.4,0c1.2-0.2,2.5-0.7,3.9-1.4c0.4-0.2,0.8-0.5,1.1-0.7
	s0.5-0.4,0.6-0.5c0.1-0.1,0.1-0.2,0.1-0.2c0.1-0.6-0.1-1.3-0.4-2.1c-0.3-0.8-0.9-1.4-1.7-1.9c-0.7-0.4-1.3-0.4-1.9-0.1
	c-0.4,0.2-0.9,0.7-1.5,1.3c-0.6,0.6-1.1,1.3-1.7,2.2C132.7,46.1,132.6,46.2,132.5,46.4L132.5,46.4z M144.3,66.1
	c0.2,0.6,0.1,1.1-0.3,1.5l-0.4,0.5c0,0-0.1,0.1-0.1,0.1s-0.2,0.2-0.4,0.3c-0.2,0.1-0.4,0.2-0.5,0.2c-0.2,0-0.4,0-0.6-0.1
	s-0.5-0.4-0.7-0.7c-0.3-0.5-0.4-0.9-0.4-1.2c0-0.3,0.2-0.8,0.5-1.2s0.5-0.7,0.5-0.8c0.7-1.5,1.8-4.2,3.5-8.2c0.4-0.8,0.7-1.7,1-2.4
	c-0.3-0.2-0.4-0.5-0.5-0.9s0-0.7,0.2-1l0.8-1.2c0.4-0.5,0.8-1,1.3-1.5c0.3-0.9,0.6-1.6,0.9-2.4l1.2-3.5c0.1-0.3,0.4-0.6,0.7-0.8
	c0.4-0.2,0.7-0.2,1.1-0.1s0.6,0.4,0.8,0.7c0.2,0.4,0.2,0.7,0.1,1.1l-0.7,2c0.7-0.3,1.6-0.7,2.5-1c1.2-0.4,2.4-0.6,3.4-0.4
	s2,0.7,2.8,1.6c1.4,1.7,1.5,4.4,0.2,8.2c-1.3,3.9-3.7,6.2-7.2,6.8c-3.5,0.7-5.8,0-6.9-2.1c-1.2,2.9-2.1,4.9-2.6,6.1
	C144.4,65.9,144.3,66,144.3,66.1L144.3,66.1z M148.6,56l0.9,2.3c0.4,0.9,1.7,1.1,3.9,0.7c2.4-0.5,4.1-2.1,5-4.9
	c0.5-1.5,0.8-2.7,0.8-3.6s-0.1-1.5-0.4-1.9c-0.7-0.8-1.7-0.9-3.1-0.4c-1.9,0.7-3.3,1.4-4.3,2.2c-0.3,0.2-0.5,0.4-0.8,0.6
	C150,52.5,149.3,54.1,148.6,56L148.6,56z M177.6,57.4c0,0.1-0.1,0.2-0.1,0.5l0.3,2.2c0,0.4-0.1,0.8-0.3,1.1
	c-0.2,0.3-0.6,0.5-0.9,0.6c-0.1,0-0.3,0-0.5,0c-0.6,1.8-1,3.6-1.3,5.6l-0.6,3.8c-0.1,0.4-0.3,0.7-0.6,0.9c-0.3,0.2-0.7,0.3-1.1,0.3
	s-0.7-0.3-0.9-0.6c-0.2-0.3-0.3-0.7-0.3-1.1l0.6-3.8c0.1-0.6,0.2-1.2,0.3-1.8c-0.8,0.7-1.6,1.4-2.6,2c-1.2,0.9-2.4,1.2-3.6,1.2
	s-2.2-0.7-3.1-1.8c-0.2-0.4-0.5-0.8-0.7-1.3c-1.3-3.2-0.1-6.3,3.8-9.5c1.9-1.5,3.4-2.6,4.7-3.2c1.3-0.6,2.5-0.7,3.5-0.3
	c1.5,0.7,2.5,1.9,3,3.9L177.6,57.4L177.6,57.4z M174.5,57.2c-0.2-1.3-0.6-2-1.3-2.3c-0.1,0-0.3,0-0.7,0.1c-0.4,0.1-1,0.4-1.9,0.9
	c-0.9,0.5-1.8,1.2-2.8,2c-2.7,2.2-3.7,4.3-2.9,6.1c0.1,0.3,0.2,0.5,0.4,0.8c0.2,0.4,0.5,0.7,0.9,0.7s1-0.2,1.8-0.8
	c2.2-1.5,3.9-3.2,5-5C173.6,58.6,174.2,57.8,174.5,57.2z M182.9,60.2c0-0.4,0.1-0.8,0.3-1.1c0.2-0.3,0.6-0.5,0.9-0.5l0.9-0.1
	c0.5-0.4,1-0.5,1.5-0.2c0.1,0,0.1,0,0.1,0c1.7-0.1,3.4,0.3,4.9,1.3c1,0.6,1.6,1.5,1.8,2.6c0.2,1.1,0.1,2.3-0.3,3.5
	c-0.4,1.1-1,2-1.8,2.6s-1.8,1-2.9,1.1c0.5,0.7,0.8,1.6,0.9,2.5c0.1,1,0,1.8-0.4,2.6s-1.1,1.3-2,1.7c-1.5,0.5-3.3,0.4-5.2-0.5
	c-0.2-0.1-0.6-0.2-1.1-0.5c-0.2,0.3-0.5,0.5-0.8,0.6c-0.4,0.1-0.7,0.1-1-0.1c-0.4-0.2-0.6-0.4-0.8-0.8c-0.1-0.4-0.1-0.8,0.1-1.1
	l0.2-0.2c-0.2-0.3-0.3-0.7-0.2-1s0.2-0.7,0.5-0.9c0.2-0.2,0.5-0.3,0.8-0.3c0.8-1.6,1.9-4.1,3.3-7.3l1.2-2.7
	C183.2,61.1,183,60.7,182.9,60.2L182.9,60.2z M181.7,72.8c0.3,0.2,0.6,0.3,1,0.5c1.2,0.5,2.3,0.7,3.1,0.4c0.3-0.1,0.5-0.2,0.5-0.3
	c0.1-0.1,0.1-0.4,0-0.8c-0.1-0.9-0.7-1.7-1.7-2.3c-0.6-0.2-1-0.6-1.3-1C182.7,70.5,182.2,71.8,181.7,72.8L181.7,72.8L181.7,72.8z
	 M184.5,66.5c0.2-0.1,0.4-0.1,0.7-0.1s0.5,0,0.7,0c0.2,0,0.4,0.1,0.7,0.1s0.5,0.1,0.6,0.1c0.9,0.1,1.6,0.1,2.1-0.2s0.8-0.8,1-1.5
	c0.3-0.9,0.4-1.5,0.3-1.9c-0.1-0.4-0.3-0.7-0.6-0.9c-0.9-0.6-2-0.9-3.1-0.8l-1.7,3.9C185,65.7,184.8,66.1,184.5,66.5L184.5,66.5z
	 M209.9,69.9c0.4,0.5,0.6,1.1,0.8,1.8c0.5,1.8,0.5,4-0.2,6.6c-0.7,2.6-1.7,4.6-3.1,5.9c-1.5,1.3-3.6,2-6.6,2c-2.9,0-5.2-0.8-6.8-2.5
	c-1.6-1.7-2.2-3.8-2-6.3c0.2-2.4,1-4.4,2.4-6.2c1.3-1.7,3-3.1,5.1-4.4c1.1-0.7,2.1-1.1,2.9-1.4c0.8-0.3,1.5-0.4,2.2-0.4
	c1.1,0.1,2.4,0.5,3.7,1.4l1.6,1.2c0.3,0.2,0.5,0.5,0.6,0.9s0,0.8-0.2,1.1C210.2,69.6,210,69.8,209.9,69.9L209.9,69.9z M200.4,69.5
	c-1.5,1-2.8,2.1-3.7,3.3c-1,1.3-1.6,2.9-1.8,4.7c-0.1,1.7,0.3,3,1.2,4.1c1,1.1,2.6,1.6,4.7,1.6c2.2,0,3.7-0.4,4.6-1.2
	c0.9-0.9,1.7-2.4,2.2-4.5c0.5-2.1,0.6-3.8,0.2-5.1c-0.3-1.1-0.9-1.8-1.9-2.1c-1.2-0.4-2.2-0.6-3-0.5l-1.5,0.1
	C201.1,69.9,200.8,69.8,200.4,69.5L200.4,69.5z M209.4,89c0.2-0.4,0.5-0.7,0.9-0.9c0.4-0.2,0.9-0.1,1.3,0.1c0.4,0.2,0.7,0.5,0.9,0.9
	l0.1,0.2c0.1,0.4,0.1,0.9-0.1,1.3c-0.2,0.4-0.5,0.7-0.9,0.8s-0.8,0.1-1.2-0.1c-0.4-0.2-0.7-0.5-0.9-0.9l-0.1-0.2
	C209.2,89.8,209.2,89.4,209.4,89z M222.7,61.2c0.4-0.2,0.9-0.2,1.3,0s0.7,0.5,0.9,0.9s0.2,0.8,0,1.3l-2.3,5.8
	c-1.6,3.9-3.3,7.7-5.2,11.2l-2.8,5.2c-0.2,0.4-0.5,0.7-1,0.8c-0.4,0.1-0.9,0.1-1.3-0.1c-0.4-0.2-0.7-0.6-0.8-1
	c-0.1-0.4-0.1-0.9,0.1-1.3l2.8-5.2c1.8-3.5,3.5-7.1,5-10.9l2.3-5.8C222,61.7,222.3,61.4,222.7,61.2z"/>
</svg>
