<svg xmlns="http://www.w3.org/2000/svg" viewBox="0 0 202.07 160">
    <path d="M111.59 149.45c1.26.37 2.93 1.05 4.08.77 1.51-2.06 1.74-5.1 2.36-8.07.62-2.99 1.3-6.15 1.91-8.95 3.97-.21 5.2-3.32 6.65-6.72.9-2.11 1.67-4.38 2.43-6.39.66 3.87 1.44 7.65 2.87 10.92.69.62 1.31 1.29 2 1.91.34.89 2.1.67 2.3 1.67-.39 5.07-.77 10.08-.34 14.43.15 1.45.5 2.85.61 4.25 1.12.56 3.52.92 4.42.25 1.43-1.97 1.42-5.78 2.39-8.34.5-3.27 1.11-6.38 2.18-8.92 10.04 1.46 19.52 3.38 29.46 4.91-.37 5.85-.62 11.59-.97 17.42 1.27 1.11 3.18 1.81 5.15 1.17 1.06-.98.99-2.54 1.32-4.02.96-4.44 1.94-9.61 3.04-13.83 1.86-1.33 3.61-2.79 5.26-4.38 2.63-3.82 4.24-8.93 5.13-14.97 1.46-3.1 2.55-6.66 3.48-10.44 2.21.06 4.08-.29 4.72-2.22.2-1.65-.34-2.72-1.25-3.49-.23-.9-1.23-1.27-1.48-1.57-.36-.44-1.13-.6-.97-1.23 1.09-3.88 1.47-8.3 1.79-12.59.29-3.9.59-7.77.83-11.59.36-5.81-.69-11.26-1.15-16-.86-2.14-.8-5-1.96-6.91-.48-2.44-2.08-4-2.88-6.19-3.64-5.09-9.09-8.76-15.58-11.61-2.6-.48-4.26-.78-6.86-.82.48-1.87-.19-2.83-.02-4.46-1.7-4.88-3.44-9.72-6.45-13.57-3.46-3.57-7.2-6.93-12.25-9.26-4.19-.27-10.73-1.65-15.4-1.57-1.96-.21-2.61-.63-4.39-.52-4.03.98-7.62 2.53-11.08 4.24-3.39 1.9-6.18 4.56-9.18 6.97-.99 1.58-2.05 3.09-3.06 4.64-.9-4.93-2.56-9.25-5.45-12.62-.48-.04-.68-.29-.76-.65-2.95-1.77-5.45-4.37-8.74-6.05-1.42-.73-3.26-1.39-4.5-1.93-.1-.04-.35-.55-.48-.62-.81-.38-2.03-.61-2.95-.91C85.04.72 82.39.31 78.83 0c-.35-.03-.42.31-.86.18-8.28-.1-15.29 1.41-20.64 5.04-1.22 1.09-2.67 1.79-3.96 2.86-3.88 3.23-5.97 7.85-7.78 13.82-4.36-.49-7.69.34-11.23.88-3.56.64-6.79 1.69-9.58 3.31-3.9 3.57-7.28 7.81-10.15 12.7-1.7 2.06-2.48 5.27-4.21 7.29-1.14 2.87-2.63 5.29-3.52 8.48-.36 8.66-4.18 15.38-3.37 23.53-1.77 1-3.96 2.86-3.47 5.71.58 1.28 2.92 1.18 3.92 2.14-.63.68-.45 2.38-.7 3.53.83 2.8-.02 4.64-.44 8.3.46 2.87.55 6.03 1.49 8.52-.02 1.68 1.01 2.52 1.49 3.8.05 1.62.85 2.65 1.49 3.8.79.87 2.82.77 3.4 1.8.15 4.6-.23 9.63.89 13.47.24 1.38.05 3.11 1.53 3.52.72.69 2.06.05 3.05.09 2.49-3.89 2.67-10.72 4.61-15.31 8.59.42 17.43 2 26.06 3.12-.08 4.87-.18 9.75.25 14.22.36 1.38-.18 3.45 1.19 4.04.29.75 1.67.26 2.19.26.87-.49 1.33.45 1.98-.32 1.47-2.28 1.67-5.44 2.39-8.34.72-2.92 1.7-5.72 2.39-8.34 1.21-.15 1.85-1.02 2.94-1.32.88-1.41 2.06-2.44 2.72-4.13.63-.46.73-1.6 1.36-2.06.23-.97.32-2.12 1.12-2.37.47 4.68 2.4 8.22 4.76 11.42.78.54 2.03.73 2.92 1.19-.74 2.62-.44 5.77-.5 8.84-.06 3.11-.44 6.37.63 8.7 1.49.69 2.84.95 4.39.53 3.14-3.17 2.84-10.72 4.4-15.89 9.64 2.11 19.29 4.22 29.95 5.53-.18 5.7-1.62 12.38-.36 16.93Z" style="fill:#391616"/>
    <path d="m76.41 3.89 2.47.3c-.22 1.09.31 1.58-.05 2.78-.92-.33-1.1.28-1.95.05-.2-1.01-.65-1.81-.46-3.12ZM75.01 4c.84.36.3 2.75.19 3.08-.91-.6-2.23-.49-3.29-.39-.13-.73-.09-1.59-.59-2.02.73-.87 2.8-.03 3.7-.67ZM80.5 4.65c.46.06.91.11 1.37.17-.19.91-.36 1.86-.84 2.4-.91-.27-.4-1.67-.53-2.57Z" style="fill:#fff"/>
    <path d="m83.24 4.98 3.02.36c2.57 1.21 5.94 1.79 8.24 3.21.1.87-.81.44-.71 1.31-.89.39-2.27-.6-3.23-.94-2.6-.28-4.59-1.03-7.38-1.16-.43-.58.02-1.84.05-2.78Z" style="fill:#f6a320"/>
    <path d="M142.46 12.35c.89 0 .42 2.9.19 3.08-1.13.31.05-1.2-.69-1.2.3-.81-.38-.86-.08-1.68.31.08.5 0 .58-.21Z" style="fill:#fff"/>
    <path d="M144.66 12.61c1.19.14 2.38.28 3.57.43 3.83 1.46 7.11 3.36 10.82 4.92 1.56 1.75 3.01 3.6 4.35 5.53-.58.63-1.69.59-2.12 1.42-2.69-3.27-6.03-6.03-10.46-7.93-2.63 0-4.02-.99-6.25-1.31-.24-.81-.08-1.93.09-3.05ZM140.2 12.63c-.34 1.18.28 1.6-.06 2.78-3.62.35-7.19.76-10.24 1.83.08-.98-.26-1.61-.56-2.29 1.42-.93 3.17-1.51 4.96-1.91 1.74-.39 3.78-.58 5.89-.41Z" style="fill:#f6a320"/>
    <path d="M69.67 4.47c-.03 1.02.49 1.6.53 2.57-.97-.08-1.32.64-2.29.56-.09-1-.51-1.76-1.11-2.36.59-.72 1.78-.68 2.88-.77Z" style="fill:#fff"/>
    <path d="M65.94 5.42c-.24 1.35.73 1.75.77 2.88-1.54.26-2.61 1.11-3.83 1.77-.59-1.03-1.01-2.19-1.25-3.49 1.8.08 2.48-1.27 4.31-1.16Z" style="fill:#f6a320"/>
    <path d="M96.9 9.4c.37.63-.53 1.67-1.33 1.79.02-.27-.31-.25-.52-.34.57-.54.66-1.69 1.84-1.45Z" style="fill:#fff"/>
    <path d="M106.76 20.04c-.6.71-1.63.88-2.63 1.07-1.31-3.69-2.86-7.2-6.42-9.11-.03-.88.83-.64.99-1.27 4.2 1.92 6.72 5.15 8.07 9.31ZM60.15 7.23c.96.74.77 2.38 1.56 3.25-.43.93-1.68.82-2.15 1.69-.86-.73-1.16-1.9-1.9-2.73.68-.92 1.8-1.29 2.49-2.21Z" style="fill:#f6a320"/>
    <path d="M101.53 28.88c-1.07.43-1.31-.62-1.79-1.33.16-1.2-.48-1.77-.8-2.6-.01-.57-.68-.63-.69-1.2-2.89-3.7-6.06-7.16-11.46-8.89-6.33-1.18-11.01-1.09-15.35.39-2.37.81-4.61 1.59-6.7 2.54-1.12.58-2.01 1.44-2.8 2.45.11.62.97-.41 1.2-.69.71.05 1.02-.39 1.47-.66 1.08-.42 2.06-.96 3.22-1.29 2.01-.93 4.57-1.15 6.64-1.99 4.83-.46 10.68.3 15.05 2.08 1.3.97 2.37 2.12 3.82 2.96 1.02 1.19 1.88 2.5 3.21 3.44.09 2.33 1.53 3.6 2.12 5.54-2.64.54-4.93 1.53-7.25 2.47-4.61 3.3-8.91 6.99-12.28 11.89-1.54 1.15-2.04 2.91-3.09 4.92-1.68 3.2-3.57 7.94-5.04 11.92-.71-6.9-1.05-14.09-3.5-19.62-2.05-5.85-4.57-11.32-8.72-15.51-2.3-.43-3.19-1.97-5.26-2.58.89-2.55 2.68-3.97 4.05-5.92 1.81-1.39 3.23-3.26 5.49-4.07 3.59-2.82 8.94-3.39 14.62-3.54 3.63.62 7.24.33 10.46.97 4.27.85 7.48 3.02 10.27 4.85.35.71.84 1.33 1.45 1.84 1.4 3.05 2.58 7.58 1.67 11.61Z" style="fill:#e41b1b"/>
    <path d="M127.64 15.3c.3.92.83 1.67.77 2.87-1.28-.05-1.7 1-2.91 1.04-.48-.7-.82-1.51-1.42-2.11.85-1.03 2.51-1.03 3.55-1.8Z" style="fill:#fff"/>
    <path d="M163.88 38c-.04 1-1.28.49-1.78.9-.71.04-1.31.23-1.75.62-1.33.2-2.41.73-3.49 1.25-2.37.79-4.04 2.45-6.01 3.73-2.33 3.25-5.43 5.52-7.73 8.82-2.16 3.47-4.18 7.12-5.56 11.58-.7-2.85-.72-6.23-1.11-9.32-.66-4.87-3.34-8.14-4.93-12.28-1.51-1.55-2.49-3.51-4.14-4.95-1.26-1.66-3.48-2.57-4.79-4.19 2.11-3.74 5.42-5.97 8.52-8.44 4.03-1.19 8.48-1.86 14.29-.8 1.61.16 2.82 1.33 4.36.8-.41-2.41-3.9-2.4-6.6-3.02-2.69-.16-5.11.04-7.54.21-2.21.46-4.14 1.27-6.09 2.05-2.97 2.64-6.41 4.7-8.52 8.44-1.85-.86-3.41-1.96-5.53-2.61.52-.81.82-1.9 1.42-2.61.54-.79 1.59-.93 1.91-2 1.69-.79 2.65-2.53 4.54-3.08 2.68-2.49 6.66-3.32 10.05-4.92 2.08-.2 4.18-.37 6.2-.65 3.36.59 6.7 1.19 10.39 1.52 3.67 1.09 5.87 3.33 8.25 5.44.08.86.97 1.59 1.38 2.39.3.58.77 1.64 1.11 2.36 1.18 2.48 2.62 5.48 3.13 8.72Z" style="fill:#e41b1b"/>
    <path d="M122.34 17.73c.34.98 1.16 1.58 1.35 2.67-4.02 2.38-7.5 5.43-9.82 9.96-.52-.5-1.8-.41-2.4-.84.93-3.14 2.83-5.04 4.97-6.64 1.69-2.06 3.76-3.64 5.9-5.14ZM56.43 10.4c.78.63 1.06 1.65 1.66 2.43-.21 1.2-1.29 1.31-1.67 2.3-.75-.73-1-1.86-1.93-2.46.51-.94 1.37-1.41 1.94-2.27Z" style="fill:#f6a320"/>
    <path d="M164.81 25.59c-.32 1.07-1.52 1.02-2.39 1.38.35-.95 1.64-1.95 2.39-1.38Z" style="fill:#fff"/>
    <path d="M53.2 14.19c.94.42.91 1.6 2 1.91-.21.89-.95 1.11-1.33 1.79-1.03-.19-1.23-1.02-2.06-1.36.29-1 .96-1.51 1.39-2.34Z" style="fill:#f6a320"/>
    <path d="M165.95 27.68c.72 1.34 2.11 2.15 2.32 3.89-1.58-.22-2.19.8-3.7.67-.26-1.12-.73-2.08-1.32-2.94.59-.94 1.89-.96 2.7-1.62ZM107.05 22.3c.01 2.23.75 3.88.34 6.44-.82-.1-1.65-.2-2.47-.29-.21-1.65-.12-3.55-.51-5.07.57-.75 1.44-1.12 2.63-1.07Z" style="fill:#fff"/>
    <path d="M50.82 17.8c.58.46.95 1.08 1.48 1.57-.44 1.12-1.12 1.95-1.49 3.16-.85-.16-2.04-.06-2.44-.57.48-1.82 1.54-2.9 2.44-4.16ZM168.55 33.83c.07 1.35-.2 2.98.67 3.7-.39.67-1.54.36-2.54.25-.13-1.3-.71-2.26-.67-3.7 1.13.28 1.31-.66 2.54-.25ZM57.01 28.84c-.33 1.05-1.25 1.36-1.67 2.31-3-2.93-10.42-3.94-15.41-3.79.19-.98-.7-1.11-.59-2.02 3.28-.68 7.11-.64 11.41-.03 2.67.72 4.38 2.19 6.26 3.53ZM115.92 34.21l-.33 2.74c-.81.33-2.14-.7-3.23-.94-4.05-.62-7.85-.92-10.83-.18-1.11-.62-1.48-1.82-1.87-3.01 4.68-.95 11.11.16 16.25 1.39Z" style="fill:#f6a320"/>
    <path d="M173.25 41.07c.1.42-.49 1.38.11 1.4-.56.35-1.37.37-2.26.29.3-.81-.38-.86-.08-1.68 1.01.33 1.35-.18 2.23-.01ZM175.17 41.3c.55.06 1.1.13 1.65.2-.14.77.01 1.91-.78 1.86-1.15 0-.57-1.37-.87-2.05Z" style="fill:#fff"/>
    <path d="M195.31 103.26c-.68-.3-.95-.91-.59-2.02 0-.96.29-1.53.54-2.16.2-1.65.39-3.29.59-4.94-.36-16.37 1.59-34.55-6.92-44.51-2-.92-3.35-2.34-5.47-3.16-.68-.7-1.55-1.27-2.58-1.7-.27-.95-2.61-.27-2.3-1.67l.06-.55c.02-.39.05-.78.37-.79 3.72.47 5.47 2.49 8.18 3.76 1.86 2.1 3.84 4.1 5.65 6.24.9 1.78 1.74 3.6 2.7 5.33 3.19 12.4 3.51 27.07.85 44.07-.29.79.26 2.65-1.09 2.1Z" style="fill:#f6a320"/>
    <path d="M117.77 34.99c1.46.84 2.6 1.93 3.82 2.96-.53.7-1.19 1.23-1.64 2.03-1.16-.33-1.56-1.26-2.58-1.7l.39-3.29ZM168.8 41.1c1.21-.43.85 1.62.35 1.71-1.21.43-.85-1.62-.35-1.71Z" style="fill:#fff"/>
    <path d="M166.84 41.14c-.07.55-.13 1.1-.2 1.64-.05.89-1.06.55-1.5.93-.54.16-1.06.34-1.71.35-.71.89-2.23.75-2.97 1.59-2.01 1.02-3.94 2.16-5.46 3.8-3.5 2.61-6.47 5.89-8.96 9.78-.66-.31-.99-.88-1.82-1.05 3.59-10.72 12.29-14.92 22.63-17.05Z" style="fill:#f6a320"/>
    <path d="M37.05 25.89c.33.49.06 1.44.63 1.75-.51.61-1.29.89-2.33.84.25-1.19-.62-1.51-.53-2.57.88.17 1.22-.35 2.23-.01ZM97.95 33.18c.64.82.49 2.26 1.32 2.94-.53.48-1.36.58-2.29.56-.33-.9-.75-1.73-1.38-2.39.42-.83 1.7-.57 2.36-1.11ZM32.77 26.77c.07.86.41 1.5.56 2.29-.39 1.08-1.45 1.32-2.43 1.66-.23-1.22-1.09-1.96-1.29-3.22 1.08-.21 1.69-1.01 3.15-.73ZM57.95 30.34c1.96 1.11 3.05 2.9 3.86 4.91-.29 1.11-1.84.61-2.39 1.38-.57-1.62-1.66-2.84-2.56-4.2.15-.96.93-1.13 1.09-2.09Z" style="fill:#fff"/>
    <path d="M95.2 37.58c-4.09 1.33-6.99 4.18-9.76 7.18-.72-.43-1.3-.97-2.37-1.12 1.49-1.79 2.92-3.66 4.77-4.99 1.48-1.69 3.68-2.48 5.46-3.8.27.03.55.06.82.1-.03 1.18 1.05 1.49 1.08 2.63Z" style="fill:#f6a320"/>
    <path d="M122.59 38.91c.72.35 1.07.98 1.79 1.33-.63.99-1.62 1.52-2.73 1.9-1.2-1.26.65-2 .94-3.23Z" style="fill:#fff"/>
    <path d="M29.1 31.89c-1.54 1.62-3.63 2.55-5.22 4.11-4.35 5.9-7.69 13.44-10.4 21.85-.88 2.72-1.85 5.54-2.39 8.34-.55 2.85-.5 5.51-1.77 7.86.08 1.16-.59 1.36-.57 2.44.12 1.1-1.47.03-1.74.62-1.07.09-.2-1.34-.32-1.98-.09-.68-.24-1.3-.01-2.23 1.46-5.95 1.99-12.06 4.02-17.33 1.97-5.12 3.66-10.18 7.16-13.34 1.8-5.61 5.2-9.19 8.74-12.59.14-.35.54-.37.65-.76.96.35.95 2.32 1.87 3Z" style="fill:#f6a320"/>
    <path d="M58.87 94.73c-1.17-.49-2.3-1-3.44-1.52-4.27-.7-7.73-2.04-11.6-3.06-11.96-2.5-22.58-1.6-32.01.07-.36-.8-.11-2.07-.19-3.08.49-1.59 3.32-.21 3.59-2.08.36-3.35-1.7-4.79-3.39-6.53.77-6.8 2.38-13.42 4.01-19.55 1.4-5.27 2.78-9.39 5-13.87.17-.34.53-.73.68-1.03 1.72-3.38 4.46-6.37 7.42-8.57 5.18-1.73 9.26-4.87 16.12-4.47 4.32.42 7.19 1.97 10.16 3.44.08.35.28.61.76.65.63.66.66 1.8 1.69 2.15 1.32 3.93 3 7.58 2.95 12.6.71 4.42.7 9.39.49 14.53-.34 8.84-.69 20.5-2.24 30.34ZM36.55 34.74c-3.44 1.32-6.19 3.51-9.02 5.6-.98 1.7-2.42 2.82-3.09 4.92-.74.53-.76 1.98-1.43 2.61.3 1.45-1.13 2.34-.64 2.98.93-1.77 2.47-2.76 3.09-4.92 1.11-1.64 2.21-3.29 3.37-4.88 1.67-.94 2.91-2.41 4.57-3.35 1.71-1.19 4.21-1.39 5.88-2.64-.85.27-1.39-.34-2.74-.33Zm19.03 8.4c1.18 3.74 2.35 7.89 2.67 12.56.33 4.71-.01 9.72.79 14.29.32-.96.26-2.63.77-4.08-.03-8.84.12-17.82-3.86-23.56-.27-.03-.55-.07-.82-.1-.07.47.13.73.45.89ZM173.73 46.42c-3.54.87-7.35 1.4-10.13 3.24-1.67 1.56-3.53 2.89-5.49 4.07-3.74 4.2-7.44 8.45-8.83 15.64 1.19-.17 1.15-1.91 1.97-2.55.51-.93 1.19-1.65 1.46-2.89 1.19-1.76 2.4-3.48 3.43-5.43 2.56-3.27 5.41-6.18 8.8-8.41 2.57-.62 5.27-1.09 7.74-1.86 3.46.61 5.87-.12 9.39.57 2.95 1.9 5.31 4.27 7.54 6.74 4.1 12.88 5.13 29.39 1.86 47.25-.76.4-2.03.16-2.6.8-.65 1.07-1.31 2.13-1.32 4.02-.27 1.79 1.7 1.81 1.83 3.28-.32 1.8-1.1 3.02-1.17 5.15-13.75-5.17-34.89-11.1-51.86-8.43-.41-3.05.93-6.62 1.91-8.95.48-1.54-.23-2.14-.15-3.36 1.77-12.4 5.04-22.88 9.15-32.3 2.3-4.45 5.5-7.75 8.82-10.91 3.61-2.78 7.55-5.15 12.68-5.99.43.13.5-.2.86-.18 1.37.16 2.74.33 4.11.49Zm11.08 14.4c2.67 7.1 4.12 15.15 3.11 25.14 1.11.14.47-1.93 1.12-2.37.18-1.55.37-3.11.56-4.66-.04-5.43-.91-10.22-2.13-14.73-.62-.42-.38-1.53-.87-2.05.07-.89-1.32-1.37-.59-2.02-.35-.06-.34-.4-.79-.37-.13.36-.45.48-.4 1.07Zm-42.47 31.65c.82.2.68-.83.99-1.27-.03-.88.61-.91.5-1.89.2-1.44.75-2.42.77-4.08.79-2.47 1.6-4.92 2.05-7.82-.03-.22-.19-.35-.51-.34-2.11 3.87-3.95 9.7-3.79 15.41ZM125 100.13c-.43 2.09-1.06 3.93-1.55 5.94-6.09-1.76-11.76-3.84-18.29-5.25-6.08-1.37-13.22-3.32-20.14-3.8-3.14-.22-6.17.36-8.88-.23-1.25.3-2.49.63-3.73.95-.71-1.14.63-2.35.46-3.84.09-1.68 1.99-1.05 1.77-3.13.5-1.96-.87-2.46-.91-4.01 1.73-12.65 4.95-23.41 8.98-33.15 2.25-2.93 4.37-6.03 7.12-8.33 1.23-1.38 2.91-2.2 4.3-3.38.9-.33 1.73-.75 2.39-1.38.75-.42 1.88-.35 2.36-1.11 4.36.4 9.68-.8 14.15.3 1.68.41 2.97 1.44 4.5 1.93 2.64 2.48 4.49 5.58 7.1 8.08 1.05 2.44 1.85 4.73 2.71 7.56.4 1.29.89 2.92 1.4 4.62.49 9.22-.49 19.61-1.96 30.38-.39 1.2-2.06.76-2.46 1.93-.79.57-1.12 1.74-1.22 3.19-.11.83.08 1.43.63 1.74.04.63 1.51.14 1.27.99Zm-17.79-58.34c-.64-.08-1.28-.15-1.92-.23-1.18.39-2.82.2-3.73.95-1.37.27-2.42.92-4.01.91-3.51 2.6-6.47 5.89-9.93 8.55-.68 1.35-1.49 2.53-2.38 3.61-.49 2.44-1.63 4.04-2.4 6.11-1.07 3.49-1.95 7.22-2.72 11.08.24 1.55-.19 3.63-.38 5.52 1.16.32.32-1.91 1.09-2.1.18-1.03.48-1.92.88-2.68 1.22-6.03 2.74-11.69 5.02-16.37 1.26-3.45 3.47-5.71 5.68-7.95 2.17-2.3 4.59-4.27 7.61-5.49 2.6-.39 5.07-.93 7.91-1 .54-.92-.91-.27-.73-.92Zm13.59 16.65c1.5 6.52 2.78 13.22 1.55 21.89.15.71.18 1.51-.02 2.5.66.31-.57 2.11.59 2.02.93-2.2 1.46-5.89 1.6-8.72.35-6.94-1.25-13.32-3.11-18.18-.35-.06-.34-.4-.79-.37-.06.38.06.62.18.86Z" style="fill:#e41b1b"/>
    <path d="M130.07 92.67c-1.66.03.15-1.56-.22-2.81 1.63-10.66 2.25-22.42.69-31.36-1.27-2.56-2.18-5.41-3.2-8.17-1-2.69-2.67-4.86-4.46-6.93.63-.78 1.65-1.06 2.42-1.66.18.02.37.05.55.07 1.29 2.06 2.61 4.05 3.7 6.28 1.08 2.21 1.95 4.58 2.78 7.01 2.71 8.99.81 21.69-.68 33.59-.07.55-.08 1.91-.33 2.74-.16.53.06 1.87-1.26 1.24Z" style="fill:#f6a320"/>
    <path d="M63.48 39.91c-1.3-.4-1.5.62-2.81.22-.14-.8-.75-1.23-.56-2.29.92 0 1.45-.48 2.05-.87 1.12.44 1.19 1.71 1.32 2.94ZM63.65 40.76c.84.25.87 1.14.87 2.05-.92.2-1.72.55-2.84.49.17-.8-.52-.92-.35-1.71.91-.11 1.69-.38 2.33-.84ZM82.11 44.64c1.03.19 1.04 1.17 2.06 1.36-.17.83-.74 1.16-1.05 1.82-.93-.26-1.37-.9-2.37-1.12.35-.82 1.07-1.17 1.36-2.06Z" style="fill:#fff"/>
    <path d="M66.76 63.67c-1.28-.36-1.92.08-3.05-.09.02-6.56-.4-12.77-1.71-18.29.42-.83 1.87-.36 2.36-1.11.45-.02.44.32.79.37.72 6.22 1.62 12.31 1.61 19.11Z" style="fill:#f6a320"/>
    <path d="M79.77 47.97c.82.43 1.34 1.1 2.34 1.39-.11 1.23-.88 1.62-1.15 2.64-.89-.62-1.72-1.3-2.55-1.97.45-.7.91-1.37 1.36-2.07ZM143.19 59.74c.92.11.83 1.01 1.82 1.05-.75 2.53-1.86 4.6-2.53 7.21-1.08-.39-1.32-1.45-2.27-1.94.88-2.25 2.03-4.16 2.98-6.32Z" style="fill:#fff"/>
    <path d="M77.32 52.14c1.02.36 1.65 1.02 2.61 1.42-3.97 9.17-6.76 19.85-8.54 31.81-1.02-.27-1.63-.87-2.95-.91 1.83-12.21 4.78-23 8.88-32.33ZM139.16 67.88c1.34.35 1.81 1.4 2.51 2.25-.46 1.32-.77 2.82-1.32 4.02-1.11-.04-1.46-.67-2.71-.6l.33-2.74c1.28.15 1.39 1.23 2.92 1.18.59-2.29-2.19-1.92-1.74-4.1Z" style="fill:#f6a320"/>
    <path d="M66.25 65.56c.04-.27.36-.17.58-.21-.04.26-.36.17-.58.21ZM137.14 75.43l2.74.33c.09 1.06-.49 1.27-.54 2.16l-2.74-.33c-.09-1.06.49-1.27.54-2.16Z" style="fill:#fff"/>
    <path d="m63.59 66.91 3.29.39c.1 5.86-.19 11.37-.66 17.17-1.56-.19-2.55.33-3.46.98.23-6.14 1.27-12.93.83-18.54Z" style="fill:#f6a320"/>
    <path d="M136.37 79.51c.35.47 1.38.41 2.16.54l-.3 2.47c-.72-.04-1.73-1.1-2.16-.54-.63-.51.12-1.93.3-2.47Z" style="fill:#fff"/>
    <path d="M135.37 83.29c.79.29 1.1.96 2.4.84-.82 3.07-1.12 6.8-2 9.78-.55-.23-.7-.77-1.58-.74.39-3.29.79-6.58 1.18-9.88Z" style="fill:#f6a320"/>
    <path d="M70.28 87.74c-.09.99.24 1.64.25 2.54-2.1.18-4.72-.32-7.17-.58.14-.98.62-1.53.84-2.4 1.4-.57 4.46-.23 6.07.45ZM11.48 83.77c-2.49.66-5.69.29-8.26-.71.43-1.24 1.23-2.02 2.01-2.82 1.44.15 2.52-.16 4.15.22 1.17.74 2.12 1.64 2.11 3.32ZM134.93 98.54c-2.57.33-5.21-.91-8.78-1.05.23-1.5 1.77-1.32 2.49-2.21 1.36.26 2-.41 3.36-.16 1.69.58 2.16 2.11 2.93 3.41ZM199.32 109.3c-3.24.17-6.55-.94-9.54-1.7.45-.9.86-1.86 1.67-2.3 2.5.11 4.05.95 6.55 1.06.6.85 1.83 1.21 1.32 2.94Z" style="fill:#fff"/>
    <path d="M61.97 92.04c.96 0 1.52.29 2.16.54-.15 1.81-.84 2.93-.87 4.9-.83-.17-1.16-.74-1.82-1.05.18-1.46.35-2.93.53-4.39ZM69.86 93.54c.63 1.34-.74 2.85-.56 4.66-1.27-.24-2.34 1.43-2.91 1.05.05-2.25.83-3.58.96-5.73.76-.08 2.14.61 2.5.02ZM134.12 107.63c-.55.35-1.57.11-2.02.59-.15-1.46.73-4.33.79-6.58 3.36-.99 1.07 3.73 1.23 5.99ZM128.23 101.08c.18.02.37.04.55.07.95-.17.32.91.38 1.44.1.86-.4.97-.47 1.61-.15 1.28-.31 2.56-.46 3.84-.86.1-.75-.57-1.61-.47.33-2.42 1.25-4.1 1.61-6.48ZM5.84 86.71l2.74.33c-.34 1.43-.08 2.38-.15 3.6-.88-.06-1.28.48-2.26.28-.01-1.48-.36-2.7-.33-4.21Z" style="fill:#f6a320"/>
    <path d="M56.66 117.84c-1.91.41-3.59.39-5.58.17-5.42-.62-11.87-1.67-17.77-2.68-.22-.04-.31.26-.58.21-6.76-1.22-15.77-1.83-22.67-3.55 2.58-.68 6.04-.11 9.7.33 9.73 1.17 20.81 2.85 29.87 3.85-.86-.98-2.73-1.17-4.57-1.38-1.18-.64-3.26-.59-4.9-.87-10.03-1.8-21.23-2.69-31.18-4.56-1.05-4.23-2.64-8.03-2.6-13.11 7.71-.35 16.63-1.59 25.63-.27 9.04 1.32 18.11 3.05 26.38 5.1.38-1.38-1.32-1.11-1.72-1.88-6.99-2.68-15.64-3.86-24.19-4.84-8.56-.98-16.85-.36-23.92-.08 2.79-1.41 6.82-1.23 10.48-1.53 3.58-.4 7.08-.9 11.2-.61.43.13.5-.2.86-.18 11.04.93 20.93 2.76 28.44 6.46 1.31 1.79 2.78 3.45 2.88 6.19-.65 6.03-3.11 9.74-5.76 13.23Z" style="fill:#e41b1b"/>
    <path d="M192.4 111.26c.31.42 1.16.42 1.89.51-.51 2.19-1.21 4.15-1.85 6.18-.77-.14-1.09-.64-1.86-.78.71-1.84 1.3-3.82 1.82-5.91Z" style="fill:#f6a320"/>
    <path d="M126.43 111.44c.49 1.43.17 3.51-.11 5.55-.82 2.23-1.43 4.71-2.47 6.66-.38 2.68-2.02 3.75-3.16 5.46-12.14 1.67-26.13-2.62-38.65-4.9-.64-.08-1.28-.15-1.92-.23-.85-.42.77-.22 1.13-.14 10.05 1.38 19.94 4.2 30.05 4.71-2.57-1.39-5.71-2.07-8.86-2.73-9.15-1.92-20.06-3.47-29.37-5.74-1.76-4.77-5.18-9.47-3.34-16.26 8.78.65 18.26.79 27.23 2.7 9.07 1.32 16.4 4 25.22 5.52-.28-1.53-2.57-1.46-3.92-2.14-13.29-4.45-31.82-7.54-47.26-7.32 1.42-3.58 7.07-1.76 10.85-2.32 16.24 1.64 29.94 5.28 43.13 9.33.16.86.91 1.27 1.45 1.84ZM176.12 135.74c-.85-.99-3.03-.93-4.57-1.38-11.61-2.08-23.24-3.06-35.29-5.06-.76-4.37-3.4-7.26-2.33-13.08.83-.84 1.43-1.97 2.28-2.79 11.83.63 26.46 1.56 38.1 4.84 4.05 1.14 7.79 2.42 11.6 3.06-2.55-2.14-6.92-2.84-10.64-4.06-3.5-1.3-7.97-1.85-11.91-2.82-9.26-1.46-17.54-1.66-26.16-2.3 1.31-1.61 4.13-1.28 6.33-1.75 2.18-.39 4.69-.35 7.02-.55 11.06.87 21.21 3.93 30.36 6.69 2.94.89 6.14 1.2 7.9 3.73.62 5.03-.86 11.94-2.73 15.81-1.56 1.07-3.29 1.93-5.06 2.74-13.32-1.54-25.21-4.21-37.94-6.21-.5.02-.53-.33-.24-.31 10.18 1.11 20.02 2.48 29.87 3.85 1.09-.2 2.82.43 3.39-.43Z" style="fill:#e41b1b"/>
    <path d="M7.98 94.48c-.13-.16.24-.33.31-.24.12.16-.24.33-.31.24ZM74.95 123.09c.04-.26.36-.17.58-.21.27.03.55.07.82.1.46.05.91.11 1.37.16-.46.58-1.92-.13-2.78-.05ZM49.76 122.02c1.19.94 2.81.1 4.39.53-.85 3.55-1.91 6.84-2.89 10.23-.29-.36-.93-.43-1.61-.47-.58-2.94.09-6.86.12-10.28ZM17.87 118.76c-.72 2.45-1.59 4.72-2.26 7.24-.55-.07-1.1-.13-1.65-.2-.55-2.13-.39-4.82-.52-7.3 1.58.21 3.16.44 4.42.25ZM74.67 127.78c1.65.2 3.29.4 4.94.59-.86 3.44-1.7 6.89-2.62 10.26-.73-.09-1.46-.17-2.19-.26.04-3.59-.05-7.08-.12-10.59ZM138.7 136.83c1.19.14 2.38.28 3.57.43-.15 2.44-1.03 3.96-1.31 6.25-.42.73-.53 1.86-.63 2.98-.19 1.02-1.11 1.12-2.09 1.14.14-3.59.05-6.99.46-10.8ZM117.51 134.86c-.34 2.1-.82 4.01-1.51 5.66.06 1.33-.64 1.71-.64 2.98.03 1.3-.83 1.48-2.08 1.14.52-3.56.44-6.64.63-9.94 1.34.23 2.13-.23 3.6.15ZM176.6 143.32c1.02.36 2.16.62 3.54.7-.69 1.55-.85 3.77-1.48 5.39-.08.64-.15 1.28-.23 1.92-.65.43-.01 2.51-1.12 2.37-1.53.29-.23-1.64-.87-2.05.08-.64.15-1.28.23-1.92-.19-1.76.14-3.92-.17-5.58.03-.28.07-.55.1-.82ZM14.19 128.62c.27.03.55.06.82.1-.31.45-.17 1.47-.99 1.28.05-.46.11-.91.16-1.37ZM49.62 134.8c.65 0 1.05.17 1.34.44-.37.37-.38 1.2-1.23.97.19-.65-.43-.66-.11-1.41ZM113.36 146.32c.46.05.92.11 1.37.16-.13.78-.5 1.26-1.5.93.04-.37.09-.73.13-1.1ZM139.69 149.47c-.03 1.13-.61 1.53-1.81 1.17-.12-1.31.66-1.48 1.81-1.17ZM176.56 155.28c.27.03.55.07.82.1-.22.46.14 1.65-.47 1.62-1.02.14-.25-1.13-.35-1.71Z" style="fill:#fff"/>
</svg>
