<svg xmlns="http://www.w3.org/2000/svg" viewBox="0 0 62.62 80.24">
    <path d="M33.5 46.58c2.58.33 8.44-4.28 11.64-6.2a135.3 135.3 0 0 0 5.45-3.42c1.82-1.21 4.97-3.79 5.95-2.67 1.11 1.26-2.63 3.37-4.36 4.62L41 47.17c-3.55 2.76-4.92 2.65-4.12 5.37 2.17.62 4.03-1.02 6-2.11l11.49-6.26c1.47-.8 4.53-3.17 5.83-2.35 1.72 1.55-1.62 2.77-4.5 4.38l-12.36 7.09c-2.7 1.5-6.23 2.83-4.75 4.68.86 1.07 2.63.05 4.39-.61 1.65-.62 3.08-1.15 4.71-1.77 1.53-.58 2.93-1.09 4.48-1.65 1.99-.72 3.19-1.74 4.5-.44-.25 1.75-1.79 1.81-4.87 3.15l-11.68 5.02c-5.09 2.25-6.35 5.95-15.74 9.52-3.16 1.2-3.15.69-5.58 2.59-1.55 1.21-3.13 2.88-4.66 3.77L2.89 63.31c1.31-1.54 5.55-2.9 7.59-6.08 1.83-2.85 1.01-11.46 8.5-19.49 1.23-1.32 2.11-2.3 3.14-3.66 1.95-2.57 1.75-3.28 2.52-4.37 6.49 4.49-3.41 8.76-1.32 15.61 2.22.67 4.2-1.27 6.95-3.45 2.07-1.64 4.1-3.01 6.25-4.65l9.38-7c1.26-.93 2-2.02 3.82-2.14.57 2.25 1.41 1.29-3.16 4.85l-10.67 8.44c-1.85 1.44-4.43 2.6-2.4 5.2Zm-9.38-22.94c-1.2-2.18 6.91-16.03 8.08-20.14.74-2.61-2.26-5.29-4.02-1.88-1.69 3.27-11.45 24.79-13 25.63-.73-.6-.32-.04-.8-1-.16-.33-.25-.69-.34-1.04-.76-3.05-.07-5.62-.29-7.92-.29-3.07-3.3-4.81-6.45-4.11.15 2.63.84 2.45.15 5.9C6 26.31 4.63 27.32 5.88 35.45c1.21 7.92 3.64 7.67-.27 14.91-.8 1.48-1.8 2.5-2.33 3.87l5.17 2.21c-1.7 3.01-6.84 4.76-8.46 6.2.63 1.29 2.42 3.23 3.46 4.57l10.59 13.05c10.09-8.76 5.05-4.37 14.18-8.66 3.05-1.44 6.31-3.52 8.74-5.59.56-.48.9-.95 1.38-1.34 1.55-1.26 17.93-7.38 19.32-8.65 2.11-1.92.84-6.47-4.22-4.56-2.19.83-6.14 2.58-8.1 2.86 1.67-.56 11.39-6.61 14.34-8.22 1.49-.81 3.57-1.7 2.73-4.41-1.74-5.59-11.55 2.99-19.54 6.49 1.47-.98 3.08-2.38 4.73-3.6 1.62-1.2 3.08-2.29 4.7-3.48 1.51-1.12 3.11-2.28 4.75-3.44 1.88-1.33 2.51-4.16.01-5.33-2.09-.98-4.07.89-5.55 1.84l-15.13 9.36c3.64-3.51 10.31-8 14.34-11.52 2.84-2.48.52-8.63-4.64-4.29-1.22 1.03-2.13 1.71-3.44 2.44.63-.68 1.06-1.47 1.81-2.35 1.87-2.17 5.8-5.9 4.59-7.91-1.99-3.32-5.53 2.54-7.79 4.69-1.35 1.29-1.91 2.34-3.42 3.75-1.12 1.05-1.86 2.97-3.54 3.23.25-1.35 9.12-14.86 10.98-17.62.99-1.47 3.69-4.53 1.93-6.21-2.48-2.37-4.26 1.81-5.1 3.04l-7.67 11.44c-.7 1.03-1.26 1.8-1.94 2.82-1.71 2.61-1.01 1.94-2.36 2.19.11-1.95 7.07-15.19 8.85-18.89.69-1.43 3.36-5.42.32-6.08-2.36-.52-3.46 2.83-4.5 4.63-1.07 1.86-2.29 3.86-3.42 5.8-1.17 2.01-2.16 3.81-3.39 5.81-1.57 2.55-2.29 4.93-3.91 5.14Z"/>
</svg>
