<svg xmlns="http://www.w3.org/2000/svg" viewBox="0 0 129.41 173.53">
    <path d="M120.96 45.05c-.28.21-.56.43-.9.69-.71-.62-1.42-1.24-2.53-.98.24.43.47.85.74 1.35-.84.33-1.52-.01-2.16-.24-1.45-.51-2.81-1.2-3.54-2.67-.19-.39-.49-.81-.47-1.2.12-1.99.02-4.04 1.33-5.77.35-.47 1.07-.79.83-1.61-.03-.09.38-.41.61-.45.56-.09 1.14-.07 1.77-.1.96.62 1.22 1.46.75 2.57-.16.39-.15.84-.25 1.41-.33.12-.77.19-1.11.41-.27.18-.54.5-.62.81-.12.47.22.81.62 1.04.75.43 1.54.48 2.25-.04.64-.47 1.21-1.02 1.81-1.54.05-.05.09-.11.13-.17.49-.69.33-4.11-.23-4.76-.28-.33-.6-.62-.89-.95-1.12-1.27-1.93-1.56-3.42-.96-1.87.75-3.82 1.39-5.23 2.96-.09.1-.25.14-.42.24-.79.12-1.48-.38-2.23-.6-.97-.29-1.93-.61-2.89-.94-3.88-1.32-7.84-1.17-11.81-.53-2.21.36-4.42.78-6.63 1.13-3.24.52-6.48.54-9.7-.25-.28-.07-.58-.19-.85-.15-1.73.27-3.44-.08-5.15-.06-2.64.02-5.15-.47-7.55-1.62-.84-.4-1.76-.68-2.68-.83-1.69-.27-3.13-1.03-4.54-1.94a7.48 7.48 0 0 0-1.73-.84c-2.28-.77-4.43-1.78-6.39-3.18-2.06-1.47-4.09-2.99-6.12-4.49-1.81-1.33-3.69-2.54-5.74-3.49-2.4-1.11-4.96-1.56-7.54-1.94-.93-.13-1.86-.23-2.71-.34-.21-.27-.41-.42-.46-.61-.54-2.04-1.99-3.5-3.31-5.02-1.04-1.21-1.93-1.33-3.49-.71-.27.11-.53.27-.8.32-.79.15-1.29.58-1.54 1.35-.09.27-.19.57-.38.77-1.57 1.66-.64 3.22.21 4.74.44.78 1.39 1.04 2.29.8.59-.16.91-.88.56-1.38-.28-.4-.66-.74-.98-1.08.18-.48.48-.89.46-1.28-.04-1.16.6-1.7 1.73-2.06.34.19.75.46 1.19.67.61.31 1.15.58.52 1.38-.12.15.07.55.12.83.07.36.18.7.23 1.06.22 1.44-1.15 5.1-2.21 5.88-.89.65-1.85 1.06-3.01 1.05-1.69-.02-1.74.02-3.54-.68-.13-.83 1.05-.43 1.06-1.12-.86-.56-1.74-.56-2.57-.07-.39-.53-.75-1.03-1.11-1.52.35.05.79.25 1.01.11.95-.62 1.66-1.45 1.99-2.83-.51.12-.9.09-1.12.28-.8.68-1.58 1.41-1.83 2.51-.35-.08-.69-.17-1.04-.25-.28-2.01 1.11-3.12 2.34-4.31.46-.45 1.04-.78 1.52-1.22.17-.15.2-.45.35-.83-.61.03-1.02.04-1.43.06 0-.14-.04-.33.03-.4.73-.78 1.49-1.55 2.18-2.25-.2-.65-.51-.65-.86-.42-.89.6-1.76 1.21-2.81 1.94 1.18-3.59 5.28-6.93 9.14-7.39-.52.34-.75.62-1.04.67-1.47.29-2.36 1.28-3.15 2.49.17.16.29.37.46.42.18.05.49.04.61-.08.94-.95 2.16-1.39 3.34-1.92.91-.41 1.81-.82 2.92-1.32.18-.28-.24-.56-.82-.99.65-.11 1-.27 1.29-.2 1.61.38 3.21.76 4.77 1.42 3.93 1.66 7.92 3.18 11.9 4.73 2.7 1.05 5.4 2.08 8.12 3.06 2.31.83 4.66 1.58 6.98 2.39 2.93 1.02 5.86 2.07 8.79 3.12 3.84 1.37 7.78 2.22 11.83 2.63 2.37.25 4.73.59 7.1.91 3.58.49 7.15 1.08 10.74 1.49 4.96.58 9.93 1.04 14.89 1.54 1.15.11 2.31.26 3.46.25 1.7-.01 3.28.52 4.89.89.19.04.36.22.66.42-.28.32-.52.6-.77.88.03.13.02.33.11.38.74.49 1.25 1.16 1.74 1.9.76 1.13 1.76 2.09 2.19 3.42.04.12.2.24.32.27.19.05.41.05.6 0 .09-.03.22-.24.2-.33-.29-1.1-.35-2.29-1.37-3.09-.34-.27-.53-.73-.97-1.37 3.2 1.96 5.05 6.02 4.98 10.68-.59-.58-.86-1.19-1.21-1.76-.35-.56-.32-1.43-1.36-1.64-.26 1.36.57 2.4.74 3.56-.04.06-.1.18-.11.17-.37-.18-.73-.37-1.26-.64-.06.34-.19.61-.12.81.15.48.34.97.62 1.38.63.94.71 2.05.95 3.08.15.64-.2 1.39-.33 2.14-.74-.02-1.37-.04-2-.07.43-.29.9-.6.78-1.17-.14-.69-.37-1.37-.64-2.02-.09-.21-.44-.47-.64-.45-.47.06-.39.48-.35.83.1 1 .22 1.98.91 2.79Zm-5.22-.33c-.01-.13.02-.36-.04-.39a8.99 8.99 0 0 0-1.16-.45c-.06-.02-.19.13-.25.23-.03.04 0 .14.04.2.32.52.68.67 1.25.52.06-.02.11-.07.17-.11ZM17.79 20.68c-.42-.1-.8-.23-1.2-.27-.12-.01-.3.22-.39.38-.03.06.09.26.18.31.54.28 1.03.32 1.4-.43Z" style="fill:#d2c38c"/>
    <path d="M28.72 144.89c-1.04 1.51-1.53 3.21-1.55 5.08 0 .64-.17 1.28-.33 1.9-.26 1.05-.58 2.09-.89 3.24-.45-.02-.87.01-1.26-.07-1.48-.34-2.96-.71-4.43-1.08-.35-.09-.73-.15-1.02-.34-.57-.36-1-.82-.86-1.6.2-1.13.55-2.26.26-3.43-.03-.11.03-.3.11-.38.94-.86.94-2.09 1.2-3.19 4.18-17.39 8.36-34.78 12.49-52.18.65-2.76 1.51-5.44 2.41-8.11.46-1.37.88-2.76 1.24-4.16.55-2.18 1.01-4.38 1.54-6.56.26-1.05.51-2.12.93-3.11 1.07-2.49 1.58-5.11 2.08-7.74.38-1.98.73-3.98 1.1-6 1.44-.24 2.64.38 3.89.63 1.19.24 2.39.49 3.53.92.01.33.07.55.02.74-1.12 4.35-2.32 8.67-3.38 13.04-3.89 16.05-7.72 32.11-11.61 48.16-.36 1.47-.9 2.9-1.36 4.34-.46 1.45-.99 2.88-1.37 4.35-.93 3.58-1.78 7.17-2.66 10.76-.16.63-.29 1.27-.41 1.91-.27 1.46-.26 1.46.34 2.91ZM69 63.48c2.58.44 4.93 1.04 7.29 1.72.24.85-.17 1.49-.36 2.16-.62 2.16-1.27 4.3-1.88 6.46-.51 1.81-.91 3.64-1 5.54-.04.86-.27 1.71-.47 2.56-.39 1.69-.83 3.38-1.24 5.06-.62 2.53-1.21 5.06-1.5 7.67-.2 1.86-.61 3.71-1.04 5.54-3.23 13.6-6.5 27.18-9.75 40.78-.25 1.05-.52 2.11-.71 3.18-.25 1.44-.69 2.81-1.34 4.11-1.05 2.11-1.35 4.42-1.85 6.68-.24 1.06-.11 1.18.93 2.45q-1.12.97-2.26 3.95c-2.03.83-3.83-.57-5.76-.61-.32-2.28-.08-4.3.39-6.34 1.64-7.13 3.17-14.28 4.74-21.42.12-.57.24-1.14.27-1.72.12-2.62.75-5.15 1.36-7.69 3.7-15.42 7.4-30.84 11.07-46.27.92-3.87 1.73-7.77 2.6-11.66.14-.63.3-1.26.52-2.16Z" style="fill:#d8d6b9"/>
    <path d="M33.08 54.96c2.39.24 5.9 1.13 7.36 1.82.1.82-.32 1.53-.53 2.28-.56 1.95-1.21 3.87-1.69 5.84-.47 1.91-1.08 3.75-1.89 5.53-.39.85-.68 1.75-.92 2.66-.46 1.68-.87 3.37-1.27 5.06-.61 2.53-1.22 5.06-2.21 7.49-.52 1.27-.88 2.61-1.2 3.94-3.24 13.45-6.46 26.9-9.68 40.35-.49 2.04-.96 4.09-1.37 6.15-.21 1.06-.28 2.15-.42 3.22-.11.86-.2 1.73-.38 2.57-.08.41-.25.91-.55 1.14-.76.58-1 1.4-1.2 2.24-.34 1.41-.62 2.83-.95 4.24-.14.61-.35 1.21-.57 1.95-1.54-.32-2.93-.61-4.39-1.12.07-1.15.13-2.28.21-3.59 1.01-.52 1.24-1.65 1.49-2.79 1.46-6.8 2.95-13.59 4.39-20.39 1.3-6.16 2.39-12.38 4.15-18.43.71-2.43 1.6-4.8 2.4-7.2.18-.55.35-1.1.48-1.67 1.28-5.35 2.59-10.7 3.79-16.07.44-1.97.61-4 .92-6.01.15-1 .29-2.01.51-2.99.9-4.03 1.83-8.05 2.73-12.08.3-1.34.51-2.69.78-4.14ZM62.81 158.98c-.52 1.19-.95 2.17-1.43 3.29-1.48.04-2.87-.53-4.29-.88-.32-.81.01-1.46.21-2.15.42-1.46.82-2.93 1.12-4.41.13-.61.18-1.35-.04-1.9-.3-.76-.15-1.42.04-2.11.11-.42.27-.83.47-1.21 1.05-2.01 1.57-4.2 2.09-6.38 3.58-14.85 7.15-29.7 10.71-44.55.2-.84.41-1.7.47-2.56.22-2.98.9-5.86 1.59-8.75.43-1.83.82-3.67 1.22-5.51.09-.42.2-.86.2-1.28-.01-3.22.9-6.29 1.46-9.42.32-1.77.66-3.55 1-5.38 1.34-.27 2.47.33 3.64.56 1.19.23 2.37.57 3.68.9-.06.53-.07.95-.17 1.33-1.12 4.34-2.3 8.68-3.38 13.03-.67 2.67-1.52 5.28-2.46 7.87-.35.95-.63 1.93-.87 2.91-1.28 5.2-2.54 10.41-3.78 15.62-.23.98-.32 1.99-.46 2.99-.08.57-.11 1.15-.22 1.72-.99 5.41-2.16 10.78-3.64 16.09-2.53 9.07-4.86 18.18-7.27 27.28-.28 1.04-.72 2.11.1 2.91Z" style="fill:#dbd0a8"/>
    <path d="M86.82 67.76c1.2 0 2.18.29 3.13.58.98.3 2.01-.49 3.04.29-.26 1.61-.54 3.24-1.24 4.75-.79 1.71-1.52 3.44-1.87 5.3-.11.57-.28 1.13-.51 1.66-1.19 2.66-1.87 5.48-2.5 8.3-.93 4.17-2.01 8.3-3.58 12.29-.29.74-.45 1.53-.64 2.3-2.64 10.98-5.21 21.98-7.94 32.94-1.84 7.38-3.39 14.82-4.93 22.26-.26 1.28-.57 2.54-.89 3.81-.21.8-.64 1.11-1.42.95-1.2-.24-2.39-.56-3.43-.81-.51-.65-.32-1.16-.03-1.55.53-.73.71-1.55.9-2.41 2.19-10.19 4.36-20.39 6.63-30.56.52-2.32 1.37-4.57 2.07-6.85.38-1.24.82-2.48 1.12-3.74 1.89-7.88 3.73-15.78 5.64-23.66.44-1.82 1.08-3.6 1.63-5.4.38-1.25.84-2.47 1.12-3.74 1.16-5.23 2.27-10.47 3.41-15.7.06-.28.16-.55.3-.99ZM9.25 149.2c-1.42-.33-2.61-.58-3.79-.9-.88-.24-1.1-.69-.87-1.65.68-2.74 1.26-5.52 2.1-8.21 2.14-6.93 3.62-14.03 5.33-21.06 2.36-9.72 4.69-19.44 6.98-29.17.46-1.97.68-3.99 1.02-5.99.26-1.5.49-3 .81-4.48.45-2.05.96-4.09 1.47-6.13s1-4.08 1.08-6.2c.02-.51.11-1.01.21-1.51.48-2.34.87-4.68.98-7.09.06-1.48.46-2.99 1.1-4.36 1.2-.19 1.78.98 2.81 1.12.93.13 1.83.42 2.85.67-.04.5 0 .93-.11 1.31-1.37 5.33-2.78 10.65-4.14 15.99-.3 1.19-.52 2.41-.63 3.64-.23 2.32-.74 4.57-1.29 6.83-1.8 7.39-3.6 14.78-5.36 22.18-.37 1.55-.57 3.13-.85 4.7-.28 1.57-.45 3.16-.84 4.7-1.52 5.97-3.12 11.91-4.68 17.87-1.03 3.92-2.03 7.86-3.04 11.79-.14.56-.23 1.14-.43 1.68-.37.97-.58 1.93-.39 2.97.06.32-.14.69-.29 1.31Z" style="fill:#d8d6b9"/>
    <path d="M62.64 62.62c1.62.31 3.08.58 4.57.86 0 .29.02.51-.03.7-1.06 4.14-2.17 8.26-3.18 12.41-3.9 16.12-7.77 32.24-11.62 48.36-.35 1.47-.52 2.99-.79 4.48-.32 1.78-.64 3.56-.98 5.33-.19.98-.64 1.92-.27 2.97.1.3-.07.7-.16 1.05-1.5 5.67-3 11.34-4.5 17-.27 1.03-.37 2.12-1.27 2.89-.19.17-.24.51-.4.9-.69-.13-1.39-.26-2.07-.38-.14-.25-.2-.47-.34-.61-1.19-1.18-1.08-2.55-.67-4.02.67-2.37 1.3-4.75 1.89-7.14.53-2.1 1.04-4.2 1.14-6.39.06-1.22.38-2.43.66-3.63 1.36-5.7 2.61-11.44 4.16-17.09 3.15-11.45 5.79-23.03 8.55-34.58 1.45-6.05 2.66-12.16 3.98-18.25.35-1.62.9-3.18 1.32-4.89ZM50.84 59.55l4.31 1.23c-.03 1.62-.42 3.17-.8 4.68-1.51 5.97-3.24 11.88-4.67 17.86-3.33 13.94-6.53 27.92-9.79 41.88-.51 2.19-1.04 4.37-1.57 6.55-.29 1.19-.54 2.38-1.21 3.46-.37.6-.49 1.36-.67 2.06-1.54 5.81-3.07 11.62-4.6 17.43-.14.55-.32 1.09-.5 1.75-1.22.01-2.29-.3-3.4-.77.07-1.71.56-3.3.95-4.91.07-.27.33-.52.34-.79.09-3.3 1.35-6.35 2.06-9.52.08-.35.26-.73.19-1.06-.26-1.28.19-2.43.52-3.61.21-.77.41-1.54.57-2.32.69-3.34 1.62-6.6 2.92-9.76.27-.67.42-1.38.59-2.09 4.41-18.45 8.83-36.9 13.22-55.36.44-1.83.76-3.69 1.16-5.53.09-.41.26-.8.4-1.19Z" style="fill:#dbd0a8"/>
    <path d="M37.69 157.8c-1.1-.26-2.08-.5-3.2-.77.04-.45.05-.93.14-1.39.48-2.49 1-4.97 1.46-7.46.31-1.7.55-3.42.83-5.13.07-.43.13-.88.32-1.26 1.43-3.04 2-6.33 2.82-9.55 2.53-9.96 5.08-19.92 7.5-29.91 2.54-10.48 4.97-20.99 7.4-31.5.64-2.75.96-5.56 1.84-8.26.13-.4.28-.8.43-1.26 1.26-.2 2.32.14 3.42.71-.03 1.64-.43 3.18-.81 4.69-2.01 8-4.23 15.95-6.16 23.97-2.86 11.89-5.53 23.83-8.29 35.75-.65 2.82-1.38 5.62-2.02 8.45-.73 3.24-1.41 6.5-1.8 9.81-.09.78-.28 1.58-.6 2.3-1.23 2.8-1.93 5.76-2.71 8.7-.18.69-.39 1.37-.59 2.09Z" style="fill:#d8d6b9"/>
    <path d="M2.89 149.13c.62.8 1.45 1.14 2.37 1.34 1.26.27 2.56.48 3.56 1.47.23.23.66.27 1.01.36.63.17 1.26.33 1.9.46 2.22.43 4.21 1.38 6.11 2.59.41.26.92.41 1.4.54 1.05.28 2.1.56 3.17.75 1.46.26 2.71.96 4 1.62.7.36 1.4.77 2.15.96 5.63 1.36 11.27 2.67 16.9 4.01.8.19 1.56.15 2.35-.03.54-.12 1.14-.12 1.69-.01 1.62.31 3.2.98 4.89.47 2.07.24 4.17.14 6.19.83 1.02.35 2.06.48 3.19.29.87-.15 1.84.23 2.76.41.92.18 1.85.56 2.76-.3.28.94 0 1.59-.45 2.13-.43.52-1.07.73-1.75.74h-5.82c-.79 0-1.58.03-2.37 0-2.01-.07-4.03-.14-6.04-.25-.57-.03-1.15-.15-1.71-.27-1.41-.31-2.82-.66-4.23-.97-.91-.2-1.8-.51-2.77-.35-.4.07-.84-.13-1.26-.23-.91-.22-1.78-.51-2.77-.3-.53.11-1.14-.09-1.7-.22-2.68-.63-5.35-1.28-8.03-1.92-.14-.03-.29-.05-.42-.11-.92-.4-1.81-.86-2.74-1.21-.93-.36-1.99-.26-2.85-.94-.37-.29-.94-.35-1.43-.47-1.47-.38-2.95-.74-4.43-1.1-.98-.24-1.9-.61-2.83-1.04-1.56-.73-3.2-1.3-4.74-2.11-2.42-1.26-4.88-2.45-7.28-3.75-1.4-.76-1.52-1.46-.78-3.37Z" style="fill:#d7a663"/>
    <path d="M109.02 36.82c.19 1.53-.67 2.33-1.73 3.07-1.15-.8-1.12-2.24-1.81-3.57-.64 1.13-.42 2.02-.51 2.92-.48-.11-.9-.19-1.3-.32-2.58-.81-5.22-.94-7.91-.83-1.3.05-2.57.01-3.85.35-1.11.29-2.17.54-3.18 1.19-.97.63-2.23.48-3.38.3-.71-.11-1.41-.35-2.12-.49-.56-.12-1.15-.32-1.7-.26-1.41.17-2.73-.2-4.07-.51-2.04-.48-4.15-.77-6.13-1.45-2.41-.83-4.87-1.38-7.33-1.96-3.87-.92-7.77-1.75-11.65-2.61-1.07-.23-2.06-.62-3.04-1.12-.88-.45-1.9-.7-2.88-.9-1.16-.24-2.19-.74-3.16-1.37-.34-.22-.64-.57-.84-.92-.91-1.65-2.48-2.61-3.94-3.62-1.16-.81-2.64-1.15-3.86-1.9-1.66-1.02-3.5-1.32-5.33-1.74-.28-.07-.56-.13-.97-.23.31-.82.61-1.58 1.01-2.62-.51.15-.82.14-.95.29-.66.77-1.35 1.5-2.47 1.92-.67-1.15-1.01-2.29-.19-3.6.42.04.86.03 1.27.13 2.04.49 4.12.89 6.1 1.55 1.49.5 2.94 1.24 4.27 2.09 1.95 1.24 3.78 2.67 5.65 4.04 2.39 1.75 4.7 3.63 7.43 4.85.92.42 1.87.77 2.81 1.16.73.3 1.46.54 2.06 1.14.43.43 1.12.66 1.74.81 5.56 1.35 11.12 2.67 16.69 3.99.49.11 1.07.3 1.49.14 1.31-.51 2.58-.12 3.85.02 2.17.24 4.34.22 6.49-.1 2.5-.38 4.99-.85 7.49-1.25 1.36-.22 2.72-.42 4.09-.55 2.03-.2 4.04-.11 6.03.41 1.4.37 2.82.64 4.23 1 .55.14 1.07.38 1.6.56Z" style="fill:#e6c976"/>
    <path d="M23.47 48.64c.17-1.29.33-1.47 1.18-1.28.49.11 1.08.15 1.44.45 1.39 1.15 3.18 1.36 4.7 2.19.75.41 1.63.59 2.47.79 8.73 2.09 17.47 4.15 26.2 6.24 8.59 2.06 17.17 4.15 25.75 6.25 3.04.74 6.09 1.16 9.22.99.63-.04 1.29.17 1.92.31.44.1.64.55.56 1.03-.07.4-.31.63-.73.66-.07 0-.14.01-.22.01-2.65-.14-5.31 0-7.95-.67-5.82-1.49-11.67-2.87-17.52-4.26-.98-.23-2-.28-3-.39-.72-.08-1.44-.11-2.16-.23a81.24 81.24 0 0 1-11.6-2.78c-.41-.13-.85-.22-1.23-.43-1.86-1.05-3.93-1.45-5.97-1.93-5.35-1.27-10.71-2.53-16.07-3.79-.91-.21-1.82-.4-2.6-1.01-.38-.3-.93-.38-1.39-.58-1.05-.46-2.14-.86-3.02-1.57Z" style="fill:#d7b162"/>
    <path d="M97.95 59.74c.19.94.1 1.52-.35 1.93-.44.41-1.03.51-1.63.39-2.06-.42-4.17-.17-6.24-.44-.86-.11-1.73-.16-2.57-.36-17.67-4.23-35.33-8.48-53-12.71-2.13-.51-4.01-1.62-6.03-2.39-.67-.25-1.3-.6-1.97-.84-1.61-.57-1.8-.96-1.25-2.73.13-.02.34-.09.38-.04.61.76 1.27 1.32 2.37 1.19.47-.06 1 .17 1.46.36 1.72.72 3.46 1.42 5.13 2.25.98.49 1.96.9 3.03 1.14 1.34.3 2.66.61 3.85 1.39.58.38 1.35.49 2.05.66 3.45.84 6.9 1.65 10.34 2.5.69.17 1.37.43 2.02.74 1.64.78 3.27 1.5 5.16 1.49.85 0 1.7.34 2.54.53 1.9.43 3.77 1.01 5.76.98.49 0 .99.2 1.48.32 2.75.66 5.49 1.31 8.24 1.98.92.22 1.82.33 2.78.31.92-.03 1.86.19 2.77.4 1.35.31 2.67.62 4.07.42.42-.06.86.08 1.29.11.71.06 1.43.08 2.14.16 1.07.11 2.23.05 3.19.46 1.03.44 1.89.47 2.97-.19Z" style="fill:#d7a663"/>
    <path d="M38.98 39.04c0-.14-.05-.33.02-.42 1.59-1.96 3.17-3.88 6.07-3.85 1.1.01 1.89.35 2.24 1.29.57 1.53 1.18 3.04 1.09 4.79-.07 1.41-.22 2.84-.07 4.29.11 1.09-.33 2.24-.56 3.49-1.51-.16-2.87-.5-4.27-1.01-.13-.93.17-1.76.36-2.58.2-.87.18-1.71-.08-2.56-.3-.96-.57-1.94-.9-2.89-.3-.86-.77-1.12-1.66-.99-.76.12-1.52.26-2.29.39l.03.04ZM87.18 51.04c-.6-.6-1.17-1.25-1.81-1.8-.71-.6-1.3-.59-1.92.02-.88.86-1.75 1.73-2.52 2.67-.39.48-.6 1.13-.83 1.74-.29.8-.52 1.63-.79 2.51-1.57-.16-2.94-.47-4.34-1.05.5-1.51.62-2.99 1.59-4.27.72-.95 1.1-2.17 1.57-3.3.63-1.54 1.91-2.5 3.11-3.51.71-.59 1.54-.52 2.4 0 1.53.94 2.76 2.04 3.05 3.93.05.35.16.72.36 1.01.45.69.32 1.37.08 2.07l.06-.03Z" style="fill:#d9bd85"/>
    <path d="M87.12 51.06c.72 1.1.45 2.33.48 3.51 0 .36-.09.72-.05 1.07.07.58.6 1.08 1.15 1.14.56.06 1.01-.15 1.29-.62.22-.36.38-.78.49-1.19.25-.98.4-1.99.69-2.96.22-.75.56-1.47.85-2.2.22-.53.55-1.04.64-1.59.24-1.53 1.46-2.26 2.48-3.14.46-.4 1.5-.19 1.98.38.95 1.14 2.1 2.17 2.02 3.91-.05.99.12 2.02.32 3 .41 2-.39 3.78-.79 5.97-.22-.47-.38-.65-.35-.8.07-.5.21-.99.31-1.49.35-1.77-.38-4.57-1.57-5.87-.28-.31-.65-.57-1.04-.74-1.27-.55-2.1-.19-2.5 1.13-.45 1.52-.82 3.07-1.21 4.61-.2.77-.37 1.54-.54 2.24-1.22.64-2.24-.21-3.29-.09-1.02.13-2.02.1-3.04-.41-.06-1.09.55-2.03.78-3.06.21-.97.64-1.9.98-2.85l-.06.02ZM38.95 38.99c-.1.64-.19 1.29-.32 1.92-.29 1.48-.6 2.95-.9 4.46-.71.24-1.43 0-2.02-.38-1-.63-2.09-.96-3.21-1.27-.19-.05-.35-.23-.63-.42.05-.39.06-.81.15-1.21.34-1.55.72-3.1 1.07-4.65.08-.35.15-.71.2-1.07.26-1.85-.99-2.93-2.74-2.28-.72.27-1.36.8-1.99 1.25-.29.2-.47.55-.74.79-1 .91-1.66 1.98-1.84 3.35-.05.4-.22.79-.44 1.59-.36-1.15.11-1.76.2-2.42.28-2.08 1.37-3.77 2.59-5.4.17-.23.42-.43.51-.7.6-1.66 2.16-2.03 3.54-2.6.98-.4 1.84.06 2.23 1.09.45 1.21 1.06 2.41.45 3.75-.09.19-.14.43-.1.64.33 1.86-.4 3.56-.79 5.31-.11.49-.26.98-.31 1.49-.08.82.41 1.52 1.09 1.65.62.12 1.25-.21 1.59-.88.45-.89.84-1.83 1.34-2.69.28-.48.74-.86 1.11-1.28l-.03-.04ZM52.45 49.8c-.73-.18-1.27-.31-1.77-.43-.06-.21-.16-.35-.14-.46.59-2.64 1.81-4.96 3.41-7.13.8-1.08 1.98-1.66 2.9-2.57.27-.27.79-.3 1.21-.37.45-.07.85.09 1.12.49.12.18.25.35.35.54.92 1.72 1.68 3.49 1.65 5.49-.02 1.65.3 3.32-.34 4.92-.08.2-.17.4-.25.6-.78.39-1.5.25-2.23 0 .4-1.5.77-2.87 1.13-4.25.26-1 .18-2.01-.04-3-.3-1.32-2.09-1.86-3.1-.94-.86.77-1.71 1.56-2.48 2.41-.32.35-.48.87-.62 1.35-.29 1.03-.51 2.08-.82 3.35ZM64.39 52.29c-1.37-.38-1.42-.41-1.23-1.48.35-1.91.55-3.89 1.77-5.51.38-.51.83-.97 1.3-1.41.62-.6 1.26-1.19 1.94-1.72 1.23-.96 2.36-.77 3.01.6 1.03 2.15 1.75 4.34 1.63 6.84-.07 1.59-.23 3.14-.5 4.77-.71.29-1.33-.04-2.05-.36.27-1.14.53-2.25.81-3.36.15-.58.14-1.12-.08-1.69-.36-.94-.71-1.9-.97-2.87-.23-.84-.83-1.1-1.58-1.26-.81-.17-1.46.07-1.86.77-.43.74-.88 1.51-1.13 2.32-.42 1.37-.69 2.78-1.07 4.36Z" style="fill:#d9bd85"/>
    <path d="M51.55 169.71c-.13.16-.25.46-.39.47-1.08.07-2.15.1-3.23-.18-2.59-.65-5.2-1.27-7.81-1.85-1.69-.38-3.4-.66-5.1-.99-.57-.11-1.16-.16-1.7-.35-4.37-1.55-8.93-2.39-13.41-3.54-1.12-.29-2.2-.61-3.1-1.41.24-.48.62-.26.9-.19 2.9.63 5.79 1.27 8.68 1.92.14.03.29.04.42.11 2.99 1.56 6.35 1.87 9.54 2.75.63.17 1.27.3 1.9.45.28.06.56.18.85.19 3.58.11 6.88 1.52 10.34 2.19.71.14 1.41.3 2.12.45h-.01Z" style="fill:#d7b162"/>
    <path d="M38.42 27.63c-.71.46-1.3.84-1.86 1.2-1.73-.76-3.4-1.36-5.48-.91.7-.99 1.27-1.77 1.81-2.53-.32-.49-.69-.4-.99-.2-.42.28-.79.62-1.16.96-.37.34-.7.73-1.07 1.07-.47.43-.97.52-1.11.22-.21-.47.03-.83.34-1.16.45-.47.94-.9 1.34-1.41.19-.24.2-.63.32-1.05-1.27-.02-1.62 1.38-2.88 1.35.57-1.01 1.8-1.31 2.03-2.4 1.38.1 2.5.53 3.58 1.15.93.54 1.87 1.07 2.86 1.47.79.32 1.32.77 1.59 1.58.07.22.37.37.68.65ZM99 43.95c-1.71-.9-3-1.24-5.01-1.31-.34-.52-.72-1.11-1.16-1.78.24-.15.39-.25.55-.34.48-.27.95-.71 1.46-.78.92-.12 1.86-.03 2.79-.02.43 0 .86.02 1.29.02.58 0 1.16-.07 1.73 0 .64.08 1.26.29 1.88.43.32 1.04.62 2.04.99 3.23-.71-.37-.87-.91-1.1-1.4-.15-.32-.3-.65-.49-.94-.04-.07-.25-.04-.38-.02-.06 0-.16.08-.16.13 0 .42-.06.86.03 1.27.14.63.41 1.24.55 1.87.08.39-.14.68-.75.75-.21-.45-.47-.94-.67-1.45-.27-.67-.46-1.37-.77-2.02-.12-.26-.48-.4-.89-.72-.34 1.15.41 2.02.11 3.08ZM89.76 47.87c-.51-1.43-.94-2.67-1.42-4.03.25-.34.54-.83.93-1.24.82-.87 2.48-.43 2.78.73.13.5.16 1.06-.35 1.36-.96.57-1.31 1.48-1.52 2.49-.04.17-.19.33-.41.7ZM37.41 31.18c.38-.96.91-1.46 1.85-1.33.88.11 1.29.45 1.5 1.3.11.48.14.97.23 1.56-1.37.41-1.83 1.93-3.11 2.57q.21-2.41-.47-4.08Z" style="fill:#d8d6b9"/>
    <path d="M15.61 161.11c-.88.34-1.46.02-1.99-.26-1.02-.55-2.06-1.03-3.2-1.25-.21-.04-.42-.13-.6-.24-1.86-1.09-3.89-1.8-5.84-2.68-.29-.13-.49-.48-.7-.76-.03-.04.12-.22.26-.46.36.13.77.23 1.14.4 3.36 1.59 6.62 3.38 10.11 4.69.25.09.45.3.82.55ZM51.56 169.71c.65.04 1.29.09 1.94.12.36.02.73-.07 1.08 0 2.07.45 4.15.34 6.24.28 1.29-.04 2.59.07 3.89.15.4.03.8.18 1.19.27-.06.69-.51.78-.94.76-2.23-.12-4.45-.23-6.68-.32-1.42-.06-2.85-.35-4.3-.38-.9-.01-1.68-.41-2.42-.9Z" style="fill:#d7b162"/>
    <path d="M56.75 50.84c-.73-.18-1.35-.32-2.07-.5.37-1.92.43-3.89 2.57-4.99.3.64 0 1.17-.1 1.69-.12.64-.34 1.26-.42 1.9-.07.56 0 1.14.02 1.9Z" style="fill:#ac8751"/>
    <path d="M64.05 37.35c-.58.64-1.34.83-2.09 1.2-.22-.22-.46-.39-.6-.61-.99-1.57-2.42-1.9-4.14-1.55-1.22.25-1.22.22-1.53-1.27 1.35.14 7.02 1.63 8.36 2.23Z" style="fill:#d8d6b9"/>
    <path d="M67.94 48.07c1.21 1.44 1.07 2.48 0 5.43-.6-.14-1.21-.29-1.94-.47.03-.51.52-.78.67-1.21.15-.4.27-.82.38-1.23.13-.49.22-.98.36-1.46.11-.38.05-.86.53-1.06ZM83.75 56.47c-.56-.05-1.1-.09-1.63-.13-.21-2.05.58-3.47 2.27-4.45.43.18.17.57.11.87-.22 1.2-.48 2.39-.75 3.72ZM40.71 41.27c1.13 1.71 1.3 3.28.27 4.93-.61.3-1.07-.06-1.64-.44.32-1.47.78-2.92 1.37-4.49ZM30.44 37.23c-.41 1.72-.71 2.98-1.02 4.22-.05.2-.13.46-.29.55-.22.13-.53.19-.78.15-.16-.02-.41-.31-.39-.43.13-.77.29-1.54.53-2.29.15-.46.39-.92.68-1.31.19-.26.55-.4 1.26-.89ZM95.88 53.46c.18.44.53.89.5 1.32-.08 1.2-.19 2.43-.9 3.46-.67-.06-1.08-.31-.94-.96.27-1.27.6-2.52.9-3.78.15 0 .29-.02.44-.03Z" style="fill:#ac8751"/>
    <path d="M76.65 44.3c-.41.57-.81 1.13-1.31 1.83-.59-.88-.62-1.81-1.06-2.73.23-.24.44-.51.71-.71.59-.43 1.08-.31 1.34.36.15.39.22.82.33 1.26ZM51.49 40.66c-.13-1.07-.21-1.76-.29-2.42.09-.14.15-.28.24-.38 1.28-1.39 1.54-1.33 2.21.54-.61.64-1.25 1.31-2.16 2.27ZM62.96 40.45c.57-.66 1.18-.77 1.86-.65q.43 1.32-.91 2.39-.72-.47-.95-1.74ZM78.88 42.02c-.3-.53-.52-.95-.81-1.47 1.41.02 2.65.03 4.03.04-1.1.49-2.05.91-3.22 1.42ZM67.31 39.59c-.27-.59-.5-1.08-.73-1.58.18-.1.3-.23.39-.21.83.18 1.65.38 2.69.64-.77.66-1.62.68-2.35 1.15ZM48.51 32.92c.99.36 1.98.73 3.24 1.2-.64.42-1.03.68-1.53 1.01-.71-.68-1.11-1.52-1.64-2.25l-.07.05ZM101.92 46.24c.58-.07.85-.1 1.1-.13.3.57-.06.83-.5 1.22-.17-.3-.32-.57-.6-1.09ZM85.41 41.37l1.38-.09c.2.57-.14.71-.49.71-.32 0-.64-.14-.96-.22.03-.13.05-.27.07-.4ZM43.13 30.67c.77.45 1.17.69 1.66.97-1.11.32-1.12.33-1.66-.97ZM26.75 27.78c.27.18.53.35.98.65-.43.25-.8.59-.93.51-.44-.25-.38-.68-.05-1.16ZM73.56 39.87q-.79.81-1.34-.23c.47.08.86.15 1.34.23ZM105.42 42.46c-.19.13-.31.2-.42.28-.08-.23-.15-.46-.23-.68.13-.02.32-.11.38-.05.13.11.19.31.27.46ZM27.04 23.71c-.16.03-.32.07-.49.1-.04-.17-.07-.34-.11-.51.18 0 .37-.02.54.01.03 0 .03.21.05.4Z" style="fill:#d8d6b9"/>
    <path d="M48.57 32.88c-.13-.04-.26-.08-.38-.13-.05-.03-.09-.09-.13-.14.12-.02.29-.09.35-.03.08.07.07.23.1.35l.07-.04Z" style="fill:#d8d6b9"/>
    <path d="M109.11 40.97c-.26.3-.48.48-.6.7-.96 1.78-2.03 3.52-2.81 5.38-1.6 3.8-3.04 7.67-4.18 11.65-.2.69-.27 1.27.1 2.05.76 1.62-.05 3.19-1.73 3.81-.33.12-.69.15-1.05.23-.14.82-.25 1.6-.42 2.37-.26 1.2-.48 1.35-1.8 1.36-.22 0-.43-.03-.65-.02-.06 0-.11.08-.16.11-.25 1.06-.52 2.1-.75 3.15-.28 1.28-.63 2.52-1.25 3.69-.27.51-.5 1.05-.65 1.61-1.29 4.9-3.32 9.58-4.21 14.59-.61 3.43-1.81 6.71-2.92 10-.3.89-.57 1.8-.79 2.71-3.05 12.68-6.12 25.35-9.12 38.04-1 4.23-1.78 8.51-2.72 12.75-.48 2.19-1.09 4.35-1.64 6.52-.07.28-.16.57-.13.84.19 1.61-.33 3.16-.42 4.74-.07 1.23-.73 2-1.83 2.46-.26.11-.53.22-.91.38-.16.66-.31 1.36-.5 2.05-.16.6-.52.99-1.18 1.12-.85.18-1.66.4-2.56.17-1.18-.31-2.42-.07-3.65-.2-1.71-.19-3.44-.27-5.17-.42-4.1-.35-8.2-.58-12.19-1.78-2.84-.86-5.72-1.6-8.58-2.38-.91-.25-1.83-.45-2.75-.65-4.25-.92-8.49-1.83-12.74-2.75-.35-.08-.72-.14-1.05-.27-2.07-.85-4.12-1.73-6.19-2.59-.53-.22-1.09-.38-1.63-.59-.67-.26-1.33-.55-1.99-.82-.73-.3-1.51-.53-2.18-.94-1.41-.85-3.1-1.11-4.42-2.2-.78-.64-1.07-1.31-.82-2.26.13-.49.24-.98.34-1.41-.06-.21-.05-.39-.14-.48-1.16-1.15-1.38-2.42-.74-3.95.55-1.33.81-2.78 1.66-3.99.12-.17.22-.39.22-.59 0-1.99.63-3.86 1.18-5.72 2.48-8.49 4.5-17.09 6.56-25.68 2.08-8.66 4.17-17.32 6.24-25.99.27-1.12.57-2.26.68-3.41.36-3.84 1.32-7.56 2.26-11.28.8-3.17 1.4-6.36 1.68-9.61.07-.79.3-1.56.45-2.34.14-.71.39-1.42.38-2.13-.01-2.43.66-4.72 1.26-7.03.07-.27.13-.54.19-.78q-2.08-1.22-1.43-3.42c.12-.41.26-.82.43-1.38-.2-.16-.43-.31-.61-.5-1.46-1.5-1.48-3.08.07-4.49.48-.44.71-.87.81-1.45.39-2.43.85-4.85 1.13-7.29.31-2.73.49-5.48.65-8.22.06-1-.09-2.02-.16-3.03-.02-.28-.12-.55-.19-.83-.56-.07-.54.4-.72.63-1.81 2.3-4.19 3.31-7.07 2.94-1.57-.2-3.14-.59-4.66-1.06-1.82-.56-3.07-1.85-3.82-3.45-.6-.31-1.26-.45-1.55-.86-.62-.88-1.18-1.92-.98-3.03.38-2.06.88-4.1 1.41-6.13.12-.46.52-.86.84-1.25.78-.95 1.6-1.87 2.36-2.83.98-1.23 2.29-2.02 3.69-2.59 1.94-.79 3.97-1.35 5.91-2.13 3.09-1.25 6.12-.91 9.11.22 3.79 1.43 7.53 3.01 11.31 4.46 4.59 1.77 9.2 3.49 13.82 5.2 1.01.38 2.1.56 3.13.91 2.26.77 4.51 1.55 6.74 2.4 1.76.68 3.53 1.27 5.34 1.8 3.86 1.12 7.84 1.33 11.79 1.77 1.15.13 2.29.33 3.42.58 3.69.81 7.43 1.16 11.18 1.52 2.67.26 5.32.58 7.99.85 3.02.31 6.05.61 9.08.86 1.59.13 3.16.34 4.7.78 1.71.48 3.21 1.3 4.46 2.57.66.67 1.42 1.26 1.99 2 1.28 1.66 3 2.93 4.09 4.75.48.82.87 1.65 1.1 2.58 1.28 5.17 1.26 5.15-.26 10.38-.4 1.36-1.22 2.26-2.34 2.99-.18.12-.45.3-.58.24-1.24-.61-1.99.5-2.95.82-1.25.42-2.52.68-3.83.36-1.19-.3-2.41-.54-3.58-.91-3.09-.98-5.07-2.98-5.55-6.28-.03-.19-.14-.36-.28-.71ZM48.5 32.92c-.03-.12-.02-.29-.1-.35-.06-.05-.23.02-.35.03.04.05.08.12.13.14.12.06.25.09.38.13.54.73.93 1.57 1.64 2.25.5-.33.89-.59 1.53-1.01-1.26-.46-2.25-.83-3.24-1.2Zm3.06 136.79c-.71-.15-1.41-.31-2.12-.45-3.46-.67-6.76-2.09-10.34-2.19-.28-.01-.56-.12-.85-.19-.63-.15-1.27-.27-1.9-.45-3.19-.88-6.54-1.19-9.54-2.75-.13-.06-.28-.08-.42-.11-2.89-.64-5.78-1.29-8.68-1.92-.29-.06-.67-.29-.9.19.9.79 1.98 1.12 3.1 1.41 4.48 1.15 9.04 1.99 13.41 3.54.54.19 1.13.24 1.7.35 1.7.33 3.41.62 5.1.99 2.61.58 5.21 1.2 7.81 1.85 1.08.27 2.15.24 3.23.18.14 0 .26-.31.4-.47.73.48 1.52.88 2.41.9 1.45.02 2.88.32 4.3.38 2.23.09 4.45.2 6.68.32.43.02.88-.06.94-.76-.39-.09-.78-.25-1.19-.27-1.29-.08-2.6-.19-3.89-.15-2.09.06-4.17.17-6.24-.28-.34-.08-.72 0-1.08 0-.65-.03-1.29-.08-1.94-.12ZM87.17 51.04c-.33.95-.76 1.87-.98 2.84-.23 1.03-.84 1.98-.78 3.06 1.02.51 2.02.54 3.04.41 1.05-.13 2.07.73 3.29.09.17-.7.34-1.47.54-2.24.39-1.54.76-3.09 1.21-4.61.4-1.32 1.22-1.68 2.5-1.13.38.16.76.43 1.04.74 1.19 1.3 1.92 4.1 1.57 5.87-.1.5-.24.99-.31 1.49-.02.15.14.33.35.8.39-2.19 1.2-3.98.79-5.97-.2-.98-.36-2-.32-3 .08-1.73-1.07-2.76-2.02-3.91-.48-.58-1.52-.78-1.98-.38-1.02.88-2.24 1.61-2.48 3.14-.09.55-.42 1.06-.64 1.59-.29.73-.64 1.45-.85 2.2-.28.97-.43 1.98-.69 2.96-.1.41-.27.83-.49 1.19-.28.46-.73.68-1.29.62-.55-.06-1.09-.56-1.15-1.14-.04-.35.06-.71.05-1.07-.02-1.19.24-2.42-.48-3.51.24-.7.38-1.38-.08-2.07a2.55 2.55 0 0 1-.36-1.01c-.29-1.89-1.51-2.99-3.05-3.93-.86-.53-1.69-.6-2.4 0-1.2 1.01-2.49 1.96-3.11 3.51-.46 1.13-.85 2.35-1.57 3.3-.97 1.29-1.09 2.77-1.59 4.27 1.4.59 2.77.89 4.34 1.05.27-.88.5-1.7.79-2.51.22-.6.43-1.25.83-1.74.77-.95 1.64-1.82 2.52-2.67.63-.61 1.21-.62 1.92-.02.65.55 1.21 1.19 1.81 1.8ZM38.94 39c.76-.13 1.52-.27 2.29-.39.88-.13 1.36.13 1.66.99.33.95.6 1.93.9 2.89.26.85.28 1.68.08 2.56-.19.82-.49 1.65-.36 2.58 1.4.51 2.76.85 4.27 1.01.22-1.25.67-2.4.56-3.49-.15-1.45 0-2.88.07-4.29.09-1.75-.52-3.25-1.09-4.79-.35-.94-1.15-1.28-2.24-1.29-2.9-.03-4.48 1.89-6.07 3.85-.07.09-.02.28-.02.42-.38.42-.83.8-1.11 1.28-.5.87-.88 1.8-1.34 2.69-.34.67-.97 1-1.59.88-.68-.13-1.17-.83-1.09-1.65.05-.5.2-.99.31-1.49.39-1.75 1.12-3.45.79-5.31-.04-.2.02-.45.1-.64.61-1.35 0-2.55-.45-3.75-.39-1.04-1.25-1.49-2.23-1.09-1.38.57-2.93.93-3.54 2.6-.09.26-.34.46-.51.7-1.21 1.63-2.31 3.32-2.59 5.4-.09.66-.56 1.26-.2 2.42.23-.8.39-1.18.44-1.59.17-1.36.83-2.44 1.84-3.35.27-.24.45-.58.74-.79.64-.46 1.27-.98 1.99-1.25 1.75-.65 3.01.43 2.74 2.28-.05.36-.12.71-.2 1.07-.35 1.55-.73 3.1-1.07 4.65-.09.41-.1.83-.15 1.21.28.19.44.37.63.42 1.11.31 2.21.64 3.21 1.27.59.38 1.31.62 2.02.38.31-1.52.62-2.99.9-4.46.13-.64.21-1.28.32-1.92Zm81.95 6.08c.64.02 1.27.04 2.01.06.13-.75.48-1.5.33-2.14-.24-1.04-.31-2.14-.95-3.08-.28-.41-.46-.9-.62-1.38-.06-.2.06-.47.12-.81.53.27.89.46 1.26.64l.11-.17c-.17-1.16-1-2.2-.74-3.56 1.04.21 1.02 1.08 1.36 1.64.35.56.62 1.18 1.21 1.76.07-4.65-1.78-8.72-4.98-10.68.44.64.62 1.1.97 1.37 1.02.8 1.08 1.99 1.37 3.09.02.09-.1.31-.2.33-.19.05-.41.05-.6 0-.12-.03-.28-.15-.32-.27-.43-1.34-1.44-2.3-2.19-3.42-.49-.73-1-1.41-1.74-1.9-.08-.05-.07-.25-.11-.38.25-.28.49-.56.77-.88-.31-.2-.47-.38-.66-.42-1.62-.37-3.2-.91-4.89-.89-1.15 0-2.31-.14-3.46-.25-4.97-.5-9.94-.96-14.89-1.54-3.59-.42-7.16-1-10.74-1.49-2.36-.32-4.72-.67-7.1-.91-4.05-.42-8-1.26-11.83-2.63-2.93-1.05-5.85-2.09-8.79-3.12-2.32-.81-4.67-1.55-6.98-2.39-2.72-.98-5.43-2.01-8.12-3.06-3.98-1.54-7.97-3.07-11.9-4.73-1.55-.66-3.15-1.04-4.77-1.42-.29-.07-.64.09-1.29.2.58.42 1 .71.82.99-1.11.5-2.01.91-2.92 1.32-1.18.53-2.39.98-3.34 1.92-.12.12-.43.13-.61.08-.17-.05-.29-.26-.46-.42.8-1.21 1.68-2.2 3.15-2.49.28-.05.52-.33 1.04-.67-3.86.46-7.96 3.8-9.14 7.39 1.05-.73 1.93-1.34 2.81-1.94.35-.24.66-.24.86.42-.69.71-1.44 1.47-2.18 2.25-.07.07-.02.26-.03.4.41-.02.82-.03 1.43-.06-.15.38-.19.68-.35.83-.48.43-1.06.77-1.52 1.22-1.23 1.18-2.62 2.3-2.34 4.31.35.08.69.17 1.04.25l-.05-.07c.36.49.72.99 1.11 1.52.83-.5 1.71-.49 2.57.07 0 .7-1.19.3-1.06 1.12 1.8.7 1.85.65 3.54.68 1.16.01 2.12-.39 3.01-1.05 1.06-.78 2.43-4.43 2.21-5.88-.05-.36-.16-.71-.23-1.06-.06-.28-.24-.68-.12-.83.64-.8.1-1.08-.52-1.38-.44-.22-.85-.48-1.19-.67-1.13.36-1.77.89-1.73 2.06.01.39-.28.8-.46 1.28.32.35.7.68.98 1.08.35.51.03 1.23-.56 1.38-.9.24-1.86-.02-2.29-.8-.85-1.52-1.78-3.09-.21-4.74.19-.2.29-.5.38-.77.25-.76.75-1.2 1.54-1.35.28-.05.54-.21.8-.32 1.56-.62 2.44-.5 3.49.71 1.32 1.52 2.76 2.98 3.31 5.02.05.19.25.34.46.61.86.11 1.79.21 2.71.34 2.58.37 5.15.83 7.54 1.94 2.04.94 3.93 2.15 5.74 3.49 2.04 1.5 4.06 3.02 6.12 4.49 1.96 1.4 4.11 2.41 6.39 3.18.6.2 1.19.5 1.73.84 1.41.9 2.85 1.67 4.54 1.94.91.15 1.84.43 2.68.83 2.4 1.15 4.9 1.64 7.55 1.62 1.72-.01 3.43.33 5.15.06.27-.04.57.08.85.15 3.21.79 6.45.77 9.7.25 2.22-.35 4.42-.78 6.63-1.13 3.97-.64 7.92-.79 11.81.53.96.33 1.92.65 2.89.94.75.22 1.43.72 2.23.6.18-.1.33-.14.42-.24 1.41-1.58 3.36-2.21 5.23-2.96 1.49-.6 2.3-.31 3.42.96.29.32.6.62.89.95.56.65.72 4.07.23 4.76-.04.06-.08.13-.13.17-.6.52-1.18 1.07-1.81 1.54-.71.52-1.5.47-2.25.04-.4-.23-.74-.57-.62-1.04.08-.31.35-.63.62-.81.34-.22.77-.3 1.11-.41.09-.57.09-1.03.25-1.41.47-1.11.21-1.95-.75-2.57-.63.03-1.21.01-1.77.1-.23.04-.63.36-.61.45.25.82-.47 1.14-.83 1.61-1.31 1.73-1.21 3.78-1.33 5.77-.02.39.28.81.47 1.2.73 1.48 2.09 2.17 3.54 2.67.64.22 1.32.57 2.16.24-.27-.5-.5-.92-.74-1.35 1.1-.26 1.81.36 2.53.98.34-.26.62-.47.9-.69l-.07.02Zm-92.17 99.81c-.6-1.45-.61-1.45-.34-2.91.12-.64.26-1.28.41-1.91.88-3.59 1.73-7.18 2.66-10.76.38-1.47.91-2.9 1.37-4.35.46-1.45 1.01-2.87 1.36-4.34 3.88-16.05 7.72-32.11 11.61-48.16 1.06-4.36 2.25-8.69 3.38-13.04.05-.19 0-.41-.02-.74-1.14-.43-2.34-.68-3.53-.92-1.25-.25-2.45-.87-3.89-.63-.37 2.02-.72 4.01-1.1 6-.5 2.63-1.01 5.26-2.08 7.74-.42.99-.67 2.06-.93 3.11-.53 2.18-.99 4.38-1.54 6.56-.35 1.4-.77 2.79-1.24 4.16-.91 2.67-1.76 5.36-2.41 8.11-4.13 17.4-8.31 34.79-12.49 52.18-.27 1.1-.26 2.33-1.2 3.19-.08.08-.14.27-.11.38.3 1.18-.06 2.3-.26 3.43-.14.78.3 1.24.86 1.6.3.19.67.25 1.02.34 1.47.37 2.95.75 4.43 1.08.39.09.82.05 1.26.07.32-1.14.63-2.18.89-3.24.15-.62.32-1.27.33-1.9.02-1.86.5-3.56 1.55-5.08ZM69 63.48c-.22.9-.38 1.53-.52 2.16-.86 3.89-1.67 7.79-2.6 11.66-3.67 15.43-7.37 30.85-11.07 46.27-.61 2.54-1.24 5.06-1.36 7.69-.03.57-.15 1.15-.27 1.72-1.57 7.14-3.1 14.29-4.74 21.42-.47 2.05-.71 4.06-.39 6.34 1.93.03 3.73 1.44 5.76.61q1.15-2.97 2.26-3.95c-1.04-1.27-1.17-1.39-.93-2.45.5-2.25.8-4.57 1.85-6.68.65-1.3 1.09-2.67 1.34-4.11.19-1.07.46-2.12.71-3.18 3.25-13.59 6.51-27.18 9.75-40.78.43-1.83.84-3.68 1.04-5.54.28-2.61.88-5.14 1.5-7.67.42-1.69.85-3.37 1.24-5.06.2-.84.43-1.7.47-2.56.08-1.9.48-3.73 1-5.54.61-2.16 1.27-4.3 1.88-6.46.19-.67.61-1.31.36-2.16-2.36-.67-4.71-1.28-7.29-1.72Zm-35.92-8.52c-.27 1.45-.49 2.8-.78 4.14-.9 4.03-1.83 8.05-2.73 12.08-.22.99-.36 1.99-.51 2.99-.31 2-.48 4.04-.92 6.01-1.2 5.37-2.52 10.72-3.79 16.07-.13.56-.3 1.12-.48 1.67-.8 2.4-1.69 4.77-2.4 7.2-1.76 6.06-2.85 12.27-4.15 18.43-1.44 6.8-2.93 13.59-4.39 20.39-.25 1.14-.48 2.27-1.49 2.79-.08 1.31-.14 2.44-.21 3.59 1.46.51 2.85.79 4.39 1.12.22-.74.42-1.34.57-1.95.33-1.41.61-2.83.95-4.24.2-.84.43-1.66 1.2-2.24.3-.23.46-.73.55-1.14.18-.85.26-1.71.38-2.57.14-1.07.21-2.16.42-3.22.41-2.06.88-4.11 1.37-6.15 3.22-13.45 6.44-26.91 9.68-40.35.32-1.33.69-2.67 1.2-3.94.99-2.43 1.6-4.96 2.21-7.49.41-1.69.81-3.38 1.27-5.06.25-.9.54-1.81.92-2.66.81-1.79 1.42-3.63 1.89-5.53.48-1.97 1.14-3.89 1.69-5.84.21-.75.63-1.46.53-2.28-1.46-.7-4.97-1.58-7.36-1.82Zm29.73 104.02c-.81-.8-.37-1.87-.1-2.91 2.4-9.1 4.74-18.21 7.27-27.28 1.48-5.31 2.64-10.68 3.64-16.09.1-.57.13-1.15.22-1.72.14-1 .23-2.01.46-2.99 1.24-5.21 2.5-10.42 3.78-15.62.24-.98.52-1.96.87-2.91.95-2.58 1.8-5.19 2.46-7.87 1.09-4.35 2.26-8.69 3.38-13.03.1-.39.1-.8.17-1.33-1.32-.33-2.49-.67-3.68-.9-1.17-.23-2.3-.83-3.64-.56-.34 1.83-.68 3.6-1 5.38-.56 3.13-1.48 6.2-1.46 9.42 0 .43-.11.86-.2 1.28-.4 1.84-.79 3.68-1.22 5.51-.68 2.89-1.37 5.77-1.59 8.75-.06.86-.27 1.72-.47 2.56-3.56 14.85-7.13 29.7-10.71 44.55-.52 2.18-1.04 4.36-2.09 6.38-.2.38-.36.79-.47 1.21-.19.69-.34 1.35-.04 2.11.22.56.17 1.29.04 1.9-.31 1.48-.7 2.95-1.12 4.41-.2.69-.53 1.34-.21 2.15 1.42.35 2.81.92 4.29.88.49-1.11.91-2.1 1.43-3.29Zm24.01-91.22c-.13.45-.24.71-.3.99-1.13 5.24-2.24 10.48-3.41 15.7-.28 1.27-.74 2.5-1.12 3.74-.55 1.8-1.19 3.58-1.63 5.4-1.91 7.88-3.75 15.78-5.64 23.66-.3 1.26-.74 2.49-1.12 3.74-.7 2.28-1.55 4.53-2.07 6.85-2.27 10.18-4.44 20.37-6.63 30.56-.18.86-.37 1.67-.9 2.41-.29.4-.47.91.03 1.55 1.05.25 2.23.57 3.43.81.78.16 1.21-.15 1.42-.95.33-1.26.63-2.53.89-3.81 1.54-7.44 3.1-14.88 4.93-22.26 2.73-10.96 5.3-21.96 7.94-32.94.19-.77.35-1.56.64-2.3 1.57-3.99 2.65-8.11 3.58-12.29.63-2.83 1.31-5.64 2.5-8.3.23-.53.41-1.09.51-1.66.35-1.87 1.07-3.59 1.87-5.3.7-1.51.98-3.14 1.24-4.75-1.03-.78-2.07.02-3.04-.29-.95-.29-1.93-.59-3.13-.58ZM9.25 149.2c.15-.62.35-.99.29-1.31-.18-1.05.03-2 .39-2.97.2-.54.29-1.12.43-1.68 1.01-3.93 2.01-7.86 3.04-11.79 1.56-5.96 3.15-11.91 4.68-17.87.39-1.54.56-3.13.84-4.7.28-1.57.48-3.15.85-4.7 1.76-7.4 3.56-14.79 5.36-22.18.55-2.25 1.07-4.51 1.29-6.83.12-1.22.33-2.45.63-3.64 1.36-5.33 2.77-10.66 4.14-15.99.1-.39.07-.81.11-1.31-1.02-.25-1.92-.53-2.85-.67-1.03-.15-1.6-1.31-2.81-1.12-.64 1.37-1.03 2.88-1.1 4.36-.11 2.41-.49 4.75-.98 7.09-.1.5-.19 1-.21 1.51-.09 2.11-.58 4.16-1.08 6.2-.5 2.04-1.02 4.08-1.47 6.13-.32 1.48-.55 2.99-.81 4.48-.34 2-.55 4.02-1.02 5.99-2.29 9.73-4.62 19.45-6.98 29.17-1.71 7.04-3.19 14.13-5.33 21.06-.83 2.7-1.42 5.47-2.1 8.21-.24.96 0 1.41.87 1.65 1.18.32 2.38.57 3.79.9Zm53.39-86.58c-.42 1.71-.97 3.27-1.32 4.89-1.32 6.08-2.54 12.19-3.98 18.25-2.76 11.55-5.4 23.12-8.55 34.58-1.55 5.65-2.8 11.39-4.16 17.09-.29 1.2-.61 2.41-.66 3.63-.1 2.19-.61 4.29-1.14 6.39-.6 2.39-1.22 4.77-1.89 7.14-.42 1.47-.53 2.83.67 4.02.14.14.2.36.34.61.68.13 1.38.25 2.07.38.16-.39.2-.74.4-.9.9-.77 1-1.86 1.27-2.89 1.5-5.67 3.01-11.33 4.5-17 .09-.34.26-.75.16-1.05-.37-1.05.09-1.99.27-2.97.34-1.78.66-3.55.98-5.33.27-1.49.44-3.01.79-4.48 3.85-16.13 7.72-32.25 11.62-48.36 1-4.15 2.12-8.27 3.18-12.41.05-.2.02-.41.03-.7-1.49-.28-2.94-.56-4.57-.86Zm-11.8-3.06c-.13.39-.31.78-.4 1.19-.4 1.84-.72 3.7-1.16 5.53-4.4 18.46-8.81 36.91-13.22 55.36-.17.7-.32 1.42-.59 2.09-1.3 3.16-2.23 6.43-2.92 9.76-.16.78-.36 1.55-.57 2.32-.33 1.18-.78 2.33-.52 3.61.07.32-.12.7-.19 1.06-.71 3.17-1.96 6.22-2.06 9.52 0 .26-.27.51-.34.79-.39 1.61-.87 3.19-.95 4.91 1.11.47 2.18.79 3.4.77.19-.65.36-1.2.5-1.75 1.54-5.81 3.06-11.62 4.6-17.43.19-.7.3-1.46.67-2.06.67-1.08.92-2.27 1.21-3.46.53-2.18 1.06-4.36 1.57-6.55 3.26-13.96 6.46-27.94 9.79-41.88 1.43-5.98 3.15-11.9 4.67-17.86.38-1.51.76-3.06.8-4.68-1.46-.42-2.84-.81-4.31-1.23Zm-13.15 98.25c.2-.72.41-1.4.59-2.09.78-2.94 1.48-5.89 2.71-8.7.32-.72.51-1.52.6-2.3.38-3.31 1.07-6.56 1.8-9.81.63-2.83 1.36-5.63 2.02-8.45 2.76-11.92 5.43-23.85 8.29-35.75 1.93-8.02 4.14-15.97 6.16-23.97.38-1.51.79-3.05.81-4.69-1.1-.57-2.16-.91-3.42-.71-.16.45-.3.85-.43 1.26-.88 2.69-1.2 5.51-1.84 8.26-2.43 10.51-4.86 21.02-7.4 31.5-2.42 9.99-4.98 19.94-7.5 29.91-.82 3.22-1.39 6.51-2.82 9.55-.18.38-.24.83-.32 1.26-.28 1.71-.52 3.43-.83 5.13-.46 2.49-.98 4.97-1.46 7.46-.09.46-.1.94-.14 1.39 1.12.27 2.09.5 3.2.77Zm-34.8-8.68c-.74 1.91-.62 2.61.78 3.37 2.4 1.3 4.86 2.49 7.28 3.75 1.54.8 3.17 1.38 4.74 2.11.93.43 1.84.8 2.83 1.04 1.48.36 2.95.72 4.43 1.1.49.12 1.06.18 1.43.47.86.67 1.92.58 2.85.94.93.36 1.83.81 2.74 1.21.13.06.28.07.42.11 2.68.64 5.35 1.29 8.03 1.92.56.13 1.17.33 1.7.22.99-.2 1.86.08 2.77.3.42.1.87.3 1.26.23.98-.17 1.86.14 2.77.35 1.41.31 2.82.66 4.23.97.56.12 1.13.25 1.71.27 2.01.11 4.03.18 6.04.25.79.02 1.58 0 2.37 0h5.82c.68 0 1.32-.21 1.75-.74.45-.54.73-1.19.45-2.13-.91.85-1.83.48-2.76.3-.92-.18-1.88-.56-2.76-.41-1.14.19-2.18.05-3.19-.29-2.02-.69-4.12-.59-6.19-.83-1.7.52-3.27-.15-4.89-.47-.55-.1-1.15-.11-1.69.01-.8.18-1.56.22-2.35.03-5.64-1.34-11.28-2.65-16.9-4.01-.75-.18-1.45-.6-2.15-.96-1.28-.66-2.54-1.37-4-1.62-1.07-.19-2.12-.47-3.17-.75-.48-.13-.99-.27-1.4-.54-1.89-1.21-3.89-2.16-6.11-2.59-.64-.12-1.27-.29-1.9-.46-.35-.09-.78-.13-1.01-.36-.99-.99-2.29-1.19-3.56-1.47-.92-.2-1.75-.54-2.37-1.34ZM109.02 36.82c-.52-.19-1.05-.42-1.6-.56-1.4-.35-2.83-.63-4.23-1-1.99-.52-4.01-.6-6.03-.41-1.37.13-2.73.33-4.09.55-2.5.4-4.99.88-7.49 1.25-2.15.33-4.32.34-6.49.1-1.27-.14-2.54-.53-3.85-.02-.42.16-1-.02-1.49-.14-5.57-1.31-11.13-2.63-16.69-3.99-.62-.15-1.31-.38-1.74-.81-.61-.6-1.34-.84-2.06-1.14-.93-.39-1.88-.75-2.81-1.16-2.73-1.23-5.04-3.1-7.43-4.85-1.87-1.37-3.7-2.79-5.65-4.04-1.33-.85-2.78-1.59-4.27-2.09-1.98-.67-4.06-1.06-6.1-1.55-.41-.1-.85-.09-1.27-.13-.82 1.32-.47 2.45.19 3.6 1.12-.42 1.81-1.14 2.47-1.92.13-.15.44-.15.95-.29-.4 1.04-.69 1.81-1.01 2.62.41.1.69.17.97.23 1.83.42 3.67.73 5.33 1.74 1.22.75 2.7 1.09 3.86 1.9 1.45 1.01 3.03 1.97 3.94 3.62.2.36.5.7.84.92.97.63 2 1.13 3.16 1.37.98.2 2 .45 2.88.9.98.5 1.97.89 3.04 1.12 3.89.86 7.78 1.69 11.65 2.61 2.46.59 4.93 1.13 7.33 1.96 1.97.68 4.08.97 6.13 1.45 1.34.32 2.65.69 4.07.51.55-.07 1.14.14 1.7.26.71.15 1.4.38 2.12.49 1.15.18 2.41.33 3.38-.3 1.01-.66 2.07-.91 3.18-1.19 1.28-.33 2.56-.29 3.85-.35 2.69-.11 5.33.02 7.91.83.4.13.82.2 1.3.32.09-.89-.13-1.78.51-2.92.7 1.32.67 2.77 1.81 3.57 1.06-.75 1.92-1.55 1.73-3.07ZM23.47 48.64c.88.72 1.97 1.12 3.02 1.57.46.2 1.01.28 1.39.58.78.61 1.69.8 2.6 1.01 5.36 1.26 10.71 2.52 16.07 3.79 2.04.48 4.11.88 5.97 1.93.37.21.81.3 1.23.43a81.24 81.24 0 0 0 11.6 2.78c.71.12 1.44.14 2.16.23 1 .12 2.02.16 3 .39 5.85 1.39 11.7 2.77 17.52 4.26 2.63.68 5.29.52 7.95.67.07 0 .14 0 .22-.01.41-.03.65-.26.73-.66.09-.48-.12-.92-.56-1.03-.63-.15-1.28-.35-1.92-.31-3.13.17-6.18-.24-9.22-.99-8.58-2.1-17.16-4.19-25.75-6.25-8.73-2.1-17.47-4.15-26.2-6.24-.84-.2-1.72-.39-2.47-.79-1.52-.82-3.32-1.04-4.7-2.19-.36-.3-.94-.34-1.44-.45-.86-.19-1.01-.01-1.18 1.28Zm74.48 11.1c-1.08.66-1.94.64-2.97.19-.95-.41-2.12-.34-3.19-.46-.71-.08-1.43-.1-2.14-.16-.43-.03-.87-.17-1.29-.11-1.4.19-2.73-.11-4.07-.42-.91-.21-1.85-.42-2.77-.4-.96.03-1.87-.09-2.78-.31-2.74-.66-5.49-1.32-8.24-1.98-.49-.12-.99-.33-1.48-.32-1.99.03-3.86-.56-5.76-.98-.85-.19-1.69-.53-2.54-.53-1.89 0-3.52-.71-5.16-1.49-.64-.31-1.32-.57-2.02-.74-3.44-.85-6.9-1.66-10.34-2.5-.7-.17-1.47-.28-2.05-.66-1.19-.78-2.51-1.09-3.85-1.39-1.07-.24-2.05-.65-3.03-1.14-1.67-.83-3.41-1.53-5.13-2.25-.46-.19-.99-.42-1.46-.36-1.1.13-1.76-.43-2.37-1.19-.04-.06-.25.02-.38.04-.55 1.77-.36 2.16 1.25 2.73.67.24 1.3.59 1.97.84 2.02.77 3.9 1.88 6.03 2.39 17.67 4.23 35.33 8.48 53 12.71.84.2 1.71.25 2.57.36 2.07.27 4.18.02 6.24.44.6.12 1.19.02 1.63-.39.45-.41.54-.99.35-1.93Zm-45.5-9.94c.3-1.26.53-2.31.82-3.35.13-.47.3-1 .62-1.35.77-.85 1.62-1.64 2.48-2.41 1.02-.92 2.81-.38 3.1.94.22.99.3 2 .04 3-.36 1.37-.73 2.74-1.13 4.25.72.25 1.45.4 2.23 0 .09-.2.17-.4.25-.6.64-1.6.32-3.27.34-4.92.03-2-.73-3.78-1.65-5.49-.1-.19-.23-.37-.35-.54-.27-.4-.67-.56-1.12-.49-.42.07-.95.11-1.21.37-.92.91-2.1 1.49-2.9 2.57-1.61 2.17-2.83 4.49-3.41 7.13-.02.11.07.26.14.46.5.12 1.04.25 1.77.43Zm11.94 2.49c.38-1.58.65-2.99 1.07-4.36.25-.81.69-1.58 1.13-2.32.4-.69 1.05-.94 1.86-.77.74.16 1.35.42 1.58 1.26.27.97.61 1.93.97 2.87.22.57.22 1.12.08 1.69-.28 1.11-.54 2.22-.81 3.36.72.32 1.34.65 2.05.36.26-1.63.42-3.18.5-4.77.11-2.49-.6-4.69-1.63-6.84-.66-1.37-1.78-1.56-3.01-.6-.68.53-1.31 1.12-1.94 1.72-.46.44-.91.9-1.3 1.41-1.23 1.63-1.42 3.6-1.77 5.51-.19 1.07-.15 1.1 1.23 1.48ZM38.42 27.64c-.31-.28-.61-.43-.68-.65-.27-.82-.8-1.26-1.59-1.58-.99-.4-1.93-.93-2.86-1.47-1.08-.62-2.2-1.05-3.58-1.15-.23 1.09-1.46 1.39-2.03 2.4 1.26.02 1.61-1.37 2.88-1.35-.12.42-.13.8-.32 1.05-.4.51-.89.94-1.34 1.41-.31.33-.55.69-.34 1.16.13.3.64.21 1.11-.22.37-.34.7-.73 1.07-1.07.37-.34.75-.68 1.16-.96.3-.2.66-.29.99.2-.54.76-1.11 1.55-1.81 2.53 2.09-.45 3.75.15 5.48.91.56-.36 1.15-.74 1.86-1.2ZM99 43.96c.3-1.06-.45-1.93-.11-3.08.41.32.77.47.89.72.31.65.5 1.35.77 2.02.2.51.46 1 .67 1.45.61-.06.83-.36.75-.75-.13-.63-.41-1.23-.55-1.87-.09-.41-.04-.85-.03-1.27 0-.05.1-.12.16-.13.13-.01.34-.04.38.02.19.3.34.62.49.94.23.49.39 1.03 1.1 1.4-.37-1.2-.67-2.2-.99-3.23-.62-.15-1.24-.35-1.88-.43-.57-.07-1.15 0-1.73 0-.43 0-.86-.02-1.29-.02-.93 0-1.88-.1-2.79.02-.51.07-.98.5-1.46.78-.16.09-.31.19-.55.34.44.67.82 1.26 1.16 1.78 2 .08 3.3.42 5.01 1.31Zm-9.24 3.92c.22-.37.37-.52.41-.7.21-1.01.56-1.92 1.52-2.49.51-.31.48-.86.35-1.36-.3-1.16-1.96-1.6-2.78-.73-.39.41-.68.91-.93 1.24.48 1.36.92 2.6 1.42 4.03Zm-52.35-16.7q.68 1.67.47 4.08c1.29-.64 1.74-2.15 3.11-2.57-.08-.58-.11-1.08-.23-1.56-.21-.85-.62-1.18-1.5-1.3-.95-.12-1.47.38-1.85 1.33Zm-21.8 129.93c-.37-.25-.57-.46-.82-.55-3.49-1.31-6.76-3.1-10.11-4.69-.37-.18-.78-.28-1.14-.4-.14.24-.29.42-.26.46.21.27.41.63.7.76 1.95.88 3.98 1.59 5.84 2.68.18.11.39.2.6.24 1.15.22 2.18.7 3.2 1.25.53.28 1.11.6 1.99.26ZM56.75 50.84c-.01-.76-.09-1.34-.02-1.9.08-.64.3-1.26.42-1.9.1-.52.41-1.05.1-1.69-2.14 1.1-2.2 3.07-2.57 4.99.73.17 1.34.32 2.07.5Zm7.29-13.5c-1.35-.59-7.01-2.09-8.36-2.23.3 1.49.31 1.52 1.53 1.27 1.72-.35 3.15-.03 4.14 1.55.14.23.38.39.6.61.76-.37 1.52-.56 2.09-1.2Zm3.9 10.73c-.48.2-.41.68-.53 1.06-.15.48-.23.98-.36 1.46-.11.41-.23.83-.38 1.23-.15.42-.64.69-.67 1.21.73.18 1.34.32 1.94.47 1.07-2.95 1.21-3.99 0-5.43Zm15.81 8.39c.27-1.33.52-2.52.75-3.72.05-.3.32-.69-.11-.87-1.69.98-2.47 2.4-2.27 4.45.54.04 1.08.09 1.63.13Zm-43.04-15.2c-.59 1.57-1.06 3.02-1.37 4.49.57.38 1.03.74 1.64.44 1.03-1.65.86-3.22-.27-4.93Zm-10.27-4.04c-.71.49-1.07.63-1.26.89-.29.39-.54.84-.68 1.31-.23.75-.39 1.52-.53 2.29-.02.13.23.41.39.43.25.04.56-.03.78-.15.15-.09.24-.35.29-.55.31-1.25.6-2.5 1.02-4.22Zm65.45 16.23c-.15 0-.29.02-.44.03-.3 1.26-.62 2.52-.9 3.78-.14.65.27.91.94.96.71-1.02.82-2.26.9-3.46.03-.42-.32-.88-.5-1.32Zm-19.23-9.16c-.11-.43-.17-.86-.33-1.26-.26-.66-.75-.79-1.34-.36-.27.2-.47.47-.71.71.44.92.47 1.86 1.06 2.73.5-.7.91-1.26 1.31-1.83ZM51.5 40.65c.92-.96 1.55-1.63 2.16-2.27-.67-1.86-.94-1.92-2.21-.54-.09.1-.15.24-.24.38.08.67.16 1.36.29 2.42Zm11.47-.21q.23 1.28.95 1.74 1.34-1.07.91-2.39c-.68-.12-1.29-.01-1.86.65Zm15.92 1.57c1.17-.51 2.12-.94 3.22-1.42-1.38-.02-2.62-.03-4.03-.04.29.52.52.93.81 1.47Zm-11.57-2.43c.73-.47 1.58-.49 2.35-1.15-1.05-.25-1.87-.46-2.69-.64-.09-.02-.21.11-.39.21.23.49.46.99.73 1.58Zm34.61 6.65c.28.52.43.79.6 1.09.45-.39.8-.65.5-1.22-.25.03-.52.06-1.1.13Zm-16.5-4.87c-.02.13-.05.27-.07.4.32.08.64.22.96.22.35 0 .69-.13.49-.71l-1.38.09Zm-42.28-10.7c.54 1.3.55 1.29 1.66.97l-1.66-.97Zm-16.38-2.9c-.33.48-.39.91.05 1.16.13.08.5-.26.93-.51-.45-.3-.72-.48-.98-.65Zm46.81 12.1c-.48-.08-.86-.15-1.34-.23q.54 1.04 1.34.23Zm31.86 2.59c-.08-.15-.14-.34-.27-.46-.06-.06-.25.03-.38.05.08.23.15.46.23.68.11-.07.22-.15.42-.28Zm-78.4-18.74c-.02-.19-.02-.39-.05-.4-.17-.03-.36-.01-.54-.01.03.17.07.34.11.51.16-.03.33-.07.49-.1Z"/>
    <path d="M10.8 18.42c.25-1.1 1.03-1.83 1.83-2.51.21-.18.6-.16 1.12-.28-.33 1.38-1.04 2.21-1.99 2.83-.22.14-.67-.06-1.01-.11l.05.06ZM120.96 45.05c-.68-.81-.81-1.79-.91-2.79-.03-.36-.12-.78.35-.83.2-.02.55.24.64.45.27.65.49 1.33.64 2.02.12.58-.35.88-.78 1.17l.06-.02ZM115.74 44.72c-.05.04-.1.1-.17.11-.57.15-.93 0-1.25-.52-.03-.06-.07-.16-.04-.2.07-.09.19-.24.25-.23.39.12.78.27 1.16.45.06.03.03.25.04.39ZM17.79 20.68c-.37.75-.86.71-1.4.43-.09-.05-.21-.26-.18-.31.09-.16.26-.39.39-.38.39.03.78.16 1.2.27Z"/>
</svg>
