<svg xmlns="http://www.w3.org/2000/svg" viewBox="0 0 230.17 227.69">
    <path d="M171.41 158.59s-.08.02-.13.03c.04.03.08.06.12.1v-.12Z" style="fill:#f5afc6"/>
    <path d="M133.86 28.12c.09-.59-.38-1.4-.82-1.93-1.28-1.52-2.98-2.17-4.94-2.66-1.88-.48-3.14.32-4.56 1.04-.92.47-1.84.94-2.69 1.51-1.47.99-2.8 2.22-4.35 3.05-1.58.85-3.36 1.35-5.05 2 3.81.4 6.05 2.88 8.19 5.57.53.66 1.29 1.14 1.89 1.67l4.3-1.49c1.13.65 2.09 1.34 3.15 1.78 1.13.47 2.3.76 1.79 2.67-1.27-.09-2.56-.21-3.86-.27-2.88-.14-5.38 1.49-6.46 4.24-.6 1.51-1.14 3.05-1.69 4.57-1.42 3.93-4.14 7.08-6.32 10.54-.3.48-.79.93-1.3 1.18-1.63.79-2.9 1.98-4.18 3.23-1.76 1.72-4.04 1.74-5.99.26-.82-.62-1.56-1.33-2.45-2.11-1.25.69-2.37 1.3-3.79 2.09 1.37 1.24 2.42 2.02 4.11 1.56.79-.21 1.83-.28 2.52.06 3.57 1.77 7.35 2.02 11.22 2.04 1.09 0 2.01-.09 2.88-.76 1.99-1.54 3.99-3.06 6.03-4.51.66-.46 1.48-.69 2.71-1.24-.2 1.19-.17 1.91-.45 2.51-1.48 3.25-4.38 5.09-7.08 7.16-1.03.79-2.02 1.17-3.27.88-2.32-.54-4.62-.29-7.16-.14 2.8 3.3 5.45 9.43 5.13 12.74-.34 3.51-.81 7.08-1.83 10.44-1.18 3.93-4.38 6.58-7.3 9.29-.4.38-1.05.58-1.62.69-2.76.51-5.55 1.43-8.3 1.33-5.01-.17-10-.97-13.53-5.51-.74.47-1.46.94-2.3 1.47.37 3.04-.37 5.82-1.38 8.65-2 5.65-5.5 9.67-11.23 11.62-.7.24-1.39.53-2.11.66-1.08.19-1.93.66-2.54 1.59-.41.61-.85 1.22-1.36 1.75-2.78 2.84-7.78 3.12-10.86.66-2.22-1.77-4.22-3.69-5.1-6.52-.12-.38-.51-.68-.79-1.04-1.21.18-2.38.35-3.69.54-1.3 1.5-2.72 3.02-4 4.64-1.46 1.85-2.35 3.68-.02 5.71.79.69.72 2.5 1.54 3.02 2.32 1.47 4.12 3.3 5.49 5.64.21.36.67.57 1.03.83 2.7 1.92 5.21 1.67 7.43-.81 1.78-1.98 3.46-4.05 5.25-6.02 2.42-2.67 5.22-3.14 8.3-1.49.65.35 1.26.8 1.95 1.02 2.24.71 4.56 1.16 6.63 2.43.95.58 2.02.19 2.84-.58.43-.41.77-.91 1.21-1.3 3.42-3 4.97-7.29 7.46-10.94 1.62-2.37 3.48-4.35 5.57-6.21.47-.42.98-.63 1.64.04-1.12 1.98-2.31 3.98-3.39 6.04-1.1 2.09-2.28 4.16-3.1 6.36-1.45 3.89-4.36 6.66-7.02 9.61-1.8 2-4.57 2.32-6.53 1.12-2.97-1.82-6.51-1.97-9.36-3.93-1.05-.72-2.26-.56-3.11.6.09.29.09.65.27.82.3.29.7.53 1.09.68 1.38.52 2.85.85 4.15 1.51 5.53 2.82 11.06 5.65 16.99 7.55.28.09.56.2.82.33 6.46 3.41 13.55 5.09 20.44 7.32.63.2 1.34.2 2.45.36-.48-2.01-1.13-3.35-2.27-4.58-1.04-1.12-2.64-1.93-2.7-4.51 2.3 1.87 4.9 2.61 6.11 4.93 1.51 2.9 4.1 4.63 6.4 6.67 1.56 1.39 3.55 1.9 6.3 2.44-1.19-2.11-2.77-3-3.88-4.27-1.09-1.25-2.71-2.1-3.4-4.09 1.3-.24 1.98.3 2.63.84 3.87 3.22 7.78 6.38 11.57 9.7 1.74 1.53 3.64 2.29 6.52 2.42-.85-1.05-1.33-1.73-1.9-2.33-.62-.64-1.33-1.18-1.97-1.8-.74-.73-1.5-1.44-2.13-2.26-.47-.61-1.48-.99-1.02-2.34.69.33 1.39.53 1.93.94 2.45 1.9 4.92 3.81 7.26 5.84.73.63 1.17 1.63 1.63 2.52.48.93 1.25 1.19 2.17 1.19.2 0 .39-.21.57-.31.03-1.17-1.84-1.47-1.22-3.24 1.35.99 2.63 1.71 3.64 2.7 2.58 2.51 5.73 2.64 9.54 2.68-1.99-3.04-3.7-5.66-5.42-8.27.3-.14.62-.41.79-.34 1.81.75 3.5 1.81 4.35 3.58 1.21 2.53 3.65 3.83 5.37 5.83.49.57 1.57.91 2.14-.15-.76-1.14-1.7-2.15-2.18-3.35-1.1-2.78-3.1-4.58-5.58-6.07-6.76-4.06-14.05-6.98-21.39-9.68-5.21-1.92-9.81-4.82-14.44-7.7-2.63-1.64-4.53-3.76-6.04-6.21.92.71 1.53 1.11 2.05 1.61 2.17 2.09 4.7 3.55 7.52 4.58 1.24.45 2.39 1.16 3.59 1.74 1.73.83 3.41 1.79 5.21 2.43 10.61 3.75 21.13 7.69 30.92 13.34 1.42.82 2.93 1.41 4.64 1.23.28-1.24-.36-1.97-1.35-2.47-2.79-1.43-5.14-3.46-7.47-5.53-.99-.88-2.15-1.56-3.22-2.34-2.03-1.48-4.14-2.86-6.04-4.5-2.69-2.32-5.22-4.81-7.79-7.26-.68-.65-1.65-1.11-1.84-2.19 1.22-.61 1.76.31 2.38.8 2.79 2.2 5.42 4.62 8.33 6.64 4.6 3.2 9.44 6.03 13.93 9.45 3.48 2.66 7.51 4.67 10.93 7.5.16.13.53.02 1 .02-.2-.79-.37-1.49-.52-2.08.87-.19 1.52-.34 2.15-.47-1.6-1.23-3.19-2.49-4.81-3.69-2.35-1.74-3.71-4.13-4.76-6.81-1.02-2.61-2.07-5.22-3.36-7.7-2.68-5.12-5.16-10.3-6.74-15.89-1.17-4.13-2.64-8.15-4.76-11.93-.78-1.38-1.11-3.04-1.49-4.62-1.04-4.32-1.99-8.65-2.97-12.98-.69-3.01.17-6.18-.96-9.14-.09-.23.07-.57.15-.85.27-.98 1.63-1.66 2.5-1.14.74.45 1.56.99 1.97 1.7.94 1.66 1.7 3.43 2.42 5.2.55 1.36.9 2.81 1.41 4.19 1.54 4.15 3.13 8.29 4.66 12.45.17.47.07 1.04.09 1.55-1.26.15-1.5-.64-1.81-1.26-1.26-2.51-2.46-5.05-3.74-7.55-.29-.55-.83-.97-1.89-2.18 1.11 5.72 1.65 10.53 3.93 14.97 1.34 2.62 2.43 5.4 3.3 8.21 1.93 6.24 4.22 12.3 7.44 18.01 1.38 2.44 2.45 5.03 3.17 7.78.44 1.67 1.3 3.34 2.35 4.72 1.43 1.87 3.21 3.46 4.87 5.15.17.17.49.19.82.31.61-1.31.31-2.64-.08-3.85-1.06-3.29-1.17-6.69-1.45-10.08-.2-2.36-.48-4.71-.78-7.05-.41-3.22-.89-6.44-1.32-9.66-.16-1.17-.23-2.36-.43-3.52-.84-5.26-1.72-10.51-2.59-15.76-.24-1.46-.32-2.98-.82-4.35-3.54-9.7-5.12-20.08-10.12-29.27-.07-.13-.12-.27-.18-.4-.69-1.3-1.29-2.67-2.09-3.9-2.07-3.24-4.21-6.43-6.36-9.62-.49-.73-1.03-1.45-1.68-2.04-1.11-1.01-2-2.13-2.58-3.54-.69-1.69-1.94-2.91-3.46-3.65-1.2.36-1.67 1.03-1.43 2.05.13.56.35 1.16.7 1.6 1.38 1.78 1.83 3.63.94 5.8-.26.64.05 1.48-.1 2.2-.17.84-.37 1.77-.86 2.43a44.296 44.296 0 0 1-3.99 4.76c-.55.57-1.56 1.07-2.3.98-1.38-.16-2.27.34-3.07 1.3-2.55 3.06-4.02 3.5-1.36 7.61.63.98 1.09 2.2.54 3.39-1.23 2.64-1.87 5.53-4.14 7.69-2.03 1.93-3.64 4.28-5.55 6.35-1.29 1.4-2.79 2.61-4.17 3.93-.2.19-.29.49-.58 1 .3.9.65 1.98 1.05 3.2-1.39 3.59-3.25 7.15-3.39 11.25-.02.73-.75 1.58-1.38 2.11-1.01.85-2.22 1.46-3.33 2.2-2.16 1.43-4.41 1.45-6.76.55-1.24-.48-2.47-1.05-3.75-1.32-2.63-.55-4.41-2.33-6.24-4.04-.74-.69-1.35-1.63-.78-2.76.41-.83 2.06-.96 3.1.23 2.49 2.85 6.08 2.87 9.24 3.96.84.29 2.07-.01 2.94-.41 1.84-.85 2.93-2.32 3.17-4.45.16-1.44.46-2.92 1.01-4.25 1.32-3.19 3.73-5.89 3.8-9.64.02-1.02 1-2.11 1.73-3.01 1.68-2.07 3.43-4.09 5.26-6.02 2.26-2.38 4.26-4.88 5.08-8.24-.89-1.91-2.16-3.78-2.26-6.44 1.6-1.85 3.35-3.85 5.08-5.86 1-1.16 2.1-2.1 3.75-2.03 1.13.05 1.93-.51 2.7-1.28 1.5-1.52 2.68-3.1 2.39-5.44-.1-.83.28-1.72.48-2.79-1.16-2-2.39-4.12-3.76-6.49 2.96-1.27 4.13-3.65 5.5-6.18 1.4-2.58 2.27-5.02 2.18-8.31-1.55-1.37-3.3-2.93-5.06-4.48-1.03-.91-1.87-1.82-1.62-3.41Z" style="fill:#f5afc6"/>
    <path d="M83.65 50.1c-1.42-2.43-2.28-4.97-1.36-8.01-.8-.18-1.5-.26-2.13-.51-.44-.17-.78-.58-1.42-1.08-.77 2.59-.61 4.8.3 7.05 1.21 2.99 2.33 6.02 3.43 8.88-.98 1.35-2.1.55-3.04.77-1 .23-2.09.2-3.03.56-.92.36-1.7 1.07-2.53 1.62-3.53-1.75-5.44-4.38-5.54-8.56 1.26.02 2.27.16 3.23 0 .44-.07.92-.65 1.12-1.11.12-.28-.22-.81-.46-1.15-.15-.22-.47-.36-.74-.45-4.44-1.6-4.13-3.85-4.05-8.22.01-.64.57-1.34 1.02-1.9 1.31-1.6 2.69-3.14 4.06-4.69.97-1.1 1.84-2.16 3.63-2.19 1.06-.01 2.1-.98 3.18-1.44 2.03-.87 4.08-1.69 6.12-2.52.68-.27 1.58-.32 2.03-.8 2.15-2.29 5.06-2.11 7.77-2.68 2.93 1.92 5.72 3.84 6.23 7.65.83.28 1.7.44 2.42.85 2.6 1.46 5.3 2.62 8.28 2.98 2.33.29 3.53 1.98 4.75 3.64.31.42.4 1.16.3 1.7-.81 4.21-1.96 8.29-4.72 11.74-.81 1.01-1.77.77-2.95.7-.35 3.01-1.82 5.48-4.02 7.55-1.48 1.39-2.26 1.49-3.86.36-.96-.68-1.89-1.4-2.87-2.06-.22-.15-.57-.1-1.12-.18-.94.62-2.01 1.37-3.13 2.05-.93.56-1.93.78-2.92.14-3.91-2.56-7.25-5.57-8.11-10.49-.02-.13.08-.28.13-.42.67.58 1.24 1.48 2.01 1.69 2.39.66 4.14 2.15 5.85 3.8 1.44 1.39 3.17 1.63 4.92.8 1.71-.81 2.76-2.22 2.81-4.19.04-1.61 0-3.22 0-5.11-1.51-1.17-3.12-2.41-4.65-3.6-1.82.54-3.35.99-4.97 1.46-.6-1-1.24-1.82-1.6-2.75-.48-1.22-.73-2.53-1.09-3.88 1.18-.43 2.26-.9 3.38-1.21 3.37-.92 5.45-.24 7.04 2.83.91 1.74 2.07 2.68 3.82 3.36 1.19.46 2.27 1.36 3.19 2.29 1.1 1.11 1.34 2.67.31 4.02-.89 1.15-1.54 2.51-2.18 3.83-.15.3.03.96.29 1.21.25.25.96.4 1.2.23 1.42-1.03 2.83-2.1 4.11-3.29 1.3-1.22 1.51-2.83 1.1-4.52-.39-1.61-1.06-3.06-2.3-4.22-1.53-1.44-3.21-2.61-5.24-3.23-.89-2.11-2.45-3.66-4.28-4.96-.12-.09-.24-.17-.36-.27-.96-.82-2.08-.98-3.31-.93-2.88.11-5.52.89-7.72 2.46-.71 2.37-1.37 4.58-1.99 6.68.77 1.54 1.47 2.96 2.17 4.36-.94 1.26-1.73 2.31-2.51 3.36Z" style="fill:#e84249"/>
    <path d="M176.42 172.36c2.64-3.55 4.77-6.75 9.19-7.93 1.41.77 3.2 1.5 4.71 2.63 1.8 1.35 3.72 2.36 5.77 3.22 5.31 2.25 10.73 4.01 16.42 5.09 2.55.49 4.9 1.99 7.39 2.88 2.2.78 3.67 2.31 5.14 4.12-2.42 3.28-6.74 3.77-8.99 6.92-.51-.44-.94-.81-1.39-1.21-1.44 1.37-.12 3.14-.86 4.83-.8 1.11-2.36 1.23-3.71 1.72-1.49.54-2.9.41-4.08-.82-1.47-1.53-3.43-2.24-5.23-3.24-2.96-1.65-5.9-3.4-8.59-5.46-5.25-4.04-10.32-8.33-15.78-12.77Zm4.6-2.9c1.68 3.52 4.21 5.53 7.02 7.13 3.58 2.04 7.53 3.42 10.68 6.2.32.29.79.39 1.17.62 1.26.76 2.62 1.38 3.72 2.32 1.66 1.42 3.66 1.86 5.67 2.3.37.08 1.01-.46 1.3-.87.18-.25.09-.94-.14-1.19-.48-.53-1.09-.97-1.71-1.33-1.01-.58-2.09-1.03-3.11-1.61-1.4-.8-2.77-1.66-4.16-2.48-.89-.52-1.92-.87-2.66-1.54-1.57-1.43-3.43-2.25-5.35-3.04-2.87-1.19-5.66-2.51-7.98-4.67-1.09-1.01-2.32-1.83-4.44-1.84Z" style="fill:#f5afc6"/>
    <path d="M199.71 210.67c-2.51-4.91-6.28-8.81-8.23-13.86-.61-1.59-1.9-2.96-3.05-4.28-1.92-2.19-4.22-4.04-5.33-6.89.6 7.97.64 7.95 4.43 13.5 3.58 5.25 7.08 10.56 10.67 15.93-.17 1.66-.33 3.37-.54 5.52-.72-.42-1.29-.57-1.56-.94-1.85-2.49-3.66-5.01-5.42-7.56-.59-.85-1.12-1.76-1.48-2.71-1.33-3.48-3.29-6.6-5.44-9.63-2.48-3.49-4.86-7.07-7.23-10.64-2.22-3.33-3.67-7.05-5.28-10.87 1.07-1.23 2.1-2.42 3.32-3.82.77.62 1.45 1.13 2.08 1.69 3.21 2.85 6.3 5.85 9.64 8.54 4.49 3.61 9.02 7.2 14.31 9.64 2.61 1.21 4.46 3.36 6.43 5.34 1.88 1.9 2.65 1.81 4.14-.71.52-.88.51-.88 2.91-1.11-2.39 2.51-3.68 5.66-7.39 6.04-2-.63-1.3-4.24-4.41-3.74.42 1.05.93 2.04 1.18 3.09.27 1.15 1.05 1.67 1.89 2.31.36.28.46 1.05.48 1.6.04 1.18-.06 2.36-.11 3.79-1.85-.08-3.7-.15-5.98-.25Zm-3.21-13.59c.32 2.92.42 3.15 2.25 5.08q.78-2.08-2.25-5.08Z" style="fill:#f5afc6"/>
    <path d="M58.03 85.92c-1.96-1.45-4.07-2.49-6.56-1.7-.82.26-1.79.55-2.31 1.15-2.03 2.34-3.96 4.77-5.81 7.26-.74 1-.43 1.55 1.17 2.83 2-2.1 3.96-4.26 6.03-6.32 1.59-1.58 2.58-1.54 4.23-.21 1.95 1.55 3.15 3.48 3.13 6.25-.81-.2-1.57-.47-2.34-.56-.57-.07-1.23-.03-1.73.2-2.46 1.11-3.45 3.54-4.84 5.59-1.02 1.5-.63 3.16-.19 4.72.43 1.5 1.62 2.43 3 3.07 1.83.86 3.67 1.69 6.16 2.84l-5.25 1.23c-.47-.61-.97-1.29-1.5-1.93-1.11-1.35-2.25-1.94-5.07-2.69-1.41-.37-1.97-1.53-1.4-3.06.71-1.87 1.47-3.72 2.41-6.08-1.76.48-2.72 1.31-3.74 2.01-.97.65-2.05 1.16-2.93 1.92-2.85 2.46-3.9 5.47-2.53 9.13.3.79.5 1.62.89 2.88-.96-.21-1.49-.26-1.96-.44-.41-.16-.76-.46-1.13-.69-3.89-2.41-5.21-5.76-4-10.24 1.15-4.26 1.95-8.61 3.13-12.86.73-2.65 2.99-4.32 4.84-6.21.1-.1.27-.18.4-.17 4.22.23 5.14-3.2 6.73-6.11 3.42-1.25 6.77-1.1 10.04.91 1.44.88 1.85 2.25 2.18 3.68.3 1.3.4 2.62-1.03 3.62Z" style="fill:#e84249"/>
    <path d="M36.32 65.26c-1.03-2.11-2.06-4.22-3.14-6.42.49-.9.98-1.78 1.57-2.87-.8-.61-1.57-1.2-2.57-1.97.71-1.6.52-3.64 2.34-5.11.59.36 1.2.73 1.8 1.11 2.18 1.38 2.99 1.36 4.59-.39 1.39-1.53 2.66-3.18 4-4.76 2.57-3.02 6.78-2.9 8.35.58 1.09 2.43 2.42 3.37 4.99 3.4 2.41.03 2.84.82 2.87 4.03-2.41.22-5.73-1.79-7.04 2.38 1.51.21 2.9.32 4.25.63 2.43.56 2.57.84 2.75 4.24-2.64-.77-5.23-1.55-7.83-2.29-.7-.2-1.56-.61-2.13-.38-2.37.95-4.83 1.02-7.31 1.3-1.99.22-3.07 3.45-2.07 5.46 1.31 2.63 2.6 5.28 5.18 6.98.31.21.46.66.77 1.13-1.18 1.17-2.79 1.06-4.08 1.67-1.16.55-2.26 1.24-3.63 2.01-.73-1.98-1.64-3.69-1.95-5.49-.31-1.81-.03-3.73-.01-5.73l-1.8.51h.11Z" style="fill:#e1343b"/>
    <path d="M64.03 37.88c-1.87-.21-3.73-.43-5.91-.67-.41.94-.89 2.04-1.52 3.47-1.7-2.77-2.85-5.19-1.08-8.22-3.93.09-4.18 2.57-4.51 4.88-.47-.19-.92-.28-.93-.4-.16-2.08-.89-3.99-1.71-5.87-.91-2.1-.53-4.01.61-5.9.76-1.25 1.42-2.55 2.08-3.86.6-1.18 1.52-1.71 2.84-1.73 1.86-.03 3.39.61 4.85 1.8 2.38 1.95 2.62 1.87 4.86 0 2.43-2.03 3.96-2.09 6.71-.45.99.6 2.11.98 3.17 1.47 1.03.48 1.06.53 1.88 2.68-4.35 3.77-8.03 8.12-11.31 12.83l-.02-.03Zm1.71-7.74c1.71-1.51 2.12-2.04 2.03-2.78-.16-1.35-1.15-2.02-2.26-2.46-1.53-.61-3.01-.65-4.69-.05-2.64.94-4.02 3.34-6.19 4.78-.11.07.17 1.2.53 1.41 1.31.77 2.6.42 3.59-.63 1.38-1.45 2.95-2.36 5.18-2.37.55.64 1.18 1.37 1.81 2.1ZM83.6 82.59c-.47-.34-1.4-1.01-2.35-1.69-.69.25-1.36.5-2.17.8-.65-.49-1.4-.96-2.05-1.54-1.47-1.3-2.96-2.21-5.12-2.12-2.21.08-2.55-.57-2.64-3.03-.19-5.27 2.12-8.99 6.92-11.06 1.34-.58 2.72-1.07 4.08-1.6 2.43 1.66 4.57 3.4 6.6 5.74-3.45 1.32-4.91 4.3-6.99 6.68-.19.22-.35.49-.43.76-.23.76-.22 1.56.62 1.85.43.15 1.2.03 1.52-.28 1.25-1.21 2.38-2.54 3.52-3.79 3.11 1.29 5.95 2.43 8.76 3.63 1.69.72 1.83 1.41.86 4.2-.63-.36-1.22-.68-1.8-1.02-.62-.36-1.24-.74-1.93-1.15-2.42 1.14-3.86 3.92-7.4 3.62ZM58.84 111.62c1.25-1.1 2.04-1.76 2.79-2.45 2.61-2.39 4.47-5.08 3.57-8.9-.1-.41-.08-.92.07-1.31.61-1.63-.18-2.85-1.08-4.05-.53-.7-1.21-1.32-1.62-2.08-.39-.74-.53-1.61-.78-2.42 4.16-1.48 7.4-.14 8.99 3.72 1.54 3.72 2.4 7.65 2.02 11.66-.2 2.14-.96 4.36-1.98 6.25-2.16 3.99-5.16 7.18-9.88 8.15-.71.15-1.46.14-2.19.11-.24 0-.47-.29-.93-.6 1.94-2.42 2.8-5.1 1.03-8.09Z" style="fill:#e84249"/>
    <path d="M80.03 99.74c.27-1.18.52-2.27.77-3.33.51.02.8-.04 1.04.05.27.1.53.29.71.52 2.13 2.61 4.92 3 8.02 2.46.58-.1 1.33.03 1.72-.3 2.36-1.97 5.51-2.9 7.36-5.52 1.6-2.28 2.2-4.67 1.21-7.51-.82-2.34-1.29-4.86-1.53-7.34-.26-2.75-1.76-4.21-4.11-5.21-1.61-.69-3.17-1.49-4.71-2.33-.22-.12-.24-.76-.18-1.14.03-.19.41-.42.66-.46.43-.07.9-.09 1.31.02 4.9 1.27 8.58 4.43 12.05 7.89.3.3.51.73.68 1.13 2.24 5.31 2.06 10.74-.11 15.89-.98 2.33-3.27 4.13-5.03 6.11-.36.4-1.01.61-1.56.75-3.45.87-6.89 1.64-10.47.5-2.5-.79-5.27-.65-7.81-2.17ZM35.25 35.21c3.06-3.03 4.49-3.54 9.25-3.15.47 1.06.99 2.23 1.51 3.39-.26.49-.38.95-.67 1.23-1.86 1.87-3.82 3.6-4.42 6.42-.21 1.01-1.31 1.83-1.9 2.6-.6-.07-.94 0-1.15-.15-3.9-2.56-4.5-1.24-6.57 1.23-.92 1.1-1.7 2.33-2.6 3.58-1.74-.27-3.07-1.36-3.65-2.82-.79-2.02-1.36-4.22-1.52-6.38-.25-3.29 1.7-5.55 4.46-7.02 1.74-.93 3.6-1.21 5.37.23.54.44 1.34.55 2.02.8-2.06 2.43-3.8 5.28-7.4 5.79-.23.03-.54.69-.5 1.03.03.37.35.89.68 1.02 1.5.59 2.91.34 3.98-.92 1.14-1.33 2.18-2.73 3.15-3.96 2.03-.21 4.03.49 5.63-1.52-1.95-1.13-3.94-.81-5.68-1.41ZM14.48 72.95c-.99.33-2.07.69-3.16 1.05-.79-3.03 1.81-4.79 2.28-7.4-.48-.68-.97-1.39-1.47-2.1-1.61-2.3-.34-5.67 2.48-6.1 2.27-.34 4.6-.8 6.79.84 1.24.93 2.89 1.29 4.37 1.91.39 3.14-2.16 5.96-.01 8.36-1.84 3.39-4.36 2.79-6.8 2.47q-.91-2.95.81-6.33c-1.91-.12-3.37.83-4.09 2.06-.76 1.31-.74 3.07-1.19 5.23ZM9.01 87.27c-1.82-1.4-4.09-2.4-4.3-5.35 3.2-1.9 6.3-4.09 9.83-5.34.37.32.69.46.76.68 1.41 4.8 4.56 8.49 7.66 12.22 1.17 1.4 1.15 1.53-.6 3.01-.32-.45-.64-.89-1.17-1.62-.53 1.14-.99 2.13-1.47 3.17-.99.42-1.67-.23-2.12-.98-.52-.87-.94-1.85-1.16-2.83-.28-1.23-.87-2.17-1.78-2.97-1.32-1.18-2.7-1.8-4.34-.54-.33.26-.79.35-1.3.56Z" style="fill:#e84249"/>
    <path d="M104.52 19.31c-2.42.23-4.4-.65-6.44 0-.39.12-1.1-.33-1.47-.71-.58-.6-1-1.35-1.51-2.06-1.63.57-.59 2.25-1.72 3.17-1.72.37-3.65 1.05-5.92 1.01.73-2.05 2.09-2.91 3.89-3.19.71-4.65 2.67-8.49 6.99-11.21.89 2.36 2.08 4.06 4.65 4.36.71.08 1.37 1.01 1.93 1.66.18.21-.04.77-.08 1.31-1.94-.19-3.72-1.59-5.87-.25.18.43.23 1.09.58 1.35 2.36 1.76 2.82 1.86 6.78 1.99-.66.93-1.2 1.7-1.82 2.57Z" style="fill:#e1343b"/>
    <path d="M75.61 97.63c-.37-.95-.84-1.88-1.1-2.86-.62-2.38-1.99-4.15-3.83-5.77-2.08-1.82-4.15-3.3-7.38-2.55.6-3.9-.33-7.34-2.2-11.09 1.03.2 1.68.13 1.99.43 1.28 1.2 2.43 2.54 3.68 3.78 1.41 1.38 3 2.16 5.11 2.18 2.3.02 3.06 1.01 3.13 3.33.04 1.18-.13 2.4.68 3.39 1.56 1.9 1.54 4.05 1.15 6.29-.17.96-.29 1.92-.43 2.89h-.81Z" style="fill:#e84249"/>
    <path d="M18.92 73.98c.88.91 1.23 1.16 1.43 1.49.6 1 1.07 2.08 1.71 3.05.72 1.09 1.41 2.27 2.38 3.1 2.78 2.37 5.76 1.55 6.99-1.84.4-1.09.62-2.25.91-3.31q3.14-.48 5.09 3.06c-.68.92-1.44 1.94-2.18 2.93-.9-.19-1.58-.34-2.39-.51-.99 2.27-1.88 4.67-4.52 5.8-1.57-.07-2.67-1.14-3.39-2.39-1.97-3.48-5.85-5.91-6.03-11.37ZM63.42 68.18c-1.85-1.2-3.19-2.08-4.56-2.97-1.19.73-.78 1.8-.32 2.62.7 1.26 1.64 2.38 2.63 3.77-1.5 1.01-2.86 1.67-4.48 2.08-.21-.56-.55-.99-.46-1.32.59-2.2.63-4.3-.36-6.45-.56-1.22-.64-2.6 1.28-3.44.79.69 1.6 1.53 2.54 2.17 1.7 1.17 3.05.44 3.2-1.67.03-.42-.02-.84-.03-1.33 1.42-.92 3.96.15 4.03-3.02 1.43 1.25 2.37 2.06 3.31 2.87-.23.61-.3 1.06-.53 1.4-1.55 2.27-4.21 3.11-6.24 5.28ZM52.29 70.6c-3.77-2.75-7.23-5.22-8.05-9.84.66-.28.82-.4.88-.36.85.52 1.7 1.06 2.59 1.63 1.21-.42 2.41-.83 3.82-1.32 1.1 2.78.74 5.63 1.48 8.27.09.31-.32.75-.72 1.62ZM85.25 93.94c2.59-1.04 4.7-1.64 6.55-3.41 1.09-1.04 2.13-1.85 2.54-3.35.31-1.14.91-2.18 2.33-2.26 1.81 3.84 1.54 5.29-1.46 7.48-1.18.86-2.35 1.83-3.67 2.39-1.17.5-2.56.77-3.82.66-.86-.08-1.65-.98-2.48-1.52Z" style="fill:#e1343b"/>
    <path d="M165.76 163.89c1.34.64 2.52 1.2 3.96 1.89-.57.66-1.06 1.1-1.4 1.65-.37.6-.59 1.28-.96 2.14-2.09.2-4.11.4-5.89.58-1.92-1.66-3.57-3.1-5.63-4.88.94-.21 1.44-.44 1.9-.39.72.08 1.45.31 2.13.56 2.28.85 4.33.74 5.89-1.53Z" style="fill:#f5afc6"/>
    <path d="M41.28 108.84c2.32 1.63 3.98 3.04 6.39 3.1.79.01 1.58 1.2 2.32 1.9.75.71 1.4 1.53 2.18 2.18.55.46 1.26.73 1.9 1.08-.02 1.15-.78 1.54-1.73 1.59-2.46.11-4.63-.43-6.21-2.59-1.21-1.65-2.68-3.12-3.93-4.75-.39-.51-.48-1.25-.92-2.51ZM61.02 102.97c-3.12 4.28-3.46 4.33-7.03 1.27-.67-.57-1.26-1.21-2.04-1.96.96-2.43 2.39-4.18 5.17-4.75 1.15 1.53-.46 3.08.69 4.74.71.16 1.77.39 3.21.7Z" style="fill:#e1343b"/>
    <path d="M35.24 67.47c.63 1.78.12 3.55.3 5.43-1.82.11-2.58-1.11-3.52-1.9-.99-.84-2.12-1.69-2.7-2.8-.96-1.81-.34-3.58 1.01-5.46 1.24 1.21 1.72 2.55 2.34 3.79.58 1.15 1.52 1.21 2.61.89.02-.01-.03.05-.03.05Z" style="fill:#e84249"/>
    <path d="M82.59 86.68c1.68-.48 3.08-.79 4.42-1.28 1.32-.48 2.57-1.14 3.96-1.76.68 1.68-.05 2.74-.97 3.69-.92.95-1.87 1.95-3.34 1.9-.56-.01-1.19-.17-1.63-.48-.82-.56-1.53-1.29-2.43-2.07Z" style="fill:#e1343b"/>
    <path d="M29.88 92.77c-.6 2.16-1.14 4.11-1.73 6.27l-3.81 2.38c-1.38-.66-1.45-1.92-.86-2.64 1.73-2.12 3.09-4.6 5.49-6.13.09-.06.28.03.91.11Z" style="fill:#e84249"/>
    <path d="M62.78 40.14c1.64 1.87.79 4.06 1.07 6.26-2.04-.66-3.82-1.24-5.83-1.9.1-1.71.7-3.09 2.96-3.32.66-.07 1.27-.68 1.91-1.04h-.11Z" style="fill:#e1343b"/>
    <path d="M48.1 122.54c2.8.57 5.01-.02 7.31 1.26-.9 1.34-2.14 1.5-3.39 1.58-1.64.11-2.76-.67-3.91-2.85Z" style="fill:#e84249"/>
    <path d="M170.81 171.52c-.72 1.64-1.86 2.86-3.17 3.92q-1.63-.72-2.57-2 3.71-2.47 5.74-1.92ZM182.28 159.03c-.17.93-.1 1.68-.41 1.92-.5.38-1.26.44-1.92.55-.11.02-.4-.42-.44-.68-.15-.93.48-1.27 1.23-1.47.28-.07.57-.12 1.54-.32ZM171.41 158.71c1.43.26 2.61.84 3.49 3.01-1.91-.96-2.93-1.77-3.49-3.12v.11Z" style="fill:#f5afc6"/>
    <path d="M65.61 50.88c-.1-.43-.22-.87-.29-1.31-.02-.11.12-.24.18-.36.18.13.48.24.51.39.06.39 0 .8-.03 1.2-.12.03-.25.05-.37.08ZM62.88 40.14c.17-.44.31-.9.52-1.32.17-.34.42-.63.63-.94l.02.03c-.42.74-.85 1.49-1.28 2.23h.1ZM36.2 65.26c.59 1.12-.55 1.49-.95 2.2-.01.01.04-.05.02-.04.34-.71.69-1.43 1.05-2.15h-.11ZM26.72 74.02c.22.07.44.13.64.23.04.02-.03.24-.05.37-.24-.07-.48-.14-.71-.24-.01 0 .07-.24.11-.36Z" style="fill:#e84249"/>
    <path d="M12.03 127.48c3.63-2.25 7.22-3.84 11.1-4.82 1.83-.46 3.57-1.33 5.36-1.99 1.05-.39 2.12-.72 3.21-1.09.45 1.3-.53 1.72-.96 2.39-1.96 3.08-5.24 4.62-8.01 6.73-1.82 1.38-4.22 1.13-6.41 1.09-1.61-.03-3.17-.51-4.3-2.3ZM107.06 21.96c2.17-2.5 4.31-5.05 6.53-7.5 2.38-2.62 5.29-3.6 8.8-2.65 1.7.46 3.45.76 5.14 1.23.26.07.44.69.49 1.08.03.19-.27.59-.48.64-1 .21-2.02.46-3.03.47-2.56.04-4.94.69-7.25 1.74-1.48.67-2.98 1.27-4.48 1.9-1.09.46-2.25.79-3.24 1.39-.82.5-1.46 1.32-2.18 2-.1-.1-.2-.19-.3-.29ZM13.92 123.24c2.83-4.16 6.98-6.81 11.58-8.83 1.74-.76 3.01-.2 4.88 2.04-1.57 1.38-3.58 1.86-5.42 2.61-1.76.72-3.64 1.13-5.42 1.8-1.9.72-3.75 1.58-5.62 2.37ZM107.06 27.81c2.2-3.77 4.93-5.85 8.49-6.93 2.07-.63 3.94-1.89 6.13-2.26.51 1.23-.31 1.92-.85 2.36-2.52 2.04-4.79 4.49-7.85 5.69-1.68.66-3.47 1.46-5.92 1.14ZM83.42 17.79c.62-3.83 2.33-7.55 2.05-11.8.31.41.83.79.89 1.23.24 1.76.27 3.54.51 5.3.36 2.69-.99 4.38-3.13 5.66-.02 0-.18-.22-.31-.39ZM80.98 10.53c.45-1.44-.1-3.15 1.16-4.52.6 2.2.74 2.45.28 3.23-.33.55-1.02.89-1.55 1.33l.1-.03Z" style="fill:#64aa3b"/>
    <path d="M80.88 10.57c.26.04.53.05.79.12.07.02.14.2.14.3-.01.12-.11.22-.16.33-.13-.15-.28-.29-.4-.45-.08-.1-.13-.23-.23-.35-.03 0-.13.04-.13.04Z" style="fill:#64aa3b"/>
    <path d="M94.66 52.13c-.37-.12-.84-.16-1.17-.39-.95-.68-1.83-1.43-2.94-2.31.47-.81.73-1.73 1.35-2.18.64-.47 1.67-.76 2.42-.61.91.18 1.23 1.15 1.09 2.13-.16 1.11.4 2.38-.75 3.36Z" style="fill:#e1343b"/>
    <path d="M54.79 139.24c-1.58 1.82-2.88 3.22-4.07 4.71-1.21 1.52-2.77 2.06-4.65 2.1-2.6.05-4.98-.48-7-2.24-2.46-2.13-4.91-4.28-7.44-6.31-1.82-1.46-3.14-3.1-3.11-5.57 0-.37-.3-.75-.45-1.11-.39.06-.77 0-.93.16-3.07 2.98-6.94 3.04-10.81 2.92-2.3-.07-4.33-.9-5.76-2.85-.35-.47-.76-.89-1.22-1.43-.51.58-.94 1.08-1.67 1.92-.44-3.21 1.49-5.31 2.34-7.67.86-2.42 2.8-4.09 4.8-5.69 2.07-1.66 3.95-3.54 6.48-4.58 2.28-.94 4.08-3.02 7.08-2.38-.39-2.33-.7-4.19-1.06-6.31-.47.15-.88.17-1.13.38-.9.79-1.81 1.73-3.11 1.24-1.56-.6-2.84-1.63-3.21-3.39-.18-.86-.21-1.75-.33-2.78-3.25-1.99-6.29-4.29-7.51-8.24-5.77.61-8.95-2.82-11.14-7.15-2.01-3.98-.49-6.42 2.78-7.47.55-.18 1.04-.53 1.67-.86.82-3.37 1.15-7.1 5.34-8.44-.41-.58-.59-1.02-.92-1.26-2.31-1.7-2.26-3.98-1.58-6.4.93-3.31 3.5-5.42 6.97-5.76 1.03-.1 2.07-.16 3.1-.26 1.35-.12 2.57.03 3.82.75a11 11 0 0 0 4.97 1.47c1.06-2.82 1.05-2.86-.62-4.17-.81-.64-1.66-1.25-2.42-1.94-.54-.49-1.22-1.02-1.42-1.66-.86-2.81-1.99-5.54-2.03-8.58-.06-4.35 4.88-10.83 11.28-10.16 1.98.21 3.68-.1 5.53-.71 2.37-.77 4.89-1.07 7.58-1.62 1.06-2.43 2.3-5.06 3.37-7.75.99-2.49 2.69-3.7 5.37-3.89 2.62-.19 4.95.51 7.31 1.87 1.69-1.65 3.84-1.97 6.1-2.09 1.83-.1 3.46.03 4.96 1.33.82.71 2.06.94 3.42 1.52.66-3.35 1.58-6.32 1.78-9.34.33-4.76 3.1-7.45 6.93-9.49.22-.12.58 0 1.1.02.61.76 1.26 1.68 2.03 2.49.71.75 1.68 1.27 2.29 2.08.66.9 1.04 2.01 1.68 3.32.77-.74 1.4-1.3 1.96-1.91.9-.97 1.72-2.04 2.66-2.97 1.32-1.32 2.35-1.33 3.91-.17.36.26.81.5 1 .86 1.29 2.45 3.78 3.51 5.78 5.14 1.22.99 2.23 2.25 3.5 3.56.56-.56 1.24-1.33 2-1.98 2.99-2.54 6.39-3.57 10.3-2.71 2.16.47 4.35.82 6.52 1.22 2.9.54 3.38.89 5.1 3.87-1.61 2.07-3.28 4.2-5.06 6.49 1.48.57 2.74.87 3.8 1.51 1.12.68 2.04 1.7 3.09 2.52 1.33 1.06 2.37 2.27 2.23 4.1-.1 1.19.51 1.95 1.32 2.65 1.12.97 2.22 1.96 3.35 2.92.82.7 1.52 1.55 1.45 2.63-.18 2.77-.11 5.66-1.93 8.01-.96 1.24-1.61 2.47-1.2 3.93 2.77 3 5.89 5.62 8.03 8.88 3.72 5.66 8.55 10.64 10.86 17.19.24.7.57 1.38.93 2.01 2.03 3.48 3.27 7.21 4.19 11.14.97 4.16 2.59 8.17 3.8 12.29.7 2.4 1.27 4.86 1.71 7.32.94 5.24 1.76 10.5 2.61 15.76.16 1.02.35 2.05.4 3.08.17 3.71.82 7.34 1.49 10.98.56 3.04.71 6.17.87 9.27.17 2.99.89 5.82 1.8 8.52 1.99 1.48 3.72.76 5.57-.39.53.64 1.05 1.31 1.63 1.94.59.65 1.23 1.27 1.86 1.91.16 1.49.32 2.94.47 4.28.24.2.33.34.46.39 7.22 2.97 14.22 6.46 21.75 8.63.28.08.57.26.85.25 4.48-.05 8.15 2.46 12.17 3.85 2.85.98 4.79 3.41 6.91 5.44.91.87.98 2.24.2 3.26-1.33 1.75-2.56 3.58-4.82 4.42-1.35.5-2.52 1.46-3.65 2.14-.29 1.25-.31 2.49-.86 3.39-.49.8-1.58 1.22-2.41 1.81q-.39 3.76-2.79 6.69c-.84 1.03-1.73 2.02-2.6 3.03l-2.71 3.12c.22.77.45 1.6.69 2.44.44 1.55.05 2.93-.92 4.16-.87 1.09-1.9 1.89-3.43 1.43-.71-.22-.99.29-1.43.7-.71.66-1.57 1.15-2.8 2.02-.01.51-.17 1.54-.04 2.52.32 2.38-1.05 3.92-2.54 5.39-1.15 1.13-2.84 1.04-3.97-.15-.5-.52-.84-1.2-1.25-1.81-2.16-3.18-4.35-6.33-6.45-9.55-.96-1.48-1.79-3.04-2.61-4.61-1.1-2.09-1.99-4.3-3.21-6.31-2.38-3.91-4.92-7.74-7.42-11.57-1.87-2.86-3.49-5.83-4.58-9.09-.57-1.69-1.41-2.88-3.27-3.81-2.16-1.08-3.76-3.26-5.59-4.97-.42-.4-.8-.85-.91-.96-7.14-.79-13.93-1.26-20.62-2.39-5.08-.86-10.14-2.2-14.99-3.94-12.1-4.35-24.14-8.9-36.41-12.79-1.82-.58-3.55-1.46-5.32-2.2-3.4-1.43-6.81-2.87-10.21-4.31-1.09-.46-2.19-.89-3.23-1.44-4.69-2.48-9.36-5.01-14.5-7.76ZM80.88 10.57c.53-.43 1.22-.78 1.55-1.33.46-.77.32-1.03-.28-3.23-1.26 1.37-.71 3.08-1.11 4.51.07.12.11.25.2.35.12.16.26.3.4.45.06-.11.15-.22.16-.33 0-.1-.06-.28-.14-.3-.25-.07-.52-.08-.79-.12Zm-18 29.58c-.64.36-1.24.97-1.91 1.04-2.26.24-2.87 1.62-2.96 3.32 2.01.66 3.79 1.23 5.83 1.9-.27-2.2.57-4.39-1.07-6.26.43-.75.85-1.49 1.28-2.24 3.28-4.71 6.96-9.06 11.31-12.83-.82-2.15-.85-2.2-1.88-2.68-1.06-.49-2.18-.87-3.17-1.47-2.75-1.64-4.28-1.58-6.71.45-2.24 1.87-2.47 1.95-4.86 0-1.46-1.19-2.98-1.83-4.85-1.8-1.32.02-2.24.55-2.84 1.73-.66 1.3-1.33 2.61-2.08 3.86-1.14 1.89-1.52 3.8-.61 5.9.82 1.88 1.55 3.79 1.71 5.87 0 .12.46.21.93.4.33-2.31.58-4.79 4.51-4.88-1.77 3.03-.62 5.45 1.08 8.22.63-1.44 1.11-2.53 1.52-3.47 2.17.25 4.04.46 5.91.67-.21.31-.46.6-.63.94-.21.42-.35.88-.52 1.32ZM35.25 67.44c-1.07.31-2.01.25-2.59-.9-.62-1.24-1.1-2.58-2.34-3.79-1.35 1.88-1.97 3.65-1.01 5.46.58 1.1 1.71 1.96 2.7 2.8.94.79 1.7 2.01 3.52 1.9-.17-1.88.33-3.65-.27-5.45.39-.7 1.53-1.07.94-2.19l1.8-.51c-.02 2.01-.3 3.92.01 5.73.31 1.81 1.22 3.51 1.95 5.49 1.37-.77 2.46-1.46 3.63-2.01 1.29-.61 2.9-.49 4.08-1.67-.31-.47-.46-.92-.77-1.13-2.58-1.7-3.87-4.35-5.18-6.98-1-2.01.08-5.24 2.07-5.46 2.48-.27 4.94-.35 7.31-1.3.57-.23 1.43.18 2.13.38 2.6.74 5.2 1.52 7.83 2.29-.19-3.4-.33-3.68-2.75-4.24-1.35-.31-2.74-.42-4.25-.63 1.32-4.17 4.63-2.16 7.04-2.38-.03-3.2-.46-4-2.87-4.03-2.57-.03-3.9-.97-4.99-3.4-1.57-3.48-5.77-3.6-8.35-.58-1.34 1.58-2.61 3.23-4 4.76-1.6 1.75-2.4 1.77-4.59.39-.6-.38-1.21-.74-1.8-1.11-1.81 1.47-1.63 3.51-2.34 5.11 1.01.77 1.78 1.36 2.57 1.97-.6 1.09-1.08 1.97-1.57 2.87 1.08 2.2 2.11 4.31 3.14 6.42-.36.72-.71 1.44-1.07 2.17Zm0-32.22.14-.02c-.68-.26-1.49-.37-2.02-.8-1.77-1.44-3.64-1.16-5.37-.23-2.76 1.47-4.71 3.73-4.46 7.02.16 2.16.73 4.36 1.52 6.38.58 1.47 1.91 2.55 3.65 2.82.9-1.25 1.67-2.48 2.6-3.58 2.07-2.47 2.67-3.79 6.57-1.23.21.14.55.08 1.15.15.59-.77 1.69-1.6 1.9-2.6.6-2.82 2.56-4.55 4.42-6.42.29-.29.41-.74.67-1.23-.52-1.16-1.03-2.33-1.51-3.39-4.75-.39-6.19.12-9.25 3.15ZM83.63 49.9c-.05.14-.15.29-.13.42.86 4.92 4.2 7.93 8.11 10.49.99.65 2 .43 2.92-.14 1.12-.68 2.2-1.44 3.13-2.05.55.08.9.03 1.12.18.98.66 1.9 1.38 2.87 2.06 1.6 1.13 2.38 1.03 3.86-.36 2.2-2.07 3.67-4.54 4.02-7.55 1.18.07 2.14.31 2.95-.7 2.76-3.45 3.91-7.52 4.72-11.74.1-.54.01-1.28-.3-1.7-1.22-1.65-2.42-3.35-4.75-3.64-2.97-.37-5.68-1.52-8.28-2.98-.73-.41-1.6-.57-2.42-.85-.5-3.81-3.3-5.73-6.23-7.65-2.71.58-5.62.39-7.77 2.68-.45.48-1.35.53-2.03.8-2.04.83-4.09 1.65-6.12 2.52-1.08.46-2.11 1.43-3.18 1.44-1.79.02-2.65 1.09-3.63 2.19-1.37 1.55-2.75 3.1-4.06 4.69-.45.55-1 1.25-1.02 1.9-.08 4.37-.39 6.62 4.05 8.22.27.1.59.23.74.45.24.35.58.88.46 1.15-.2.46-.68 1.04-1.12 1.11-.96.15-1.97.01-3.23 0 .1 4.18 2.01 6.82 5.54 8.56.83-.55 1.61-1.27 2.53-1.62.94-.36 2.03-.33 3.03-.56.94-.22 2.06.58 3.04-.77-1.1-2.86-2.22-5.89-3.43-8.88-.91-2.24-1.07-4.46-.3-7.05.64.5.98.9 1.42 1.08.63.25 1.34.33 2.13.51-.93 3.04-.06 5.58 1.36 8.01v-.22h-.01Zm87.78 108.73c.56 1.34 1.58 2.15 3.49 3.11-.88-2.17-2.06-2.75-3.49-3.01-1.64-1.26-3.27-2.55-4.93-3.78-2.35-1.74-3.71-4.13-4.76-6.81-1.02-2.61-2.07-5.22-3.36-7.7-2.68-5.12-5.16-10.3-6.74-15.89-1.17-4.13-2.64-8.15-4.76-11.93-.78-1.38-1.11-3.04-1.49-4.62-1.04-4.32-1.99-8.65-2.97-12.98-.69-3.01.17-6.18-.96-9.14-.09-.23.07-.57.15-.85.27-.98 1.63-1.66 2.5-1.14.74.45 1.56.99 1.97 1.7.94 1.66 1.7 3.43 2.42 5.2.55 1.36.9 2.81 1.41 4.19 1.54 4.15 3.13 8.29 4.66 12.45.17.47.07 1.04.09 1.55-1.26.15-1.5-.64-1.81-1.26-1.26-2.51-2.46-5.05-3.74-7.55-.29-.55-.83-.97-1.89-2.18 1.11 5.72 1.65 10.53 3.93 14.97 1.34 2.62 2.43 5.4 3.3 8.21 1.93 6.24 4.22 12.3 7.44 18.01 1.38 2.44 2.45 5.03 3.17 7.78.44 1.67 1.3 3.34 2.35 4.72 1.43 1.87 3.21 3.46 4.87 5.15.17.17.49.19.82.31.61-1.31.31-2.64-.08-3.85-1.06-3.29-1.17-6.69-1.45-10.08-.2-2.36-.48-4.71-.78-7.05-.41-3.22-.89-6.44-1.32-9.66-.16-1.17-.23-2.36-.43-3.52-.84-5.26-1.72-10.51-2.59-15.76-.24-1.46-.32-2.98-.82-4.35-3.54-9.7-5.12-20.08-10.12-29.27-.07-.13-.12-.27-.18-.4-.69-1.3-1.29-2.67-2.09-3.9-2.07-3.24-4.21-6.43-6.36-9.62-.49-.73-1.03-1.45-1.68-2.04-1.11-1.01-2-2.13-2.58-3.54-.69-1.69-1.94-2.91-3.46-3.65-1.2.36-1.67 1.03-1.43 2.05.13.56.35 1.16.7 1.6 1.38 1.78 1.83 3.63.94 5.8-.26.64.05 1.48-.1 2.2-.17.84-.37 1.77-.86 2.43a44.296 44.296 0 0 1-3.99 4.76c-.55.57-1.56 1.07-2.3.98-1.38-.16-2.27.34-3.07 1.3-2.55 3.06-4.02 3.5-1.36 7.61.63.98 1.09 2.2.54 3.39-1.23 2.64-1.87 5.53-4.14 7.69-2.03 1.93-3.64 4.28-5.55 6.35-1.29 1.4-2.79 2.61-4.17 3.93-.2.19-.29.49-.58 1 .3.9.65 1.98 1.05 3.2-1.39 3.59-3.25 7.15-3.39 11.25-.02.73-.75 1.58-1.38 2.11-1.01.85-2.22 1.46-3.33 2.2-2.16 1.43-4.41 1.45-6.76.55-1.24-.48-2.47-1.05-3.75-1.32-2.63-.55-4.41-2.33-6.24-4.04-.74-.69-1.35-1.63-.78-2.76.41-.83 2.06-.96 3.1.23 2.49 2.85 6.08 2.87 9.24 3.96.84.29 2.07-.01 2.94-.41 1.84-.85 2.93-2.32 3.17-4.45.16-1.44.46-2.92 1.01-4.25 1.32-3.19 3.73-5.89 3.8-9.64.02-1.02 1-2.11 1.73-3.01 1.68-2.07 3.43-4.09 5.26-6.02 2.26-2.38 4.26-4.88 5.08-8.24-.89-1.91-2.16-3.78-2.26-6.44 1.6-1.85 3.35-3.85 5.08-5.86 1-1.16 2.1-2.1 3.75-2.03 1.13.05 1.93-.51 2.7-1.28 1.5-1.52 2.68-3.1 2.39-5.44-.1-.83.28-1.72.48-2.79-1.16-2-2.39-4.12-3.76-6.49 2.96-1.27 4.13-3.65 5.5-6.18 1.4-2.58 2.27-5.02 2.18-8.31-1.55-1.37-3.3-2.93-5.06-4.48-1.03-.91-1.87-1.82-1.62-3.41.09-.59-.38-1.4-.82-1.93-1.28-1.52-2.98-2.17-4.94-2.66-1.88-.48-3.14.32-4.56 1.04-.92.47-1.84.94-2.69 1.51-1.47.99-2.8 2.22-4.35 3.05-1.58.85-3.36 1.35-5.05 2 3.81.4 6.05 2.88 8.19 5.57.53.66 1.29 1.14 1.89 1.67l4.3-1.49c1.13.65 2.09 1.34 3.15 1.78 1.13.47 2.3.76 1.79 2.67-1.27-.09-2.56-.21-3.86-.27-2.88-.14-5.38 1.49-6.46 4.24-.6 1.51-1.14 3.05-1.69 4.57-1.42 3.93-4.14 7.08-6.32 10.54-.3.48-.79.93-1.3 1.18-1.63.79-2.9 1.98-4.18 3.23-1.76 1.72-4.04 1.74-5.99.26-.82-.62-1.56-1.33-2.45-2.11-1.25.69-2.37 1.3-3.79 2.09 1.37 1.24 2.42 2.02 4.11 1.56.79-.21 1.83-.28 2.52.06 3.57 1.77 7.35 2.02 11.22 2.04 1.09 0 2.01-.09 2.88-.76 1.99-1.54 3.99-3.06 6.03-4.51.66-.46 1.48-.69 2.71-1.24-.2 1.19-.17 1.91-.45 2.51-1.48 3.25-4.38 5.09-7.08 7.16-1.03.79-2.02 1.17-3.27.88-2.32-.54-4.62-.29-7.16-.14 2.8 3.3 5.45 9.43 5.13 12.74-.34 3.51-.81 7.08-1.83 10.44-1.18 3.93-4.38 6.58-7.3 9.29-.4.38-1.05.58-1.62.69-2.76.51-5.55 1.43-8.3 1.33-5.01-.17-10-.97-13.53-5.51-.74.47-1.46.94-2.3 1.47.37 3.04-.37 5.82-1.38 8.65-2 5.65-5.5 9.67-11.23 11.62-.7.24-1.39.53-2.11.66-1.08.19-1.93.66-2.54 1.59-.41.61-.85 1.22-1.36 1.75-2.78 2.84-7.78 3.12-10.86.66-2.22-1.77-4.22-3.69-5.1-6.52-.12-.38-.51-.68-.79-1.04-1.21.18-2.38.35-3.69.54-1.3 1.5-2.72 3.02-4 4.64-1.46 1.85-2.35 3.68-.02 5.71.79.69.72 2.5 1.54 3.02 2.32 1.47 4.12 3.3 5.49 5.64.21.36.67.57 1.03.83 2.7 1.92 5.21 1.67 7.43-.81 1.78-1.98 3.46-4.05 5.25-6.02 2.42-2.67 5.22-3.14 8.3-1.49.65.35 1.26.8 1.95 1.02 2.24.71 4.56 1.16 6.63 2.43.95.58 2.02.19 2.84-.58.43-.41.77-.91 1.21-1.3 3.42-3 4.97-7.29 7.46-10.94 1.62-2.37 3.48-4.35 5.57-6.21.47-.42.98-.63 1.64.04-1.12 1.98-2.31 3.98-3.39 6.04-1.1 2.09-2.28 4.16-3.1 6.36-1.45 3.89-4.36 6.66-7.02 9.61-1.8 2-4.57 2.32-6.53 1.12-2.97-1.82-6.51-1.97-9.36-3.93-1.05-.72-2.26-.56-3.11.6.09.29.09.65.27.82.3.29.7.53 1.09.68 1.38.52 2.85.85 4.15 1.51 5.53 2.82 11.06 5.65 16.99 7.55.28.09.56.2.82.33 6.46 3.41 13.55 5.09 20.44 7.32.63.2 1.34.2 2.45.36-.48-2.01-1.13-3.35-2.27-4.58-1.04-1.12-2.64-1.93-2.7-4.51 2.3 1.87 4.9 2.61 6.11 4.93 1.51 2.9 4.1 4.63 6.4 6.67 1.56 1.39 3.55 1.9 6.3 2.44-1.19-2.11-2.77-3-3.88-4.27-1.09-1.25-2.71-2.1-3.4-4.09 1.3-.24 1.98.3 2.63.84 3.87 3.22 7.78 6.38 11.57 9.7 1.74 1.53 3.64 2.29 6.52 2.42-.85-1.05-1.33-1.73-1.9-2.33-.62-.64-1.33-1.18-1.97-1.8-.74-.73-1.5-1.44-2.13-2.26-.47-.61-1.48-.99-1.02-2.34.69.33 1.39.53 1.93.94 2.45 1.9 4.92 3.81 7.26 5.84.73.63 1.17 1.63 1.63 2.52.48.93 1.25 1.19 2.17 1.19.2 0 .39-.21.57-.31.03-1.17-1.84-1.47-1.22-3.24 1.35.99 2.63 1.71 3.64 2.7 2.58 2.51 5.73 2.64 9.54 2.68-1.99-3.04-3.7-5.66-5.42-8.27.3-.14.62-.41.79-.34 1.81.75 3.5 1.81 4.35 3.58 1.21 2.53 3.65 3.83 5.37 5.83.49.57 1.57.91 2.14-.15-.76-1.14-1.7-2.15-2.18-3.35-1.1-2.78-3.1-4.58-5.58-6.07-6.76-4.06-14.05-6.98-21.39-9.68-5.21-1.92-9.81-4.82-14.44-7.7-2.63-1.64-4.53-3.76-6.04-6.21.92.71 1.53 1.11 2.05 1.61 2.17 2.09 4.7 3.55 7.52 4.58 1.24.45 2.39 1.16 3.59 1.74 1.73.83 3.41 1.79 5.21 2.43 10.61 3.75 21.13 7.69 30.92 13.34 1.42.82 2.93 1.41 4.64 1.23.28-1.24-.36-1.97-1.35-2.47-2.79-1.43-5.14-3.46-7.47-5.53-.99-.88-2.15-1.56-3.22-2.34-2.03-1.48-4.14-2.86-6.04-4.5-2.69-2.32-5.22-4.81-7.79-7.26-.68-.65-1.65-1.11-1.84-2.19 1.22-.61 1.76.31 2.38.8 2.79 2.2 5.42 4.62 8.33 6.64 4.6 3.2 9.44 6.03 13.93 9.45 3.48 2.66 7.51 4.67 10.93 7.5.16.13.53.02 1 .02-.2-.79-.37-1.49-.52-2.08.93-.21 1.61-.35 2.28-.48Zm5.01 13.75c5.46 4.44 10.53 8.73 15.78 12.77 2.68 2.06 5.63 3.81 8.59 5.46 1.8 1.01 3.77 1.71 5.23 3.24 1.17 1.23 2.58 1.35 4.08.82 1.35-.49 2.91-.6 3.71-1.72.74-1.7-.59-3.46.86-4.83.45.39.88.76 1.39 1.21 2.25-3.15 6.57-3.65 8.99-6.92-1.46-1.81-2.94-3.34-5.14-4.12-2.5-.89-4.84-2.39-7.39-2.88-5.69-1.08-11.11-2.85-16.42-5.09-2.05-.87-3.97-1.88-5.77-3.22-1.5-1.13-3.3-1.86-4.71-2.63-4.42 1.18-6.56 4.38-9.19 7.93Zm23.29 38.31c2.28.1 4.13.17 5.98.25.05-1.44.15-2.61.11-3.79-.02-.55-.12-1.32-.48-1.6-.83-.64-1.62-1.17-1.89-2.31-.25-1.05-.77-2.04-1.18-3.09 3.11-.5 2.41 3.11 4.41 3.74 3.71-.38 5-3.53 7.39-6.04-2.41.22-2.39.23-2.91 1.11-1.49 2.51-2.26 2.6-4.14.71-1.96-1.99-3.82-4.14-6.43-5.34-5.29-2.45-9.83-6.03-14.31-9.64-3.34-2.69-6.42-5.68-9.64-8.54-.63-.56-1.31-1.07-2.08-1.69-1.21 1.4-2.24 2.59-3.32 3.82 1.61 3.82 3.06 7.53 5.28 10.87 2.38 3.57 4.75 7.14 7.23 10.64 2.15 3.03 4.11 6.14 5.44 9.63.36.95.89 1.87 1.48 2.71 1.77 2.55 3.58 5.07 5.42 7.56.27.37.84.52 1.56.94.21-2.15.38-3.86.54-5.52-3.59-5.37-7.09-10.69-10.67-15.93-3.79-5.55-3.83-5.53-4.43-13.5 1.11 2.86 3.42 4.71 5.33 6.89 1.16 1.32 2.44 2.69 3.05 4.28 1.95 5.06 5.72 8.95 8.23 13.86ZM58.03 85.92c1.44-1 1.33-2.33 1.03-3.62-.33-1.43-.74-2.79-2.18-3.68-3.27-2.01-6.62-2.16-10.04-.91-1.6 2.91-2.52 6.34-6.73 6.11-.13 0-.3.07-.4.17-1.85 1.89-4.1 3.56-4.84 6.21-1.18 4.25-1.98 8.61-3.13 12.86-1.21 4.48.11 7.82 4 10.24.37.24.72.54 1.13.69.47.18 1 .23 1.96.44-.39-1.26-.59-2.09-.89-2.88-1.37-3.67-.32-6.68 2.53-9.13.88-.76 1.96-1.26 2.93-1.92 1.03-.7 1.98-1.53 3.74-2.01-.94 2.36-1.7 4.2-2.41 6.08-.57 1.53-.01 2.69 1.4 3.06 2.81.74 3.96 1.34 5.07 2.69.53.65 1.03 1.33 1.5 1.93l5.25-1.23c-2.49-1.14-4.33-1.98-6.16-2.84-1.39-.64-2.57-1.58-3-3.07-.44-1.55-.83-3.22.19-4.72 1.39-2.05 2.39-4.48 4.84-5.59.51-.23 1.17-.26 1.73-.2.78.09 1.53.36 2.34.56.01-2.77-1.18-4.69-3.13-6.25-1.66-1.33-2.65-1.36-4.23.21-2.07 2.05-4.03 4.21-6.03 6.32-1.6-1.28-1.91-1.83-1.17-2.83 1.85-2.49 3.78-4.92 5.81-7.26.52-.6 1.49-.89 2.31-1.15 2.49-.78 4.6.25 6.56 1.7ZM83.6 82.6c3.54.3 4.98-2.48 7.4-3.62.69.41 1.3.78 1.93 1.15.58.34 1.17.66 1.8 1.02.97-2.79.83-3.47-.86-4.2-2.81-1.2-5.65-2.35-8.76-3.63-1.14 1.25-2.27 2.58-3.52 3.79-.32.31-1.09.43-1.52.28-.84-.29-.85-1.1-.62-1.85.08-.27.24-.55.43-.76 2.08-2.38 3.55-5.37 6.99-6.68-2.03-2.34-4.17-4.08-6.6-5.74-1.36.53-2.74 1.02-4.08 1.6-4.8 2.07-7.11 5.79-6.92 11.06.09 2.46.43 3.11 2.64 3.03 2.17-.08 3.65.83 5.12 2.12.66.58 1.4 1.05 2.05 1.54.81-.3 1.48-.54 2.17-.8.95.68 1.88 1.35 2.35 1.69Zm-24.76 29.03c1.77 2.99.91 5.67-1.03 8.09.46.31.69.59.93.6.73.02 1.48.03 2.19-.11 4.72-.97 7.73-4.16 9.88-8.15 1.03-1.9 1.78-4.12 1.98-6.25.38-4-.48-7.93-2.02-11.66-1.59-3.86-4.83-5.2-8.99-3.72.25.81.38 1.68.78 2.42.41.76 1.09 1.38 1.62 2.08.9 1.2 1.69 2.42 1.08 4.05-.15.39-.17.9-.07 1.31.91 3.82-.96 6.51-3.57 8.9-.76.69-1.54 1.36-2.79 2.45Zm21.2-11.88c2.54 1.52 5.32 1.38 7.81 2.17 3.58 1.14 7.02.37 10.47-.5.55-.14 1.2-.35 1.56-.75 1.76-1.98 4.05-3.78 5.03-6.11 2.17-5.15 2.35-10.58.11-15.89-.17-.4-.37-.83-.68-1.13-3.47-3.46-7.15-6.62-12.05-7.89-.41-.11-.89-.08-1.31-.02-.25.04-.63.27-.66.46-.05.38-.03 1.02.18 1.14 1.54.84 3.1 1.65 4.71 2.33 2.35 1 3.84 2.46 4.11 5.21.23 2.48.71 4.99 1.53 7.34.99 2.84.4 5.23-1.21 7.51-1.84 2.62-4.99 3.56-7.36 5.52-.39.32-1.14.2-1.72.3-3.09.55-5.89.15-8.02-2.46a1.75 1.75 0 0 0-.71-.52c-.24-.09-.53-.03-1.04-.05-.24 1.06-.5 2.15-.77 3.33Zm-65.56-26.8c.45-2.16.43-3.92 1.19-5.23.72-1.23 2.18-2.18 4.09-2.06q-1.72 3.38-.81 6.33c2.44.32 4.96.92 6.8-2.47-2.15-2.39.41-5.21.01-8.36-1.48-.62-3.14-.98-4.37-1.91-2.19-1.63-4.51-1.18-6.79-.84-2.82.43-4.09 3.8-2.48 6.1.5.71.99 1.42 1.47 2.1-.47 2.6-3.06 4.37-2.28 7.4 1.08-.36 2.17-.72 3.16-1.05ZM9.01 87.27c.51-.21.97-.3 1.3-.56 1.65-1.26 3.02-.64 4.34.54.9.81 1.5 1.75 1.78 2.97.22.98.65 1.96 1.16 2.83.45.75 1.13 1.4 2.12.98.48-1.04.94-2.03 1.47-3.17.53.73.85 1.18 1.17 1.62 1.75-1.48 1.77-1.61.6-3.01-3.11-3.73-6.26-7.42-7.66-12.22-.06-.22-.39-.36-.76-.68C11 77.82 7.9 80.01 4.7 81.91c.21 2.95 2.48 3.95 4.3 5.35Zm95.51-67.96c.62-.88 1.16-1.65 1.82-2.57-3.96-.13-4.42-.23-6.78-1.99-.35-.26-.41-.92-.58-1.35 2.15-1.34 3.92.06 5.87.25.05-.54.26-1.1.08-1.31-.56-.65-1.22-1.58-1.93-1.66-2.58-.3-3.77-2-4.65-4.36-4.32 2.72-6.28 6.56-6.99 11.21-1.8.28-3.15 1.14-3.89 3.19 2.27.05 4.2-.63 5.92-1.01 1.13-.92.09-2.6 1.72-3.17.51.71.93 1.47 1.51 2.06.37.38 1.08.83 1.47.71 2.04-.65 4.02.23 6.44 0ZM75.61 97.63h.81c.14-.96.26-1.93.43-2.89.39-2.24.41-4.39-1.15-6.29-.81-.98-.64-2.2-.68-3.39-.07-2.32-.83-3.31-3.13-3.33-2.12-.02-3.71-.8-5.11-2.18-1.25-1.23-2.4-2.57-3.68-3.78-.31-.29-.96-.22-1.99-.43 1.87 3.75 2.79 7.19 2.2 11.09 3.23-.75 5.3.73 7.38 2.55 1.84 1.61 3.21 3.39 3.83 5.77.26.98.73 1.91 1.1 2.86Zm-63.58 29.85c1.13 1.79 2.69 2.27 4.3 2.3 2.19.04 4.59.29 6.41-1.09 2.77-2.1 6.05-3.65 8.01-6.73.43-.67 1.41-1.08.96-2.39-1.09.36-2.16.7-3.21 1.09-1.79.66-3.52 1.53-5.36 1.99-3.88.98-7.47 2.57-11.1 4.82Zm6.89-53.5c.18 5.46 4.06 7.89 6.03 11.37.71 1.25 1.82 2.32 3.39 2.39 2.64-1.13 3.53-3.53 4.52-5.8.81.17 1.49.32 2.39.51.74-.99 1.5-2.01 2.18-2.93q-1.95-3.54-5.09-3.06c-.29 1.06-.51 2.22-.91 3.31-1.23 3.39-4.21 4.21-6.99 1.84-.97-.83-1.66-2.01-2.38-3.1-.64-.97-1.11-2.05-1.71-3.05-.2-.34-.55-.59-1.43-1.49Zm44.5-5.8c2.03-2.17 4.69-3.01 6.24-5.28.23-.34.3-.78.53-1.4-.94-.82-1.88-1.63-3.31-2.87-.07 3.17-2.61 2.1-4.03 3.02.01.49.06.91.03 1.33-.14 2.11-1.49 2.84-3.2 1.67-.94-.64-1.75-1.48-2.54-2.17-1.92.84-1.84 2.22-1.28 3.44.99 2.15.95 4.24.36 6.45-.09.32.26.76.46 1.32 1.62-.41 2.98-1.07 4.48-2.08-.99-1.39-1.93-2.51-2.63-3.77-.46-.83-.88-1.89.32-2.62 1.37.89 2.71 1.77 4.56 2.97Zm43.64-46.22c.1.1.2.2.3.29.72-.68 1.35-1.5 2.18-2 .99-.6 2.15-.94 3.24-1.39 1.5-.63 3-1.23 4.48-1.9 2.31-1.05 4.69-1.7 7.25-1.74 1.01-.01 2.03-.26 3.03-.47.21-.04.51-.44.48-.64-.06-.39-.24-1.01-.49-1.08-1.7-.47-3.44-.77-5.14-1.23-3.5-.96-6.42.02-8.8 2.65-2.22 2.46-4.36 5-6.53 7.5ZM13.92 123.24c1.87-.8 3.72-1.66 5.62-2.37 1.78-.67 3.67-1.08 5.42-1.8 1.84-.75 3.85-1.23 5.42-2.61-1.87-2.24-3.14-2.81-4.88-2.04-4.6 2.02-8.75 4.66-11.58 8.83Zm93.14-95.43c2.45.32 4.24-.48 5.92-1.14 3.06-1.2 5.33-3.66 7.85-5.69.54-.43 1.35-1.13.85-2.36-2.19.37-4.06 1.63-6.13 2.26-3.56 1.08-6.29 3.16-8.49 6.93ZM52.28 70.6c.4-.87.8-1.31.72-1.62-.73-2.64-.38-5.49-1.48-8.27-1.41.49-2.61.9-3.82 1.32-.9-.57-1.74-1.11-2.59-1.63-.06-.04-.22.09-.88.36.82 4.61 4.27 7.08 8.05 9.84Zm32.97 23.35c.82.53 1.61 1.44 2.48 1.52 1.25.11 2.65-.16 3.82-.66 1.32-.57 2.49-1.53 3.67-2.39 3-2.19 3.26-3.64 1.46-7.48-1.42.08-2.01 1.12-2.33 2.26-.41 1.51-1.46 2.32-2.54 3.35-1.85 1.77-3.96 2.36-6.55 3.41Zm80.51 69.94c-1.56 2.27-3.61 2.38-5.89 1.53-.69-.25-1.41-.48-2.13-.56-.46-.05-.96.18-1.9.39 2.06 1.79 3.71 3.22 5.63 4.88 1.78-.17 3.8-.37 5.89-.58.37-.85.59-1.54.96-2.14.33-.54.83-.99 1.4-1.65-1.45-.69-2.62-1.25-3.96-1.89ZM41.28 108.84c.44 1.25.53 2 .92 2.51 1.26 1.62 2.72 3.09 3.93 4.75 1.58 2.16 3.75 2.7 6.21 2.59.95-.04 1.71-.43 1.73-1.59-.64-.35-1.35-.62-1.9-1.08-.79-.66-1.43-1.48-2.18-2.18-.74-.7-1.53-1.89-2.32-1.9-2.41-.05-4.07-1.46-6.39-3.1Zm19.74-5.86c-1.43-.31-2.5-.55-3.21-.7-1.15-1.66.46-3.21-.69-4.74-2.78.57-4.21 2.33-5.17 4.75.77.75 1.37 1.39 2.04 1.96 3.57 3.06 3.9 3.01 7.03-1.27Zm21.57-16.29c.9.78 1.61 1.5 2.43 2.07.45.31 1.08.47 1.63.48 1.46.05 2.42-.95 3.34-1.9.92-.96 1.65-2.01.97-3.69-1.38.63-2.64 1.28-3.96 1.76-1.34.49-2.74.8-4.42 1.28Zm-52.7 6.09c-.63-.08-.82-.17-.91-.11-2.4 1.52-3.76 4-5.49 6.13-.59.72-.52 1.98.86 2.64l3.81-2.38c.59-2.16 1.13-4.11 1.73-6.27Zm53.53-74.99c.14.17.3.4.31.39 2.13-1.28 3.49-2.96 3.13-5.66-.24-1.76-.26-3.54-.51-5.3-.06-.44-.58-.82-.89-1.23.28 4.25-1.42 7.97-2.05 11.8ZM48.1 122.54c1.15 2.18 2.27 2.96 3.91 2.85 1.25-.08 2.49-.25 3.39-1.58-2.29-1.28-4.5-.69-7.31-1.26Zm122.71 48.99q-2.02-.55-5.74 1.92.94 1.29 2.57 2c1.3-1.06 2.45-2.28 3.17-3.92Zm11.47-12.5c-.98.2-1.26.25-1.54.32-.76.2-1.39.54-1.23 1.47.04.26.33.69.44.68.66-.11 1.42-.17 1.92-.55.31-.24.24-1 .41-1.92ZM65.61 50.88c.12-.02.25-.05.37-.08.02-.4.08-.81.03-1.2-.02-.15-.33-.26-.51-.39-.07.12-.2.25-.18.36.07.44.19.87.29 1.31ZM26.72 74.02c-.04.13-.12.36-.11.36.23.1.47.17.71.24.02-.13.09-.35.05-.37-.2-.11-.43-.16-.64-.23Z"/>
    <path d="M83.65 50.1c.79-1.05 1.57-2.1 2.51-3.36-.7-1.4-1.4-2.82-2.17-4.36.62-2.1 1.29-4.31 1.99-6.68 2.2-1.57 4.83-2.35 7.72-2.46 1.23-.05 2.35.11 3.31.93.11.1.23.18.36.27 1.83 1.3 3.39 2.84 4.28 4.96 2.03.62 3.71 1.79 5.24 3.23 1.24 1.16 1.91 2.62 2.3 4.22.41 1.69.2 3.31-1.1 4.52-1.28 1.2-2.69 2.26-4.11 3.29-.24.17-.95.02-1.2-.23-.26-.25-.44-.91-.29-1.21.65-1.32 1.29-2.68 2.18-3.83 1.04-1.34.79-2.91-.31-4.02-.91-.92-2-1.83-3.19-2.29-1.75-.68-2.91-1.62-3.82-3.36-1.6-3.07-3.68-3.76-7.04-2.83-1.12.31-2.2.78-3.38 1.21.37 1.34.62 2.65 1.09 3.88.36.93 1 1.75 1.6 2.75 1.62-.48 3.15-.93 4.97-1.46 1.53 1.19 3.14 2.43 4.65 3.6 0 1.89.04 3.5 0 5.11-.05 1.97-1.11 3.39-2.81 4.19-1.75.83-3.48.59-4.92-.8-1.7-1.65-3.46-3.15-5.85-3.8-.77-.21-1.34-1.11-2.01-1.69l.01.22Zm11.01 2.02c1.14-.98.59-2.25.75-3.36.14-.97-.18-1.94-1.09-2.13-.75-.15-1.78.14-2.42.61-.61.45-.88 1.38-1.35 2.18 1.11.88 2 1.63 2.94 2.31.33.24.8.27 1.17.39ZM181.02 169.46c2.12 0 3.35.83 4.44 1.84 2.32 2.15 5.11 3.48 7.98 4.67 1.92.79 3.78 1.61 5.35 3.04.74.67 1.77 1.02 2.66 1.54 1.39.82 2.76 1.69 4.16 2.48 1.02.57 2.1 1.02 3.11 1.61.62.36 1.24.8 1.71 1.33.23.26.32.94.14 1.19-.3.41-.93.96-1.3.87-2-.44-4-.89-5.67-2.3-1.1-.94-2.47-1.57-3.72-2.32-.38-.23-.85-.34-1.17-.62-3.15-2.78-7.1-4.16-10.68-6.2-2.81-1.6-5.34-3.62-7.02-7.13ZM196.5 197.08q3.03 3 2.25 5.08c-1.83-1.93-1.93-2.16-2.25-5.08ZM65.74 30.14c-.63-.73-1.26-1.46-1.81-2.1-2.23 0-3.81.92-5.18 2.37-.99 1.05-2.28 1.41-3.59.63-.35-.21-.64-1.33-.53-1.41 2.17-1.45 3.55-3.84 6.19-4.78 1.68-.6 3.16-.56 4.69.05 1.11.44 2.11 1.11 2.26 2.46.09.74-.32 1.27-2.03 2.78ZM35.25 35.21c1.74.61 3.73.29 5.68 1.41-1.6 2-3.6 1.31-5.63 1.52-.97 1.23-2.01 2.63-3.15 3.96-1.07 1.25-2.48 1.51-3.98.92-.32-.13-.64-.65-.68-1.02-.03-.34.28-1 .5-1.03 3.6-.51 5.33-3.35 7.4-5.79l-.14.02Z"/>
</svg>
