<svg xmlns="http://www.w3.org/2000/svg" viewBox="0 0 176.26 176.56">
    <path d="M5.57 61.09c-1.6 1.66-2.88 3.53-3.95 5.55-1.73 1.22-2.31 4.81-.54 6.76 1.23 1.36 2.54-.46 3.77-.13 1.82-.37 3.65-.74 5.48-1.1 1.2 2.03 2.82 3.43 3.96 5.54 5.52 26.06 10.99 52.19 17.14 77.3-.69 1.47-1.17 3.09-1.58 4.75-.5.99-2.67.86-2.37 2.38-.2 1.45.02 3.18.37 4.99-1.49.24-2.92.52-3.53 1.34.07.48.25 1.04-.43 1.03-.55 1.57.09 5.53 1.35 6.7 2.49 1 5.81-.34 8.7-.8 10.85-1.71 21.98-4.38 33.24-6.37 33.63-5.93 68.71-13.98 101.1-21.61 3.13-.64 5.93-1.51 7.97-2.87-1.07-1.83-1.1-5.21-2.08-7.18-.41-.84-2.45.78-2.86-.06-.47-1.4-1-2.72-1.71-3.77-.99-.49-2.37-.4-3.59-.54-.33-1.22-.99-1.95-1.52-2.86-.69-.82-2.32-.21-2.8-1.34-5.26-25.92-10.55-51.78-16.16-77.18.37-.9 1.63-1.2 1.76-2.26.02-1.75.09-3.45.97-4.63 1.36-1.12 4.98-.73 5.17-2.62.44-2.34-2-3.53-3.42-4.38-1.71-.87-3.51-1.6-5.24-2.43-3.43-1.72-7.27-2.82-10.48-4.86-1.9-.58-3.71-1.3-5.24-2.43-1.94-.52-3.59-1.46-5.24-2.43-3.68-1.48-7.36-2.94-10.78-4.8-6.95-3.42-14.04-6.64-21.26-9.66C84.59 8.04 77.89 4.24 71 .73c-1.81.34-2.57-.89-4.26-.72-.35.12-.23.55-.12.97-6.17 4.59-10.52 10.41-16.24 15.3-5.44 5.08-10.68 10.3-15.88 15.55-3.78 2.85-7.33 5.84-10.16 9.33-3.83 2.9-6.48 6.59-10.1 9.63-2.69 3.57-6.47 6.42-8.69 10.3Z" style="fill:#391616"/>
    <path d="M70.59 4.94c-.89 1.08-1.48 2.36-3.23 2.87-4.3 3.73-7.87 7.95-12.59 11.4-1.74 2.18-4.18 3.89-6.08 5.97-2.15 1.82-3.76 4.01-6.14 5.67-.43 1.12-1.37 1.9-1.58 3.17-3.1 3.12-6.49 6.06-9.92 8.96-1.07 1.83-3.23 2.95-4.44 4.69-.91.72-1.71 1.5-2.37 2.38-.86.6-1.66 1.79-2.68.86-.92-.61.39-1.08.61-1.71.77-.28.73-1.09 1.64-1.28 1.75-2.61 4.31-4.54 6.57-6.7.58-.55.96-1.35 1.52-1.89.59-.55 1.38-.79 1.95-1.34.1-.1.09-.6.18-.67.14-.1.49 0 .61-.12.1-.1.09-.61.18-.67.14-.1.49 0 .61-.12.1-.1.1-.61.18-.67.14-.1.49 0 .61-.12.1-.1.09-.61.18-.67 1.22-.87 2.47-2.38 3.71-3.6 1.17-1.14 2.38-2.11 3.46-3.23 2.16-2.23 4.16-4.45 6.27-6.64 1.38-2.33 4.07-3.79 5.78-5.91 2.22-1.77 3.94-3.89 6.14-5.67.8-1.14 1.87-2.1 2.86-3.11.99-.92 1.32-2.28 2.92-2.8.03-.42.44-.59.42-1.04.95.56 2.08.84 2.62 2ZM72.66 5.79c.28.11.56.22.97.12 1.16 1.43 3.41 1.22 4.39 2.92-.35.21-.55.52-.43 1.04-1.92-.28-3.28-1.42-5.11-1.82-.43-1.07.42-1.3.18-2.25Z" style="fill:#fff"/>
    <path d="M69.93 11.09c.21-.04.41-.08.61-.12 3.44 1.78 6.91 3.35 10.54 5.17 1.46.73 2.73 1.5 4.26 2.31.67.35 1.57.91 2.5 1.4 1.14.6 2.35.94 3.47 1.52.29.15.5.66.79.79.34.15.67-.03.98.12.29.15.5.66.79.79.34.15.67-.04.98.12.3.16.49.64.79.79.65.33 1.61.55 2.44 1.1 1.22.81 2.18 2.01 3.41 2.8 8.36 4.48 17.58 7.65 27.11 10.38-12.54 3.3-25.24 5.13-38.29 8.02-24.17 5.36-50.06 8.63-73.66 14.82 1.92-2.24 4.19-4.24 6.32-6.34 2.16-2.08 4.48-4.05 6.69-6.09 9.1-8.01 16.5-17.15 26.4-24.63 1.72-2.37 4.68-3.92 6.32-6.34 2.52-1.75 4.23-4.04 6.75-5.79.16-.33.46-.57.79-.79Zm29.74 23.47c-1.45-.72-2.7-1.75-4.26-2.31-2.75-1.81-5.95-2.94-8.59-4.92-3.01-1.42-5.93-2.98-8.83-4.56-3.47-.74-6.07-2.77-9.81-3.09-.5.63-.39.05-1.22.24-.39.18-.49.55-1.15.55-2.29 2.17-4.28 4.54-6.57 6.7-1.97 2.47-3.98 4.91-6.51 7.01-1.78 2.59-4.33 4.68-6.14 7.25-.86 1.27-1.98 2.37-2.74 3.72-1.28 1.09-2.65 2.1-3.04 3.78.89-.42.58.97 1.65.3.47-.69.76-.19 1.52-.31 1.69-.56 2.63 0 4.32-.55 15.76-3.09 30.57-4.75 46.75-8.46 2.48-.99 5.21-1.81 8.4-2.32-.41-2.29-2.59-1.92-3.78-3.04Z" style="fill:#f6a320"/>
    <path d="M81.86 10.59c.59 1.2-1.91 1.7-1.83.37.84-.45.88-.46 1.83-.37ZM146.37 40.05c-31.29 6.93-62.66 14.54-93.8 20.14-5.43 1.15-10.33 1.52-15.89 2.88-2.25-.04-4.89.49-7.18.5-.84-.45-2.71.63-3.47.07-1.17.05-3.18 1.34-2.98-.67-.96-1.78 1.39-1.36 2.49-1.77 18.3-2.23 37.1-6.51 55.88-10.29 9.35-1.88 18.95-3.18 28.13-5.02 4.84-.97 9.69-1.73 14.3-2.88 4.29-1.07 8.32-2.73 12.66-3.18-.12-1.93-1.77-1.58-2.44-2.68-1.04-.41-2.07-.86-3.11-1.27-2.08-.96-4.41-1.56-6.27-2.85-2.23-.7-4.37-1.66-6.52-2.49-2.08-.81-4.11-1.78-6.21-2.55-8.01-4.08-16.26-7.8-24.49-11.54-.92-1.66-2.94-1.66-3.84-3.34.36-.02.53-.18.55-.43.23-.11.24-.36.55-.42 9.75 4.33 19.26 8.6 28.69 13.55.77.4 1.24.79 2.13 1.15.44.18 1.23.92 1.83 1.22.53.26 1.11.05 1.65.3 1.02.47 1.84 1.2 2.86 1.64.26.11.68-.02.97.12.16.08.28.49.43.55.44.17 1.18.11 1.65.3.35.15.81.41 1.4.67 1.23.53 2.68 1.37 4.2 2 5.13 2.32 10.19 4.76 15.84 6.32Z" style="fill:#fff"/>
    <path d="M98.51 36.69c-.8.41-3.82.73-5.23.74-15.87 3.62-31.93 5.5-47.17 9.49-.78.17-.42-.15-.43-.55.19-.31.79-.35.79-.79.54-.43 1.19-.79 1.28-1.52 1.12-.38 1.31-1.5 2.07-2.32.3-.33 1.07-.57 1.4-.91.19-.2.25-.49.48-.73 1.34-1.33 3.09-3.49 4.69-5.06 3.8-4.06 7.82-7.98 11.49-12.13 0-.35.57-.33.49-.73.25-.11.31.06.37.24 4.9 2.54 10.22 4.45 15.05 7.11 5.08 2.15 9.47 5.32 14.74 7.17Z" style="fill:#f6a320"/>
    <path d="M19.5 54.8c-1.84.98-2.75 2.56-4.32 3.72-.84 1.55-3.04 2.19-3.28 4.14.53 1.45 2.56.64 4.2.42-.48.56.36 2-.12 2.56-3.07.39-6.16.8-9.5 1.59 2.89-4.49 6.13-8.75 10.52-12.25.03-.42.44-.59.42-1.04 1-.18 1.72.06 2.07.85ZM18.23 62.66c.71-.14 1.42-.28 2.13-.43.27 1.5.35 2.87-1.64 2.87-.16-.81-.33-1.63-.49-2.44ZM13.98 71.43c4.44-.86 9.05-1.98 13.15-2.33-.34.82-.82 1.56-1.09 2.44-3.96 1.01-7.21 1.8-11.02 1.9-.02-1.15-.89-1.03-1.04-2.01Z" style="fill:#fff"/>
    <path d="M32.61 68c4.25-.84 8.63-1.88 12.54-2.21.92-.2.98.92 1.28 1.64.3.6.93.71.98 1.7.63 1.17 2.25.84 2.93 1.95 4.39 21.81 8.78 43.62 13.16 65.44-6.78 1.12-12.47 2.96-19.11 4.16-4.89-23.15-7.99-45.56-13.65-67.87.04-1.47.67-2.54 1.15-3.71.08-.47.32-.84.73-1.1Z" style="fill:#f6a320"/>
    <path d="M52.15 64.38c1.67-.27 3.62-.94 4.93-.67 1.12-.23 2.23-.45 3.35-.67.9.1 2.73-1.2 2.86.06-.33 1.24-.77.77-2.31 1.1-3.22.41-5.31 1.57-8.46 2.02l-.36-1.83ZM144.43 46.14c-.08 1-.73 1.62-.73 2.68-4.06-.37-8.6 1.77-12.6 1.9-.28-.51-.41-1.23-.92-1.4 4.35-1.22 9.7-2.95 14.24-3.18Z" style="fill:#fff"/>
    <path d="M82.77 59.18c.96 1.6 2.2 2.78 3.36 4.08 1.01.6 2.68.2 3.65.85 2.59 8.79 4.41 18.74 6.36 28.49-7 2.9-17.17 1.68-23.92 5.45-1.87-10.43-4.6-21.13-6.18-30.74.66-1.5 1.14-3.11 1.58-4.75-.12-.52.07-.83.42-1.04 4.7-.46 9.74-1.42 14.73-2.33ZM143.18 121.76c-6.93.88-15.8 2.65-22.52 4.53-2.34-11.52-5.14-23.23-7.59-34.57-2.13-9.88-3.18-20.03-6-29.83-.08-1.99 1.33-2.98 1.94-4.51.9-1.25 1.13-2.94 2.01-4.2 3.73-.95 8.38-1.28 11.5-2.63 1.06-.27 2.23-.71 2.07.85.42.56.87 1.08 1.28 1.64 1.19.59 2.23 1.4 3.05 2.55 2.58 10.58 5.28 21.5 7.53 32.69 2.24 11.16 4.49 22.32 6.74 33.48Z" style="fill:#f6a320"/>
    <path d="M106.75 54.03c.95-.42.59.51.12.61.12.52-.07.83-.43 1.04a4.44 4.44 0 0 1-1.22 1.83c-2.04.3-4.48 1.18-6.14.92-.81.12-1.95.44-2.74.55-2.83.39-5.9.98-7.12-.78 5.52-1.6 11.54-2.87 17.53-4.16ZM27.14 73.85c.85-.49.67.57.85 1.1.12.61.25 1.22.37 1.83-.14.88-.3 1.73-.06 2.86 4.69 21.96 7.87 45.31 13.65 66.29.52 1.49-.09 2.23.43 3.71.14.71.28 1.42.43 2.13.04.55.61 1.46-.36 1.34-1.11.48-.68-1.36-1.04-2.01.51-.05.12-1.98-.37-1.83-5.19-23.25-9.88-47.25-15.12-70.43-.03-1.43-1.36-3.71-.25-4.38.91.08.7-.59 1.46-.61Z" style="fill:#fff"/>
    <path d="m61.59 67.24 1.22-.24c1.11-.48.68 1.36 1.04 2.01.16.81.33 1.63.49 2.43 3.25 18.45 6.71 37.64 11.33 56.31 1.5 6.06 3.11 11.98 4.22 17.83-2.23.45-4.46.9-6.7 1.35-6.1-24.13-10.45-50.89-16.16-75.6-.63-1.24-1.43-3.15.97-3.05 1.66-.91 1.37 1.11 1.7 2.19 4.93 20.3 8.38 42.9 13.47 63.79.74 3.05 1.37 6.45 2.51 9.31.27.67.49 1.74 1.34 1.95.86-.99.12-2.89-.31-4.69-1-4.18-2.84-9.25-3.49-14.18-4.04-18.49-7.51-40.23-12.42-58.62.16-.33.46-.57.79-.79ZM18.43 76.24c1.74-.76 1.42 1.56 1.83 2.8.29 1.42.57 2.84.85 4.26 1.66 4.43 2.61 9.1 3.73 13.82 1.12 4.74 2.21 9.66 3.24 14.55 1.71 8.05 4.09 17.48 5.38 25.2.8 4.77 2.67 10.05 3.37 15.16.11 1.13 1.16 2.88-.73 2.68-1.6.8-1.41-.82-1.28-1.64-.61-.4-.6-1.74-.85-2.68-1.6-5.52-2.88-11.53-4.41-17.17-2.02-18.34-7.1-37.9-11.57-55.94-.12-.43-.23-.85.12-.97l.3-.06Z" style="fill:#f6a320"/>
    <path d="M21.78 75.56c.51-.1 1.02-.2 1.52-.31 1.11-.48.68 1.36 1.04 2.01 1.74 11.71 5.06 23.58 7.53 35.85 2.44 12.14 4.84 24.63 7.65 36.46.16.81.33 1.62.49 2.44-.25.96 1.28 1.47 0 1.58-1.82.5-1.09-2.84-1.77-4.08-5.56-24.42-10.74-49.4-16.89-72.92-.12-.52.07-.83.42-1.04Z" style="fill:#fff"/>
    <path d="M53.74 69.13c1.53-.85 1.39.81 1.64 1.89 5.5 25.97 9.56 49.5 15.8 73.78-.25 1.19 1.7 2.31.25 2.8-1.23.66-1.32-.39-1.77-.91.03-1.1-.69-1.08-.73-2.07-2.55-12.32-6.37-24.34-8.38-36.95-1.99-12.41-4.25-24.93-6.92-37.56-.24-.25-.93-.98.12-.98Z" style="fill:#f6a320"/>
    <path d="M140.6 52.29c.81-.16 1.62-.33 2.43-.49 4.55 19.7 6.49 41.74 12.37 61.48l1.77 8.83c.57 1.6 0 2.45.49 4.02.14.71.29 1.42.43 2.13-.02.6.78 1.75-.3 1.64-1.39.29-.23-1.06-.67-1.76-.18-.91-.37-1.83-.55-2.74-.37-1.83-.73-3.65-1.1-5.48-.1-1.44-1.04-1.61-1.22-2.92-.67-3.76-1.49-7.27-2.69-10.22-4.08-18.44-7.57-36.31-11.08-53.51-.75.12-.27-.99.12-.97Z" style="fill:#fff"/>
    <path d="m137.01 53.33.91-.18c1.26-.7 1.03.83 1.28 1.64-.05.67.78 1.92.13 2.19 5.51 22.38 9 47.78 15.18 69.15.16.81.33 1.62.49 2.43-.06.67.91 2.02-.24 1.95-.61.12-1.22.25-1.83.37-1.26.7-1.03-.84-1.28-1.64-.02-1.02-.49-1.38-.73-2.07-4.55-24.4-9.03-48.55-14.33-72.8-.12-.52.07-.83.42-1.03Z" style="fill:#f6a320"/>
    <path d="M132.81 54.49c.3-.06.61-.12.91-.19 1.26-.7 1.02.84 1.28 1.64.17.81.33 1.62.49 2.44 4.66 24.36 10.56 49.55 14.08 73.17-1.73.76-1.42-1.56-1.83-2.8-3.43-15.95-5.74-31.8-9.55-47.48-2.07-8.54-3.43-17.28-5.81-25.75-.12-.52.07-.83.43-1.03Z" style="fill:#fff"/>
    <path d="M103.96 60.61c1.11-.48.68 1.36 1.04 2.01.46 1.01-.22 1.26.12 2.19 3.22 18.07 5.19 36.63 9.74 54.72 1.61 5.38 3 11.08 4.83 16.13-.25.96 1.28 1.47 0 1.58-2.23 1.11-1.58-2.11-2.5-2.98-3.26-12.03-5.36-24.26-8.26-36.34-2.87-11.95-6.13-23.85-8.51-35.97.68-.78 2.79-.61 3.53-1.34ZM95.62 63.24c5.23 24.64 10.45 49.3 16.28 73.05.16.81.33 1.62.49 2.43-1.1-.03-1.08.69-2.07.73-1.29.74-.89-1.03-1.52-1.28-.16-.81-.33-1.62-.49-2.43-.35-1.59-1.06-2.64-1.22-4.5-4.37-22.03-8.05-46.61-14.39-66.77-.67-.15-.13-1.36.18-.67.92-.18 1.83-.37 2.74-.55ZM97.69 62.51c1.2-.62 1.45.19 1.52 1.27.16.81.33 1.63.49 2.44 4.61 23.46 10.69 44.7 15.54 67.81.02 1.02.49 1.37.73 2.07-.06.67.92 2.02-.24 1.95-2.25 1.14-2.12-1.31-2.5-2.98-5.13-24.27-10.24-48.56-16.28-71.46-.75-.58.01-.35.12-.97.2-.04.4-.08.61-.12Z" style="fill:#f6a320"/>
    <path d="M72.28 98.34c8.14-1.56 15.75-2.89 24.29-3.62 1.5 10.34 4.55 20.96 6.43 31.96-.08.74 1.02 2.26-.18 2.25-1.37.64-1.06-1.22-1.34-1.95-.34-.9-.86-1.52-.79-2.37-2.03-7.63-2.94-15.29-4.84-22.46-.62-1.82-.36-3.05-.25-4.38-5.25.3-11.33 2.3-16.37 3.61-1.61.7-2.22-.1-3.47.06 1.41 9.73 3.68 20.02 5.39 29.95.08.84.88 2.17-.55 2.01-.42.67-1.05.25-1.1-.73-.14-.71-.29-1.42-.43-2.13-2.46-10.05-4.48-20.74-6.61-31.29l-.18-.91Z" style="fill:#fff"/>
    <path d="M78.19 104.11c.35-.12.55-.04.67.18.96-.52.66.85.91 1.4.14.71.29 1.42.43 2.13 1.42 8.44 4.04 17.18 5.27 24.59-.96.51-1.08-.22-1.16-1.03-.14-.71-.29-1.42-.43-2.13-2-7.82-3.44-16.51-5.51-24.23-.06-.3-.12-.61-.19-.91ZM92.86 101.48l.92-.18c.85 7.42 2.98 15.69 4.41 23.5.07 1.21.84 1.38.86 2.68.11.51 1.43 2.02.12 2.19-1.41.43-.51-.18-.85-1.1-.16-.81-.33-1.62-.49-2.43-1.76-7.79-3.61-15.44-5.57-22.95.48-.39.95-.78.61-1.71Z" style="fill:#fff"/>
    <path d="M91.04 103.43c1.89 9.06 3.44 18.62 6 26.66-1.32.26-2.64.53-3.96.8-1.89-8.78-3.36-18.21-5.63-26.42 1.57-.1 2.02-.94 3.59-1.04ZM86.29 105.02c1.16 8.51 3.45 17.76 4.66 26.3-1.11.22-2.23.45-3.35.67-2.35-8.23-4.56-16.66-6.18-25.99 1.62-.33 3.24-.65 4.87-.98Z" style="fill:#e41b1b"/>
    <path d="M63.92 138.65c.62 2.63.9 5.78 1.89 7.85.28 1.59-1.07 2.1-1.21 3.41-.4 1.05-.89 2.05-.91 3.35-3 1.62-6.85 1.81-10.59 2.45-.99-1.55-1.99-3.09-3.6-3.71-1.3-.51-2.08.68-3.41.37.19-2.87-1.46-6.94-1.35-9.86 6.69-1.28 12.75-2.05 19.18-3.86ZM103.24 131.06c.96-.52.66.85.92 1.4.14.71.29 1.42.43 2.13.29 1.42.57 2.84.86 4.26.24.95-1.11.84-1.28 1.52-.06 1.45-.68 2.54-.79 3.96-5.49 1.45-10.84 2.98-16.92 4.04-1.09-2.19-2.9-3.31-4.45-4.8-.52-2.52-.91-5.23-1.77-7.24 7.85-1.63 16.13-2.99 23.01-5.26ZM121.08 128.42c7.51-1.75 15.47-2.16 22.52-4.53l1.47 7.3c-.45.76-1.31 1.24-2.19 1.71-.33 1.54-.78 3-1.33 4.39-5.03.69-10.33 1.79-15.34 2.45-1.13-1.33-1.77-3.41-3.35-4.07-.61-2.38-.78-5.44-1.77-7.24Z" style="fill:#f6a320"/>
    <path d="M121.82 139.99c.52.96-.85.66-1.4.91-.61.12-1.22.24-1.83.37-3.59.51-7.83 2-11.02 1.9l-.18-.91c.23-.11.24-.37.55-.43 1.31.05 1.22-.28 2.74-.55 2.21.12 5.1-.8 7.67-1.23 1.47-.17 2.79-1.59 3.47-.06ZM48.66 154.07c.16.95.48 1.66 1.04 2.01-4.92 1.57-10.83 2.47-16.01 3.85.23-.81.45-1.63.42-2.62 4.94-1.02 10.12-1.88 14.55-3.24ZM160.91 132.76c.73 1.37-1.12 1.01-1.95 1.34-4.24.96-8.27 1.6-12.23 2.14-.04-.73.11-1.33.24-1.95 3.53-.42 7.02-.77 10.78-1.54.98.11 2.95-1.27 3.17 0ZM82.44 148.86c-3.69 1.94-9.84 2.24-14.12 3.79-1.48.19.46-1.04.3-1.64.27 0 .26-.18.24-.37 2.3-.55 5.05-.9 7.61-1.53 2.12-.53 4.74-2.29 5.97-.25Z" style="fill:#fff"/>
    <path d="M167.3 137.8c.03 1.58-1.93.26-2.98.92-18.88 4.07-38.28 8.33-57.7 12.24-24.72 4.97-49.82 9.35-72.81 14.33-1.4.82-3.24 1.24-3.1-1.28-.59-.99-.42-1.26.73-1.1.92-.18 1.83-.37 2.74-.55 27.65-5.52 55.13-11.14 82.05-17.14.51-.01.47-.39.85-.49 15.5-2.34 30.8-6.7 45.78-8.58 2.36-.77 3.92-.35 4.45 1.64ZM172.18 141.57c.82 1.95.17 2.93-1.94 2.93-46.26 10.12-93.01 19.42-138.97 28.59-1.39.1-3.47 1.25-3.84-.18.57-.39-.11-2.18-.49-2.44-.03-1.58 1.93-.26 2.98-.92 19.62-3.89 39.11-7.55 58.5-11.45 9.49-1.91 18.99-3.98 28.49-6.37 17.74-4.45 35.64-7.73 53.51-11.08 1.16-.51 1.57-.71 1.77.91Z" style="fill:#f6a320"/>
</svg>
