<svg xmlns="http://www.w3.org/2000/svg" viewBox="0 0 157.48 220.85">
    <path d="M118.81 91.1c-1.36 1.26-3.37 1.36-4.82 2.44-.46-.15-.76 0-.97.31-3.74.67-7.41 1.49-11.19 2.09-3.65-.39-7.04-.32-11.27-1.76-4.72-2.6-9.4-4.75-12.7-8.05-.68-.68-1.87-2.17-2.17-2.68-.87-1.5-2.19-2.46-2.68-4.01-1.21-.86-1.34-2.31-2.29-3.31-.15-1.52-2.11-2.03-3.26-3-2.85.08-4.89 1.63-7.62 1.94-1.51 1.27-3.2 2.21-4.98 2.99-6.6 2.26-14.53 2.13-24.13-1.03-4.21-1.78-7.7-3.97-10.84-6.34-4.28-4.49-7.91-9.34-11.53-14.2-3.11-5.22-4.57-11.34-5.85-17.57C1.46 32.63.33 26.4.08 19.67-.09 16.34 0 12.85.44 9.18c.08-1.8.17-3.6.75-5.67.22-1.12.57-1.99 1.44-1.94.48-.78.82-1.82 1.9-1.52C7.39.68 7.9 2.61 9.27 4.06c1.57 1.37 2.71 3.01 4.31 4.47 5.95 5.46 15.34 8.34 24.94 11.57 6.87 2.31 14.76 5.28 20.75 7.71 2.21.9 4.29 1.63 5.86 3.15 2.28 1.17 3.26 3.07 5.2 4.43.5 1.25 1.84 2.03 2.29 3.31.94 1.08 1.26 2.5 2.21 3.58 4.51-3.83 11.11-3.88 17.45-4.41.33.05.76.27.89-.04 7.35 1.7 15.04 4.03 22.65 6.2 6.87 2.85 14.46 4.64 20.79 4.49 3.17-.74 6.39-1.4 9.48-2.28 3.13-.85 5.87-2.61 9.37-2.9.09 0 .18.08.27.08.35.27.54.61.58 1.05.6 1.27.9 2.7 1.16 4.16-.04.79-.96 2.06-.43 2.53-.31 1.09-.62 2.18-.94 3.26-2.72 7.26-6.34 12.95-10.08 17.71-3.21 4.07-6.77 7.05-10.31 10.29-7.36 17.65-15.29 34.87-22.67 52.36-3.69 8.74-7.42 17.51-11.33 26.18-.95 2.11-2.08 4.07-2.96 6.21-.91 2.23-1.65 4.61-2.57 6.91-1.78 4.45-3.58 8.98-5.61 13.4-3.3 9.01-7.74 17.68-11.53 25.83-1.28 2.75-2.46 5.5-4.52 7.53-1.21-.07-3.23-.3-3.73-1.36-1.83-.28-2.5-1.21-3.22-2.1 1.53-6.1 4.41-11.15 6.74-16.32 2.38-5.27 4.59-10.54 7.2-15.89 4.69-10.65 9.51-21.09 13.94-32.21 9.61-21.04 19.15-42.21 28.35-63.98-1.91.27-3.16 1.73-5.01 2.09Z" style="fill:#391616"/>
    <path d="M71.76 43.76c-.6-.73-1.05-1.55-1.36-2.45-1.24-.84-1.48-2.23-2.99-2.92-.8-1.01-1.75-1.93-2.72-2.84-2.09-1.82-4.55-3.42-7.11-4.98-14.22-3.71-26.53-8.47-37.49-13.99 2.06 2.14 5.55 3.48 7.85 5.49 10.53 4.12 23.4 6.53 31.86 12.08 2.76 1.81 5.06 3.69 6.79 6.07.93 1.39.89 3.32 1.9 4.67.07.87.49 1.56.81 2.29-.27 1.06 1.2 1.17 1.51 1.91 2.1 1.03 2.68-.67 4.08-.89 1.2-.46 2.24-1.18 3.61-1.32 5.78-1.95 13.23-3.34 21.61-1.46 8.52 1.92 17.31 5.73 25.99 6.86 6.53 1.06 12.21.57 17.91.13 1.7-1.07 3.82-1.36 5.44-2.56 1.14 0 1.77-.93 2.92-.93.44-.8 2.47-.19 1.91-1.51.05-.18.1-.36.16-.54.21-.46-.1-.63-.19-.35-5.24 2.52-10.65 4.72-16.68 5.81-3.1.04-6.38-.23-9.79-.75-13.74-2.75-30.35-11.65-41.81-10.22-2.22.28-4.65 2.04-6.96 2.71-1.69.6-7.85 5.41-7.27-.32Z" style="fill:#ef7d00"/>
    <path d="M122.69 62.19c-3.68-1.14-6.91-1.46-10.49-2.42-7.98-1.05-13.03 3.17-20.56 2.93.38 1.54 2.36 2.2 3.11 3.54 1.42.45 2.55.99 3.85 1.99 1.09.31 2.17.62 3.26.94 3.98.44 7.08-.71 10.8-.73 2.06-1.23 4.4-1.96 6.49-3.14 1.01-1.34 2.46-1.89 3.54-3.11ZM24.82 35.01c.27 1.6 1.21 2.84 1.36 4.51 1.29 2.26 2.87 4.36 4.31 6.53 3.8 2.24 5.56 5.61 11.3 6.77 1.41.28 2.84-.45 3.96.55 1.55-.65 3.5-.56 5.05-1.2-1.06-1.32-3.19-2.04-4-3.5-1.31-1.1-2.43-2.31-3.38-3.62-2.27-2.4-4.83-4.64-8.16-6.46-3.68-1.09-6.63-2.58-10.45-3.59ZM71.13 216.34c.92.29 1.09-.78 1.36-1.67 1.09-1.75 2.02-3.78 2.88-5.94 1.39-2.44 2.49-5.41 3.97-7.69 4.17-7.64 7.5-15.92 11.33-24.12 3.8-8.12 7.24-16.54 11.14-24.47 2.27-5.61 4.76-11.2 7.17-16.78 2.42-5.61 4.85-11.18 7.17-16.78 1.17-2.82 2.37-5.61 3.58-8.39.88-2.02 2.11-4.04 2.88-5.94 1.46-3.61 2.8-6.83 4.48-10.49 1.3-2.82 2.74-5.41 3.86-8.31.22-.46-.1-.63-.19-.35-1.48.77-3.12 1.24-4.28 2.6-3.85 12.31-8.81 22.62-13.63 33.17-4.57 10.88-9.38 21.32-13.75 32.55-2.34 5-4.36 10.21-6.7 15.15-2.34 4.94-4.45 9.94-6.62 14.88-4.33 9.87-9.44 19.28-13.63 29.06-.35.6-.75 1.13-.9 2.1-.47.24-.8 1.21-.12 1.44Z" style="fill:#fff"/>
    <path d="M5.73 5.11c-.57.26.57 1.5.19 2.41 4.4 6.94 6.42 15.2 12.8 21.04 1.34.08 2.43-.29 3.65-.42 1.24.68 3.35.21 5.13.59l6.8 1.95c1.22.7 2.41 1.41 3.5 2.18 1.8.3 2.67 1.11 4.27 1.52 1.54 1.13 3.26 2.15 4.62 3.38 2.2 1.98 3.4 4.52 5.47 6.57 1.43 2.33 3.85 4.12 5.2 6.49-2.71.7-4.57-1.7-5.86-3.15-1.56-1.58-3.26-3.08-4.5-4.82-3.05-3.11-6.29-6.12-10.14-8.79-1.36-.47-2.53-1.03-3.65-1.64-4.63-1.33-8.97-2.15-13.09-2.58.25 2.14 3.07 2.14 5.21 2.38 2.41.78 4.37.73 6.88 1.68 4.17 1.73 7.17 4.11 10.91 6.07 2.19 2.22 3.86 4.72 5.94 7 1.81 2.35 4.84 4.03 7.07 6.15-.36 1.28-1.36 1.39-2.26 1.71-.79.36-1.91.13-3.15-.31-4.27 2.14-11.94.86-17.64-2.12-3.72-2.44-5.92-5.72-8.34-8.87-.39-1.77-1.42-3.18-1.47-5.13-1.28-1.42-1.49-3.44-3.06-4.7.51 2.77 1.66 5.18 1.78 8.16.89 2.02 2.23 3.8 3.38 5.68 4.15 2.95 8.55 5.9 14.06 8.45 2.44.9 3.42 1.03 5.79 1.37-.33 1.06-1.67.29-2.29.81-1.01-.31-1.8-.22-2.6-.16-1.63-.47-3.26-.94-4.89-1.4-3.25-1.33-5.85-3.2-8.27-5.02-.78-.59-1.23-.78-1.94-1.44-.4-.37-.8-.65-1.13-1.2-.52-.9-1.93-2.37-2.83-3.46-.78-2.4-1.74-4.81-2.29-7.42-.52-2.53-.83-5.11-2.01-7.35-3.01-3.06-5.53-6.39-7.41-10.07-.88-1.88-2-3.62-3.18-5.33-.68-.77-.97-1.75-1.63-2.53-.41-.38-.67-.85-.78-1.4-.38-.06-.15-1.54-.66-.78-.14 6.18-.13 12.27.76 17.88.66 2.69.88 5.61 1.78 8.16.47 2.79 1.6 5.21 1.78 8.16 1.85 2.63 2.98 5.67 4.66 8.4.92 1.32 1.7 2.72 2.33 4.2 1.32 1.02 1.37 2.75 2.76 3.73 1.17 2.94 3.89 5.01 6.48 7.16 5.04 4.63 14.92 7.41 22.34 7.29 4.12-.95 7.75-2.8 11.55-4.34 3.08-4.34 6.24-8.55 8.91-13.63 1.71 3.68-1.78 8.1-3.55 11.34 1.43-.31 2.87-.59 4.55-.46 1.84.96 3.01 2.3 4.27 3.58 1.27-2.35.02-7.05 2.38-9.32 1.16.58.82 1.98.5 3.38.37.94-.14 2.36.23 3.3-.3 2.53.28 4.58.38 6.88 1.4 1.59 2.38 3.41 3.53 5.13 3.49 2.79 6.59 5.8 11.26 7.94 6.41 1.38 12.84 2.81 17.99 1.92 4.38-2.14 9.26-3.37 13.65-5.51 4.35-2.19 8.74-4.32 12.29-7.95 3.61-3.52 7.15-7.18 10.35-11.46 2.96-4.57 6.62-7.86 9.11-13.28-1.46.8-2.52 2.33-3.7 3.65-2.28 1.94-4.83 3.4-7.31 4.97-6.27.38-10.84 3.82-16.71 4.92-1.8 1.29-3.6 2.58-5.48 3.73-1.71 1.45-4.07 1.74-5.48 3.73-2.49.45-4.37 2.01-7.27 1.74-2.39.64-5.31.32-8.24 0-1.9-.55-3.81-1.09-5.71-1.64-.18-.21-.36-.41-.74-.51-1.71-1.18-3.2-2.72-4.39-4.2-1.15-1.43-2.6-2.95-2.36-5.09 2.31.98 3.06 3.17 4.5 4.82.45.51 1.22.78 1.32 1.55 1.09.39 1.7 1.04 2.49 1.6 6.25 1.64 11.61 1.69 16.71 1.26 1.8-.88 3.66-1.65 5.44-2.56 1.62-1.33 3.15-2.85 5.13-3.53 1.37-1.65 3.45-2.03 4.86-3.61-1.77.11-2.79 1.58-4.39 1.98-.89 1.42-2.29 1.92-3.27 3.18-3.8 1.67-7.69 3.19-12.21 3.56-6.51-.58-13.83-3.46-16.35-7.63-1.28-.28-2.35-.68-2.84-1.4-.54-.69-1.28-1.27-1.09-2.37.45-.83 1.42-.74 2.49-.46.73-.19 1.44-.43 2.41-.19 1.39-.52 3.01-.62 4.43-1.08 2.86-.9 5.69-1.84 8.47-2.87 4.3.47 8.07-.02 12.47.63 2.81.58 4.61 1.71 7.27 2.38 2.14.6 3 2.49 5.21 2.38.15-1.07-1.83-1.41-2.95-2.02-.69-.84-2.37-1.12-3.3-1.83-5.58-1.96-10.31-2.37-15.08-2.85-2.53.25-4.89.81-7.58.77-1 .73-2.24.72-3.54 1.05-.13.03-.32.45-.43.47-.54.08-1.43.13-2.22.54-.45.24-1.86.35-2.76.39-2.69.82-6.73 1.31-9.75.14 1.26-1.58 3.55-1.29 5.48-1.66 5.84-.88 11.28-2.48 16.95-3.68 3.9.29 7.7.4 11.77 1.02 4.27 1.16 8.08 2.37 11.34 3.55 1.6 1.25 3.4 2.38 4.47 3.93 4.74-.12 8.51-1.97 12.48-3.49 3.22-2.58 6.27-5.47 9.22-8.54-.15-.76-1.03.59-1.59.43-.39.66-1.4.22-1.75.97-1.24.52-2.43 1.12-3.7 1.59-7.46 2.6-16.86 2.31-27.32-.18-5.89-1.4-11.88-3.69-17.95-5.15-2.48-.59-5.12-.79-7.5-1.56-.08.26-.39.12-.62.12-4.06.24-7.62 1.38-11.47 2.01-1.76.67-3.62 1.16-5.48 1.67-.99.14-1.82.58-2.84.66-.93.12-1.13 1.54-2.57.74-2.38-.51-2.18-2.45-3.03-3.81-.58-1.43-1.38-2.74-1.71-4.32-1.12-1.06-1.59-2.47-2.48-3.66-2.77-2.35-6.39-4.24-9.32-6.5-8.93-3.66-20.57-5.83-28.63-9.98-3.48-1.27-5.35-3.44-8.27-5.02-2.55-1.79-4.57-3.87-6.52-5.99-1.64-2.21-3.88-4.1-4.85-6.69Zm5.45 31.29c-.52-.4-.77-.95-.35-1.87 1.81-.85 2.41 2.41.35 1.87Zm117.05 38.27c-.55-.03-.85.39-1.52.16-.78-.41-1.22-1-.89-2.02.87-1.52 3.91-.44 2.41 1.87ZM14.9 46c-.5.38-1.82.39-2.25-.35.04-2.59 3.17-1.67 2.25.35Zm107.93 32.12c-.63.93-1.06 2.22-2.33 1.98-1.89-.32-1.71-1.8-1.05-3.54 1.25-.94 3.47-.04 3.38 1.56Zm-66.9-15.07c-.8.75-1.52 1.67-2.99 1.2-1.47-.63-1.81-1.89-.97-3.81 1.87-1.29 4.29.28 3.96 2.61Zm-36.25-10.1c-.44.17-.95.21-1.32.5-1.33-.64-2.26-1.49-1.4-3.34.67.1.78-.8 1.59-.42 1.42.51 1.65 1.68 1.12 3.26Zm96.15 29.04c-.58.33-1.03.9-1.94.62-1.38-.56-1.07-2.8.12-3.5 1.87.26 2.36 1.29 1.82 2.88Zm-90.41-26.5c.06 1.19.79 2 .15 3.58-.44.17-.95.21-1.32.5-1.6-.71-2.34-1.91-1.86-3.77.23 0 .38-.14.43-.47.6-.43 1.54-.24 2.6.16Zm58.62 20.34c-1.29.04-1.73-.58-2.21-1.52.12-1.02.69-1.23 1.09-1.75 2.17.12 2.27 2.01 1.12 3.27Zm23.58 9.12c-1.35-.63-1.52-2.6-.35-3.93 3.35-1.48 3.9 4.67.35 3.93Zm-58.7-20.07c-.33 1.34-.68 2.62-1.48 3.11-.23 0-.54-.15-.62.12-2.46-.54-2.68-2.33-1.9-4.67 1.23-1.12 3.54.2 4 1.44Zm40.83 14.65c-.64.08-1.04.6-1.87.35-1.36-.62-1.75-1.78-1.05-3.54 1.74-1.18 4.08.77 2.91 3.19Zm12.74 4.83c-.85-.02-1.08 1.09-2.21.54-1.26-.6-1.75-1.62-1.12-3.26.23 0 .38-.14.43-.47 1.79-.75 4.48.7 2.91 3.19Zm-6.92-2.57c-1.17 2.2-4.81.61-3.14-2.37 1.47-1.07 3.93.29 3.14 2.37ZM30.66 64.94c-1.88-.48-2.25-1.8-1.59-3.69 2.58-2.02 4.52 3.24 1.59 3.69Zm9.29 1.49c-1.19 2.83-5.03.58-3.42-2.45 1.53-1.25 3.72.68 3.42 2.45Z" style="fill:#325faa"/>
</svg>
