<svg xmlns="http://www.w3.org/2000/svg" viewBox="0 0 202.08 233.05">
    <path d="M138.85 0c-3.18.2-6.3.24-9.86 1.61l-5.76 2.94c-1.56 1.29-2.71 2.7-4.4 3.95-1.41 3.03-2.94 6.02-4.87 8.89-.34 1.77-.89 3.48-1.66 5.12.15 3.07-.77 5.78-.1 9.02-.3 2.92 1.51 6.53 1.43 9.52-2.75 1.22-5.82 3.39-8.31 3.81-1.14-2.28-2.51-3.88-3.79-5.76-3.04-1.68-5.87-3.99-8.39-7.25-2-.81-3.95-1.79-5.98-2.51-2.28.35-4.35.04-6.8.9-2.28 1.62-4.47 1.88-5.58 4.13-1.54-.2-3.23.08-5.27 1.4-4.23 2.77-6.01 6.35-6.73 10.26-1.7.48-1.63 1.54-2.7 2.23-1.07 3.05-1.39 6.34-.95 9.88 1.23 2.54 3.27 5.98 3.29 7.29-.68.35-1.36.69-2.04 1.04-1.53.16-.18 1.26-1.35 1.54-2.39 1.02-5.75 3.22-7.12 3.63-5.79-7.14-12.2-12.36-19.68-14.31-3.45-.12-6.77-.65-10.05-1.29-2.11.69-3.99.65-6.12 1.41-2.04 1.04-4.07 2.07-6.1 3.11-2.71 2.04-4.5 4.39-6.42 6.69-.57 2.83-2.49 5.24-3.17 8.02-.1.38.11 1.2.01 1.7-.34 1.75-.53 3.44-.3 5.28.32 2.55 1.27 5.21 2.44 8.15 2.18 3.72 4.49 7.08 7.38 8.62 4.01 1.02 8.5.55 13.6-1.8.8-.4.7-1.1 1.86-1.38 2.46-2.31 3.69-5.02 5.56-7.53.05-1.59 1.07-2.86 1.67-4.27 0-.75.22-1.44.67-2.05-.26-.46-.22-.83-.18-1.19.49-.22-.12-1.19.5-.68 1.2.67 1.82 3.1 2.76 4.57-3.66.46-4.75 4.08-3.69 7.01 1.22 2.05 2.87 2.79 4.62 3.2 1.13-.27 2.44-1.13 3.23-.37 3.74 11.12 3.78 21.03 5.34 31.44.93 7.39 3.74 16.22 6.48 24.45 4.35 13.06 11.2 27.82 20.52 35.24 5.85 4.65 11.95 8.49 18.46 11.09 8.25 1 16.18 3.01 26.03-.88.28 1.16.98 1.06 1.37 1.86.99 1.36-1.39 1.62-1.17 2.73-.77.79-.92 1.78-1.68 2.57-.02 2.25-1.47 4.05-1.48 6.31 2.74 6.43 8.68 19.33 12.94 23.72 2-.33 4.23-1.41 6.28-1.92 21.36-11.14 43.71-20.79 64.08-31.8 1.78-1.5 2.89 0 3.9-1.56 0-.95-.56-2.07.32-2.73.35-.2.05-.57-.51-.17-.23-.45-.46-.9-.69-1.36-1.36-2.89-3.39-6.01-3.98-8.65-2.33-3.44-5.32-8.91-6.73-12.37-2-.82-3.97-1.7-6.31-1.48-1.94-.99-4.62.29-6.64-.46.48-.97-.17-2.32-.54-3.57 5.11-2.49 6.85-6.07 9.8-9.26 1.38-3.7 4.24-6.92 5.7-10.59.48-2.34 1.24-5.03 1.48-7.16.09-.83-.08-1.72-.02-2.55.25-3.26.91-6.77.77-10.22-.13-3.34-1.03-7.15-2.12-10.88-2.12-7.22-5.81-13.96-9.69-20.69-6.14-10.66-14.3-19.55-21.14-27.24-7.66-7.21-15.72-13.14-22.47-23.14 2.23-1.72 2.79-4 3.18-6.32.27-1.51-2.07-3.75-1.9-4.58 3.62.47 7.26.88 11.57-.77 4.74-2.71 7.58-6.02 9.12-9.77-.09-.22-.15-.43.16-.51.03-3.29-1.18-6.98-2.97-10.87-2.31-3.61-4.78-6.77-7.72-8.45-3.43-2.5-7.62-2.68-11.43-3.99Z" style="fill:#391616"/>
    <path d="M77 35.35c6.37-3.93 11.32-3.48 15.15.4-1.83.05-3.57 1.6-5.09 2.59-1.4 1.33-1.67 3.04-2.86 4.45-2.29-2.81-4.89-4.68-7.2-7.43ZM145.73 10.16c1.49.34 2.5 2.17 3.77 3.2 3.29 5.41 4.9 10.27 2.32 13.77-2.84 1.76-5.24 2.18-7.47 2.1.34-.93 2.01-1.42 2.19-2.4 2.14-4.77 3.5-9.8-.81-16.67Z" style="fill:#f6a320"/>
    <path d="M66.07 51.6c-.26-.09.02-.56.16-.51.27.08-.02.56-.16.51Z" style="fill:#fff"/>
    <path d="M23.02 74.39c2.04-.04 4.15 2.87 4.47 5.41-.69 2.46-3.64 4.52-6.27 3.62-3.26-4.27-.56-6.6 1.8-9.03ZM141.58 23.8c-.91 2.99-5.02 4.16-7.3 2.44-1.45-2.45-2.12-4.65-1.07-6.29.34-.17.68-.35 1.02-.52.51 1.03 1.62.24 2.55-.02.79.19 1.56.42 2.39.49.97.79 1.66 2.42 2.41 3.9ZM100.07 47.09c-3.68 1.75-7.2 2.99-11.02 5.19-.39-3.71 1.65-6.63 5.72-8.89.18.33.55.05.85 0 .89.45 1.74 1.01 2.56 1.68.64.76 2.2.96 1.89 2.03ZM131.43 31.54c1.31.33 2.31 1.61 3.76 1.5-.37.82-1.28 1.47-2.37 2.06-.74-1.28-1.29-2.49-1.39-3.56ZM114.85 44.26c1.19 1.42-.4 1.95-1.68 2.56-12.99 7.91-30.41 17.17-45.09 23.83-1.95.89-4.96 2.56-7.46 3.8-1.54.77-4.28 2.82-5.43 1.91-.44-.35-.39-1.51-1.03-1.18-.77-1.58 1.5-.86 2.2-1.55 1.15-.91 1.83-.41 2.89-1.04 9.49-4.93 19.81-9.59 27.28-15.18 7.02-2.75 14.46-6.77 21.37-9.18 2.02-1.23 4.9-3.68 6.95-3.97ZM38.96 90.61c-1.11.82-1.84.44-2.72.53-.96-1.63.42-2.5.65-3.75 1.26-.75 2.13 2.58 2.07 3.22ZM134.2 37.81c1.45-.97 2.63-1.12 3.57-.54.98 1.83.9 3.31-1.33 4.09-1-.41-1.49-2.37-2.24-3.56ZM81.84 66.63c-.43 2.12-2.93 1.99-4.57 2.76-6.56 3.06-13.93 7.78-20 10.19-.11-.22-.23-.45-.35-.68-.41-.56-.03-.86.17-.51 8.22-3.82 16.63-8.23 24.76-11.76ZM116.59 48.5c.2 1.57-3.01 2.04-4.4 3.1-.81.77-1.12-.03-1.87.52-1.13.58-2.26 1.15-3.39 1.73-1.32.08 1.03-.95 1.52-1.2 2.71-1.38 5.42-2.76 8.14-4.15ZM69.83 76.59c7.89 16.96 17.02 34.24 25.75 51.37 8.67 17.02 18.16 33.47 26.07 49.49-1.6 1.1-2.85.57-3.22 2.07-2.49 1.56-4.01.16-5.79-.47-3.85.25-6.98-1.73-10.73-1.79-1.64-.76-3.22-1.68-4.95-2.17-2.56-2.84-5.47-4.63-8.22-6.91-1.97-2.63-4.04-4.96-6.01-7.61-3.08-5.91-5.52-11.6-7.45-17.13-1.41-9.01-3.68-18.07-5.82-27.35-1.07-4.65-2.21-9.36-3.68-13.93-1.49-4.66-3.26-9.22-4.19-14.09-.92-1.81-1.84-3.62-2.76-5.42-.27-.47-.55-.93-.18-1.19 3.5-.89 7.32-2.8 11.19-4.85ZM96.61 62.09c.68-.34 1.36-.69 2.03-1.04.96-.93 1.07.79 1.54 1.35.4.79.81 1.58 1.21 2.37 4.78 10.87 10.5 21.53 16.07 32.38 7.76 15.11 14.3 31.24 23.65 44.75 2.45 5.51 5.09 11.08 8.13 16.78 1.3 1.93 1.92 3.64-.82 4.26-1.37 1.32-1.56-.99-2.22-1.85-7.56-15.45-16.66-30.17-24.51-45.59-7.94-15.59-15.9-31.2-24.01-47.13-.58-1.11-1.43-1.39-1.89-2.88-.11-1.01-2.25-1.43-.7-2.21.84-.29 1.27-.72 1.52-1.2ZM100.68 60.02c1.25-.07 2.77-.98 4.24-1.74 2.13 4.14 4.25 8.34 6.39 12.55 2.13 4.18 4.48 8.16 6.73 12.37 4.45 8.32 7.98 17.29 12.62 25.6 9.24 16.56 18.14 33.43 26.24 49.83-.79.4-1.58.81-2.37 1.21-1.37 1.32-1.56-.99-2.22-1.85-1.54-3.67-3.55-5.91-5.18-9.32-1.21-1.52-2.32-3.32-3.61-4.57-14.73-26.87-27.6-56.01-42.66-82.89-.27-.47-.54-.93-.18-1.19ZM74.74 73.66c1.13-.58 2.26-1.15 3.39-1.73 6.15 12.87 13.96 26.95 20.9 40.17 1.36 1.58-.1 2.23 1.05 3.74 7.48 14.99 15.13 29.47 22.8 43.9 2.29 2.54 3.86 7.29 5.87 10.68.66 1.16 1.57 2.4-.32 2.73-1.38 1.34-1.84-.12-2.39-1.34-.52-1.02-1.04-2.03-1.56-3.05-16.02-31.58-33.14-61.36-49.55-93.9-.27-.47-.55-.93-.18-1.19ZM80.17 70.9c1.58-.81 3.16-1.61 4.75-2.42 5.23 11.22 10.67 22.54 16.59 33.4 5.96 10.92 11.17 21.92 16.76 32.89 5.92 11.61 13.25 22.44 17.96 34.41-1.13.58-2.26 1.15-3.39 1.73-1.25 1.24-1.04-2.02-2.05-1.52-.52-1.02-1.04-2.03-1.55-3.05-3.22-4.9-6-11.13-8.98-16.78-.99-1.59-2.06-2.93-3.09-4.4-11.68-24.26-23.64-48.6-36.46-73.24-.37-.15-1-.66-.52-1.02ZM86.27 67.79c1.02-.52 2.04-1.04 3.05-1.56 16.47 31.32 32.33 64.73 49.4 96.12.66 1.72 4.04 4.06.89 5.1-1.27 1.38-2.19-.23-1.88-1.17-.52-1.02-1.04-2.04-1.55-3.05-1.45-2.26-1.32-4.01-2.77-6.27-15.55-29.34-31.37-57.85-46.62-88.14-.47.14-.96-.79-.52-1.02ZM90.68 65.54c.68-.35 1.36-.69 2.04-1.04 1.23-.89 1.35 1.66 2.06 2.37 16.22 31.94 32.33 64.19 49.38 93.56 1.44 2.26 2.55 4.41-.81 5.11-1.37 1.32-1.56-.99-2.23-1.85-17.61-32.15-31.94-66.68-50.26-96.96-.27-.47-.54-.93-.18-1.19ZM71.19 75.9c.34-.17.68-.35 1.02-.52 1.37-1.32 1.56.99 2.22 1.85.15.99.48 2.04 1.22 3.22 16.34 30.97 33.01 60.91 49.2 92.37.76 1.1 1.13 2.07-.49 2.38-.5 1.18-2.08.67-1.53-.5-17.42-31.26-34.66-67.31-51.45-97.63-.27-.47-.54-.93-.18-1.19ZM106.79 57.76c3.61-1.48 8.14-3.32 11.19-5.7l3.45 6.78c3.57 3.8 6.65 9.12 10.14 13.19 3.17 5.04 6.97 8.15 10.31 12.68 3.76 3.23 6.99 8.1 10.64 11.66 3.41 4.3 7.12 7.69 10.31 12.68l5.7 11.19c1.81 5.96 2.26 11.48 2.17 16.83.37 2.19-1.26 3.74-1.32 5.8-.47 1.92-.95 3.84-1.83 5.63-.2 2.01-1.95 3.52-2.34 5.46-2.17 1.72-3.51 2.02-6.27 3.62-17.43-32.55-34.36-66.65-51.97-98.65-.28-.46-.55-.93-.18-1.19ZM134.78 46.49c3.39 3.22 6.54 7.14 9.78 10.82 3.39 3.2 6.54 7.15 9.78 10.82 6.62 6.91 12.87 14.96 19.73 21.12 2.21 3.94 4.62 7.27 6.89 11.01 6.38 12.16 8.5 22.94 9.27 33.29-1.59-1.75-.41-5.03-1.76-7.65a29.09 29.09 0 0 0-2.11-8.32c-1.49-5.48-4.57-11.48-7.62-17.47-7.19-9.5-14.23-19.47-21.99-27.23-7.33-8.79-15.19-15.94-21.98-26.38Z" style="fill:#dadada"/>
    <path d="M158.33 77.62c-.09-.61.34-.2.51.17.09.61-.34.2-.51-.17ZM159.36 78.8c-.09-.61.34-.2.51.17.09.61-.34.2-.51-.17ZM160.39 79.99c-.13-.42.24-.36.34-.17.13.42-.24.36-.34.17ZM169.32 90.81c-.13-.42.24-.36.34-.17.13.42-.24.36-.34.17ZM170.35 91.99c-.05-.75.47.02.69.51.05.75-.47-.02-.69-.51ZM171.55 93.52c-.27-1.22.75.37.86.84.26 1.22-.76-.37-.86-.84ZM172.76 95.04c5.23 5.34 9.61 15.11 11.91 22.54-2.55-3.19-3.07-8.16-5.88-12.38-2.14-3-3.96-6.97-6.03-10.16ZM185.2 120.3c1.41 1.13 1.46 4.24 1.75 5.94.68 2.11.83 4.04.89 5.95.61 4.06-.59 7.54-.08 11.57-.77 1.64-1.32 3.34-1.66 5.12-1.97 2.47-3.07 5.23-5.56 7.53-.68 1.38-2.21 2.49-3.2 3.77-1.29.72-1.79 3.17-3.21 2.92-.3-.56-2.36-1.91-.87-2.55.4-.81 1.07-1.54 1.86-2.23.95-1.49 2.43-2.8 3.37-4.28 1.92-2.96 3.41-6.06 5.21-9.06.83-2.75.7-5.81 2.15-8.35-.47-2.32.04-4.32.63-6.3-1.24-3.61-.02-6.42-1.26-10.03Z" style="fill:#dadada"/>
    <path d="M174.22 154.08c-.26-.09.03-.56.17-.51.27.09-.03.56-.17.51Z" style="fill:#fff"/>
    <path d="M131.85 176.52c10.17-5.18 20.34-10.36 30.51-15.55 1.55-.7 2.3 1.06 3.58 1.17.85 1.16 2.26.58 3.08 1.85-11.37 5.97-22.54 11.33-33.74 16.76-2.11.42-4.11.47-6.29 1.07-2.94 1.5-5.88 2.99-8.82 4.49-.53-3.62 4.14-4 7.61-6.01 6.06.5 13.99-4.75 21.38-8.33 1.95-.49 3.97-1.19 5.95-1.75 2.13-1.1 4.5-2.12 5.93-3.45 2.18-1.08 4.58-2.09 4.4-3.95-1.48-1.24-4.26 1.5-6.11 1.41-8.83 4.24-18.12 9.91-26.45 12.62-.51.42-.77.06-1.02-.33Z" style="fill:#dadada"/>
    <path d="M170.86 159.21c-.16-.33.28-.47.51-.68.16.33-.28.47-.51.68Z" style="fill:#fff"/>
    <path d="M120.23 193.12c17.23-7.97 35.22-17.92 51.71-25.92.99 1.93.78 2.18 1.9 3.73-16.17 8.54-34.73 16.93-52.05 26.09-1.15-1.55-1.5-2.22-2.07-4.07.26-.21.39-.03.51.17Z" style="fill:#dadada"/>
    <path d="M178.82 176.51c-19.98 10.61-40.38 21.24-61.37 31.27.87-2.64 3.48-4.72 4.88-7.18 17.33-8.85 34.2-15.98 50.86-25.06 1.28-.47 2.29-.1 3.23.49.8-.72 1.03.33 1.7-.01.45-.08 1.16.16.69.5Z" style="fill:#f6a320"/>
    <path d="M118.5 211.51c.68-.35 1.36-.69 2.04-1.04 1.1 4.74 4.69 8.44 6.74 13.22.35.81 1.44 1.89.53 2.72-.96.93-1.07-.79-1.54-1.35-.4-.79-.81-1.58-1.21-2.37-2.2-2.82-3.9-7.17-6.04-10.17-.17-.34-.35-.68-.52-1.02Z" style="fill:#dadada"/>
    <path d="M184.79 179.01c2.07 4.07 4.15 8.14 6.22 12.21-2.84.88-5.73 2.43-8.65 3.98-2.87 1.51-5.94 2.96-8.31 4.66-1.59 1.14-2.67 2.88-4.05 3.77-9.41 5.32-19.38 10.59-28.66 13.32-4.16 1.85-7.34 4.03-10.5 6.21-2.69-4.49-5.28-9.28-8.1-13.38 14.97-6.47 33.28-14.35 49.17-23.35 4.31-2.44 8.32-5.64 12.87-7.42Z" style="fill:#f6a320"/>
    <path d="M195.63 194.42c.27 1.5-2.76 1.93-4.06 2.93-18.56 10.03-37.99 18.35-55.6 28.33-1.17.41-2.71 1.94-3.4.87-.56-1.85 2.2-.94 3.22-2.07 6.82-2.63 12.76-6.95 19.84-9.68 6.1-5 17.05-8.42 22.53-13.62 2.77-.84 5.81-2.59 8.99-4.15 3.05-1.49 6.02-3.37 8.49-2.62ZM128.33 228.28c.84-.55 1.52-.62 1.87.33-.17.42-.58.75-1.18 1.03-.23-.45-.46-.91-.69-1.36Z" style="fill:#dadada"/>
    <path d="M116.41 183.11c0 2.14-1.14 3.76-3.55 3.09-2.11.4-4.04.24-6.12.56-4.74-1.66-9.91-2.01-14.49-4.14-4.69-1.83-9.06-4.63-13.5-7.22-1.94-2.43-3.94-4.71-5.84-7.27-8.32-15.62-11.72-29.64-14.97-43.62-.55-6.69-2.6-13.86-3.73-20.73-2.49-7.22-5.01-14.45-7.65-21.72-2.48-3.4-4.55-8.07-7.56-9.81-2.66-2.85-6.1-3.28-8.89-5.72-2.44-.34-4.89-.63-7.49-.46-2.38 1.21-5.01 2.33-6.1 3.96-1.1 1.9-1.97 6.04-1.46 8.86.57 3.18 3.35 6.8 6.36 8.29-1.33 1.17-4.31-.06-5.96-.81-4.17-4.38-6.57-11.79-4.71-15.96 1.93-2.67 6.4-4.52 8.79-7.05-.23-1.32-1.32.01-2.04.19-1.75.1-3.86 2.25-5.59 3.27 2.32-5.47 9.88-5.4 14.92-6.75 2.61.69 5.21 1.39 7.84 1.98 3.14 1.66 6.33 3.15 9.07 6.06 2.65 2.86 5.22 6 7.73 9.3 9.65 15.78 11.42 30.09 14.29 43.97.56 2.69 1.37 5.32 1.93 7.98 1.55 7.33 2.68 15.77 6.31 24.12-6.78-10.03-8.82-20.97-10.78-30.38-1.5-7.18-2.17-14.09-6.12-22.08-.08 3.75 1.88 8.16 2.31 12.07 3.23 12.08 4.15 23.41 9.98 36.34 2.17 3.83 3.71 7.86 5.7 11.19 2.33 3.9 5.32 6.54 7.73 9.3 1.53.82 2.64 2.92 4.28 3.37.46 1.21 1.33 1.15 2.05 1.52.46.15 1.73 2.09 1.71.84-.08-.32-.3-.25-.51-.17-.12-.54.58-.33.85 0 3.12 2.3 6.63 3.4 9.91 5.2 3.39.58 6.78 1.19 9.89 2.65 1.89-.3 3.48.32 5.44-.21ZM34.17 64.44c2.85 1.4 5.67 2.88 7.88 6.24 1.11 1.08 2.32 2.65 3.44 4.23 1.15 1.63 1.98 3.9 3.61 4.57-4.99-9.89-10.91-16.93-19.19-16.7 1.07 1.63 3.05.49 4.27 1.67ZM156.36 87.17c1.92 5.03 6.54 8.66 9.8 13.37 3.43 4.95 5.96 10.74 9.32 16.6 2.12 8.14 1.64 15.43.85 22.63-.12 3.73-2.05 6.88-2.81 10.4-1.38 1.44-1.23 3.38-2.68 4.79-.71 1.26-1.91 3.82-3.55 3.09-.65-.97.75-1.27 1.18-1.88 0-.75.87-1.23 1.18-1.88.47-1.26 1.5-2.34 1.5-3.76 1.2-1.02 1.15-2.45 1.5-3.75.64-1.21 1.11-2.47.99-3.92 1.7-5.2 1.28-11.09 1.75-16.69-.55-1.78-.9-3.5-.89-5.1-7.39-17.55-17.89-26.8-27.86-37.91-3.61-4.03-7.28-8.12-10.98-12.34-6.12-6.97-11.47-14.42-16.53-25.74-1.96-5.73-3.09-11.19-3.7-16.48.39-4.96 2.05-9.52 3.98-13.98 3.39-2.1 5.05-5.73 8.62-7.38 2.33-1.08 4.95-.86 7.31-.73 2.33.12 4.81.3 6.65 1.31 1.61 2.01 2.93 4.92 4.31 7.62-.41.81.39 2.01.19 2.89.28 1.41.01 2.64-.65 3.75.25.74-.58 1.13-.33 1.87-.5.25-.35 1.98-1.02.52.47-6.98-6.42-12.12-11.5-12.51-1.89.6-3.85 1.4-5.94 2.6-1.74 1.86-3.11 3.67-3.87 5.82-.65 1.83-.48 3.69-.98 5.62-.58 2.45-.1 5.25-.28 7.83 1.03 3.07 2.48 6.28 3.47 9.33 4.36 6.62 8.82 12.92 13.25 19.3 4.75 5.12 9.51 10.2 14.24 15.38 9.69 9.92 18.82 21.62 26.66 37.24 4.42 10.49 1.93 18.73 1.23 27.56-1.1 1.9-2.32 3.77-3.02 5.81-1.24.73-.79 2.01-2.02 2.74.5.73-.79.88-.5 1.54-.51.74-.53.73-.51-.17 4.94-10.09 5.23-21.69 2.63-34.23-.76-1-.57-1.69-.87-2.55-6-11.72-12.65-21.42-20.13-28.61ZM84.3 54.7c-2.82 1.44-5.65 2.88-8.47 4.32-1.94-3.46-2.25-6.39-3.65-9.67-2.15 2.6.05 6.62 1.95 10.54-.91.46-1.81.92-2.71 1.38-1.21-1.21-2.32-2.71-3.27-4.74.04-1.63-.13-3.32-.04-5.11 0-.18.51-.54.5-.68-.09-1.9-.17-4.58 1.49-6.31 1.14-.88 1.75-.16 2.88-1.04 3.03.84 5.1 4.61 7.04 8.8 1.14-.76.06-2.25-.54-3.57-.63-1.24-1.27-2.49-1.9-3.73-1.73-1.93-3.69-3.16-5.98-3.36-1.13.58-2.26 1.15-3.39 1.73-1.49 2.06-1.97 4.45-1.99 6.99.1 1.17-.67-.34-.34-.68-.36-2.47.37-4.6.8-6.81 1.46-1.6 4.12-4.31 6.6-4.64 1.26-.68 1.65 1.3 2.73 1.17.62 1 1.32 1.74 2.06 2.37 1.25 1.96 2.6 3.63 3.95 5.25.52 1.01 1.04 2.03 1.55 3.05.41 1.64.38 3.14.72 4.76Z" style="fill:#f6a320"/>
    <path d="M8.03 73.49c.82-.08.11 1.71.36 2.38.04.96.82 2.15.7 3.06 1.09 2.14 2.19 4.29 3.28 6.44.6.5 1.2.95 1.72 1.69 2.02 1.62 4.51 1.78 6.99 1.99 1.94-.82 1.92-.82 3.73-1.9-1.03 2.59-3 4.87-6.93 6.52-4.24-.02-7.23-3.86-9.6-9.63-1.14-3.86-.79-7.24-.25-10.55ZM62.66 50.78c.78 1.02 1 4.28 1.41 6.12.69 1.36 1.38 2.71 2.07 4.07.59.79 1.27 1.31 2.06 1.52-.13.9-2.67 1.88-3.39 1.73-1.3-4.67-2.48-9.29-2.15-13.43Z" style="fill:#dadada"/>
    <path d="M28.09 70.1c-.16-1.08 1.15.39 1.7-.01.45.64 1.26.2 1.71.84 1.22.31 2.2 1.36 3.42 1.68.75 1.18 1.68 1.81 2.57 2.53 1.97 3.96 3.99 7.93 5.53 11.7 1.39 3.41 1.73 6.82 3.48 9.33 1.06.24.74-2.39-.2-3.74 6.02 10.16 5.21 20.55 7.89 30.57.12 4.73 1.82 9.96 3.18 15.46.61 2.47 1.02 5.12 1.76 7.65 1.21 4.15 2.98 7.84 5.2 12.72 4.04 8.87 8.76 17.71 16.16 21.66 4.62 3.77 9.88 5.58 14.87 8.22 2.44.31 4.66 1.31 7.16 1.48.03.95-1.52-.45-2.38.36-.65-.62-1.62-.24-2.39-.49-1.66-.12-3.23-.52-4.94-.47-.47.68 1.57.89 2.22 1 2.8.97 5.81 1.28 8.86 1.46 2.12-.14 4.08.2 6.29-.22 1.66 1 4.36-1.22 5.62.98-5.32 1.27-10.5 2.12-14.97.79-2.53.25-4.58-1-6.98-1.14-2.01-1.06-4.37-1.07-6.32-2.33-13.66-5.31-25.86-22.91-32.48-41.96-1.13-9.42-3.6-19.27-5.84-29.05-.62-3.63-1.4-7.27-2.13-10.88-.6-3-1.5-5.96-2.11-9.17-.42-2.22-1.46-6.03-1.6-9.01-3.5-8.77-8.6-18.34-15.3-19.96Zm19.81 31.33c2.53 11.57 4.19 22.86 5.88 34.16 3.27 11.81 8.45 24.25 15.09 37.15 2.61 3.58 5.17 7.3 8.24 9.47 1.33 1.71 2.96 2.5 4.45 3.71.78.51 1.78.34 2.39 1.34.82-.15 2.16 1.09 1.87-.52-6.28-3.9-12.12-9.15-17.15-16.89-6-12.41-11.63-24.71-14.05-35.97-2.46-11.27-2.41-21.71-6.38-33.48.35-.2.04-.57-.51-.17.25.46.22.83.18 1.19Z" style="fill:#f6a320"/>
    <path d="M87.48 47.53c-2.62-2.18.11-5.05 1.14-6.99 2.38-1.52 4.31-1.65 6.28-1.92 1.88.88 3.41 2.85 4.97 4.73.13.42-.25.36-.34.17-1.02-.93-2.21-1.35-3.25-2.19-.93.26-1.72.07-2.55.02-3.46 1.61-5.29 3.75-6.25 6.18ZM130.85 44.65c1.55.16 2.16 3.22 3.44 4.23 3.12 4.63 6.37 8.84 9.8 12.52 4.56 5.11 9.14 10.18 13.73 15.21.09.61-.34.2-.51-.17-.2-.24-.51-.16-.68-.51-.49-.51-.89-1.32-1.54-1.35-.88-1.33-1.87-2.36-2.91-3.21-1.92-1.92-3.77-4.08-5.83-5.57-3.71-4.25-7.51-8.23-10.99-13.19-1.38-3.01-2.92-5.53-4.48-7.96Z" style="fill:#dadada"/>
</svg>
