<svg xmlns="http://www.w3.org/2000/svg" viewBox="0 0 299.59 155.7">
    <path d="M295.29 86.4c-2.34-10.12-3.31-20.54-4.73-30.76-.49-3.54-.82-7.02-1.35-10.48-.51-3.3-1.4-6.59-2.03-9.8-.33-1.68-.34-3.43-.68-5.07-.33-1.6-1.02-3.11-1.35-4.73-1.41-6.78-2.48-13.63-3.72-20.28-.18-1.12-.92-1.77-.68-2.37.07-.17 1.06 0 .68-.68-1.63.16-1.17-1.76-2.37-2.03-.86-.18-1.18-.45-1.69.34-22.06 4.31-45.35 7.38-68.29 10.82-23.53 2.57-47.18 5.76-70.66 8.45-5.88.68-11.8 1.11-17.58 2.03-2.85.45-5.65.97-8.45 1.35-3.01.4-6.05.64-9.13 1.01-11.6 1.39-22.83 4.07-34.14 5.41C47.48 34.44 22.36 35.8.16 40.08c-.44 1.71.15 3.36.34 5.07.64 5.93.92 11.32 1.35 16.9.59 7.58.95 15.25 2.03 22.65 2.14 14.71 3.49 29.39 4.73 44.29.21 5.2 1.11 9.71 2.03 14.2.26 2.44 1.07 4.34 1.35 6.76.57.79.88 1.82 1.01 3.04-.6.52.99 1.7 1.01 2.7 14.88-.77 30.3-2.72 44.29-4.39 1.3-.16 2.42-.5 3.72-.68 8.01-1.1 15.99-1.84 24-2.7 5.36-.58 10.52-1.22 15.89-1.69 13.97-1.23 27.11-2.41 40.57-4.06 21.24-2.6 42.38-5.36 63.22-7.77 5.26-.61 10.4-1.33 15.55-2.03 2.59-.35 5.19-.55 7.77-1.01 2.45-.44 4.93-1.28 7.44-1.69 5.16-.84 10.41-1.16 15.55-2.03 5.13-.86 10.09-2.08 15.21-2.7 8.09-2.05 17.21-3.07 24.34-6.09 1.38-.31 3.05-.33 4.06-1.01 1.53-.27 3.15-.46 3.38-2.03 1.22-2.17.25-4.62-.34-6.76-1.1-7.58-2.91-14.44-3.38-22.65Z" style="fill:#391616"/>
    <path d="M268.24 10c.63 1.21-1.6 4.24-.34 6.09-.73.92-1.66-.79-2.37-1.01v-3.04c.65-.93 2.01-1.15 2.7-2.03ZM271.62 10c1.52.74 1.59 2.92 1.69 5.07-.47 1.02-2.45 1.86-3.38 1.35-.94-2.38-.24-5.82 1.69-6.43ZM240.52 11.01c-.17-.17.25-.43.34-.34.18.17-.25.43-.34.34Z" style="fill:#fff"/>
    <path d="M258.1 12.36c.53 1.79.47 4.35-.34 5.75-1.76.76-4.3.26-5.41-.68.04-1.39-.59-2.12-.34-3.72.55-1.88 3.99-2.08 6.09-1.35ZM245.59 13.38c.35 1.7.9 3.37.34 5.07-1.15 1.51-5.59 1.95-7.44.68-1.75-4.6 2.88-7.11 7.1-5.75ZM232.41 15.75c.57 1.99.63 3.5 0 5.41-1.99.68-4.22.87-5.75-.34-.35-.89-.4-2.08-.34-3.38 1.48-1.11 3.22-1.97 6.09-1.69ZM219.9 17.43c1.03 1.64 1.11 3.87.34 5.75-2.56.9-5.98.26-6.09-2.37.43-2.51 3.04-4.23 5.75-3.38Z" style="fill:#f6a320"/>
    <path d="M205.7 18.79c.07 1.55-.09 2.71-.68 3.72-.47.81-1.91 1.88-3.04 2.03-1.67-2.58-.18-6.62 3.72-5.75ZM207.05 19.13c1.52.94 1.73 4.5.68 6.08-.95.4-2.33.37-3.72.34 1.32-1.83 3.58-2.73 3.04-6.42Z" style="fill:#fff"/>
    <path d="M176.29 20.14c-2.82 1.35-4.84 3.5-4.39 8.11 1.21 2.4 2.82 4.39 6.09 4.73-16.13 2.91-32.4 5.69-49.36 7.77-1.48.06.32-1.14.67-1.35.18-.95.5-1.76.68-2.71-.13-1.68-.44-3.16-1.02-4.39-1.31-2.19-4.45-2.98-7.1-2.03-2.15.77-2.7 2.61-3.38 4.39.01 3.25.83 5.7 3.38 6.42-1.28 1.2-4.32.64-6.09 1.35 3.31-5.58-1.55-13.45-8.11-10.14-2.31 1.96-2.55 7.27-.34 9.47.71.52 1.87.6 2.03 1.69-7.98.7-14.96 2.39-22.99 3.05-7.33 1.35-15.55 1.8-22.31 3.72-7.59 1.06-14.91 2.46-22.31 3.72-7.24 1.23-14.51 2.7-21.97 3.71-.85.28-1.81.45-1.69 1.69-1.57-.79-2.99-1.75-5.75-1.35-1.5.41-2.06 1.77-2.37 3.38-1.15-5.39-1.95-11.12-2.7-16.9 11.21-1.62 22.48-3.98 34.14-5.07 5.82-.55 11.41-1.38 17.24-2.36 21.85-3.7 45.94-6.58 69.3-9.13 5.55-.61 11.26-.9 16.23-3.38 11.09-1.08 21.11-3.23 32.11-4.39Zm-7.44 4.06c-1.77-1.53-4.12-2.19-7.1-1.69-1.8 2.42-3.85 4.23-3.04 8.45 1.2 2.72 6.52 4.1 9.47 2.03 1.54-1.66 1.87-6.43.67-8.79Zm-24 6.76c.38 1.09.58 2.35 1.01 3.38 1.01.78 2.37 1.88 4.06 2.03 2 .18 3.65-.65 5.07-1.35-.27-.82.79-.86 1.01-1.69.8-2.86-.44-6.97-2.03-8.11-6.1-1.79-8.41 1.66-9.13 5.75Zm-2.03-.67c-.79-.91-1.74-1.65-2.71-2.37-6.28-.76-8.94 2.1-8.79 7.77.39.06.37.53.34 1.01 1.67 2.71 7.91 2.45 10.48.68 1.29-1.36 1.23-4.9.68-7.1Zm-41.58 13.18c2.43-.72 3.83-3.91 2.7-7.1-1.3-1.63-2.64-3.21-5.41-3.38-2.6.21-3.8 1.83-5.07 3.38v3.72c1.6 2.12 3.78 3.66 7.78 3.38Zm-20.62-5.74c-.92 1.82.01 4.4.68 5.74 1.7 1.35 3.55 2.54 6.76 2.37.29-.5 1.09-.49 1.69-.68 1.85-1.98 2.56-7.96.34-10.14-3.1-2.07-9.13-1.04-9.47 2.71Zm-14.2 3.04c-.17 2.43.56 3.95 1.35 5.41 3.24 1.94 9.03 1.65 9.8-2.37.1-2.35-.34-4.17-1.02-5.75-3.17-2.13-9.59-.92-10.14 2.7Zm-11.49-1.69c-.96 1.29-2.18 2.32-2.37 4.39-.24 7.04 11.05 8.14 11.83 1.69.41-3.38-2.85-8.54-7.1-6.42-1.1-.19-1.57.23-2.37.34ZM40.06 50.57c3.25 2.84 9.13.71 10.14-2.7 0-2.7-.89-4.52-2.03-6.08-6.06-2.98-11.46 3.33-8.11 8.79Zm-6.42-7.44c-3.7-1.78-7.06 1.4-8.79 3.72-.45 3.6.76 5.55 2.71 6.76 3.87.38 6.15-.84 8.11-2.37 1.04-3.33-.52-6.28-2.03-8.11Zm-11.16 9.13c-.17-1.97-.79-3.49-1.35-5.07-.95-.22-.93-1.24-1.69-1.69-3.05-1.79-7.96.66-9.13 3.38-.19 4.47 1.42 7.14 5.07 7.78 3.06.13 4.45-1.41 6.42-2.37.31-.59.12-1.69.68-2.03Z" style="fill:#604a98"/>
    <path d="M194.88 26.22c-1.03.55-2.16.99-3.72 1.01-.46-2.81-.32-6.18 3.04-6.09.78 1.13.72 3.11.68 5.07Z" style="fill:#fff"/>
    <path d="M173.25 26.22c.83-2.43 2.53-4 6.09-3.72 2.58 1.19 3.07 6.03.67 7.78-.84.28-1.81.44-3.04.34-2.19-.51-3.19-2.23-3.72-4.4Z" style="fill:#f6a320"/>
    <path d="M271.62 23.18c3.68-1.72 5.04 2.68 4.06 5.75-.79-2.48-1-5.54-4.06-5.75ZM272.97 29.6c-2.14.23-3.6-.23-4.73-1.01-.4-.95-.37-2.33-.34-3.72.72-.63 2.15-.55 2.7-1.35 1.27.42 1.91 1.47 2.7 2.37-.11 1.24.29 2.99-.34 3.72Z" style="fill:#fff"/>
    <path d="M162.77 24.53c2.23-.2 3.59.47 4.73 1.35.04 2.3.17 4.67-1.01 5.75-2.21.85-5.18.16-6.08-1.35-.82-1.39.8-1.44.68-3.04.67-.8 1.17-1.76 1.69-2.7ZM153.64 28.25c.08 1.82.6 3.08 0 4.73-1.49-.99-4.12-.84-4.73-2.7v-2.7c1.32-1.23 3.78-.39 4.73.67Z" style="fill:#f6a320"/>
    <path d="M147.22 29.6c.91 2.02 1.7 4.16 4.73 4.06-.87.74-3.44.3-4.39 0-.68-.72-1.05-3.02-.34-4.06Z" style="fill:#fff"/>
    <path d="M140.12 30.96c.83.87.71 2.68.68 4.4-1.31 1.56-5.45 1.78-7.44.68-.66-1.43-.23-3.53.34-4.73 1.51-.81 4.79-1.68 6.42-.34ZM120.17 37.72c.12-2.36 1.23-3.73 2.36-5.07 2.11-.68 4.4-.33 5.07 1.69.9 2.7-.79 5.77-3.72 5.41-1.75-.16-3.05-.78-3.72-2.03ZM279.73 34.68c.22 2.36-.36 3.93-1.01 5.41-1.52.85-4.27.89-5.75 0-.61-1.84-1.01-3.82-.68-5.75 2.07-1.55 5.67-1.53 7.44.34Z" style="fill:#f6a320"/>
    <path d="M111.38 34c-.09 1.15-1.52.96-2.03 1.69-.05.63-.22 1.13-.68 1.35v3.04c-1.53-.59-1.51-3.04-1.01-4.73.91-.78 2.17-1.21 3.72-1.35Z" style="fill:#fff"/>
    <path d="M113.41 35.01c1.18 1.28 1.37 3.46 1.01 5.41-.94.75-2.29 1.1-4.06 1.01-1.07-2.93.06-6.43 3.04-6.42ZM101.58 36.7c.4.95.37 2.34.34 3.72-1.95 2.02-6.53.71-6.76-2.03-.34-3.28 4.86-3.28 6.42-1.69ZM88.39 37.04c1.09 1.81.5 4.4-.34 6.08-2.62.69-5.08-.16-5.75-2.37-.03-3.11 2.85-4.98 6.08-3.72ZM74.53 39.41c.84 1.48.86 3.96 0 5.41-1.52.6-4.26.46-5.41-.34-.83-.86-.88-3.15-.34-4.4 1.6-.55 3.52-.76 5.75-.68ZM59.66 46.85c-1.94-.77-2.58-4.09-1.35-6.09 2.92-.33 3.4 1.79 3.38 4.4-.73.51-.79 1.69-2.03 1.69ZM46.47 43.46c.91.67.74 2.42 1.35 3.38-.45 2.37-4.1 3.6-6.42 2.03.05-.39-.08-.6-.34-.68-.37-2.85 1.35-3.6 2.36-5.07 1.23-.11 2.2.05 3.04.33Z" style="fill:#f6a320"/>
    <path d="M3.54 44.82h.68c1.54-.19 1.25 1.45 1.35 2.71 4.15 32.32 7.05 66.17 11.5 98.71.35.89.4 2.08.34 3.38.36.4.95 2.94-.68 2.37-1.97.62-1.23-1.48-1.35-2.7-1.43-8.55-2-17.26-3.04-26.03-1.01-8.49-2.13-17.11-3.04-25.69-.93-8.76-1.33-17.69-2.37-26.37-.51-4.32-1.21-8.57-1.69-12.85-.47-4.19-.79-8.42-1.69-12.51v-1.02Z" style="fill:#fff"/>
    <path d="M33.63 48.88c-1.22 1.48-2.41 3-5.41 2.7-1.2-.72-2-1.83-1.69-4.06 1-1.59 2.69-2.49 5.07-2.71 1.06.97 1.53 2.52 2.03 4.06ZM19.77 50.9c-.68 2.19-3.67 3.94-6.08 2.37-.83-.87-.71-2.67-.68-4.39 1.58-.71 2.99-2.11 5.07-1.35.76.92 1.5 1.89 1.69 3.38Z" style="fill:#f6a320"/>
    <path d="M276.36 47.19c.56 1.16-.78 5.26.67 6.42-2.13.77-3.19-2.43-2.7-5.41.36-.65 1.56-.47 2.03-1.01Z" style="fill:#fff"/>
    <path d="M280.75 47.19c1.26 1.74 1.23 7.05-1.69 6.76-.87-1.82-1.65-7.16 1.69-6.76Z" style="fill:#f6a320"/>
    <path d="M15.37 61.05c-.71 1.2-3.3.54-3.72 2.03-1.17-1.75 1.74-2.31 3.72-2.03Z" style="fill:#fff"/>
    <path d="M282.78 62.73c.84 2.17.56 4.18-.34 6.08-2.61 1.05-5.3-.18-6.42-1.69.04-1.65-.18-3.56.34-4.73 2.07-.97 4.96-1.43 6.42.34Z" style="fill:#f6a320"/>
    <path d="M17.06 64.43c.14 1.72-.52 2.64-1.02 3.72-1.77.69-3.69.81-4.73-.68-.65-3.52 3.85-5.18 5.75-3.04Z" style="fill:#fff"/>
    <path d="M19.09 68.14c.77 1.15.25 3.58 1.01 4.73-1.59.32-4.26-.18-5.75 1.01-1.24.78-2.03 2.03-2.37 3.72-.93-1.88-.48-5.15-1.35-7.1 1.07-.48 1.88.65 3.38.68 2.35.04 4.39-1.08 5.07-3.04Z" style="fill:#604a98"/>
    <path d="M285.14 76.6c.79 2.79-.53 5.56-3.38 5.75-1.67-.36-2.11-1.94-2.37-3.72.2-1.33.33-2.56 1.69-3.04 1.34-.47 3.23.23 4.06 1.01Z" style="fill:#f6a320"/>
    <path d="M14.36 81.66c-.47-1.11-.8-2.36-.68-4.06 1.96-.37 3.24-2.58 5.75-1.35 1.32 1.43 1.79 4.57.34 6.08-1.89.63-4.05.17-5.41-.68Z" style="fill:#fff"/>
    <path d="M12.33 82c1.43 2.65 5.99 3.74 9.46 2.36-.23 1.36.32 1.93.34 3.05-1.11-.69-3.42-.18-5.07-.34-1.78.81-2.92 2.26-3.38 4.4-.85-2.76-1.01-6.2-1.35-9.46Z" style="fill:#604a98"/>
    <path d="M21.12 89.78c1.06 1.08 1.89 2.39 1.69 4.73-1.2-.49-3.23-.15-4.06-1.02-.08-2.11-.45-4.51 2.37-3.72ZM286.83 89.78c2.55 2.01.66 5.84-1.69 6.76-2.01-.36-3.51-1.22-3.72-3.38-.3-1.99 1.46-1.92 1.69-3.38h3.72Z" style="fill:#f6a320"/>
    <path d="M16.39 91.47c.39-.05.6.08.68.34-.18 1.42.59 1.89.67 3.04 1.21.71 2.62 1.21 4.73 1.01-2.13 5.21-10.56-1.18-6.09-4.4Z" style="fill:#fff"/>
    <path d="M23.15 104.66c.96 2.13.35 4.57-1.35 5.74-2.2.28-3.27-.56-4.39-1.35-1.52-3.65 2.43-5.61 5.75-4.39ZM287.51 104.66c3.67.19 4 6.62.34 7.1-.82-.52.73-1.5.68-2.36.19-2.11-.61-3.22-1.01-4.73Z" style="fill:#f6a320"/>
    <path d="M285.82 105.33c.45 1.02 1.09 1.84 1.01 3.38-.07 1.28-1.06 1.64-1.35 2.71-3.32.06-3.9-6.66.34-6.08Z" style="fill:#fff"/>
    <path d="M275 107.7c3.22-.17 2.76 5.01.34 5.41-.89-1.49-1.28-3.8-.34-5.41Z" style="fill:#f6a320"/>
    <path d="M272.64 108.04c.18 1.47.08 4.15 1.02 5.75-2.29.26-2.58-1.48-2.71-3.38.05-1.31 1.37-1.33 1.69-2.36Z" style="fill:#fff"/>
    <path d="M264.86 110.74c.83.86.88 3.14.34 4.39-2.43 1.32-6.47.75-5.75-3.04.39-1.93 3.78-2.69 5.41-1.35ZM248.3 112.77c2.44.39 2.26 4.19 1.35 6.08-1.05.44-.97-.09-2.37 0-1.19-1.66-1.68-5.75 1.01-6.08ZM233.08 117.16c.55-1.59 2.4-1.89 3.04-3.38h2.37c.09.69.9.67 1.35 1.01.37 1.61.91 3.07.34 4.73-2.13 2.58-7.02 1.02-7.1-2.37ZM227 121.22c-1.33.7-3.31.74-5.41.68-1.15-.98-1.79-3.55-1.02-5.41 1.42-.39 3.86-1.54 5.07-1.02 2.26.28 2.43 4.09 1.35 5.75ZM24.84 117.5c.94 1.54 1.1 3.85 1.02 6.42-1.41 1.96-4.83 1.36-6.42 0-.35-.89-.4-2.07-.34-3.38-.04-1.5 1.76-1.17 2.03-2.37.79-.67 2.15-.78 3.72-.68Z" style="fill:#f6a320"/>
    <path d="M211.45 118.18c3.09-1.43 3.73 3.62 2.03 5.41-.26-1.52.07-4.81-2.03-5.41Z" style="fill:#fff"/>
    <path d="M210.77 124.6c-2.97-.18-4.26-2.05-4.05-5.41 1.47-.07 2.27-1.19 3.72-.34 1.49 1.43 1.56 4.01.34 5.75ZM200.29 120.88c3.06 6.67-9.68 8.1-8.45 1.01.91-2.63 6.59-3.17 8.45-1.01ZM171.22 121.22c1.38 2.3 1.48 6.77-1.69 7.1-1.88-.26-3.19-1.09-3.72-2.71.48-2.79 1.69-4.84 5.41-4.39Z" style="fill:#f6a320"/>
    <path d="M183.05 121.9c-1.37 1.55-1.77 3.93-1.35 6.42-4.2.02-3.08-7.44 1.35-6.42ZM184.4 122.57c2.51.84 1.19 5.33-.68 5.75-1.83-1.42-.41-4.4.68-5.75ZM156.01 124.6c3.68-2.04 5.69 5.2 2.03 5.74 1.2-1.9.08-5.15-2.03-5.74Z" style="fill:#fff"/>
    <path d="M154.65 124.6c1.36.44 1.62 1.98 2.03 3.38.5 1.43-1.41 2.17-.34 3.04-2.74 1.39-4.38-1.25-4.4-3.72.29-1.52 1.19-2.42 2.7-2.7ZM144.85 126.29c.95 1.65.84 4.47-.34 5.75-3.32 1.02-6.53-.27-5.75-4.4 1.65-.83 3.45-1.51 6.08-1.35Z" style="fill:#f6a320"/>
    <path d="M111.04 126.63c.86-.01.41.25.34.68-1.24.67-1.89 1.94-2.7 3.04.24 1.25-.58 1.45-.34 2.71-.11 1.34.78 1.7.68 3.04 1.53 1.06 2.06 3.12 4.39 3.38-3.27.79-7.2.92-10.82 1.35 1.86-1.08 3.65-2.21 4.4-4.4.07-2.66-.24-4.94-1.35-6.42-.27-1.31-2.1-1.06-2.37-2.37 2.77-.16 5.45-.4 7.77-1.01Z" style="fill:#604a98"/>
    <path d="M127.27 127.64c1.77-.03 3.25-.77 4.39.34.4.84.49 1.99.68 3.04-.72 3.57-6.25 3.55-6.76.34-.31-1.95.93-1.92 1.69-3.72Z" style="fill:#f6a320"/>
    <path d="M116.79 128.66c1.67 1.27 2.7 4.8 1.35 7.1-3.8.12-5.54-3.36-4.4-7.1h3.04Z" style="fill:#fff"/>
    <path d="M102.93 130.69c1.44.99 1.74 4.33 1.01 6.42-1.54 1.49-5.41 2.36-7.77 1.02-1.96-4.16 1.68-9.28 6.76-7.43Z" style="fill:#f6a320"/>
    <path d="M25.18 130.69c.49 1.12.98 2.76.34 4.05-1.47.87-3.57 1.27-4.73 0v-1.35c.33-1.59 2.27-1.57 3.04-2.7h1.35ZM111.38 130.69c.91 2.92 1.85 5.81 5.07 6.42-4.42 2-7-3.04-5.07-6.42Z" style="fill:#fff"/>
    <path d="M87.38 134.07c1.82 2.55 1.23 7.44-3.04 6.76-.96-3.02.01-6.64 3.04-6.76ZM71.83 141.5c-3.9.53-4.98-3.23-4.06-6.43 4.35-.83 5.17 3.84 4.06 6.43ZM54.93 136.77c.88 1.54 2.06 4.02 1.35 6.09-1.09-.08-1.43.6-2.71.34-2.9.04-4.14-9.39 1.35-6.42Z" style="fill:#f6a320"/>
    <path d="M65.74 137.45c.29-.06.32.13.34.34-.08 1.54.57 2.36 1.01 3.38.19 1.05 1.59.89 1.69 2.03-2.64-.18-4.42-1.21-4.73-3.72-.11-1.35 1.56-.92 1.69-2.03ZM42.08 139.14c.94 1.37 1.63 4.84.34 6.42-4.05.64-5.06-4.74-3.04-7.1 1.22-.09 1.63.62 2.7.68ZM26.87 139.81c2.57.13 2.19 3.22 2.37 5.75-.82.19-.72 1.31-2.03 1.01 1.14-2.09.34-4.67-.34-6.76ZM25.18 146.91c-3.57 0-3.34-5.89-.67-6.76.55-.09.58.32 1.01.34.62 2.16 1.03 4.77-.34 6.42Z" style="fill:#fff"/>
    <path d="M36.67 140.15c.55 2.26.36 5.27 2.37 6.08-2.59 1.05-3.96-3.86-2.37-6.08ZM49.18 140.15c.63 1.17 1.08 2.53 1.69 3.72-1.4-.29-2.75-2.05-1.69-3.72Z" style="fill:#fff"/>
    <path d="M272.97 46.51c-.72 2.13-.98 5.38 0 7.44 1.86 3.11 7.6 3.26 10.14.67.5-1.19.88-2.5.68-4.39 1.31 2.19 1.16 5.1 1.69 7.78.52 2.61 1.42 5.21 1.69 7.78.71 3.79 1.93 7.52 2.7 11.49.79 4.06.96 8.34 1.69 12.51 1.4 7.95 3.44 15.93 3.72 23.66-6.45 2-14.06 2.84-20.96 4.39-7.05 1.4-13.43 3.47-21.3 4.06-10.77 2.02-21.81 3.54-32.79 5.41-16.62 2.83-33.41 4.43-50.71 6.42-2.84.33-5.57.61-8.45 1.02-2.68.38-5.38.94-8.12 1.35-11.43 1.72-23.16 1.68-34.82 3.04-.6.1-.69-.32-.34-.34.27-.07.34-.34.67-.34 0-.67.92-.43.68-1.35.95-.51 1.23-1.69 1.69-2.7.07-4.35-1.18-7.38-4.73-8.11 6.7-1.23 13.57-1.88 20.28-3.04 6.77-1.17 13.51-2.08 20.29-3.04 6.73-.95 13.54-2.25 20.28-3.04 6.92-.81 13.77-1.42 20.62-2.7 20.83-2.5 42.24-4.41 61.53-8.45 3.5-.44 6.79-1.1 10.14-1.69 1.87-.05 2.87-.96 4.4-1.35 1.88-.04 2.49-1.34 3.38-2.36-.86-19.38-5.17-36.1-8.11-53.41-.98-5.76-1.95-11.39-3.04-17.24-1.12-2.71-1.16-6.5-2.7-8.79-29.07 3.16-57.12 7.34-84.85 11.83 3.79-.52 6.2-4.01 5.41-8.11-.45-2.36-2.52-3.64-4.06-4.73h-2.7c-.62-.26.2-.36.68-.34H179c.81-.2 1.54-.49 2.7-.34 1.55-.37 3.31-.52 5.07-.67 1.19-.3.35.88 0 1.01.14.82-.62.74-.34 1.69-.41.95-.37 2.33-.34 3.72.46 1.23.93 2.46 1.69 3.38 2.33 1.17 7.23.96 8.79-.68 1.39-3.31.79-9.25-2.7-9.81 3.45-1.27 7.29-1.42 11.16-2.03 3.76-.59 7.59-1.48 11.49-1.69 7.43-1.36 15.34-2.24 22.99-3.38 1.48-.06-.32 1.14-.67 1.35-.51.51-.61 1.42-1.35 1.69-.67 1.36-1.28 2.77-1.01 5.07.97 4.25 10.25 3.89 11.83-.34.36-2.08.15-4.63-.68-6.42-.69-1.23-2.13-1.71-4.06-1.69 7.21-1.82 15.53-2.42 23.66-3.72 2.56-.41 5.02-1.56 7.44-1.01 1.33.03.87 1.83 1.35 2.7.71 3.23 1.09 6.8 2.03 9.8.55 4.63 1.32 9.05 2.37 13.18-.46.65-1.98-.47-2.7-.68-.87.02-.41-.25-.34-.67.37-.08.23-.68.68-.68-.27-1.17.5-1.3.34-2.36-.31-1.5-.34-3.27-1.01-4.39-.65-1.26-1.93-1.9-3.38-2.36-5.24-.03-8.77 2.98-7.78 8.11 1 1.93 2.41 3.45 5.41 3.38 1.41-.14-.16 1.01-.34 1.35-.65.36-.47 1.56-1.01 2.03.49 1.43.13 3.7.68 5.07 1.51 3.59 9.66 3.55 10.48-.68 1.15 1.66 1.1 4.54 2.03 6.42-.12.47-.6.03-.68-.34-1.06-.52-2.03-1.13-3.38-1.35-2.87-.05-4.54 1.09-6.42 2.03ZM275 17.1c.05-.63.22-1.13.67-1.35.09-4.6-1.07-7.95-4.73-8.79-4.82.59-7.66 3.16-7.1 9.13 1.42 3.56 8.68 3.95 11.16 1.01Zm-24.68-4.4c-.74 2.22 0 4.64.68 6.43 1.62.63 2.76 1.74 5.07 1.69 1.25-.22 2.38-.55 3.38-1.02.43-1.04.95-1.98 1.35-3.04.16-2.3-.24-4.04-.68-5.75-2.9-2.74-8.29-1.43-9.8 1.69Zm-25.35 8.79c1.75 2.68 7.84 3.24 9.8.34.68-2.7.65-5.59-.68-7.78-4.66-2.63-10.78.54-9.13 7.44Zm-12.17.68c.88 2.81 4.73 4.18 8.45 3.04 2.72-2.02 2.13-9.13-1.01-10.14-5.69-.85-7.09 2.6-7.44 7.1Zm-10.48-5.07c-.97.95-1.56 2.27-2.37 3.38-2 7.21 6.47 9.39 10.14 5.74 1.26-2.53.49-6.4-.68-8.45-.85.05-1.06-.52-1.35-1.02-.97.05-2.63-.94-3.38 0-1.1-.19-1.57.23-2.37.34Zm83.16 44.96c-1.48-1.9-3.14-3.62-6.76-3.38-1.19.28-1.91 1.02-3.04 1.35-1.05 2.1-1.63 4.68-1.35 8.12 1.49 2.73 5.7 4.63 9.47 3.04 1.97-1.58 2.54-5.79 1.69-9.13Zm2.7 15.21c-.37-.64-.43-1.6-.67-2.37-1.38-1.66-3.74-2.34-7.1-2.02-.91.22-1.29.97-2.03 1.35-.21 2.19-.66 3.18-.67 6.08.57 1.91 1.53 3.43 3.04 4.4 5.37.42 7.39-2.52 7.44-7.44Zm-6.76 10.48c-.98 1.83-2.05 3.59-1.69 6.76 1.06 2.21 2.38 4.16 5.75 4.06 2.85-.87 4.59-2.85 5.07-6.08-.02-2.34-1.27-3.47-2.37-4.73-1.48-.11-3.79-1.16-5.07-.34-.96-.28-.88.48-1.69.34Zm2.03 15.21c-.91-.03-.43.92-.68 1.35-.22.39-.81.63-1.01 1.02-.47.89-1.04 1.73-1.01 3.04.22 1.25.54 2.39 1.01 3.38 1.76 1.06 3.51 2.12 6.42 2.03 3.47-.5 5.28-3.99 4.06-8.12-.96-1.52-2.52-2.43-4.06-3.38-1.25.21-3.37-.44-4.06.34-.26.08-.67.01-.67.34Zm-7.1 12.85c1.94-.57 3.42-4.13 3.38-6.42-.36-2.23-1.83-3.36-3.38-4.4-6.74-1.54-8.46 5.75-6.09 10.14 1.4 1.04 3.71 1.37 6.09.67Zm-8.45-1.35c.55-5.25-3.66-7.92-8.11-6.09-.73.85-1.27 1.89-2.03 2.7-.22 2.47.17 4.34 1.01 5.75 1.16.2 1.57 1.13 3.04 1.01 1.6.14 2.82-.11 4.06-.34.8-.89 1.51-1.87 2.03-3.04Zm-13.86 4.73c1.79-3.44-.03-7.71-2.7-8.79-6.67-1.23-7.49 4.09-6.09 9.13 1.84 2.5 7.08 1.83 8.79-.34Zm-22.31-3.72c-1.02 6.29 3.79 8.91 8.79 7.1.31-.6.76-1.05 1.35-1.35.92-1.91.92-5.53 0-7.44-1.37-1.11-3.54-3.22-6.08-2.03-2.13.46-2.93 2.26-4.06 3.72Zm-2.71 6.42c.6-1.69.4-4.69 0-6.42-1.1-.98-2.34-2.55-4.06-2.37-1.69.19-4.07.67-5.41 1.35-1.53 1.7-1.25 6.32 0 8.11 2.11 2.19 7.86 1.49 9.46-.67Zm-23.66-3.72c-1.12 2.65.41 6.32 2.03 7.78 6.04 2.87 11.42-2.62 8.79-8.45-1.35-1.47-4.62-2.82-7.44-1.69-1.33.53-2.8.99-3.38 2.37Zm-14.87 1.69c-.61 5.45 1.01 8.77 5.07 9.13 4.7.41 9.29-3.83 6.76-9.46-1.69-2.04-4.73-2.71-8.79-2.37-.21.02-.4.05-.34.34-1.39.3-1.73 1.66-2.71 2.37Zm-20.28 10.48c4.95-.54 5.2-8.14 2.03-11.15-5.12-1.22-8.88 1.66-8.11 7.44 1.31 2.38 3.53 4 6.08 3.72Zm13.86-10.82c-3.36-.67-6.47 1.17-7.1 3.04-.05 2.64.49 4.7 1.35 6.42 1.32.6 2.17 1.66 4.06 1.69 3.23-.27 4.92-2.07 5.75-4.73.21-2.35-.73-3.56-1.35-5.07-.93 0-1.5-1.12-2.7-1.35Zm-21.97 8.79c-.13-.99-.04-2.23-.34-3.04-.16-.43-1.51-2.23-1.69-2.37-.63-.48-3.09-1.04-4.06-1.01-3.42.1-5.52 2.42-6.08 4.73-.13 3.85 1.95 5.49 4.39 6.76 4.22-.06 7.03-1.54 7.78-5.07Zm-24.34-2.36c-2.65 5.42 1.48 10.1 6.76 8.79 1.49-.37 2.18-1.87 3.38-3.04.72-2.8-.08-5.65-1.35-7.44-2.88-1.33-7.18-.27-8.79 1.69Zm-13.86 6.42c1.27 1.88 2.44 3.87 5.75 3.72 2.42-.4 3.53-2.11 4.73-3.72.09-2.46.1-4.83-1.02-6.08-4.05-3.05-10.79-.37-9.47 6.08Z" style="fill:#604a98"/>
    <path d="M190.83 20.14c.34.59-1.33 2.03-1.35 3.38v3.38c-3.37-1.26-1.74-6.44 1.35-6.76ZM260.13 24.2c1.62-.49.84 1.42 1.01 2.37.2.81.49 1.54.34 2.7.9 5.52 1.5 11.35 2.71 16.57-.29.64-.2-.37-.68-.34v-1.69c-.46-.66-.32-1.93-.67-2.7-.31-2.81-1.15-5.71-1.69-8.45-.57-2.88-1.38-5.71-1.01-8.45ZM54.59 45.16c-.42-2.34.79-3.04 2.03-3.72-.64 1.57-.31 4.11.67 5.07-.61.59-1.97-.94-2.7-1.35ZM267.57 66.45c-.49-.21.03-.41 0 0 .4.05.28.62.34 1.01.31.59.12 1.69.67 2.03.68 4.51 1.68 8.68 2.37 13.18.1.6-.32.69-.34.34.03-.48.05-.96-.34-1.01-.4-5.68-2.24-9.93-2.7-15.55Z" style="fill:#fff"/>
    <path d="M67.77 144.88c-.35.8-1.73.89-2.37 1.01-1.03.19-2.12.19-3.04.34-12.82 2.04-28.5 3.47-41.92 5.41-3.44-16.85-4.55-36.02-6.42-54.43-.05-1.43.53 0 .68.34.49.19.82.53 1.01 1.01 1.13.33 1.86 1.07 3.04 1.35 2.31.17 4.12-.16 5.07-1.35.58 1 .72 2.44.68 4.06-1.07-1.18-3.45-1.06-5.75-1.02-1.4.51-2.14 1.7-3.04 2.71-.32 1.86-.66 4.37.34 5.75 1.01 1.59 2.81 2.37 5.07 2.7 2.19-.18 3.82-.91 4.39-2.7.75 1.28.22 3.84 1.01 5.07-.97.39-3.24-.81-5.41-.34-3.1 1.02-4.84 4.98-3.72 9.13 1.26 2.34 3.26 3.95 7.1 3.72 1.7.12 2.58-1.97 3.72-1.35.46 3.48.51 7.38 2.03 9.8 21.95-2.5 44.42-4.49 65.92-7.44 1.43-.06 0 .52 0 1.01-.49.19-.82.53-1.01 1.02-1.11.35-1.2 1.73-1.69 2.7-.02 2.5.64 4.31 1.69 5.74.55.47 1.07.96 1.69 1.35.23.67 2.01-.21 1.69 1.01-3.33.05-6.11.65-9.13 1.01-1.48.06.32-1.14.68-1.35.49-.53.71-1.32 1.01-2.03.25-4.53-1.27-7.29-4.39-8.45-5.26-.19-8.36 1.77-8.79 6.42.31 2.95 1.4 5.14 3.72 6.09-2.71 1.01-6.72.71-9.47 1.69-.74-.55 1.24-1.21 1.69-1.69-.25-.92.67-.68.68-1.35-.05-.39.07-.6.34-.68.33-3.93-.96-6.25-2.7-8.11-1.36-.44-2.73-.88-4.73-.68-3.51.89-6.4 6.24-3.72 10.14.96 1.18 1.94 2.34 4.06 2.37Zm-42.26-16.57c-3.64-.14-5.13 1.86-6.76 3.72-.4 3.67 1.27 5.26 4.06 5.74-.71 1.2-2.05 1.78-2.37 3.38.46 2.23-.21 4.48 1.01 6.42 1.1.93 2.33 1.72 4.06 2.02 2.85.04 4.68-.95 6.09-2.36.99-3.88-.07-8.13-2.37-9.8-.81-.2-1.54-.49-2.7-.34 2.6-1.95 1.86-7.67-1.01-8.79Zm26.71 17.92c1.82.02 3.08-.53 4.73-.67.73-.85 1.39-1.77 2.03-2.7-.03-3.92-1.16-6.73-3.38-8.45a15.82 15.82 0 0 0-4.39-.34c-2.14 1.24-3.71 3.05-4.4 5.75.11 1.81.49 3.35 1.01 4.73 1.45.58 2.55 1.51 4.39 1.69Zm-15.55-10.14c-2.29 1.32-3.05 4.16-3.38 7.44.27 2.43 1.86 3.55 3.38 4.73 4.94.54 8.23-.57 8.79-4.4.06-3.1-.89-5.19-2.37-6.76-1.8-.68-3.9-1.05-6.42-1.01Z" style="fill:#604a98"/>
    <path d="M251.34 113.78c1.05-.53 2.02 3.36.68 4.39-.8-1.23.41-3.06-.68-4.39ZM84 133.39c.54.67-1.19 1.95-1.35 3.04.22 1.25-.44 3.37.34 4.06-1.26.91-2.64-.96-3.04-2.03.09-2.95 1.73-4.35 4.06-5.07Z" style="fill:#fff"/>
    <path d="M271.28 100.6c-4.11-25.64-9.89-49.61-13.52-75.72h-.68c-.43.02-.47.43-1.01.34-19.24 3.68-38.88 5.9-58.49 8.79-14.64 2.16-29.36 4.76-43.61 7.1-14.43 2.37-29.4 4.49-44.29 6.09-9.92 1.06-19.88 2.7-29.75 4.05-9.64 1.32-19.23 3.48-28.74 5.07-9.84 1.65-19.59 3.04-29.41 4.39 4.58 23.37 7.52 48.37 11.49 72.35 8.62-.91 17.16-2.86 25.69-3.72 8.93-.9 17.63-2.06 26.37-3.38 8.58-1.3 17.22-2.23 25.69-3.72 8.78-1.55 17.53-2.21 26.37-3.38 4.16-.55 8.34-1.41 12.51-2.03 8.98-1.33 17.63-2.44 26.03-3.72 4.36-.66 8.74-1.23 13.18-1.69 17.58-1.81 35.12-4.61 53.08-6.08 9.76-1.51 18.99-3.55 29.07-4.73Z" style="fill:#e41b1b"/>
    <path d="M48 113.76c-.43.25-.82.39-1.17.4-.35-.03-.65-.07-.9-.14-.24-.06-.44-.15-.59-.27-.15-.11-.28-.25-.38-.42-.1-.16-.17-.3-.2-.41-.04-.11-.09-.26-.15-.45-.63-1.16-.95-3.28-.95-6.36-.02-.12-.06-.26-.12-.45-.22-.98-.47-2.12-.77-3.4-.51-1.99-1.07-4.31-1.68-6.96-1.01-4.11-1.66-7.23-1.96-9.37-.09-.65-.15-1.17-.16-1.56-.02-.39 0-.87.03-1.44.04-.57.17-1.08.4-1.52s.58-.81 1.04-1.11c.81-.58 2.81-1.25 5.97-2.01 2.87-.64 5.28-1.29 7.21-1.95l2.95-1.06c.49-.15.97-.11 1.45.12.48.22.81.59 1 1.09.19.5.16 1-.08 1.5s-.61.83-1.09.97l-2.95 1.06c-2.05.68-4.58 1.36-7.6 2.06-2.15.5-3.63.92-4.44 1.27-.05.47-.01 1.15.11 2.03.28 2.03.9 5.02 1.85 8.98.25.98.44 1.75.56 2.32 1.17-1.92 2.94-2.95 5.3-3.08 2.24-.12 4.19.41 5.83 1.58 1.56 1.14 2.65 2.38 3.27 3.69.73 1.61.37 3.75-1.09 6.41-1.23 2.32-2.61 4.15-4.14 5.49-1.56 1.35-3.02 2.24-4.36 2.66-.93.29-1.66.39-2.18.31Zm-.43-8.07c.32 1.47.59 2.68.8 3.63.35.03.66.1.91.22.92-.36 1.82-.92 2.69-1.66 1.18-1.06 2.29-2.54 3.35-4.45.31-.59.54-1.13.71-1.62.17-.49.24-.82.24-1 0-.17-.01-.28-.02-.32-.33-.69-1-1.4-1.99-2.12-.91-.65-2.02-.94-3.34-.88-1.04.07-1.8.51-2.27 1.31-.31.59-.56 1.44-.75 2.56-.2 1.04-.32 2.29-.35 3.73.03.19.03.38.02.58ZM63.89 77.26c.27-.47.65-.77 1.16-.89.51-.13 1-.05 1.47.23s.78.67.92 1.16l1.44 5.7c.97 3.88 1.92 9.07 2.83 15.56.26 1.87.52 3.43.78 4.68.72-1.78 1.59-4.2 2.6-7.26 2.19-6.58 3.88-11.32 5.08-14.22 1.16-2.81 1.86-4.53 2.08-5.15.06-.16.09-.28.1-.34.01-.06.06-.15.14-.28.08-.13.17-.24.28-.33.1-.09.25-.19.43-.29.18-.1.38-.19.61-.26.94-.25 1.64-.14 2.09.32.45.46.68.99.69 1.57v.88c.16 1.07.61 3.31 1.36 6.71.75 3.4 1.7 7.54 2.85 12.4 1.15 4.83 2.05 8.09 2.72 9.79l1.02 2.72c.19.52.17 1.02-.05 1.5-.22.48-.59.81-1.09 1s-.99.18-1.47-.03-.81-.57-1-1.09l-1.02-2.72c-.73-1.88-1.7-5.29-2.9-10.23-1.16-4.9-2.11-9.08-2.87-12.52-.18-.71-.33-1.4-.46-2.04-1.16 2.82-2.78 7.43-4.84 13.84-.09.17-.19.44-.3.8-.82 2.49-1.43 4.28-1.82 5.37-.39 1.09-.86 2.18-1.41 3.27-.55 1.09-1.09 1.85-1.61 2.27-.72.45-1.39.59-2.01.43-.63-.17-1.11-.48-1.45-.94-.57-.74-1.01-1.77-1.31-3.09-.3-1.32-.65-3.4-1.05-6.22-.89-6.34-1.81-11.38-2.77-15.11l-1.44-5.7c-.11-.53-.04-1.03.23-1.49ZM94.02 75.54c-.12-.61.05-1.16.53-1.65.3-.63.82-.97 1.55-1.04.34-.05.68.02 1.02.21.98-.22 2.58-.6 4.81-1.14 3.01-.74 4.75-1.14 5.21-1.2l.69-.1c.49-.11.96 0 1.42.3.45.31.73.73.82 1.26.09.53-.02 1.02-.35 1.45-.33.44-.74.71-1.23.82l-.63.09c-.42.06-2.1.45-5.04 1.18-2.04.48-3.51.83-4.42 1.03l.28 2.42c.27 3 .95 7.74 2.06 14.21 1.07 6.51 1.77 10.78 2.09 12.8l.41 2.92c.08.54-.05 1.02-.38 1.46-.33.44-.75.69-1.27.76-.52.07-.99-.06-1.43-.38-.44-.33-.69-.74-.76-1.24l-.42-2.98c-.32-1.98-1.01-6.21-2.08-12.69-1.12-6.55-1.81-11.38-2.1-14.5l-.3-3c-.27-.27-.44-.6-.49-.98ZM115.63 74.14c-.5-.2-.85-.54-1.05-1.02-.2-.48-.21-.96-.03-1.46.18-.49.53-.85 1.05-1.08l1.54-.68c1.25-.53 3.5-.86 6.76-1.01.28-.23.61-.38.99-.43.5-.07.94.03 1.33.28 2.4-.1 4.38-.28 5.95-.54 1.99-.28 3.28-.48 3.89-.61l.97-.19a1.83 1.83 0 0 1 1.47.29c.45.31.72.72.82 1.23.09.51 0 .99-.29 1.44-.29.45-.7.73-1.23.84l-.97.19c-.68.13-2.06.35-4.12.64-1.45.24-3.21.43-5.3.57.19 1.38.46 3.31.81 5.79.43 3.06.94 6.3 1.54 9.72.6 3.42 1.21 6.65 1.83 9.68.6 3.15.96 5.32 1.09 6.51l.18 1.73c.03.5-.13.96-.48 1.38-.35.42-.78.66-1.3.71-.52.05-.99-.1-1.41-.45-.42-.35-.65-.78-.68-1.28l-.18-1.73c-.11-1.07-.46-3.11-1.03-6.11-.63-3.07-1.24-6.33-1.84-9.8-.6-3.46-1.12-6.74-1.56-9.84-.38-2.71-.67-4.76-.86-6.14-2.52.12-4.12.35-4.82.68l-1.6.69c-.48.18-.97.17-1.47-.03ZM144.04 71.61c-.19-.48-.17-.95.04-1.41.21-.46.53-.8.97-1.01.21-.69.66-1.12 1.34-1.3.57-.12 1.09-.04 1.55.25l.56-.19c2.23-.74 3.74-1.25 4.52-1.51l1.13-.28c.52-.15 1.02-.1 1.48.14.46.25.77.62.92 1.13.15.51.09 1-.17 1.49-.26.48-.64.8-1.12.95l-1.18.34c-.71.22-2.14.69-4.3 1.42l-.34.11.65 2.54c.57 2.1 1.04 4.63 1.42 7.58.47-.26.95-.56 1.45-.91l2.42-1.51c.43-.29.91-.38 1.45-.26.54.12.95.4 1.23.85.28.45.36.93.23 1.46-.12.52-.4.93-.82 1.23l-2.42 1.51c-1.58 1-2.6 1.61-3.08 1.83l.18 2.08c.49 5.7.77 9.5.84 11.4.04.27.06.54.06.81.38-.09.81-.21 1.29-.36 2.04-.72 4.21-1.41 6.49-2.08 2.16-.69 3.72-1.28 4.66-1.77l1.58-.81c.47-.26.96-.31 1.47-.15s.89.48 1.13.95c.24.47.28.96.12 1.47-.16.51-.46.89-.89 1.15l-1.58.81c-1.16.63-2.95 1.31-5.38 2.04-2.24.7-4.37 1.37-6.38 2.01-.22.11-.62.27-1.19.49-.58.22-.99.36-1.25.44-.26.08-.62.11-1.07.09s-.89-.13-1.3-.34c-.5-.24-.88-.58-1.14-1.01-.26-.43-.4-.79-.44-1.08-.04-.29-.06-.75-.05-1.4 0-.64.02-1.03.04-1.15-.1-1.82-.39-5.54-.87-11.16-.44-5.59-1.09-10-1.98-13.23l-.62-2.37c-.83-.08-1.38-.51-1.64-1.29ZM183.63 64.59c.57.7 1.31 2.12 2.23 4.25 1.11 2.61 2.57 5.93 4.38 9.97l.11-.02c.54-.08 1.02.04 1.45.35.43.31.69.73.76 1.27.11.77-.14 1.36-.74 1.8 1.46 3.15 2.57 5.27 3.35 6.37l1.61 2.29c.29.43.39.9.29 1.42-.1.52-.37.94-.79 1.25-.42.31-.91.42-1.45.32-.54-.1-.96-.36-1.25-.79l-1.54-2.24c-1.02-1.45-2.4-4.05-4.13-7.78l-.23.03c-2.14.3-4.18.63-6.12.98l-1.48.27c-.19.88-.36 1.77-.51 2.64-.32 1.6-.59 3.03-.8 4.26-.02.43-.06.85-.12 1.24l-1.01 3.18c-1.25 3.06-2.33 3.56-3.24 1.51-.15-.48-.25-.82-.32-1.01-.07-.19-.07-.54 0-1.05.06-.52.12-.91.18-1.2.06-.28.16-.75.3-1.42.14-.66.27-1.26.39-1.78.26-2.88.66-6.53 1.21-10.93.32-2.42.63-4.53.92-6.33.37-2.12.73-3.8 1.1-5.06.53-1.79 1.02-3.03 1.47-3.71l.28-1.73c.08-.52.35-.93.79-1.22.44-.3.93-.4 1.45-.32.52.08.93.35 1.25.79.32.44.43.92.35 1.44l-.16.96Zm-2.77 15.65h.06c1.68-.28 3.45-.57 5.32-.87-1.48-3.3-2.71-6.11-3.7-8.42-.32 1.91-.68 3.92-1.09 6-.2 1.08-.4 2.18-.59 3.3ZM198.3 62.52c-.5-.2-.85-.54-1.05-1.02-.2-.48-.21-.96-.03-1.46.18-.49.53-.85 1.05-1.08l1.54-.68c1.25-.53 3.5-.86 6.76-1.01.28-.23.61-.38.99-.43.5-.07.94.03 1.33.28 2.4-.1 4.38-.28 5.95-.54 1.99-.28 3.28-.48 3.89-.61l.97-.19a1.83 1.83 0 0 1 1.47.29c.45.31.72.72.82 1.23.09.51 0 .99-.29 1.44-.29.45-.7.73-1.23.84l-.97.19c-.68.13-2.06.35-4.12.64-1.45.24-3.21.43-5.3.57.19 1.38.46 3.31.81 5.79.43 3.06.94 6.3 1.54 9.72.6 3.42 1.21 6.65 1.83 9.68.6 3.15.96 5.32 1.09 6.51l.18 1.73c.03.5-.13.96-.48 1.38-.35.42-.79.66-1.3.71s-.99-.09-1.41-.45c-.42-.35-.65-.78-.68-1.28l-.18-1.73c-.11-1.08-.46-3.11-1.03-6.11-.63-3.07-1.24-6.33-1.84-9.8-.6-3.46-1.12-6.74-1.56-9.84-.38-2.71-.67-4.76-.86-6.13-2.52.12-4.12.35-4.82.68l-1.6.69c-.48.18-.97.17-1.47-.03ZM227.53 57.48c-.29-.43-.4-.91-.32-1.45.08-.54.35-.96.82-1.25l1.11-.86c.22-.11.42-.21.6-.32.33-.4.73-.63 1.19-.69.38-.05.74.01 1.08.2.97-.06 2.8.13 5.52.57 2.28.38 4.14 1.26 5.6 2.63 1.46 1.37 2.38 3.15 2.76 5.31.38 2.13.21 4.04-.51 5.74-.72 1.7-1.94 3.02-3.68 3.97-2.07 1.11-3.96 1.9-5.69 2.38.12.84.25 1.78.39 2.81 1.01 6.91 1.62 10.84 1.83 11.79l.33 1.53c.15.52.08 1.01-.2 1.46-.29.45-.7.74-1.22.87-.53.13-1.02.06-1.46-.23-.45-.29-.73-.7-.84-1.23l-.39-1.52c-.23-1.06-.85-5.1-1.88-12.13-.12-.88-.25-1.76-.37-2.64l-1.56.16c-.5.07-.96-.06-1.4-.39-.44-.33-.69-.75-.76-1.27-.07-.52.05-.99.38-1.43.33-.44.76-.69 1.29-.77l1.5-.15c-.59-3.93-1.08-7.16-1.48-9.67l-.39-2.75c-.93.33-1.68.1-2.26-.68Zm7.93 12.33c1.34-.42 2.81-1.06 4.41-1.91 1.02-.53 1.7-1.23 2.04-2.1s.4-2.02.16-3.47c-.24-1.45-.77-2.54-1.57-3.29-.81-.74-2.01-1.26-3.61-1.54-1.2-.18-2.33-.32-3.39-.4l.51 3.2c.39 2.52.88 5.69 1.45 9.5Z" style="fill:#fff"/>
</svg>
