<svg xmlns="http://www.w3.org/2000/svg" viewBox="0 0 248.18 128.98">
    <path d="M244.61 71.57c-1.94-8.38-2.74-17.02-3.92-25.48-.41-2.93-.68-5.81-1.12-8.68-.42-2.73-1.16-5.46-1.68-8.12-.27-1.39-.28-2.84-.56-4.2-.27-1.32-.84-2.58-1.12-3.92-1.17-5.62-2.05-11.29-3.08-16.8-.15-.92-.76-1.46-.56-1.96.06-.14.88 0 .56-.56-1.35.13-.97-1.46-1.96-1.68-.72-.15-.98-.37-1.4.28-18.27 3.57-37.57 6.11-56.57 8.96-19.5 2.13-39.08 4.77-58.53 7-4.87.56-9.78.92-14.56 1.68-2.36.37-4.68.81-7 1.12-2.49.33-5.02.53-7.56.84-9.61 1.15-18.91 3.37-28.29 4.48-17.93 4-38.74 5.13-57.13 8.68-.37 1.42.13 2.78.28 4.2.53 4.91.76 9.37 1.12 14 .49 6.28.79 12.63 1.68 18.76 1.77 12.19 2.89 24.35 3.92 36.69.17 4.31.92 8.04 1.68 11.76.22 2.02.88 3.6 1.12 5.6.47.65.73 1.51.84 2.52-.5.43.82 1.4.84 2.24 12.33-.64 25.1-2.26 36.69-3.64 1.08-.13 2-.41 3.08-.56 6.63-.91 13.25-1.52 19.88-2.24 4.44-.48 8.71-1.01 13.16-1.4 11.57-1.02 22.46-1.99 33.61-3.36 17.59-2.16 35.11-4.44 52.37-6.44 4.36-.51 8.61-1.11 12.88-1.68 2.15-.29 4.3-.45 6.44-.84 2.03-.36 4.09-1.06 6.16-1.4 4.27-.69 8.62-.96 12.88-1.68 4.25-.71 8.36-1.73 12.6-2.24 6.7-1.7 14.26-2.54 20.16-5.04 1.15-.26 2.52-.28 3.36-.84 1.27-.22 2.61-.38 2.8-1.68 1.01-1.8.2-3.83-.28-5.6-.91-6.28-2.41-11.96-2.8-18.76Z" style="fill:#391616"/>
    <path d="M222.21 8.28c.53 1.01-1.33 3.51-.28 5.04-.6.76-1.38-.66-1.96-.84V9.96c.54-.77 1.66-.95 2.24-1.68ZM225.01 8.28c1.26.61 1.32 2.42 1.4 4.2-.39.85-2.03 1.54-2.8 1.12-.78-1.97-.2-4.82 1.4-5.32ZM199.25 9.12c-.14-.14.2-.36.28-.28.14.14-.2.35-.28.28Z" style="fill:#fff"/>
    <path d="M213.81 10.24c.44 1.48.39 3.61-.28 4.76-1.46.63-3.57.21-4.48-.56.04-1.16-.49-1.75-.28-3.08.45-1.56 3.31-1.72 5.04-1.12ZM203.45 11.08c.29 1.41.75 2.79.28 4.2-.95 1.25-4.63 1.61-6.16.56-1.45-3.81 2.39-5.89 5.88-4.76ZM192.52 13.04c.47 1.65.52 2.9 0 4.48-1.65.56-3.5.72-4.76-.28-.29-.74-.34-1.72-.28-2.8 1.23-.92 2.66-1.63 5.04-1.4ZM182.16 14.44c.85 1.36.92 3.21.28 4.76-2.12.74-4.96.22-5.04-1.96.36-2.08 2.52-3.5 4.76-2.8Z" style="fill:#f6a320"/>
    <path d="M170.4 15.56c.05 1.28-.07 2.24-.56 3.08-.39.67-1.58 1.56-2.52 1.68-1.39-2.14-.15-5.48 3.08-4.76ZM171.52 15.84c1.26.78 1.44 3.73.56 5.04-.79.33-1.93.31-3.08.28 1.1-1.52 2.96-2.26 2.52-5.32Z" style="fill:#fff"/>
    <path d="M146.04 16.68c-2.33 1.12-4.01 2.9-3.64 6.72 1 1.99 2.34 3.64 5.04 3.92-13.36 2.41-26.84 4.71-40.89 6.44-1.23.05.26-.95.56-1.12.15-.78.41-1.45.56-2.24-.11-1.39-.37-2.62-.84-3.64-1.08-1.82-3.69-2.46-5.88-1.68-1.78.64-2.23 2.16-2.8 3.64 0 2.69.69 4.72 2.8 5.32-1.06.99-3.58.53-5.04 1.12 2.74-4.62-1.28-11.14-6.72-8.4-1.92 1.62-2.11 6.02-.28 7.84.59.43 1.55.5 1.68 1.4-6.61.58-12.39 1.98-19.04 2.52-6.07 1.11-12.88 1.49-18.49 3.08-6.29.88-12.35 2.04-18.48 3.08-6 1.02-12.02 2.24-18.2 3.08-.7.23-1.5.37-1.4 1.4-1.31-.65-2.47-1.45-4.76-1.12-1.24.34-1.7 1.47-1.96 2.8-.95-4.46-1.62-9.21-2.24-14 9.29-1.35 18.62-3.29 28.28-4.2 4.83-.45 9.46-1.14 14.28-1.96 18.1-3.07 38.06-5.45 57.41-7.56 4.6-.51 9.33-.75 13.44-2.8 9.19-.9 17.49-2.68 26.6-3.64Zm-6.16 3.36c-1.47-1.27-3.41-1.81-5.88-1.4-1.49 2-3.19 3.51-2.52 7 .99 2.25 5.4 3.4 7.84 1.68 1.28-1.37 1.55-5.33.56-7.28ZM120 25.64c.31.9.48 1.95.84 2.8.84.65 1.97 1.56 3.36 1.68 1.66.15 3.02-.54 4.2-1.12-.22-.68.65-.72.84-1.4.66-2.37-.37-5.77-1.68-6.72-5.06-1.49-6.97 1.38-7.56 4.76Zm-1.68-.56c-.65-.75-1.44-1.36-2.24-1.96-5.2-.63-7.41 1.74-7.28 6.44.33.05.3.44.28.84 1.38 2.24 6.55 2.03 8.68.56 1.07-1.13 1.02-4.06.56-5.88ZM83.87 36c2.02-.6 3.17-3.24 2.24-5.88-1.08-1.35-2.19-2.66-4.48-2.8-2.16.18-3.15 1.52-4.2 2.8v3.08c1.33 1.75 3.13 3.03 6.44 2.8Zm-17.08-4.76c-.76 1.51.01 3.65.56 4.76 1.4 1.12 2.94 2.1 5.6 1.96.24-.42.9-.41 1.4-.56 1.54-1.64 2.12-6.6.28-8.4-2.56-1.72-7.56-.86-7.84 2.24Zm-11.76 2.52c-.14 2.01.46 3.27 1.12 4.48 2.69 1.61 7.48 1.37 8.12-1.96.08-1.95-.28-3.45-.84-4.76-2.63-1.76-7.94-.76-8.4 2.24Zm-9.52-1.4c-.8 1.07-1.81 1.93-1.96 3.64-.2 5.83 9.16 6.74 9.8 1.4.34-2.8-2.36-7.07-5.88-5.32-.91-.16-1.3.19-1.96.28Zm-12.32 9.52c2.69 2.35 7.56.59 8.4-2.24 0-2.24-.73-3.75-1.68-5.04-5.02-2.47-9.5 2.76-6.72 7.28Zm-5.32-6.16c-3.07-1.47-5.85 1.16-7.28 3.08-.37 2.99.63 4.6 2.24 5.6 3.21.31 5.09-.69 6.72-1.96.86-2.76-.43-5.2-1.68-6.72Zm-9.24 7.56c-.14-1.63-.66-2.89-1.12-4.2-.79-.19-.77-1.03-1.4-1.4-2.53-1.49-6.59.55-7.56 2.8-.15 3.7 1.18 5.92 4.2 6.44 2.54.11 3.69-1.17 5.32-1.96.26-.49.1-1.4.56-1.68Z" style="fill:#604a98"/>
    <path d="M161.44 21.72c-.85.46-1.79.82-3.08.84-.38-2.33-.27-5.12 2.52-5.04.65.94.59 2.58.56 4.2Z" style="fill:#fff"/>
    <path d="M143.52 21.72c.69-2.02 2.1-3.32 5.04-3.08 2.14.99 2.54 4.99.56 6.44-.7.23-1.5.37-2.52.28-1.81-.43-2.64-1.84-3.08-3.64Z" style="fill:#f6a320"/>
    <path d="M225.01 19.21c3.05-1.43 4.18 2.22 3.36 4.76-.65-2.05-.83-4.59-3.36-4.76ZM226.13 24.52c-1.77.19-2.98-.19-3.92-.84-.34-.79-.31-1.93-.28-3.08.6-.52 1.78-.46 2.24-1.12 1.06.35 1.59 1.22 2.24 1.96-.09 1.03.24 2.48-.28 3.08Z" style="fill:#fff"/>
    <path d="M134.83 20.32c1.85-.17 2.97.39 3.92 1.12.04 1.9.14 3.87-.84 4.76-1.83.7-4.29.14-5.04-1.12-.68-1.15.67-1.19.56-2.52.55-.66.97-1.46 1.4-2.24ZM127.27 23.4c.07 1.51.5 2.55 0 3.92-1.24-.82-3.41-.69-3.92-2.24v-2.24c1.09-1.02 3.13-.33 3.92.56Z" style="fill:#f6a320"/>
    <path d="M121.95 24.52c.75 1.68 1.41 3.45 3.92 3.36-.72.61-2.85.25-3.64 0-.56-.59-.87-2.5-.28-3.36Z" style="fill:#fff"/>
    <path d="M116.07 25.64c.68.72.59 2.22.56 3.64-1.08 1.29-4.52 1.48-6.16.56-.55-1.19-.19-2.93.28-3.92 1.25-.67 3.97-1.39 5.32-.28ZM99.55 31.25c.1-1.96 1.02-3.09 1.96-4.2 1.75-.56 3.64-.27 4.2 1.4.74 2.23-.65 4.78-3.08 4.48-1.45-.13-2.53-.65-3.08-1.68ZM231.73 28.73c.18 1.96-.29 3.25-.84 4.48-1.26.71-3.53.74-4.76 0-.51-1.53-.84-3.16-.56-4.76 1.71-1.29 4.7-1.27 6.16.28Z" style="fill:#f6a320"/>
    <path d="M92.27 28.16c-.07.95-1.26.79-1.68 1.4-.04.52-.18.93-.56 1.12v2.52c-1.27-.49-1.25-2.52-.84-3.92.75-.65 1.79-1 3.08-1.12Z" style="fill:#fff"/>
    <path d="M93.95 29.01c.98 1.06 1.13 2.87.84 4.48-.78.62-1.89.91-3.36.84-.89-2.43.05-5.32 2.52-5.32ZM84.15 30.4c.34.79.31 1.94.28 3.08-1.62 1.68-5.41.59-5.6-1.68-.28-2.72 4.03-2.72 5.32-1.4ZM73.22 30.69c.9 1.5.41 3.64-.28 5.04-2.17.58-4.21-.13-4.76-1.96-.03-2.58 2.36-4.12 5.04-3.08ZM61.74 32.65c.69 1.23.72 3.29 0 4.48-1.26.5-3.53.38-4.48-.28-.69-.71-.73-2.61-.28-3.64 1.32-.45 2.92-.63 4.76-.56ZM49.42 38.81c-1.6-.64-2.14-3.39-1.12-5.04 2.42-.27 2.81 1.48 2.8 3.64-.61.42-.65 1.4-1.68 1.4ZM38.5 36.01c.75.56.61 2 1.12 2.8-.37 1.96-3.39 2.98-5.32 1.68.04-.33-.06-.5-.28-.56-.31-2.36 1.12-2.98 1.96-4.2 1.02-.09 1.82.04 2.52.28Z" style="fill:#f6a320"/>
    <path d="M2.93 37.13h.56c1.28-.16 1.04 1.2 1.12 2.24 3.43 26.78 5.84 54.81 9.52 81.77.29.74.33 1.72.28 2.8.3.34.79 2.44-.56 1.96-1.63.51-1.02-1.22-1.12-2.24-1.18-7.08-1.66-14.3-2.52-21.56-.84-7.03-1.77-14.17-2.52-21.28-.77-7.26-1.1-14.66-1.96-21.84-.43-3.58-1-7.1-1.4-10.64-.39-3.47-.65-6.98-1.4-10.36v-.84Z" style="fill:#fff"/>
    <path d="M27.86 40.49c-1.01 1.23-1.99 2.48-4.48 2.24-.99-.6-1.65-1.52-1.4-3.36.83-1.32 2.23-2.07 4.2-2.24.88.8 1.27 2.09 1.68 3.36ZM16.38 42.17c-.56 1.82-3.04 3.26-5.04 1.96-.68-.72-.58-2.21-.56-3.64 1.31-.59 2.47-1.75 4.2-1.12.63.77 1.24 1.56 1.4 2.8Z" style="fill:#f6a320"/>
    <path d="M228.93 39.09c.46.96-.65 4.36.56 5.32-1.76.64-2.64-2.02-2.24-4.48.3-.54 1.29-.39 1.68-.84Z" style="fill:#fff"/>
    <path d="M232.57 39.09c1.04 1.44 1.02 5.84-1.4 5.6-.72-1.5-1.37-5.93 1.4-5.6Z" style="fill:#f6a320"/>
    <path d="M12.73 50.57c-.59 1-2.73.44-3.08 1.68-.97-1.45 1.44-1.91 3.08-1.68Z" style="fill:#fff"/>
    <path d="M234.25 51.97c.7 1.8.47 3.46-.28 5.04-2.16.87-4.39-.15-5.32-1.4.03-1.37-.15-2.95.28-3.92 1.71-.8 4.11-1.18 5.32.28Z" style="fill:#f6a320"/>
    <path d="M14.14 53.37c.12 1.43-.43 2.18-.84 3.08-1.47.57-3.06.68-3.92-.56-.54-2.92 3.19-4.29 4.76-2.52Z" style="fill:#fff"/>
    <path d="M15.82 56.45c.64.95.2 2.97.84 3.92-1.32.26-3.53-.15-4.76.84-1.03.65-1.68 1.68-1.96 3.08-.77-1.56-.4-4.27-1.12-5.88.88-.4 1.56.54 2.8.56 1.95.03 3.64-.89 4.2-2.52Z" style="fill:#604a98"/>
    <path d="M236.21 63.45c.66 2.31-.44 4.61-2.8 4.76-1.38-.3-1.75-1.61-1.96-3.08.16-1.1.27-2.12 1.4-2.52 1.11-.39 2.67.19 3.36.84Z" style="fill:#f6a320"/>
    <path d="M11.9 67.65c-.39-.92-.66-1.95-.56-3.36 1.62-.3 2.69-2.14 4.76-1.12 1.1 1.18 1.48 3.79.28 5.04-1.57.52-3.36.14-4.48-.56Z" style="fill:#fff"/>
    <path d="M10.21 67.93c1.19 2.2 4.96 3.1 7.84 1.96-.19 1.13.27 1.6.28 2.52-.92-.58-2.84-.15-4.2-.28-1.48.67-2.42 1.87-2.8 3.64-.7-2.28-.83-5.14-1.12-7.84Z" style="fill:#604a98"/>
    <path d="M17.5 74.38c.88.9 1.57 1.98 1.4 3.92-.99-.41-2.68-.12-3.36-.84-.07-1.75-.38-3.73 1.96-3.08ZM237.61 74.38c2.11 1.67.55 4.84-1.4 5.6-1.66-.3-2.91-1.01-3.08-2.8-.25-1.65 1.21-1.59 1.4-2.8h3.08Z" style="fill:#f6a320"/>
    <path d="M13.57 75.77c.33-.04.5.06.56.28-.15 1.18.49 1.57.56 2.52 1 .59 2.17 1 3.92.84-1.77 4.32-8.74-.97-5.04-3.64Z" style="fill:#fff"/>
    <path d="M19.18 86.7c.79 1.76.29 3.79-1.12 4.76-1.82.23-2.71-.46-3.64-1.12-1.26-3.02 2.01-4.65 4.76-3.64ZM238.17 86.7c3.04.16 3.32 5.49.28 5.88-.68-.43.6-1.25.56-1.96.16-1.74-.51-2.67-.84-3.92Z" style="fill:#f6a320"/>
    <path d="M236.77 87.26c.37.84.9 1.52.84 2.8-.06 1.06-.88 1.36-1.12 2.24-2.75.05-3.23-5.52.28-5.04Z" style="fill:#fff"/>
    <path d="M227.81 89.22c2.67-.15 2.29 4.15.28 4.48-.74-1.23-1.06-3.14-.28-4.48Z" style="fill:#f6a320"/>
    <path d="M225.85 89.5c.15 1.22.07 3.44.84 4.76-1.9.22-2.14-1.23-2.24-2.8.04-1.08 1.13-1.1 1.4-1.96Z" style="fill:#fff"/>
    <path d="M219.41 91.74c.69.71.73 2.6.28 3.64-2.01 1.1-5.36.62-4.76-2.52.32-1.6 3.13-2.23 4.48-1.12ZM205.69 93.42c2.03.32 1.87 3.47 1.12 5.04-.87.37-.8-.08-1.96 0-.98-1.38-1.39-4.77.84-5.04ZM193.09 97.06c.46-1.31 1.98-1.56 2.52-2.8h1.96c.08.57.75.56 1.12.84.3 1.33.75 2.54.28 3.92-1.77 2.13-5.82.84-5.88-1.96ZM188.05 100.42c-1.1.58-2.74.62-4.48.56-.95-.81-1.48-2.94-.84-4.48 1.18-.32 3.2-1.28 4.2-.84 1.87.23 2.01 3.39 1.12 4.76ZM20.58 97.34c.78 1.28.91 3.19.84 5.32-1.17 1.62-4 1.13-5.32 0-.29-.74-.34-1.72-.28-2.8-.03-1.24 1.45-.97 1.68-1.96.66-.56 1.78-.64 3.08-.56Z" style="fill:#f6a320"/>
    <path d="M175.16 97.9c2.56-1.18 3.09 2.99 1.68 4.48-.22-1.25.06-3.98-1.68-4.48Z" style="fill:#fff"/>
    <path d="M174.6 103.22c-2.47-.15-3.53-1.7-3.36-4.48 1.22-.06 1.88-.98 3.08-.28 1.24 1.18 1.3 3.32.28 4.76ZM165.92 100.14c2.54 5.52-8.02 6.71-7 .84.75-2.18 5.46-2.62 7-.84ZM141.84 100.42c1.14 1.9 1.23 5.61-1.4 5.88-1.56-.21-2.65-.9-3.08-2.24.4-2.31 1.4-4.01 4.48-3.64Z" style="fill:#f6a320"/>
    <path d="M151.64 100.98c-1.14 1.28-1.47 3.25-1.12 5.32-3.48.02-2.55-6.17 1.12-5.32ZM152.76 101.54c2.08.69.99 4.41-.56 4.76-1.51-1.18-.34-3.65.56-4.76ZM129.23 103.22c3.05-1.69 4.71 4.31 1.68 4.76.99-1.58.06-4.27-1.68-4.76Z" style="fill:#fff"/>
    <path d="M128.11 103.22c1.13.37 1.35 1.64 1.68 2.8.42 1.19-1.16 1.8-.28 2.52-2.27 1.15-3.63-1.03-3.64-3.08.24-1.26.99-2 2.24-2.24ZM119.99 104.62c.79 1.37.69 3.71-.28 4.76-2.75.85-5.41-.23-4.76-3.64 1.37-.69 2.86-1.25 5.04-1.12Z" style="fill:#f6a320"/>
    <path d="M91.99 104.9c.72-.01.34.21.28.56-1.03.56-1.56 1.61-2.24 2.52.2 1.04-.48 1.2-.28 2.24-.09 1.11.65 1.4.56 2.52 1.26.88 1.7 2.59 3.64 2.8-2.71.65-5.96.76-8.96 1.12 1.54-.89 3.02-1.83 3.64-3.64.06-2.2-.2-4.09-1.12-5.32-.23-1.08-1.74-.88-1.96-1.96 2.29-.13 4.52-.34 6.44-.84Z" style="fill:#604a98"/>
    <path d="M105.43 105.74c1.46-.02 2.7-.64 3.64.28.33.7.41 1.65.56 2.52-.59 2.96-5.18 2.94-5.6.28-.26-1.62.77-1.59 1.4-3.08Z" style="fill:#f6a320"/>
    <path d="M96.75 106.58c1.38 1.05 2.24 3.98 1.12 5.88-3.15.1-4.59-2.79-3.64-5.88h2.52Z" style="fill:#fff"/>
    <path d="M85.27 108.26c1.19.82 1.44 3.58.84 5.32-1.27 1.23-4.48 1.96-6.44.84-1.62-3.44 1.39-7.68 5.6-6.16Z" style="fill:#f6a320"/>
    <path d="M20.86 108.26c.4.93.81 2.29.28 3.36-1.21.72-2.96 1.05-3.92 0v-1.12c.27-1.32 1.88-1.3 2.52-2.24h1.12ZM92.27 108.26c.76 2.42 1.53 4.82 4.2 5.32-3.66 1.66-5.8-2.52-4.2-5.32Z" style="fill:#fff"/>
    <path d="M72.38 111.06c1.51 2.11 1.02 6.16-2.52 5.6-.79-2.51.01-5.5 2.52-5.6ZM59.5 117.22c-3.23.44-4.12-2.68-3.36-5.32 3.61-.69 4.28 3.18 3.36 5.32ZM45.5 113.3c.73 1.28 1.7 3.33 1.12 5.04-.9-.06-1.19.49-2.24.28-2.4.03-3.43-7.78 1.12-5.32Z" style="fill:#f6a320"/>
    <path d="M54.46 113.86c.24-.05.26.11.28.28-.06 1.28.47 1.96.84 2.8.16.87 1.32.74 1.4 1.68-2.19-.15-3.66-1.01-3.92-3.08-.09-1.12 1.3-.76 1.4-1.68ZM34.86 115.26c.78 1.14 1.35 4.01.28 5.32-3.35.53-4.19-3.92-2.52-5.88 1.01-.08 1.35.52 2.24.56ZM22.26 115.82c2.13.11 1.82 2.66 1.96 4.76-.68.15-.6 1.08-1.68.84.95-1.73.28-3.87-.28-5.6ZM20.86 121.7c-2.96 0-2.77-4.88-.56-5.6.45-.08.48.27.84.28.51 1.79.85 3.95-.28 5.32Z" style="fill:#fff"/>
    <path d="M30.38 116.1c.46 1.87.3 4.37 1.96 5.04-2.14.87-3.28-3.19-1.96-5.04ZM40.74 116.1c.52.97.89 2.09 1.4 3.08-1.16-.24-2.28-1.69-1.4-3.08Z" style="fill:#fff"/>
    <path d="M226.13 38.53c-.6 1.77-.81 4.45 0 6.16 1.54 2.57 6.29 2.71 8.4.56.41-.99.73-2.07.56-3.64 1.08 1.81.96 4.23 1.4 6.44.43 2.16 1.18 4.32 1.4 6.44.58 3.14 1.6 6.23 2.24 9.52.66 3.37.79 6.91 1.4 10.37 1.16 6.59 2.85 13.19 3.08 19.6-5.34 1.66-11.65 2.36-17.36 3.64-5.84 1.16-11.13 2.88-17.64 3.36-8.93 1.67-18.07 2.93-27.16 4.48-13.77 2.34-27.67 3.67-42.01 5.32-2.35.27-4.62.5-7 .84-2.22.31-4.45.78-6.72 1.12-9.47 1.42-19.18 1.39-28.85 2.52-.5.08-.57-.27-.28-.28.23-.05.28-.28.56-.28 0-.56.76-.36.56-1.12.79-.43 1.02-1.4 1.4-2.24.06-3.6-.98-6.11-3.92-6.72 5.55-1.01 11.24-1.56 16.8-2.52 5.61-.97 11.19-1.73 16.8-2.52 5.57-.79 11.21-1.87 16.8-2.52 5.73-.67 11.41-1.17 17.08-2.24 17.25-2.07 34.99-3.65 50.97-7 2.9-.37 5.62-.91 8.4-1.4 1.55-.04 2.38-.8 3.64-1.12 1.56-.03 2.06-1.11 2.8-1.96-.72-16.05-4.28-29.9-6.72-44.25-.81-4.77-1.61-9.43-2.52-14.28-.93-2.25-.96-5.38-2.24-7.28-24.08 2.62-47.32 6.08-70.29 9.8 3.14-.43 5.13-3.32 4.48-6.72-.38-1.96-2.09-3.01-3.36-3.92h-2.24c-.51-.22.17-.3.56-.28h1.12c.67-.17 1.28-.4 2.24-.28 1.28-.3 2.74-.43 4.2-.56.98-.24.29.73 0 .84.12.67-.51.61-.28 1.4-.33.79-.31 1.93-.28 3.08.38 1.02.77 2.03 1.4 2.8 1.93.97 5.99.79 7.28-.56 1.15-2.74.66-7.67-2.24-8.12 2.86-1.05 6.04-1.17 9.24-1.68 3.11-.49 6.29-1.23 9.52-1.4 6.15-1.13 12.71-1.85 19.04-2.8 1.23-.05-.26.95-.56 1.12-.42.42-.5 1.18-1.12 1.4-.55 1.13-1.06 2.3-.84 4.2.8 3.52 8.49 3.23 9.8-.28.3-1.72.12-3.84-.56-5.32-.57-1.02-1.76-1.41-3.36-1.4 5.97-1.51 12.87-2.01 19.6-3.08 2.12-.34 4.15-1.29 6.16-.84 1.1.02.72 1.52 1.12 2.24.59 2.68.9 5.63 1.68 8.12.46 3.84 1.09 7.5 1.96 10.92-.38.54-1.64-.39-2.24-.56-.72.01-.34-.21-.28-.56.3-.07.19-.56.56-.56-.22-.97.42-1.08.28-1.96-.25-1.24-.28-2.7-.84-3.64-.54-1.05-1.6-1.58-2.8-1.96-4.34-.02-7.27 2.47-6.44 6.72.83 1.6 1.99 2.86 4.48 2.8 1.17-.12-.13.84-.28 1.12-.54.3-.39 1.29-.84 1.68.4 1.19.11 3.06.56 4.2 1.25 2.97 8 2.94 8.68-.56.95 1.38.91 3.76 1.68 5.32-.1.39-.49.02-.56-.28-.88-.43-1.68-.93-2.8-1.12-2.37-.04-3.76.9-5.32 1.68Zm1.68-24.37c.04-.52.18-.94.56-1.12.07-3.81-.88-6.58-3.92-7.28-4 .49-6.34 2.62-5.88 7.56 1.18 2.95 7.2 3.27 9.24.84Zm-20.45-3.64c-.62 1.84 0 3.84.56 5.32 1.35.52 2.29 1.44 4.2 1.4 1.03-.18 1.98-.45 2.8-.84.35-.86.78-1.64 1.12-2.52.14-1.91-.2-3.35-.56-4.76-2.4-2.27-6.87-1.18-8.12 1.4Zm-21 7.28c1.45 2.22 6.49 2.69 8.12.28.56-2.24.54-4.63-.56-6.44-3.86-2.18-8.93.45-7.56 6.16Zm-10.08.56c.73 2.33 3.92 3.46 7 2.52 2.25-1.67 1.77-7.56-.84-8.4-4.71-.7-5.87 2.16-6.16 5.88Zm-8.68-4.2c-.8.78-1.3 1.88-1.96 2.8-1.66 5.97 5.36 7.78 8.4 4.76 1.05-2.09.41-5.3-.56-7-.7.04-.88-.43-1.12-.84-.8.04-2.18-.78-2.8 0-.91-.16-1.3.19-1.96.28Zm68.89 37.25c-1.23-1.57-2.6-3-5.6-2.8-.98.23-1.58.84-2.52 1.12-.87 1.74-1.35 3.88-1.12 6.72 1.23 2.26 4.72 3.84 7.84 2.52 1.64-1.31 2.11-4.79 1.4-7.56Zm2.24 12.6c-.31-.53-.36-1.32-.56-1.96-1.14-1.38-3.1-1.94-5.88-1.68-.75.18-1.07.8-1.68 1.12-.17 1.82-.54 2.64-.56 5.04.47 1.58 1.27 2.84 2.52 3.64 4.45.35 6.12-2.09 6.16-6.16Zm-5.6 8.68c-.81 1.52-1.69 2.97-1.4 5.6.88 1.83 1.97 3.44 4.76 3.36 2.36-.72 3.8-2.36 4.2-5.04-.02-1.94-1.05-2.87-1.96-3.92-1.23-.09-3.14-.96-4.2-.28-.79-.23-.73.39-1.4.28Zm1.68 12.6c-.75-.02-.36.76-.56 1.12-.18.32-.67.52-.84.84-.39.73-.86 1.43-.84 2.52.18 1.04.45 1.98.84 2.8 1.46.88 2.91 1.76 5.32 1.68 2.87-.42 4.38-3.31 3.36-6.72-.79-1.26-2.09-2.02-3.36-2.8-1.04.18-2.79-.36-3.36.28-.22.06-.55 0-.56.28Zm-5.88 10.64c1.61-.47 2.83-3.42 2.8-5.32-.3-1.85-1.51-2.78-2.8-3.64-5.58-1.27-7.01 4.76-5.04 8.4 1.16.87 3.08 1.13 5.04.56Zm-7-1.12c.46-4.35-3.03-6.56-6.72-5.04-.6.71-1.05 1.56-1.68 2.24-.18 2.05.14 3.59.84 4.76.96.16 1.31.94 2.52.84 1.32.11 2.34-.09 3.36-.28.66-.74 1.25-1.55 1.68-2.52Zm-11.48 3.92c1.48-2.85-.02-6.39-2.24-7.28-5.53-1.02-6.21 3.38-5.04 7.56 1.53 2.07 5.86 1.52 7.28-.28Zm-18.48-3.08c-.85 5.21 3.14 7.38 7.28 5.88.25-.49.63-.87 1.12-1.12.76-1.58.76-4.58 0-6.16-1.14-.92-2.93-2.67-5.04-1.68-1.77.38-2.42 1.87-3.36 3.08Zm-2.24 5.32c.5-1.4.33-3.89 0-5.32-.91-.81-1.94-2.11-3.36-1.96-1.4.15-3.37.56-4.48 1.12-1.27 1.41-1.04 5.24 0 6.72 1.74 1.81 6.51 1.24 7.84-.56Zm-19.6-3.08c-.93 2.19.34 5.23 1.68 6.44 5.01 2.37 9.46-2.17 7.28-7-1.12-1.21-3.83-2.33-6.16-1.4-1.1.44-2.32.82-2.8 1.96Zm-12.32 1.4c-.5 4.52.84 7.26 4.2 7.56 3.89.34 7.7-3.17 5.6-7.84-1.4-1.68-3.92-2.24-7.28-1.96-.17.02-.33.04-.28.28-1.15.25-1.43 1.37-2.24 1.96Zm-16.8 8.68c4.1-.45 4.31-6.75 1.68-9.24-4.24-1.01-7.36 1.38-6.72 6.16 1.09 1.97 2.93 3.31 5.04 3.08Zm11.48-8.96c-2.78-.56-5.36.97-5.88 2.52-.04 2.18.4 3.89 1.12 5.32 1.09.49 1.8 1.37 3.36 1.4 2.68-.22 4.08-1.71 4.76-3.92.17-1.94-.6-2.95-1.12-4.2-.77 0-1.25-.92-2.24-1.12Zm-18.2 7.28c-.11-.82-.03-1.85-.28-2.52-.13-.36-1.25-1.85-1.4-1.96-.53-.4-2.56-.86-3.36-.84-2.83.08-4.57 2-5.04 3.92-.11 3.19 1.62 4.54 3.64 5.6 3.5-.05 5.83-1.27 6.44-4.2Zm-20.17-1.96c-2.2 4.49 1.23 8.37 5.6 7.28 1.23-.31 1.81-1.55 2.8-2.52.6-2.32-.06-4.69-1.12-6.16-2.39-1.1-5.95-.23-7.28 1.4Zm-11.48 5.32c1.05 1.56 2.02 3.21 4.76 3.08 2-.34 2.92-1.74 3.92-3.08.08-2.04.08-4-.84-5.04-3.36-2.53-8.94-.3-7.84 5.04Z" style="fill:#604a98"/>
    <path d="M158.08 16.68c.28.49-1.1 1.68-1.12 2.8v2.8c-2.79-1.05-1.44-5.33 1.12-5.6ZM215.49 20.04c1.34-.41.7 1.17.84 1.96.17.67.4 1.28.28 2.24.75 4.57 1.24 9.4 2.24 13.72-.24.53-.17-.3-.56-.28v-1.4c-.38-.55-.27-1.6-.56-2.24-.25-2.33-.95-4.73-1.4-7-.47-2.39-1.15-4.73-.84-7ZM45.22 37.41c-.35-1.94.65-2.52 1.68-3.08-.53 1.3-.25 3.4.56 4.2-.51.49-1.63-.78-2.24-1.12ZM221.65 55.05c-.41-.17.03-.34 0 0 .33.04.24.51.28.84.26.49.1 1.4.56 1.68.56 3.73 1.4 7.19 1.96 10.92.08.5-.27.57-.28.28.02-.4.05-.79-.28-.84-.33-4.71-1.86-8.22-2.24-12.88Z" style="fill:#fff"/>
    <path d="M56.14 120.02c-.29.66-1.43.74-1.96.84-.85.15-1.75.16-2.52.28-10.62 1.69-23.61 2.87-34.73 4.48-2.85-13.96-3.77-29.84-5.32-45.09-.04-1.19.44 0 .56.28.4.16.68.43.84.84.94.28 1.54.89 2.52 1.12 1.91.14 3.42-.13 4.2-1.12.48.83.59 2.02.56 3.36-.89-.98-2.86-.88-4.76-.84-1.16.43-1.77 1.41-2.52 2.24-.26 1.54-.55 3.62.28 4.76.83 1.31 2.33 1.97 4.2 2.24 1.81-.15 3.16-.76 3.64-2.24.62 1.06.18 3.18.84 4.2-.8.33-2.68-.67-4.48-.28-2.57.85-4.01 4.13-3.08 7.56 1.05 1.94 2.7 3.27 5.88 3.08 1.41.1 2.14-1.64 3.08-1.12.38 2.88.42 6.12 1.68 8.12 18.19-2.07 36.8-3.72 54.61-6.16 1.18-.05 0 .43 0 .84-.4.16-.68.44-.84.84-.92.29-.99 1.43-1.4 2.24-.02 2.07.53 3.57 1.4 4.76.45.39.89.79 1.4 1.12.19.55 1.67-.18 1.4.84-2.76.04-5.06.53-7.56.84-1.23.05.26-.95.56-1.12.4-.43.59-1.09.84-1.68.21-3.75-1.05-6.04-3.64-7-4.35-.16-6.93 1.47-7.28 5.32.26 2.45 1.16 4.26 3.08 5.04-2.24.84-5.57.59-7.84 1.4-.61-.45 1.03-1.01 1.4-1.4-.2-.76.56-.56.56-1.12-.04-.32.06-.5.28-.56.27-3.26-.8-5.18-2.24-6.72-1.13-.37-2.26-.73-3.92-.56-2.91.74-5.3 5.17-3.08 8.4.8.97 1.6 1.94 3.36 1.96ZM21.13 106.3c-3.01-.12-4.25 1.54-5.6 3.08-.33 3.04 1.05 4.36 3.36 4.76-.59 1-1.7 1.48-1.96 2.8.38 1.85-.18 3.71.84 5.32.91.77 1.93 1.42 3.36 1.68 2.36.03 3.88-.79 5.04-1.96.82-3.21-.05-6.74-1.96-8.12-.67-.17-1.28-.4-2.24-.28 2.15-1.61 1.54-6.36-.84-7.28Zm22.12 14.84c1.51.02 2.55-.44 3.92-.56.6-.71 1.15-1.47 1.68-2.24-.02-3.24-.96-5.58-2.8-7-1.07-.24-2.25-.36-3.64-.28-1.77 1.03-3.07 2.53-3.64 4.76.09 1.5.4 2.77.84 3.92 1.2.48 2.12 1.25 3.64 1.4Zm-12.88-8.4c-1.89 1.09-2.52 3.45-2.8 6.16.22 2.02 1.54 2.94 2.8 3.92 4.09.45 6.82-.47 7.28-3.64.05-2.57-.74-4.3-1.96-5.6-1.49-.56-3.23-.87-5.32-.84Z" style="fill:#604a98"/>
    <path d="M208.21 94.26c.87-.44 1.67 2.78.56 3.64-.66-1.02.34-2.54-.56-3.64ZM69.58 110.5c.45.56-.98 1.62-1.12 2.52.18 1.04-.36 2.79.28 3.36-1.04.75-2.19-.79-2.52-1.68.08-2.45 1.43-3.61 3.36-4.2Z" style="fill:#fff"/>
    <path d="M224.73 83.34c-3.41-21.24-8.19-41.1-11.2-62.73h-.56c-.36.01-.39.36-.84.28-15.94 3.05-32.21 4.89-48.45 7.28-12.13 1.79-24.32 3.94-36.12 5.88-11.96 1.96-24.35 3.72-36.69 5.04-8.22.88-16.47 2.24-24.65 3.36-7.98 1.09-15.93 2.88-23.8 4.2-8.15 1.37-16.23 2.52-24.36 3.64 3.79 19.36 6.23 40.07 9.52 59.93 7.14-.76 14.21-2.37 21.29-3.08 7.4-.75 14.61-1.71 21.84-2.8 7.11-1.08 14.27-1.85 21.28-3.08 7.27-1.28 14.52-1.83 21.84-2.8 3.45-.46 6.91-1.17 10.36-1.68 7.44-1.1 14.61-2.02 21.56-3.08 3.61-.55 7.24-1.02 10.92-1.4 14.56-1.5 29.09-3.82 43.97-5.04 8.08-1.26 15.73-2.94 24.08-3.92Z" style="fill:#e41b1b"/>
    <path d="M70.69 56.35a.803.803 0 0 1-.13-.59c.03-.22.14-.39.33-.51l.45-.35c.09-.04.17-.09.24-.13.14-.16.3-.26.49-.28.16-.02.3 0 .44.08.4-.02 1.15.05 2.26.23.93.16 1.7.51 2.29 1.08.6.56.98 1.29 1.13 2.18.15.87.08 1.66-.21 2.35-.29.7-.8 1.24-1.51 1.62-.85.45-1.62.78-2.33.97.05.34.1.73.16 1.15.41 2.83.66 4.44.75 4.83l.14.63c.06.21.03.41-.08.6-.12.18-.28.3-.5.36a.74.74 0 0 1-.6-.1.788.788 0 0 1-.35-.5l-.16-.62c-.09-.43-.35-2.09-.77-4.97l-.15-1.08-.64.06c-.2.03-.39-.02-.57-.16a.751.751 0 0 1-.31-.52c-.03-.21.02-.41.16-.58.13-.18.31-.28.53-.31l.61-.06c-.24-1.61-.44-2.93-.6-3.96l-.16-1.13c-.38.13-.69.04-.92-.28Zm3.25 5.05c.55-.17 1.15-.43 1.81-.78.42-.22.69-.5.84-.86.14-.35.16-.83.06-1.42s-.31-1.04-.64-1.35c-.33-.31-.82-.51-1.48-.63-.49-.07-.95-.13-1.39-.16l.21 1.31c.16 1.03.36 2.33.6 3.89ZM83.71 62.28c.05.38.16.78.31 1.2.47 1.39 1.05 2.3 1.75 2.75.72.46 1.22.68 1.51.67l.66-.04c.22 0 .42.07.58.22.16.14.25.32.26.54 0 .22-.06.4-.21.57-.14.16-.33.25-.55.27l-.66.04c-.62.02-1.43-.29-2.43-.93-1.03-.64-1.84-1.83-2.42-3.56-.17-.5-.29-.98-.37-1.43-.05 0-.08.01-.09.01l-.58.11c-.22.05-.42 0-.6-.13-.19-.13-.29-.31-.32-.52s.02-.41.15-.58c.13-.18.29-.29.49-.33l.61-.11c.08-.01.17-.02.28-.04.06-.5.18-.97.38-1.39.55-1.19 1.36-1.99 2.44-2.4 1.18-.44 2.08-.38 2.68.17.42.39.77.86 1.06 1.41.28.52.47.93.56 1.24.08.24.07.53-.05.84-.12.32-.36.51-.73.58-.17.04-.5.09-.98.16-.47.07-1.37.23-2.71.5-.37.07-.71.13-1 .19Zm.01-1.61c.22-.05.44-.09.67-.14 1.37-.27 2.29-.44 2.78-.51.09-.01.2-.03.3-.04-.07-.15-.15-.3-.26-.47-.2-.39-.44-.72-.74-1-.14-.11-.49-.05-1.03.17-.68.26-1.21.78-1.58 1.56-.06.14-.11.28-.16.43ZM90.62 57.46a.855.855 0 0 1 0-.61c.08-.2.23-.34.43-.42.2-.08.41-.07.61 0l1.43.61c.88.37 1.72.8 2.53 1.27l-.64-3c-.05-.22 0-.42.12-.6.13-.19.29-.3.5-.35.21-.05.41 0 .59.12.19.13.3.29.34.49l.64 3.02c.08.31.14.6.2.88.32-.7.63-1.61.93-2.74l.63-2.36c.05-.2.17-.35.36-.47.19-.11.39-.14.6-.08.21.06.37.18.48.36.11.18.14.38.07.6l-.63 2.36c-.42 1.66-.89 2.91-1.41 3.76-.1.17-.18.32-.23.44.44.19 1.13.47 2.06.84 1.22.5 1.98.89 2.29 1.16l.38.33c.15.14.23.32.24.54.02.22-.05.41-.19.58-.15.16-.33.25-.55.27a.654.654 0 0 1-.56-.21l-.38-.33c-.18-.15-.8-.44-1.85-.87-.73-.3-1.31-.53-1.75-.71.02.24.03.46.05.66.06 1.24.1 1.97.12 2.19l.05.33c.02.22-.05.42-.19.59-.14.17-.32.27-.53.29a.79.79 0 0 1-.58-.18.743.743 0 0 1-.28-.55l-.05-.33c-.02-.24-.06-.99-.13-2.26.01-.03.02-.06.01-.1-.18.22-.37.44-.58.66l-1.14 1.26c-.16.15-.34.23-.55.25-.21.01-.4-.05-.57-.21a.776.776 0 0 1-.26-.55c0-.21.06-.4.2-.57l1.14-1.24c.68-.75 1.08-1.37 1.22-1.87.08-.25-.16-.54-.7-.86-.84-.52-1.73-.98-2.66-1.37L91 57.87a.742.742 0 0 1-.42-.43ZM103.89 54.71c.13-.19.29-.3.5-.35.21-.05.41 0 .59.11.18.12.3.29.35.5l.27 1.23c.17.85.36 2.03.57 3.51.08.59.16 1.14.23 1.64.46-1.18.95-2.41 1.47-3.68.65-1.61 1.14-2.75 1.48-3.44.2-.4.43-.66.7-.79.19-.14.37-.19.55-.15.18.04.33.08.45.14.12.05.24.15.35.3.12.14.2.26.25.36l.15.3c.39.83.79 2.1 1.21 3.83.41 1.67.77 2.96 1.07 3.87l.54 1.65.08.23c.06.2.04.4-.06.6-.1.2-.25.33-.46.4-.21.07-.41.05-.61-.05s-.33-.25-.39-.45l-.08-.23-.54-1.65c-.32-.94-.69-2.27-1.09-3.99-.34-1.37-.65-2.43-.95-3.17-.3.68-.7 1.63-1.2 2.85-.65 1.59-1.26 3.12-1.82 4.57-.02.05-.06.14-.1.28-.04.13-.09.26-.13.38-.04.12-.1.25-.17.41s-.16.28-.24.39c-.09.11-.19.21-.31.29-.12.09-.25.13-.4.14-.15 0-.32-.03-.5-.1-.12-.05-.22-.11-.3-.18-.08-.08-.14-.15-.19-.21-.04-.07-.08-.14-.11-.24a.744.744 0 0 1-.05-.22v-.34c-.08-.9-.22-2.07-.42-3.51-.2-1.46-.39-2.59-.55-3.39l-.27-1.23c-.05-.22 0-.42.12-.6ZM123.44 53.42c0 .22-.1.4-.26.55a.73.73 0 0 1-.58.2c-.23-.02-.41-.1-.54-.26l-.37-.4c-.25-.06-.72-.03-1.4.08-.95.16-1.74.65-2.38 1.46-.63.77-.86 1.69-.69 2.75.17 1.11.6 1.97 1.29 2.57s1.44.91 2.23.91c.85 0 1.44-.11 1.77-.32l.68-.45c.17-.12.37-.16.59-.12s.39.15.5.34c.11.18.15.38.11.6-.04.21-.15.38-.32.5l-.7.46c-.58.39-1.46.58-2.62.58-1.2 0-2.29-.42-3.29-1.28-.98-.87-1.59-2.04-1.81-3.53-.23-1.52.11-2.85 1.02-4 .9-1.11 2.01-1.79 3.35-2.03.45-.08.81-.13 1.09-.15.28-.02.58 0 .92.09.34.08.61.23.82.46l.37.45c.15.15.22.34.21.56ZM133.47 52.02c0 .22-.1.4-.26.55-.16.15-.36.22-.58.2s-.41-.1-.54-.26l-.37-.4c-.25-.06-.71-.03-1.4.08-.95.16-1.74.65-2.38 1.46-.62.77-.86 1.69-.69 2.75.17 1.11.6 1.97 1.29 2.57.69.6 1.44.91 2.24.91.84 0 1.44-.11 1.77-.32l.68-.45c.17-.12.37-.16.59-.12.22.04.39.15.5.34.11.18.15.38.11.6-.04.21-.15.38-.32.5l-.7.46c-.58.38-1.46.58-2.62.58-1.2 0-2.29-.42-3.29-1.28-.98-.87-1.59-2.04-1.81-3.53-.23-1.52.11-2.85 1.02-4 .9-1.12 2.01-1.79 3.35-2.03.45-.08.82-.13 1.09-.15.28-.02.58 0 .92.09.34.08.61.23.82.46l.38.45c.15.15.22.34.21.56ZM138.74 54.54c.05.38.16.78.31 1.2.46 1.39 1.05 2.3 1.75 2.75.72.46 1.22.68 1.51.67l.67-.04c.22 0 .42.07.58.22.16.14.25.32.26.54 0 .22-.06.4-.21.57-.15.16-.33.25-.55.27l-.66.05c-.62.02-1.43-.29-2.43-.93-1.03-.64-1.84-1.83-2.42-3.56-.17-.5-.29-.98-.37-1.43-.05 0-.08.01-.09.01l-.58.11c-.22.05-.42 0-.61-.13a.73.73 0 0 1-.32-.52c-.03-.21.02-.41.15-.58.13-.18.29-.29.49-.33l.61-.11c.08-.01.17-.02.28-.04.06-.5.18-.97.38-1.39.55-1.19 1.36-2 2.44-2.4 1.18-.44 2.08-.38 2.68.17.42.39.77.86 1.06 1.41.28.52.47.93.56 1.24.08.24.07.53-.05.84-.11.32-.36.51-.73.58-.17.04-.5.09-.98.16-.47.07-1.37.23-2.71.5-.37.07-.71.13-1 .19Zm.01-1.61c.22-.05.44-.09.67-.14 1.37-.27 2.29-.44 2.78-.51.09-.01.2-.03.3-.04a3.19 3.19 0 0 0-.26-.47c-.2-.39-.44-.72-.74-1-.14-.11-.49-.05-1.03.17-.68.26-1.21.78-1.58 1.56-.06.13-.11.28-.16.43ZM149.75 61.81c.27.2.37.46.3.77l-.05.34s-.02.05-.03.1c0 .05-.04.13-.09.24-.05.11-.11.2-.18.28a.51.51 0 0 1-.34.13.976.976 0 0 1-.52-.13c-.27-.12-.46-.27-.55-.44-.1-.17-.14-.41-.14-.71v-.5c-.14-.89-.42-2.5-.85-4.84-.09-.5-.18-.97-.27-1.42a.716.716 0 0 1-.49-.27.747.747 0 0 1-.19-.52v-.77c.03-.34.07-.7.14-1.1-.1-.5-.2-.94-.31-1.34l-.52-1.99c-.04-.2-.01-.4.1-.59.11-.19.27-.31.47-.37s.41-.02.6.08c.19.11.32.27.38.49l.28 1.16c.23-.38.52-.79.86-1.22.43-.57.92-.98 1.46-1.21.54-.24 1.13-.27 1.78-.11 1.16.33 2.03 1.57 2.58 3.73.58 2.17.15 3.94-1.28 5.32-1.43 1.37-2.7 1.74-3.81 1.1.3 1.68.51 2.89.63 3.62 0 .03.01.09.02.17Zm-1.06-5.98 1.11.78c.44.3 1.11.03 1.99-.83.99-.94 1.27-2.19.86-3.76-.21-.83-.46-1.46-.73-1.88-.27-.42-.53-.67-.76-.73-.53-.15-1.05.11-1.54.77-.67.88-1.12 1.64-1.33 2.29-.05.18-.11.36-.17.53.18.84.37 1.78.57 2.84ZM156.26 53.16a.743.743 0 0 1-.07-.6c.06-.21.18-.36.38-.47l.38-.22c-.22-1.36-.44-2.48-.64-3.36l-.44-1.78a.744.744 0 0 1 .11-.6c.12-.18.28-.3.49-.36.21-.05.41-.02.6.1.19.12.31.28.36.5l.42 1.79c.21.85.42 1.88.63 3.1.22-.05.46-.1.72-.17 1.07-.23 2.16.04 3.27.81 1.16.78 1.76 1.65 1.8 2.62.06.98-.41 1.82-1.39 2.52-.83.56-1.65.95-2.47 1.16-.79.21-1.3.31-1.56.31l-.29.02a.772.772 0 0 1-.58-.19.687.687 0 0 1-.24-.55c-.02-.17 0-.33.1-.47v-.07l-.09-.44c-.04-.28-.21-1.37-.5-3.26-.18.06-.36.05-.54-.02a.85.85 0 0 1-.42-.35Zm3.1 3.64c.2-.04.41-.09.63-.14.63-.17 1.28-.48 1.95-.94.51-.36.76-.74.75-1.13-.03-.44-.41-.91-1.13-1.4-.74-.5-1.42-.69-2.04-.55-.29.07-.55.14-.79.21 0 .06.02.13.03.21.3 2.03.48 3.18.53 3.44l.07.3Zm6.46-11.16c.09-.2.24-.35.44-.42.21-.08.41-.07.6.02.2.09.33.25.41.46l.37.95c.26.73.46 2.14.59 4.23.14 1.99.24 3.43.32 4.31l.14 1.34c.03.2-.03.39-.17.56-.14.17-.32.27-.53.29-.21.02-.4-.04-.58-.17a.797.797 0 0 1-.3-.53l-.14-1.34c-.08-.9-.19-2.35-.32-4.36-.13-1.95-.3-3.2-.5-3.76l-.35-.98c-.08-.2-.07-.4.02-.6ZM31 85.53c.12-.02.25 0 .39.04.3-.22.85-.46 1.65-.71 1.03-.29 2.13.12 3.31 1.21.61.57.93 1.21.96 1.91.04.71-.21 1.38-.74 2.03-.49.58-.97 1.05-1.43 1.42.15.06.3.12.46.18 1.41.52 2.15 1.38 2.21 2.59.04 1.21-.77 2.17-2.42 2.88l-1.49.64c.04.17.02.34-.05.5-.07.16-.19.29-.35.37-.18.11-.37.12-.59.06a.779.779 0 0 1-.48-.36l-.1-.22a.975.975 0 0 1-.14-.29c-.03-.11-.06-.25-.09-.42-.03-.17-.06-.32-.09-.44s-.06-.34-.1-.64c-.04-.31-.08-.55-.1-.74-.21-1.39-.42-2.81-.62-4.25-.18-1.41-.36-2.57-.54-3.47l-.26-1.35c-.04-.2 0-.39.12-.58.13-.19.3-.3.51-.35Zm1.69 5.25c.11-.03.23-.06.37-.08.14-.02.23-.03.26-.04.59-.21 1.27-.76 2.02-1.65.3-.38.44-.69.43-.93-.01-.25-.19-.54-.54-.87-.72-.68-1.3-.95-1.74-.81-.64.19-1.05.35-1.23.48l-.17.12.1.51c.15.86.32 1.94.51 3.26Zm.8 5.37 1.24-.53c.99-.43 1.48-.88 1.46-1.35-.02-.49-.41-.88-1.17-1.18-.99-.37-1.64-.54-1.94-.52-.03 0-.08.01-.14.02.13.91.26 1.81.4 2.7.04.31.09.6.15.86ZM46.52 86.39c.32.15.62.34.89.57.78.66 1.41 1.69 1.9 3.11s.59 2.63.32 3.64c-.27 1.06-1.08 2.02-2.44 2.88-1.36.88-2.65 1.17-3.88.88-1.22-.31-2.16-1.08-2.82-2.33-.61-1.16-.86-2.34-.74-3.56.09-1.16.44-2.34 1.06-3.55.33-.64.62-1.14.89-1.51.27-.37.56-.65.89-.84.55-.32 1.26-.46 2.14-.44l1.11.04c.21 0 .39.08.55.25.16.16.23.35.21.58 0 .1-.03.2-.08.3Zm-4.46 2.69c-.42.91-.66 1.78-.73 2.64-.08.91.11 1.8.57 2.7.43.82 1.03 1.32 1.79 1.5.78.2 1.66-.02 2.64-.66 1.01-.64 1.61-1.29 1.79-1.95.17-.7.07-1.61-.31-2.73-.38-1.13-.85-1.93-1.42-2.41-.47-.4-.97-.53-1.49-.41-.68.16-1.2.38-1.56.67l-.67.5c-.17.14-.37.19-.6.16ZM52.78 96.35c-.22 0-.41-.09-.55-.26a.808.808 0 0 1-.2-.58c0-.22.1-.41.27-.54l.85-.79c.45-.41.92-1.38 1.41-2.9.53-1.59.82-2.99.9-4.2.06-1.14.08-1.82.05-2.04-.06-.29-.04-.54.05-.75.09-.2.22-.35.4-.43.17-.08.35-.14.52-.19.18-.05.32-.06.44-.05.43-.01.79-.06 1.08-.15.8-.24 1.33-.09 1.6.45.04.09.09.19.12.29.04.11.07.25.09.42.02.17.05.32.07.45.03.12.06.34.09.66.04.31.07.57.09.75.2 1.39.41 2.73.63 4 .22 1.23.54 2.31.96 3.24l.69 1.48c.09.19.1.4.03.61-.07.21-.21.36-.4.45-.19.09-.4.1-.61.03a.736.736 0 0 1-.45-.43l-.69-1.48c-.48-1.05-.84-2.25-1.08-3.61-.23-1.31-.45-2.67-.64-4.08-.1-.7-.18-1.25-.25-1.64-.34.08-.72.13-1.15.14.01.43 0 1.08-.03 1.97-.08 1.35-.4 2.89-.96 4.61-.58 1.79-1.21 2.99-1.89 3.59l-.85.77c-.15.15-.34.22-.57.21ZM62.64 83.29a.788.788 0 0 1 1.08-.29c.19.1.32.27.38.49l.61 2.31c.11.43.21.83.31 1.2.43-.71.86-1.46 1.29-2.24l.84-1.48c.1-.19.26-.31.48-.37.22-.05.41-.03.6.07.18.1.3.26.37.48.06.21.04.42-.06.61l-.85 1.48c-.56 1-1.11 1.96-1.66 2.87l-.16.24.13.1c.58.46 1.52 1.36 2.84 2.69 1.28 1.29 2.15 2.1 2.59 2.44l.72.52c.16.13.26.31.29.53.03.22-.02.41-.15.58-.13.17-.3.27-.52.3a.803.803 0 0 1-.59-.13l-.7-.55c-.52-.38-1.43-1.24-2.76-2.58-.85-.84-1.54-1.51-2.08-2 .08.58.17 1.16.27 1.73l.21 1.36c.03.22-.02.42-.14.59-.13.18-.3.28-.52.31a.808.808 0 0 1-.59-.14.731.731 0 0 1-.31-.52l-.21-1.36c-.14-.87-.27-1.75-.39-2.63-.25-.27-.3-.57-.15-.91-.14-.76-.36-1.69-.65-2.78l-.61-2.31a.81.81 0 0 1 .09-.61ZM80.02 81.68c.32.15.62.34.89.57.78.66 1.41 1.69 1.9 3.11s.59 2.63.32 3.64c-.27 1.06-1.08 2.02-2.44 2.88-1.36.88-2.65 1.17-3.87.88-1.23-.31-2.16-1.08-2.82-2.33-.61-1.16-.86-2.35-.74-3.56.09-1.16.44-2.34 1.06-3.55.33-.64.62-1.14.89-1.51.27-.37.56-.66.89-.84.55-.32 1.26-.46 2.14-.44l1.11.04c.21 0 .39.09.55.25s.23.35.21.58c0 .1-.03.2-.08.3Zm-4.46 2.69c-.42.9-.66 1.78-.73 2.64-.08.9.11 1.8.57 2.7.43.82 1.03 1.32 1.79 1.5.78.19 1.66-.02 2.64-.66 1.01-.64 1.61-1.29 1.79-1.95.17-.7.07-1.61-.31-2.73-.38-1.13-.85-1.93-1.42-2.41-.47-.4-.97-.53-1.49-.41-.68.16-1.2.38-1.56.67l-.67.5c-.17.14-.37.19-.6.16ZM84.47 82.54a.781.781 0 0 1-.17-.59c.02-.22.12-.4.27-.53l.39-.29c.1-.32.31-.5.62-.54.03 0 .05 0 .07-.01.77-.57 1.64-.85 2.63-.85.64 0 1.17.23 1.59.66.42.44.73 1.01.92 1.71.15.62.13 1.2-.05 1.76-.19.55-.52 1.02-1.01 1.39.46.19.85.48 1.17.86.36.4.55.84.58 1.34.03.5-.12.95-.44 1.37-.56.7-1.4 1.15-2.54 1.34-.11.01-.33.05-.65.12 0 .19-.07.36-.2.51-.13.15-.29.23-.48.26a.769.769 0 0 1-.6-.16.751.751 0 0 1-.31-.53v-.17c-.2-.07-.34-.2-.43-.41a.78.78 0 0 1-.02-.58c.04-.15.13-.27.26-.37-.14-.99-.36-2.45-.66-4.38l-.25-1.62c-.3.03-.53-.07-.69-.29Zm2.61 2.41c.08-.09.18-.18.3-.26.12-.08.22-.14.31-.19.09-.04.21-.1.36-.16s.25-.1.29-.12c.46-.22.76-.46.88-.71.12-.25.13-.58.03-1-.13-.48-.27-.8-.42-.96a.741.741 0 0 0-.56-.24c-.62 0-1.18.17-1.67.55l.38 2.34.11.75Zm.57 3.73c.19-.03.38-.05.59-.08.73-.12 1.25-.37 1.54-.77.11-.13.16-.22.16-.29 0-.06-.08-.2-.24-.4-.34-.4-.83-.59-1.47-.58-.34.06-.65.04-.92-.09.14.87.25 1.6.33 2.18v.02ZM100.75 80.22c0 .22-.1.4-.26.55a.73.73 0 0 1-.58.2c-.23-.02-.41-.1-.54-.26l-.37-.4c-.25-.06-.72-.04-1.4.08-.95.16-1.74.65-2.38 1.46-.63.77-.86 1.69-.69 2.75.17 1.11.6 1.97 1.29 2.57.69.61 1.44.91 2.23.91.85 0 1.44-.11 1.77-.32l.68-.46c.17-.12.37-.16.59-.12.22.04.39.15.5.34.11.18.15.38.11.6-.04.21-.15.38-.32.5l-.7.46c-.58.39-1.46.58-2.62.58-1.2 0-2.29-.42-3.29-1.28-.98-.87-1.59-2.04-1.81-3.53-.23-1.52.11-2.85 1.02-4 .9-1.11 2.01-1.79 3.35-2.03.45-.08.82-.13 1.09-.15.28-.02.58 0 .92.08s.61.23.82.46l.37.45c.15.15.22.34.21.56ZM102.36 77.71c.11-.19.27-.31.48-.37.21-.05.41-.02.6.08.19.11.32.27.38.49l.61 2.31c.11.43.21.83.31 1.2.43-.71.86-1.46 1.29-2.24l.84-1.48c.1-.19.26-.31.48-.37.22-.05.41-.03.6.07.18.1.3.26.37.48.06.21.04.42-.06.61l-.85 1.48c-.56 1-1.11 1.96-1.66 2.87l-.16.24.13.1c.58.46 1.52 1.36 2.84 2.69 1.28 1.29 2.15 2.1 2.59 2.44l.72.52c.16.14.26.31.29.53.03.22-.02.41-.15.58-.13.17-.3.27-.52.3a.803.803 0 0 1-.59-.13l-.7-.55c-.52-.38-1.43-1.24-2.76-2.58-.85-.84-1.54-1.51-2.08-2.01.08.58.17 1.16.27 1.73l.21 1.36c.03.22-.02.42-.14.59-.13.18-.3.28-.52.31a.808.808 0 0 1-.59-.14.731.731 0 0 1-.31-.52l-.21-1.36c-.14-.87-.27-1.75-.39-2.63-.25-.27-.3-.57-.15-.91-.14-.76-.36-1.69-.65-2.78l-.61-2.31a.81.81 0 0 1 .09-.61ZM119.74 76.1c.32.15.62.34.89.57.78.66 1.41 1.69 1.9 3.11s.59 2.63.32 3.64c-.27 1.06-1.08 2.02-2.44 2.88-1.36.88-2.65 1.17-3.87.88-1.22-.31-2.16-1.09-2.82-2.33-.61-1.16-.86-2.35-.74-3.56.09-1.16.44-2.34 1.06-3.55.33-.64.62-1.14.89-1.51.27-.37.56-.66.89-.84.55-.32 1.26-.46 2.14-.44l1.11.04c.21 0 .39.09.55.25.16.16.23.35.21.58 0 .1-.03.2-.08.3Zm-4.46 2.69c-.42.9-.66 1.78-.73 2.64-.08.9.11 1.8.57 2.7.43.82 1.03 1.32 1.79 1.5.78.19 1.66-.02 2.64-.66 1.01-.64 1.61-1.29 1.78-1.95.17-.7.07-1.6-.31-2.73s-.85-1.93-1.42-2.41c-.47-.4-.97-.53-1.49-.41-.68.16-1.2.38-1.56.67l-.67.5c-.17.14-.37.19-.6.16ZM124.09 76.74a.692.692 0 0 1-.07-.58c.06-.21.18-.36.35-.47 0-.19.06-.36.18-.52.11-.15.27-.24.45-.27.23-.05.45 0 .64.12.59-.26 1.46-.52 2.62-.8 1.42-.36 2.28-.53 2.59-.51l.37.04c.22 0 .41.09.55.26s.21.37.19.58c-.02.22-.11.4-.27.54a.76.76 0 0 1-.58.19l-.34-.02c-.25 0-.96.15-2.12.44-1.13.29-1.96.55-2.5.78l.28 1.45c.33 1.66.58 3.09.75 4.3.15 1.19.27 2.05.36 2.58l.11.8c.05.22 0 .42-.13.59-.14.18-.31.29-.52.32s-.41-.01-.58-.15a.799.799 0 0 1-.33-.5l-.11-.8c-.09-.54-.22-1.42-.37-2.63-.17-1.19-.4-2.59-.71-4.21-.09-.39-.17-.77-.24-1.16a.72.72 0 0 1-.56-.4ZM141.18 73.09c.32.15.62.34.89.57.78.66 1.41 1.69 1.9 3.11s.59 2.63.32 3.64c-.27 1.06-1.08 2.02-2.44 2.88-1.36.88-2.65 1.17-3.88.88-1.22-.31-2.16-1.08-2.82-2.33-.61-1.16-.86-2.34-.74-3.56.09-1.16.44-2.34 1.06-3.55.33-.64.62-1.14.89-1.51.27-.37.56-.65.89-.84.55-.32 1.26-.46 2.14-.44l1.11.04c.21 0 .39.08.55.25s.23.35.21.58c0 .1-.03.2-.08.3Zm-4.46 2.69c-.42.91-.66 1.78-.73 2.64-.08.91.11 1.8.57 2.7.43.82 1.03 1.32 1.79 1.5.78.19 1.66-.02 2.64-.66 1.01-.64 1.61-1.29 1.79-1.95.17-.7.07-1.61-.31-2.73-.38-1.13-.85-1.93-1.42-2.41-.47-.4-.97-.53-1.49-.41-.68.16-1.2.38-1.56.67l-.67.5c-.17.14-.37.19-.6.16ZM155.83 71.29a.775.775 0 0 1-.3-.53c-.03-.22.03-.42.17-.59.14-.17.32-.27.52-.3l.83-.09c.55-.06 1.33-.16 2.33-.3 1.02-.13 1.83-.24 2.45-.32l.94-.15c.22-.03.42.02.6.16.18.13.28.31.31.52.03.21-.02.41-.15.58-.13.18-.3.28-.52.31l-.94.16c-.12.02-.26.04-.4.06l.24 1.69c.19 1.46.41 2.88.67 4.26.26 1.48.36 2.56.31 3.24l-.08.95c-.02.21-.11.39-.28.53-.17.14-.36.21-.57.19a.783.783 0 0 1-.53-.27.76.76 0 0 1-.19-.58l.06-.92c.05-.55-.04-1.5-.28-2.83-.26-1.42-.49-2.86-.68-4.33l-.24-1.69c-.16.02-.32.04-.5.05-1.02.14-1.8.25-2.35.31l-.82.09a.714.714 0 0 1-.58-.16ZM169.13 73.88c.05.38.16.78.31 1.2.47 1.39 1.05 2.3 1.75 2.75.72.46 1.22.68 1.51.67l.66-.04c.22 0 .42.07.58.22s.25.33.25.54a.824.824 0 0 1-.76.84l-.66.05c-.62.02-1.43-.29-2.43-.93-1.03-.64-1.84-1.83-2.42-3.56-.17-.5-.29-.98-.37-1.43-.05 0-.08.01-.09.01l-.58.11c-.22.05-.42 0-.61-.13a.73.73 0 0 1-.32-.52c-.03-.21.02-.41.15-.58.13-.18.29-.29.49-.33l.61-.11c.08-.01.17-.02.28-.04.06-.5.18-.97.38-1.39.55-1.19 1.36-2 2.44-2.4 1.18-.44 2.08-.38 2.68.17.42.39.78.86 1.06 1.41.28.52.47.93.56 1.24.08.24.07.53-.05.84-.12.32-.36.51-.73.58-.17.04-.5.09-.98.16-.47.07-1.37.23-2.71.5-.37.07-.71.13-1 .19Zm.01-1.61c.22-.05.44-.09.67-.14 1.37-.27 2.29-.44 2.78-.51.09-.01.2-.03.31-.04-.07-.15-.16-.3-.26-.47-.2-.39-.44-.72-.74-1-.14-.11-.49-.05-1.03.17-.68.26-1.21.78-1.58 1.56-.06.13-.11.28-.15.43ZM183.01 68.5s.05.13.08.25l.8.94c.14.17.2.37.18.59-.02.22-.1.4-.26.55-.07.04-.16.09-.25.13.25.99.61 1.98 1.07 2.99l.87 1.91c.08.2.08.4 0 .61a.73.73 0 0 1-.4.44c-.2.08-.4.09-.61.01a.745.745 0 0 1-.45-.4l-.87-1.91c-.14-.3-.27-.61-.39-.92-.14.56-.34 1.13-.6 1.71-.31.76-.74 1.3-1.31 1.62-.56.32-1.21.35-1.95.08-.22-.1-.45-.22-.7-.38-1.55-1.06-1.92-2.89-1.11-5.49.41-1.26.83-2.22 1.23-2.89s.92-1.07 1.54-1.19c.9-.16 1.75.14 2.54.89l.57.47Zm-1.48.88c-.47-.52-.91-.75-1.32-.68-.06 0-.16.1-.3.27-.14.17-.33.5-.58.99-.25.49-.48 1.07-.69 1.74-.59 1.85-.43 3.08.47 3.69.16.11.3.18.42.23.23.14.43.16.62.06.18-.11.38-.4.58-.9.57-1.37.85-2.64.83-3.8 0-.7-.01-1.24-.03-1.6ZM186.26 67.02a.775.775 0 0 1-.3-.53c-.03-.22.02-.41.17-.59.14-.17.32-.27.52-.3l.83-.09c.55-.06 1.33-.16 2.33-.3 1.02-.13 1.83-.24 2.45-.32l.94-.15c.22-.03.42.02.6.16s.28.31.31.52c.03.21-.02.41-.15.58s-.3.28-.52.31l-.94.16-.4.06.24 1.69c.19 1.46.41 2.88.67 4.26.26 1.48.36 2.56.31 3.24l-.08.95c-.02.21-.11.39-.29.53-.17.14-.36.21-.57.19a.783.783 0 0 1-.53-.27.76.76 0 0 1-.19-.58l.06-.92c.05-.55-.04-1.5-.28-2.83-.26-1.42-.49-2.86-.68-4.33l-.24-1.69c-.16.02-.32.04-.5.05-1.02.14-1.8.25-2.35.31l-.82.09a.705.705 0 0 1-.58-.16ZM200.07 78.34c.27.2.37.46.3.77l-.05.34s-.03.05-.03.1-.04.13-.09.24c-.05.11-.11.2-.18.28a.51.51 0 0 1-.34.13.976.976 0 0 1-.52-.13c-.27-.12-.46-.27-.55-.44-.1-.17-.14-.41-.14-.71v-.5c-.14-.89-.42-2.5-.85-4.84-.09-.5-.18-.97-.27-1.42-.19-.02-.36-.11-.49-.27s-.2-.33-.19-.52v-.77c.03-.34.07-.7.14-1.1-.1-.5-.21-.94-.31-1.34l-.52-1.99c-.04-.2-.01-.4.1-.59.11-.19.27-.31.48-.37.21-.05.41-.02.6.08.19.11.32.27.38.49l.28 1.16c.23-.38.52-.79.86-1.22.43-.57.92-.97 1.46-1.21.54-.24 1.14-.27 1.78-.11 1.16.33 2.02 1.57 2.58 3.73.58 2.17.15 3.94-1.28 5.32-1.43 1.37-2.7 1.74-3.81 1.1.3 1.68.51 2.89.63 3.62 0 .03.01.09.02.17Zm-1.06-5.98 1.11.78c.44.3 1.11.03 1.99-.83.98-.94 1.27-2.19.86-3.76-.21-.83-.46-1.46-.73-1.88-.28-.42-.53-.67-.76-.73-.53-.15-1.05.11-1.54.77-.68.88-1.12 1.64-1.33 2.29-.05.18-.11.36-.17.53.18.84.37 1.78.57 2.84ZM212.85 64.31s.05.13.08.25l.8.94c.14.17.2.37.18.58-.02.22-.1.4-.26.55-.08.04-.16.09-.25.13.25.99.61 1.98 1.07 2.99l.87 1.91c.08.2.08.4 0 .61-.07.21-.21.36-.4.44-.2.08-.4.09-.61.01a.745.745 0 0 1-.45-.4l-.87-1.91c-.14-.3-.27-.61-.39-.93-.14.56-.34 1.13-.6 1.71-.31.76-.74 1.3-1.3 1.62-.56.32-1.21.35-1.95.08-.22-.1-.45-.22-.7-.38-1.55-1.06-1.92-2.89-1.11-5.5.41-1.25.83-2.22 1.23-2.89.41-.67.92-1.07 1.54-1.19.9-.16 1.75.14 2.54.89l.57.47Zm-1.48.88c-.47-.52-.91-.75-1.32-.68-.06 0-.16.1-.3.27-.13.17-.33.5-.58.99-.25.49-.48 1.07-.69 1.74-.58 1.86-.43 3.09.47 3.69.16.11.3.18.42.23.23.14.43.16.62.06.18-.11.38-.41.58-.9.57-1.37.85-2.64.83-3.8 0-.7-.01-1.24-.03-1.6Z" style="fill:#fff"/>
</svg>
