<svg xmlns="http://www.w3.org/2000/svg" viewBox="0 0 184.72 215.59">
    <path d="M183.09 124.11c1.15-6.26 3.48-20.1-3.92-21.54-6.03 2.76-4.53 18.09-3.92 22.52-.35.85-1.71.68-1.96 1.63-.02 1.21 1.6.79 1.63 1.96-.3 3.05-1.09 5.61-2.22 7.83-.36.41-.72.81-1.1 1.2-.47.49-.63 1.04-.57 1.55-.71 1-1.48 1.92-2.31 2.8-3.69 1.55-9.07 2.72-13.38 2.61 2.33-6.16 3.14-13.83 4.9-20.57-.18-1.49 2.19-.42 2.29-1.63-.44-5.03 4.43-18.72-1.96-22.2-7.83 1.92-6.85 16.71-6.53 22.85-.66 5.76-2.17 10.67-3.59 15.67-4.06-4.21-6.74-9.79-10.12-14.69 1.25-7.03 6.4-19.13-.98-23.5-4.4 1.04-3.98 6.9-5.23 11.1-2.69-3.29-3.89-8.08-6.2-11.75 14.63-.39 19.16-10.87 22.2-22.85.5-1.21 3.24.33 3.59-1.63.74-2.6-2.37-3.06-2.28-3.92 1.25-5.49 1.73-14.07-1.96-17.3-4.45.45-3.71 6.09-5.22 9.47.06 2.77-.28 5.93.65 7.83-1.62 1.5-.75 3.52-1.31 5.88-.72 2.98-2.41 4.99-3.59 7.51-2.04 1.87-4.13 3.7-6.53 5.22-2.35.48-4.47 1.19-7.51.98-6.05-21.15-9.17-45.24-12.08-69.53 3.59-4.12 1.27-13.22 1.63-19.91-2.04-1.9-5.59-1.54-8.49-1.63-12.84-.4-25.34 1.12-36.23 1.96-1.4 3.68-.78 12.07.33 16.32.04 1.59 1.86 1.4 2.94 1.96-.62 10.69-.76 21.87-2.94 31.01-.45 2.01-2.69 3.05-3.27 4.9-1.14 3.66.26 7.87 0 11.75-.61 9.26-5.58 18.11-6.85 25.79-8.61-2.05-13.31-8.01-13.71-18.28.05-1.69 1.99-1.49 1.63-3.59.25-1.77-1.51-1.53-2.28-2.28 1.64-6.23 1.76-17.61-3.27-20.24-6.98 2.53-5.32 17.11-1.96 22.2-.26 1.6-2.54 1.16-1.96 3.59 1.88 3.78 1.46 9.86 2.94 14.04 3.07 5.97 8.29 9.77 15.67 11.43-1.43 3.36-2.92 6.66-4.57 9.79-2.1-4.32-1.05-11.79-6.53-12.73-.98.52-1.45 1.65-1.72 2.96-.23.4-.33.87-.23 1.34-.12.86-.21 1.74-.33 2.55-.45 2.83-.75 6.06-.65 9.14.64 2.95 1.21 5.97 2.94 7.84-2.96 4.76-5.73 9.72-9.47 13.71-1.23-5.56-5.06-11.49-3.92-17.3-.3-1.33-1.41-1.85-1.96-2.94.89-8.31.78-18.39-4.9-21.22-6.96 2.81-4.27 18.39-1.31 23.5.83 1.07-1.62 1.03-.98 2.94.13 1.61 1.83 1.65 2.94 2.29.9 6.72 2.47 12.76 5.22 17.63-.92 1.14-1.83 2.3-3.26 2.94-11.42-2.62-17.62-10.45-19.58-22.52.31-1.54 2.72-.98 3.26-2.28.08-1.82-2.33-1.15-2.28-2.94 1.33-7.68.09-17.45-3.59-22.2-7.5 2.31-9.22 17.82-4.57 24.48.82 1.41-2.17 1.42-1.63 3.59-.11 1.74 1.76 1.5 1.96 2.94 1.75 14.9 9.58 23.71 24.48 25.46 3.63 7.57 6.13 16.28 10.77 22.85 3.9 6.98 10.18 13.32 14.69 18.61-9.04-1.51-15.5-5.61-20.57-11.1-.74-8.41-2.28-15.99-8.16-19.26-3.58 1.01-3.55 6.53-3.26 10.45.35 4.87 2.48 10.15 5.55 11.42 2.97 7.6 9.54 12.32 18.37 14.27 2.62.95 5.37 1.36 8.16 1 2.58.09 5.27.02 8.08-.25 1.08.22 1.58 1.02 2.91.99.23.17.48.34.72.51 2.12 2.99 2.89 6.95 5.83 9.59 4.1 3.68 16.92 6.48 24.16 6.86 15.35.79 26.42-4.08 33.62-10.45-.06-.82.5-1.02.98-1.31.41-1.44 1.33-2.37.98-4.57 15.52 1.46 28.12-5.3 35.25-14.36 1.39.4 1.76.12 3.27 0 1.31-1.29-1.15-2.14-.33-2.94 2.36-1.12 2.92-4.04 4.24-6.2 0-5.59.92-13.93-2.94-16.65-5.87 1.58-6.46 10.64-6.53 17.95.02 1.22-2.05.34-2.28 1.31v2.61c-2.45 2.51-4.97 4.97-7.98 6.93-1.23.74-2.51 1.43-3.87 2.07-1.92.82-4.03 1.44-6.44 1.77-1.2-.66 2.08-2.19 2.29-3.59 1.39-1.11 2.15-2.85 3.26-4.24 2.07-2.94 3.58-6.43 5.88-9.14 3.66-6.25 6.97-12.83 8.49-21.22 1.45-.29 2.35-1.13 2.94-2.28 8.91-3.6 15.78-9.25 16.65-20.89 1.83.31 1.96-1.09 2.61-1.96v-1.63c-.51-.91-.93-1.9-1.63-2.61Z" style="fill:#3b1717"/>
    <path d="M112.91 7.25c-12.37.12-27.99-.41-40.15.98V5.29c13.15.89 30.09-2.01 40.15 1.96Z" style="fill:#fff"/>
    <path d="M112.58 10.51c-4.39 1.77-10.07 1.23-15.67.98-8.3-.38-17.28 1.32-24.16-.65-.21-1.95 2.92-.56 4.24-.98 11.99-.71 23.82.2 35.58.65ZM72.76 12.47c11.29 1.35 24.11 1.46 36.56.98 1.18.67 4.11-.41 3.59 1.96-2.24.74-8.49-.73-11.43.98-7.99-1.89-19.08-.46-28.07-.33-.62-.8-.7-2.13-.65-3.59Z" style="fill:#ffa617"/>
    <path d="M110.63 19.98c.02 12.27 1.84 22.75 3.26 33.62-1.3-.32-.98.98-2.28.65-.44-5.21-1.47-9.85-1.96-15.02-1.7 6.74 3.29 16.2-.98 20.56-1.5-.88-.83-3.4-.98-5.55-.66-9.77-2.68-21.38-2.29-32.64-2.77 13.8 2.98 29.11.98 41.13.05 1.25 1.56 1.05 2.29 1.63.48 2.66-.89 3.46-.65 5.88.29 1.67 3 .92 2.61 3.26-.9.14-.31-1.22-.98-1.31 1.24 5.59 1.19 14.87-.65 20.89-4.09-13.72-4.27-32.32-6.86-49.29-.25-1.77 1.76-1.29 1.31-3.27.53-2.06-1.6-1.45-1.63-2.94 2.14-4.15-.63-10.46.33-17.3 3.02.08 5.85-.03 8.49-.33ZM80.92 20.31h3.59c.05 6.25.03 12.44-.33 18.28.32 1.41-1.23.95-1.31 1.96-.3 1.82 1.92 1.13 1.31 3.27.61 2.03-1.24 1.59-1.31 2.94 2.48 6.42-1.03 13.94-.33 19.91-.43 1.42-2.39 1.3-2.61 2.94.35 1.17.85 2.2 1.96 2.61-1.49 6.78-1.92 14.62-2.94 21.87-1.96-3.92-2.06-9.69-2.94-14.69 2.94-18.06 4.78-37.21 4.89-58.1v-.98Z" style="fill:#fff"/>
    <path d="M87.77 20.31c.59 24.91.09 51.88-3.26 74.42-1.38-4.6 1.81-11.81.33-17.63-.83 2.46-1.24 5.79-1.63 9.14-.35 2.98.33 7.02-1.96 8.49-.29-5.05 1.12-14.57 1.63-21.54.06-1.58 1.57-1.69 1.63-3.26-.68-2.01-.95-2.48-.65-5.22-.03-1.44 1.92-.91 1.96-2.28.52-1.94-1.04-1.79-1.31-2.94.59-3.87-.11-9.03 1.63-11.75-1.46-7.57-.26-17.8-.65-26.44-.39-.43-.13-.51 0-.98h2.28Z" style="fill:#fff"/>
    <path d="M96.59 20.31c-.06 17.08.11 36.63 1.31 53.53.9-17.28-.93-36.42.65-53.53h1.31c2.01 4.86-1.47 12.82.65 16.97.85 1.53-1.4 1.55-1.31 3.26 3.03 3.28 1.94 10.69 2.94 16-.25 1.27-2.14.9-1.96 2.61-.23 2.3 2.27 1.86 2.61 3.59.82 3.21-1.41 3.38-1.63 5.55-.27 1.9 2.05 1.21 2.28 2.61.9 2.61-.98 1.93-.98 4.24 1.94 2.1 2.98 6.5.65 8.49-.05 1.58 1.39 1.65 2.28 2.29.47 2.21-1.51 1.97-1.31 3.92.46 1.71 2.88 1.47 2.94 3.59-1.38 1.34-5.22.22-7.18.98-1.05-3.74-.93-8.64-1.63-12.73-.64.56-.7 1.69-.65 2.94-1.43-2.16.36-7.54-1.96-8.81 1.7-5.28 2.77-16.64-2.61-18.61-.61-8.86-.01-18.92-1.31-27.09-1.96 2.66-.83 6.64-.65 10.45.25 5.6-.34 11.53.33 16.65-.6 1.68-1.73 2.84-2.29 4.57.31 4.48-.7 10.27.65 13.71-1.82 5.25-2.02 13.73-1.63 19.26-1.7-.14-.59-3.14-.65-4.57-.86-20.33 3.56-45.96 1.31-68.88-.09-.53.31-.56.33-.98h7.51ZM42.73 51.64c2.52 3.67 1.73 12.29.98 17.3-3.06-3.59-4.22-13.01-.98-17.3ZM72.76 69.92c-4.14-.89-3.15-11.75-.98-14.04.38-.05.58.07.65.33 2.66 1.98 2.13 11.2.32 13.71ZM148.49 56.54c2.29 3.71 1.12 10.65-.33 14.36-2.84-2.84-1.16-10.97.33-14.36ZM114.54 58.5c2.67 2.1 1.59 10.06-.33 12.4-4.61-.84-2.7-12.48.33-12.4Z" style="fill:#ffa617"/>
    <path d="M93 60.46c2.04 2.43 1.68 10.14.33 13.06-3.97-1.18-1.42-10.05-.98-13.06H93ZM117.48 72.53c2.21 6.17 4.72 13.77 6.53 19.26-1-.24-1.19.34-1.96.33-2.72-5.12-5.78-11.62-4.57-19.58Z" style="fill:#fff"/>
    <path d="M73.74 73.51c-.7 10.6 1.45 18.35 3.92 25.79-3.28-.48-3.76-4.96-4.57-8.16-1.29-5.06-1.94-10.65-1.3-16.65v-.98h1.96ZM113.24 73.84h.98c1.12 3.94.68 9.21.33 13.71-.38 4.93-1.43 10.31-4.24 12.4 1.09-6.86 3.49-15.22 2.61-25.13-.09-.53.31-.56.33-.98ZM148.16 76.45c-2.98 10.51-8.53 18.45-19.26 21.22.45-.42.32-1.42.33-2.28 9.35-2.73 15.09-9.07 16.97-19.26 1-.24.96.56 1.96.33Z" style="fill:#ffa617"/>
    <path d="M69.17 76.78c.5 4.52-.35 12.6 1.63 17.3-2.65.25-4.32-.47-6.86-.33 2.38-5.02 4.24-10.56 5.22-16.97Z" style="fill:#fff"/>
    <path d="M92.02 78.41h2.61c.15 6.71 1.08 15.19-1.63 19.91-2.58-4.65-2.95-14.27-.98-19.91Z" style="fill:#ffa617"/>
    <path d="M117.15 85.26c.9 2.47 2.2 4.55 2.61 7.51-1.02-.07-2.4.22-2.94-.33-.58-1.99.44-4.63.33-7.18Z" style="fill:#fff"/>
    <path d="M124.01 94.73c.64.45.18 2 .65 2.61-2.66 1.15-6.09 1.53-9.79 1.63-.24-1 .33-1.19.33-1.96 3.08-.62 6.5-.9 8.81-2.29Z" style="fill:#ffa617"/>
    <path d="M72.76 98.65c-3.37-.66-7.73-.32-9.79-2.29 1.48-1.31 5.06.77 7.83.33.9.41 2.15.46 1.96 1.96Z" style="fill:#fff"/>
    <path d="M5.84 96.04c2.66 3.88 2.55 11.86 1.96 17.95-1.38-2.1-1.33-5.63-2.28-8.16-1.44 2.41-1.08 6.96 0 9.47-.32 1.5-1.43-1.24-2.29-1.31-.77-6.6-.2-13.93 2.61-17.95ZM26.08 97.02c3.82 3.33 4.62 14.13 2.29 19.58-3.27-3.64-4.17-13.94-2.29-19.58ZM107.69 97.02c.17 1.26-.58 1.59-.33 2.94-3.56-.07-6.96 0-10.12.33.17-.91.48-1.7.65-2.61 2.56.03 6.6-.33 9.79-.65Z" style="fill:#ffa617"/>
    <path d="M80.27 98c2.32-.58 5.94.36 9.14 0 .18.58.17 1.35.65 1.63-2.52.01-8.47.64-9.79-1.63Z" style="fill:#fff"/>
    <path d="M47.62 100.61c1.57 3.76 2.18 8.48 2.61 13.38-.72-.69-.06-2.77-1.63-2.61-1.64 1.63.45 4.62.33 6.86-3.4-2.8-1.9-12.87-1.31-17.63Z" style="fill:#ffa617"/>
    <path d="M124.66 100.61c2.79 8.3 8.09 14.1 9.79 23.5-4.61-6.6-7.81-14.6-10.77-22.85.07-.47.97-.11.98-.65ZM61.99 101.59c2.63.09 4.96.48 7.18.98-.47 2.14-1.58 3.64-1.96 5.87-3.75-2.94-6.79 4.59-2.28 5.22-.55.86-.75 2.07-1.31 2.94-2.39-.32-3.23.9-3.92 2.29.03 1.28.58 2.04.98 2.94-1.14 3.1-2.78 5.71-4.24 8.49-1.72-2.85-2.18-6.96-3.59-10.12 1.46-7.78 7.69-10.8 9.14-18.61ZM120.74 101.59h.65c2.8 3.95 3.88 9.61 6.2 14.04 1.76 4.64 6.13 8.11 5.88 13.71-6.37-7.13-8.26-18.72-12.73-27.75ZM117.81 102.24c-.65.65-.95 1.66-1.96 1.96.27-.92-.46-.85-.33-1.63.42-.45 1.42-.32 2.29-.33ZM113.89 102.57c1.9 6.36-.43 12.46.33 19.26-2.29-1.1-.63-3.9-.98-5.88-.28-1.59-1.77-2.4-1.63-3.92-.29-1.6 1.08-1.54.65-3.27-.6-2.12-2.63-2.81-2.28-5.88 1.55.13 2.25-.58 3.92-.33ZM108.34 102.89c.83 2.48-.06 4.26-.98 5.88-.06 2.35 2.48 2.09 2.61 4.24-.12 1.52-1.65 1.61-1.63 3.26.04 2.03 2 2.14 2.94 3.26.88 2.61-1.21 1.96-.98 4.57-.05 1.58 1.39 1.65 2.28 2.29 2.86 6.76.51 16.1-.98 23.18h-3.92c-4.16-13.47-5.62-29.64-6.53-46.35 2.2-.3 4.59-.41 7.18-.33Z" style="fill:#fff"/>
    <path d="M76.35 120.84c-2.28-2.08-.26-8.45-2.29-10.77-1.55 3.61-1 9.34.33 12.73-5.15-2.93-3.55-15.78-.33-19.59h.98c2.83 3.41 2.22 12.49 1.31 17.63Z" style="fill:#ffa617"/>
    <path d="M78.31 103.22c1.23-.25 1.56.4 2.61.33-.08 2.09-.94 3.41-.98 5.55-1.08-1.42-.93-4.08-1.63-5.88Z" style="fill:#fff"/>
    <path d="M100.18 103.22c.22 17.19 2.62 32.2 5.88 46.35h-5.88c-1-6.39-.87-13.93-1.63-20.57 3.36-6.62 2.1-18.37-1.31-23.83-.65-1.32-3.15.26-3.26-.98-.05-.38.07-.58.33-.65 1.48-.59 3.9-.23 5.88-.33Z" style="fill:#ffa617"/>
    <path d="M84.18 103.54c-2.03 8.96-3.55 18.43-5.55 27.42-1.84-9.89 2.57-18.03 3.26-27.42h2.29ZM88.76 103.54c-.02 12.39-1.12 23.69-2.61 34.6.07 1.71-1.96 1.3-1.96 2.94 1.24 2.14 1.6 5.72-.33 7.83-1.93-.75-2.06-3.44-2.61-5.22-2.32-7.53-.36-13.2 1.3-22.52 1.11-6.22 1.86-12.1 2.61-17.63h3.59ZM92.67 103.54c-1.33 6.83-2.98 16.88.33 22.85-.08 7.52-1.19 15.44-.33 22.85h-5.88c2.36-13.56 2.85-29.69 3.59-45.7h2.28Z" style="fill:#fff"/>
    <path d="M160.57 103.54c1.44 5.23.23 11.77-.98 16.32-1.26-1.86-.62-6.73-.33-9.14-2.38.32-1.76 7.34-1.63 9.47-2.23-.78-1.44-4.59-1.3-6.53.26-3.89 1.52-8.16 2.94-10.12h1.3ZM138.7 104.52c3.87 2.51 1.5 12.37-.98 14.69-3.88-1.98 0-11.44.33-14.69h.65ZM120.74 105.83c1.01 4.91.92 13.25-2.61 15.67-2.55-3.93-1.07-12.3.98-15.67h1.63ZM179.5 106.48c2.15 3.5 1.78 10.91 1.31 15.99h-2.61c-1.15-4.67-1.18-12.89 1.31-15.99ZM95.61 108.11c2.04 2.12 2.09 7.89 1.63 11.43-1.39.89-1.95 2.62-1.96 4.9-1.21-3.58-2.84-13.59.33-16.32Z" style="fill:#ffa617"/>
    <path d="M68.52 109.75c.77 4.56 1.13 9.54 2.29 13.71-.29 1.23-1.87 1.18-2.29 2.29-.42 1.62.79 1.6.65 2.94-2.56 5.39-3.61 12.27-6.2 17.63-2.83-3.49-3.9-8.72-5.88-13.06 1.86-3.58 4.37-6.51 5.55-10.77 3.81-2.39 3.48-8.93 5.88-12.73ZM123.36 115.95c2.64 5.85 5.55 11.43 9.14 16.32-.27 3.1-1.48 5.27-1.96 8.16-4.31-4.94-6.77-11.73-9.47-18.28 1.3-1.53 1.79-3.87 2.28-6.2Z" style="fill:#fff"/>
    <path d="M30.32 120.52c3.2 11.82 7.23 22.8 14.04 31.01-3.2-.61-4.06-3.56-5.55-5.88-5.69-5.52-7.16-15.26-9.47-24.15-.1-.75.94-.36.98-.98ZM6.82 121.17c2.53 11.4 6.32 21.54 17.95 23.83-12.5-.34-17.66-10.85-19.26-23.18.61-.04 1.09-.21 1.3-.65ZM51.22 122.8c2 8.55 4.69 16.42 7.83 23.83-2.58-1.12-2.79-4.61-4.24-6.86-1.45-2.25-1.84-5.56-3.26-7.83-.13-2.81-1.06-4.82-.98-7.83-.24-.89.65-.66.65-1.31ZM156.65 123.13c.53-.09.56.31.98.33-.99 5.39-2.14 11.48-3.59 16.98-1.37 5.18-2.32 11.47-7.51 13.06 4.91-8.58 8.01-18.97 10.12-30.36Z" style="fill:#ffa617"/>
    <path d="M114.22 125.09c.38-1.29.38 1.29 0 0Z" style="fill:#fff"/>
    <path d="M117.15 125.09c1.42 10.57-1.02 22.91-3.59 31.66-2.24-1.1.1-5.06.33-6.85 1.06-7.86 2.35-15.5 2.94-23.83-.09-.53.31-.56.33-.98ZM136.74 125.42c1.03.88.88 1.68.65 3.26-1.65.16-.88-2.45-.65-3.26Z" style="fill:#ffa617"/>
    <path d="M47.95 125.74c.92 3.54.99 7.93 2.61 10.77-1.39 2.86-3.23 5.25-4.9 7.83-3.98.5-4.9-2.07-6.2-4.24 2.37-5.25 6-9.24 8.49-14.36Z" style="fill:#fff"/>
    <path d="M120.09 125.74c2.89 6.25 5.94 12.33 9.47 17.95-.96 1.76-1.6 3.84-2.61 5.55h-3.92c-4.21-5.69-3.1-13.87-2.94-23.5ZM73.74 126.72h.65c1.97 1.65 1.57 4.82 1.96 7.18 1.19 7.27 3.02 15.34 6.2 21.22-7.32-3.78-8.69-16.33-8.81-28.4ZM95.28 128.03h.98c.49 1.03.16 2.88.65 3.92-.5 8.04.72 17.72.32 23.5-2.32-1.52-2.13-5.68-2.28-9.14-.25-5.58.14-11.98.33-17.3v-.98ZM177.87 128.03c1.22-.02 2.07.33 2.94.65-1.59 10.51-8.41 19.2-19.26 18.28 10.55-1.11 15.62-6.64 16.32-17.95v-.98Z" style="fill:#ffa617"/>
    <path d="M70.8 128.35c1.38 7.3.18 14.16-2.29 19.26-1.56.25-2.1-.51-3.59-.33 2.56-5.71 3.54-13 5.88-18.93Z" style="fill:#fff"/>
    <path d="M136.09 129.66c.31 5.82-1.79 14.69-4.9 19.26-.18-2.15 1.27-5.79 2.29-9.14 1-3.32 2.26-6.68 2.61-10.12Z" style="fill:#ffa617"/>
    <path d="M139.35 129.98c.38-.05.58.07.65.33 1.55 2.05 3.32 4.51 4.9 6.86 1.44 2.15 4.13 4.47 2.94 7.18-3.71-3.36-5.85-8.29-8.81-12.4.38-.39.37-1.15.33-1.96ZM138.37 134.88c3.04 3.39 6.54 8.03 7.83 12.08-2.49.65-3.11-2.54-4.57-3.92-1.37-1.57-2.53-3.35-3.59-5.22-.17-1.26.58-1.59.33-2.94ZM51.22 139.45c1.25 1.58 1.46 4.2 2.61 5.88-1.67.9-3.93-.42-5.87-.33.81-2.12 2.43-3.44 3.26-5.55ZM137.07 140.76c1.96 2.18 3.6 4.67 5.22 7.18-2.63-.18-5.34 1.11-7.18.65.94-2.32 1.38-5.15 1.96-7.83ZM72.11 142.72c.73 1.66 1.09 3.69 1.63 5.55-1.11-.09-1.88-.52-3.27-.33.31-1.98 1.05-3.52 1.63-5.22Z" style="fill:#fff"/>
    <path d="M36.85 147.29c-1.1.97-2.56-.47-3.92-.33.95-1.7 3.3-1.43 3.92.33Z" style="fill:#ffa617"/>
    <path d="M118.46 145.98c1.27.36.92 2.35 1.96 2.94-.49.49-1.43.52-2.29.65-.25-1.56.51-2.1.33-3.59Z" style="fill:#fff"/>
    <path d="M39.14 150.55c-2.61.54-5.98-.98-8.81-1.3 1.55-2.5 7.43-.45 8.81 1.3ZM46.32 148.59c2.82-.1 7.34.92 10.45 1.63-3.14.41-8.34.07-10.45-1.63ZM159.26 151.2c-2.29.97-5.26 1.27-7.83 1.96.58-4.19 6.15-6.7 7.83-1.96ZM48.93 151.53c2.25-.4 6.68-.16 8.16 1.31-1.57.97-6.61-.1-8.16-1.31ZM143.59 151.2c1.55.45-1.32 1.58-.65 3.26-3.12.26-6.21.53-9.14.98.07-1.02-.22-2.4.32-2.94 3.35-.25 6.72-.47 9.47-1.3ZM32.61 152.51c4.11 1.01 8.45 1.78 12.73 2.61.14 3.11.96 4.59-.32 6.86.11 1.63 1.97 1.51 2.28 2.94.79.89-.36 1.81 0 3.26 5.12 6.2 6.82 15.82 12.08 21.87-11.66-8.14-20.62-21.82-26.77-36.56v-.98ZM64.6 152.83c4.03.64 10.27-.91 11.75 2.28-4.29.05-8.21-.28-12.08-.65-.14-.79.59-.71.32-1.63ZM127.27 153.49v2.29c-3.88-.18-6.82.58-10.77.33-.26-1.13.49-1.25.33-2.28 3.42-.17 6.7-.48 10.45-.33ZM110.3 153.81c.24 1-.56.96-.33 1.96-2.42.52-7.05.56-9.47 0 .42-3.5 6.48-1.35 9.79-1.96ZM85.82 154.47c1.56-.36 6.15-.94 7.18.33-.63 1.82-6.88 1.39-7.18-.33ZM157.63 154.47c-3.09 14.21-10.81 26.62-19.91 35.91 5.44-9.58 11.1-21.76 14.36-34.6 2.27-.01 3.74-.83 5.55-1.31Z" style="fill:#ffa617"/>
    <path d="M46.65 155.45c5.42.89 10.85 1.77 16.32 2.61 1.37 8.4-.12 19.95 7.18 23.18.33 4.34 2.01 7.35 3.59 10.45-4.09-.16-7.65-.84-11.75-.98-4.86-5.47-6.79-13.89-10.45-20.57-.04-1.35.57-2.04.33-3.59-.15-1.48-1.93-1.33-2.61-2.29 1.43-4.36-2.64-4.89-2.61-8.81ZM149.14 156.43c1.02 2.37-1.49 6.75-2.29 9.47-.74 3.5-2.24 6.24-3.59 9.14-2.1 6.5-5.72 11.48-9.14 16.65 3.09-10.41 7.31-22.51 10.12-34.28 1.39-.57 3.43-.49 4.9-.98ZM141.96 157.73c-.61 2.77-1.63 5.12-1.96 8.16-.61-1.45-.59-3.55-1.31-4.9-4.2-1.28-6.33 2.09-7.51 4.9-.76-1.64-.11-4.68-.33-6.86 3.57-.16 6.96-.93 11.1-1.31ZM65.25 158.38c1.63-.22 2.53.3 3.92.33V161c-.86-.34-2-.39-3.26-.33-.36-.62-.42-1.54-.65-2.29ZM77 159.36h7.51c1.29 2.57-.57 4.59-1.31 6.2-.21 2.27 2.12 2.01 2.28 3.92.46 2.31-2.26 1.44-1.96 3.59-.14 1.77 1.21 2.06 2.29 2.61.77 5.43-.25 12.65 1.96 16.65-.56.75-2.49.12-3.59.33-.92-6.33-4.78-12.85-2.94-18.93-1.14-1.78-3.48-4.02-1.63-6.85-1.15-2.22-2.7-4.04-2.61-7.51ZM128.9 159.36c.17 5.58-1.53 13.87.65 18.28-2.16 5.46-3.7 11.54-7.51 15.34h-6.53c.43-2.95 1.71-5.04 3.27-6.86-1.17-4.24 1.04-6.4 2.94-8.49-1.66-3.74-.91-5.52 1.63-7.83-1.71-2.95-1.07-6.67-.33-10.45h5.88ZM86.47 159.69c6.63.49 12.38.12 18.93.33.2 2.16-.57 3.35-.32 5.55-1.35-2.18-2.23-5.32-5.22-4.9-4.83.69-3.5 14.34-1.63 18.28-.56 3.9-1.11 9.55-.33 13.71-2.75.89-6.52 0-9.47 0-.22-7.11-.23-16.96-1.31-23.5-.42-1.95 1.14-1.9.98-3.59-.71-1.79-1.57-3.44-1.63-5.88Z" style="fill:#fff"/>
    <path d="M107.69 159.69h13.71c-.87 3.38-1.34 7.14-3.27 9.47 1.74 2.87-.62 5.15-1.96 6.86.88 3.69.64 6.79-1.63 8.81 1.14 2.81-.23 5.18-.65 8.16-2.37.67-5.92.17-8.81.33.94-5.79-1.12-10.33-.65-14.69.15-1.44 1.15-2.2 1.63-3.59 1.48-4.21 1.13-9.68 1.63-15.34ZM168.73 161.32c2.28 4.67 2.58 14.94-1.31 17.95-2.89-4.53-.8-14.19 1.31-17.95ZM67.21 163.28c4 2.11 4.22 8.94 3.92 14.36-5.11-.94-5.48-9.73-3.92-14.36ZM23.79 164.26c4.01 2.3 4.18 8.45 4.9 14.04-4.51-.33-5.85-8.25-4.9-14.04ZM99.85 164.26c3.22 1.75 2.58 9.27 1.31 12.73-2.42-2.32-2.27-8.97-1.31-12.73ZM136.74 164.59c.19 5.74-1.19 9.91-4.57 12.08-.08-5.63 0-11.1 4.57-12.08Z" style="fill:#ffa617"/>
    <path d="M136.09 177.32c-.74 4.7-2.96 10.75-5.22 15.02 1.09-4.36 1.73-11.98 5.22-15.02Z" style="fill:#fff"/>
    <path d="M101.81 179.6c.81 3.88 1.4 13.65-.33 17.95-2.69-3.52-.13-11.17-.98-16.98.82.06 1.02-.5 1.3-.98ZM130.86 179.6c.38-.05.58.07.65.33-.4 3.62-1.36 6.69-2.61 9.47-1.54 2.48-1.63 6.42-4.9 7.18-.55-1.21 1.29-3.28 2.29-4.9 1.12-1.82 2.06-3.66 2.94-5.22.22-2.17.84-3.95 1.31-5.88-.09-.53.31-.56.33-.98ZM72.76 180.26c2.77 6.8 6.48 12.67 10.77 17.95-6.13-3.23-9.93-10.52-10.77-17.95ZM53.5 194.62c-12.35.48-19.13-4.59-23.83-11.75.38.05.58-.07.65-.33 5.44 3.74 13.08 10.94 23.17 12.08ZM163.18 182.87c-4.47 8.48-16.1 12.63-28.4 14.36 1.19-.98 2.5-1.85 3.92-2.61 11.25-.61 18.12-5.6 23.83-11.75h.65ZM78.64 196.9c-5.88.99-11.7-.92-16.65-1.96v-.98c4.81.42 12.85.41 16.65 2.94Z" style="fill:#ffa617"/>
    <path d="M129.23 195.92c.05-.38.6-.28.98-.33-.05.38-.6.27-.98.33Z" style="fill:#fff"/>
    <path d="M85.49 196.25c-.06-.28.13-.31.33-.33 3.69.77 9.66-.74 12.08 1.3-2.97 1.1-10.23.9-12.4-.98ZM120.09 196.25c-2.82 2.36-11.1 1.43-15.34 1.31-.04-.59.4-.69.33-1.31h15.02Z" style="fill:#ffa617"/>
    <path d="M67.86 199.84c.99-1.21 1.1.99 0 0Z" style="fill:#fff"/>
    <path d="M70.15 200.17c8.44-1.15 11.81 5.59 18.28 7.51-7.46.17-13.3-4.11-18.28-7.51Z" style="fill:#ffa617"/>
    <path d="M79.94 201.15c2.61-.76 6.64-.11 9.79-.33 1 2.38 2.21 4.54 3.27 6.86-4.98-1.55-8.62-4.44-13.06-6.53ZM96.59 201.15c2.15-.08 3.56.58 5.88.33-.1 3.39-1.29 5.68-2.29 8.16-1.77-2.26-3.04-5.01-3.59-8.49Z" style="fill:#fff"/>
    <path d="M116.5 201.15c-2.46 3.85-5.93 6.69-10.12 8.82 1.79-2.45 3.38-5.11 4.24-8.49 2.14.08 3.56-.57 5.87-.33Z" style="fill:#ffa617"/>
    <path d="M104.75 201.47h3.92c-2.14 3.73-3.33 8.42-7.51 10.12 1.72-2.85 3.22-5.92 3.59-10.12ZM76.35 20.31h2.29c1.32 15.86-.42 35.93-2.94 50.92.52-5.01 1.6-14.34-1.63-18.28 1.82-9.62 3.48-21.09 2.29-32.64ZM70.47 158.71c1.31.32 2.86.4 4.57.33.83 3.01 1.25 5.9-.33 8.16 1.57 2.05 3.91 4.06 2.28 7.51 2.94 4.46 2.96 11.84 5.22 16.97-3.26-2.18-4.9-8.81-7.83-12.41.3-8.46-2.89-13.43-3.92-20.56ZM119.11 200.82c2.1.26 3.21-.48 5.22-.32.89.86-2.16 3.22-2.94 4.57-3.26 2.61-7.71 4.04-12.08 5.55.43-.88 3.25-2.18 4.57-3.26 1.39-.89 2.2-2.37 3.59-3.27.22-1.41 1.51-1.75 1.63-3.27ZM92.02 201.47c.14-.73 1.61-.13 2.29-.33.51 3.3 1.58 6.03 3.26 8.16-2.67-.49-3.66-5.48-5.55-7.83Z" style="fill:#fff"/>
    <path d="M73.09 204.74c5.87 2.72 15.35 4.67 23.18 6.53-9.87 1.27-16.99-3.03-23.18-6.53Z" style="fill:#ffa617"/>
</svg>
