<svg xmlns="http://www.w3.org/2000/svg" viewBox="0 0 112.86 71.24">
    <path d="M65.31 7.07C69.32 1.21 76.68-1.44 87.16.8c7.9 1.69 11.4 6.44 17.4 2.05-2.98 5.18-6.2 7.2-15.16 5.77-9.97-1.6-16.22-5.76-24.1-1.55Z" style="fill:#f0801a"/>
    <path d="M0 13.85v50.76h12.47c2.13 0 3.77-1.31 4.59-2.47 1.04-1.43 1.15-2.97 1.15-4.3V32.89c0-1.48.05-2.64-.93-4.18-2.02-3.08-5.08-2.97-6.61-2.97l-3.13.08v-5.99h10.08l-1.86-5.98H0Zm7.54 45.46V31.86h.36c1.2 0 2.12.05 2.34.43.33.61.43 1.38.43 2.48V55.6c0 .55 0 1.93-.22 2.48-.38 1.04-1.2 1.15-1.8 1.15l-1.11.08ZM23.04 64.61V13.85h7.23v24.46l-.45 4.05h.22l5.54-28.51h6.89v50.76h-7.23V44.65l.4-4.37h-.17l-5.54 24.33h-6.89zM100.67 64.61l4.22-24.4h.23l-.35 5.08v19.32h8.09V13.85h-9.96l-4.4 28.98h-.24l-4.39-28.98h-9.96v50.76h8.08V45.29l-.35-5.08h.24l4.22 24.4h4.57zM68.09 45.18l1.44-16.37h.22l1.43 16.37h-3.09Zm4.79 19.44h7.29l-5.46-50.76H64.6l-5.58 50.76h7.37l1.21-13.74h4.09l1.2 13.74ZM62.74 7.11s-2.46.05-3.22.23c-.76.18-1.41.47-1.97.89-.55.42-.99.96-1.32 1.62-.33.66-.5 1.5-.5 2.51v53.95l-7.99 4.93V12.27c0-2.23.32-4.12.97-5.66.65-1.54 1.53-2.79 2.65-3.74 1.12-.96 2.42-1.65 3.91-2.07C56.75.38 66.69.2 66.69.2l-3.96 6.9Z" style="fill:#004d87"/>
</svg>
