<svg xmlns="http://www.w3.org/2000/svg" viewBox="0 0 168.49 54.42">
    <path d="M49.89 5.4C52.95.92 58.57-1.11 66.58.6c6.03 1.29 8.71 4.92 13.29 1.57-2.28 3.96-4.73 5.5-11.58 4.4-7.62-1.23-12.39-4.4-18.41-1.18Z" style="fill:#f0801a"/>
    <path d="M0 10.58v38.77h9.53c1.63 0 2.88-1 3.51-1.88.79-1.09.88-2.27.88-3.28V25.13c0-1.13.04-2.02-.71-3.2-1.54-2.35-3.88-2.27-5.05-2.27l-2.39.06v-4.57h7.7l-1.42-4.57H0ZM5.76 45.3V24.34h.27c.91 0 1.62.04 1.79.33.25.46.33 1.05.33 1.89v15.91c0 .42 0 1.47-.17 1.89-.29.8-.92.88-1.38.88l-.85.06ZM17.6 49.35V10.58h5.52v18.69l-.35 3.08h.18l4.23-21.77h5.26v38.77h-5.52V34.1l.3-3.33h-.13l-4.23 18.58H17.6zM76.89 49.35l3.22-18.64h.18l-.27 3.88v14.76h6.18V10.58h-7.61l-3.36 22.14h-.18L71.7 10.58h-7.61v38.77h6.17V34.59L70 30.71h.18l3.22 18.64h3.49zM52.01 34.51 53.11 22h.17l1.09 12.51h-2.36Zm3.66 14.84h5.57l-4.17-38.77h-7.73l-4.26 38.77h5.63l.92-10.49h3.12l.92 10.49ZM47.92 5.43s-1.88.04-2.46.17c-.58.14-1.08.36-1.5.68-.42.32-.76.73-1.01 1.24-.26.51-.38 1.15-.38 1.92v41.21l-6.1 3.76V9.37c0-1.71.25-3.15.74-4.32.49-1.17 1.17-2.13 2.03-2.86A7.85 7.85 0 0 1 42.22.61c1.13-.32 8.72-.46 8.72-.46l-3.03 5.27ZM93.85 49.24h1.71l2.64-4.82h.03v4.82h1.52V42.3h-1.71l-2.64 4.81h-.03V42.3h-1.51v6.94Zm11.47 0h1.52V43.6h2.08v-1.29h-5.67v1.29h2.08v5.64Zm4.4 0h5.26v-1.29h-3.74v-1.69h3.36v-1.19h-3.36v-1.48h3.66V42.3h-5.18v6.94Zm5.58 0h1.71l1.54-2.4 1.52 2.4h1.82l-2.42-3.62 2.23-3.31h-1.67l-1.41 2.21-1.36-2.21h-1.77l2.23 3.3-2.42 3.63Zm7.2 0h1.52v-2.99h2.83v2.99h1.51V42.3h-1.51v2.65h-2.83V42.3h-1.52v6.94Zm7.2 0h1.71l2.64-4.82h.03v4.82h1.52V42.3h-1.71l-2.64 4.81h-.03V42.3h-1.52v6.94Zm7.24 0h1.52v-2.23l.87-.88 2.09 3.12h1.91l-2.97-4.2 2.71-2.74h-1.9l-2.71 2.88v-2.88h-1.52v6.94Zm7.01 0h1.71l2.64-4.82h.03v4.82h1.52V42.3h-1.71l-2.64 4.81h-.03V42.3h-1.52v6.94ZM93.85 38.71h1.71l2.64-4.82h.03v4.82h1.52v-6.94h-1.71l-2.64 4.81h-.03v-4.81h-1.51v6.94Zm7.24 0h1.52v-2.99h2.83v2.99h1.52v-6.94h-1.52v2.65h-2.83v-2.65h-1.52v6.94Zm11.47-.04a2.72 2.72 0 0 0 1.57-1.45c.16-.35.26-.74.3-1.18h-1.48c-.06.47-.22.84-.48 1.13-.26.29-.63.43-1.09.43-.34 0-.63-.07-.88-.2-.24-.13-.43-.31-.58-.53a2.36 2.36 0 0 1-.33-.74c-.07-.27-.1-.56-.1-.85s.03-.6.1-.88c.07-.29.18-.54.33-.76.15-.22.34-.4.58-.53.24-.13.53-.2.88-.2.19 0 .37.03.54.09a1.608 1.608 0 0 1 .8.64c.09.15.15.31.17.48h1.48c-.05-.4-.16-.76-.33-1.07a2.685 2.685 0 0 0-1.59-1.27c-.34-.11-.7-.17-1.08-.17-.54 0-1.02.09-1.44.28-.42.19-.77.45-1.07.78-.29.33-.51.72-.67 1.17-.16.45-.23.93-.23 1.44s.08.98.23 1.41c.15.44.38.82.67 1.14.29.32.65.58 1.07.76.42.18.9.28 1.44.28.43 0 .82-.06 1.18-.19Zm4.46.04h1.52v-5.64h2.08v-1.29h-5.67v1.29h2.08v5.64Zm4.4 0h1.52v-2.49h1.61c.44 0 .8-.06 1.11-.19.3-.13.55-.29.74-.5.19-.21.33-.44.42-.71.09-.27.13-.54.13-.83s-.04-.55-.13-.82c-.09-.27-.23-.51-.42-.71-.19-.21-.44-.37-.74-.5s-.67-.19-1.11-.19h-3.13v6.94Zm1.52-3.67v-2.08h1.19c.18 0 .34.01.51.04.16.02.3.08.43.15.12.08.22.18.3.32.08.14.11.31.11.53s-.04.4-.11.54-.17.24-.3.32c-.12.07-.27.12-.43.15-.16.03-.33.04-.51.04h-1.19Zm6.75 3.69c.21-.07.41-.19.59-.34.18-.16.35-.36.5-.61.16-.25.31-.55.48-.9l2.33-5.11h-1.62l-1.51 3.61-1.59-3.61h-1.68l2.03 4.27c.07.14.14.29.21.45.07.16.11.31.11.46s-.06.29-.17.41c-.12.12-.29.18-.53.18-.3 0-.54-.02-.73-.07v1.23c.09.03.21.05.36.08s.31.04.48.04c.28 0 .53-.04.74-.11Zm4.5-.02h1.43v-4.87h.02l1.7 4.87h1.18l1.7-4.92h.02v4.92h1.43v-6.94h-2.15l-1.53 4.77h-.02l-1.62-4.77h-2.15v6.94Zm8.81 0h5.26v-1.29h-3.74v-1.69h3.36v-1.19h-3.36v-1.48h3.66v-1.29H143v6.94Zm6.3 0h1.52v-2.99h2.83v2.99h1.52v-6.94h-1.52v2.65h-2.83v-2.65h-1.52v6.94Zm8.73 0h1.52v-5.64h2.08v-1.29h-5.67v1.29h2.08v5.64Zm3.67 0h1.54l.54-1.54h2.59l.52 1.54h1.58l-2.59-6.94h-1.56l-2.62 6.94Zm2.48-2.68.9-2.55h.02l.87 2.55h-1.8ZM98.92 29.77h1.47v-2.88h-.77v-5.64H98.1v5.64h-2.73v-5.64h-1.51v6.94h5.06v1.58Zm2.24-1.58h5.26V26.9h-3.74v-1.69h3.36v-1.18h-3.36v-1.48h3.66v-1.29h-5.18v6.94Zm6.3 0h1.52V25.2h2.83v2.99h1.51v-6.94h-1.51v2.65h-2.83v-2.65h-1.52v6.94Zm8.73 0h1.52v-5.64h2.08v-1.29h-5.67v1.29h2.08v5.64Zm4.4 0h1.52V25.7h1.61c.43 0 .8-.06 1.11-.19.3-.13.55-.29.74-.5.19-.21.33-.44.42-.71.09-.27.13-.54.13-.83s-.04-.55-.13-.82c-.09-.27-.23-.51-.42-.71-.19-.21-.44-.38-.74-.5-.31-.13-.67-.19-1.11-.19h-3.13v6.94Zm1.52-3.67v-2.08h1.19c.18 0 .35.01.51.04.16.03.31.08.43.15.12.07.22.18.3.32s.11.32.11.54-.04.4-.11.53-.17.24-.3.32c-.12.07-.27.12-.43.15-.16.03-.33.04-.51.04h-1.19Zm9.51 3.55c.42-.18.78-.44 1.07-.76.29-.32.51-.7.67-1.14.16-.44.23-.91.23-1.41s-.08-.99-.23-1.44c-.16-.45-.38-.84-.67-1.17-.29-.33-.65-.59-1.07-.78-.42-.19-.9-.28-1.43-.28s-1.02.09-1.44.28c-.42.19-.78.45-1.07.78-.29.33-.52.72-.67 1.17-.15.45-.23.93-.23 1.44s.08.98.23 1.41c.15.44.38.82.67 1.14.29.32.65.58 1.07.76.42.18.9.28 1.44.28s1.01-.09 1.43-.28Zm-2.31-1.19c-.24-.13-.44-.31-.59-.53a2.36 2.36 0 0 1-.33-.74c-.07-.27-.1-.56-.1-.85s.03-.6.1-.88c.07-.29.18-.54.33-.76.15-.22.34-.4.59-.53.24-.13.53-.2.88-.2s.64.07.88.2.44.31.59.53c.15.22.26.48.33.76s.1.58.1.88-.04.57-.1.85c-.07.27-.18.52-.33.74-.15.22-.35.4-.59.53s-.53.2-.88.2-.64-.07-.88-.2Zm5.33 1.32H138c.31 0 .61-.04.91-.12.29-.08.56-.2.79-.36.23-.16.41-.37.55-.63.13-.26.2-.56.2-.91 0-.43-.1-.81-.31-1.11-.21-.31-.53-.52-.95-.65.31-.15.55-.34.71-.57.16-.23.24-.53.24-.88 0-.32-.05-.59-.16-.82-.11-.22-.26-.4-.45-.53s-.43-.23-.7-.29c-.27-.06-.57-.09-.9-.09h-3.26v6.94Zm1.52-1.18v-1.9h1.67c.33 0 .6.08.8.23.2.15.3.41.3.76 0 .18-.03.33-.09.45s-.14.21-.25.28c-.1.07-.22.12-.36.15-.14.03-.28.04-.43.04h-1.64Zm0-2.94v-1.62h1.43c.14 0 .27.01.4.03.13.02.24.06.34.12.1.06.17.14.23.24.06.1.09.24.09.4 0 .29-.09.5-.26.63-.18.13-.4.19-.67.19h-1.55ZM98.13 17.62a2.72 2.72 0 0 0 1.57-1.45c.16-.35.26-.74.3-1.18h-1.48c-.06.47-.22.84-.48 1.13-.26.29-.63.43-1.09.43-.34 0-.64-.07-.87-.2-.24-.13-.43-.31-.58-.53a2.36 2.36 0 0 1-.33-.74c-.07-.27-.1-.56-.1-.85s.03-.6.1-.88.18-.54.33-.76c.15-.22.34-.4.58-.53.24-.13.53-.2.87-.2.19 0 .37.03.54.09.17.06.33.15.46.26.14.11.25.24.34.38.09.14.15.31.17.48h1.48c-.05-.4-.16-.76-.33-1.07-.18-.31-.4-.57-.67-.79-.27-.21-.58-.37-.92-.48-.34-.11-.7-.17-1.08-.17-.54 0-1.02.09-1.44.28-.42.19-.78.45-1.07.78-.29.33-.51.72-.67 1.17-.15.45-.23.93-.23 1.44s.08.98.23 1.41c.15.44.38.82.67 1.14.29.32.64.58 1.07.76.42.18.9.28 1.44.28.43 0 .82-.07 1.18-.19Zm2.92.04h5.26v-1.29h-3.74v-1.69h3.36v-1.19h-3.36v-1.48h3.66v-1.29h-5.18v6.94Zm7.83 0h1.52v-5.64h2.08v-1.29h-5.67v1.29h2.08v5.64Zm4.4 0h3.08c.38 0 .72-.04 1.03-.13.31-.09.58-.22.8-.41.22-.18.4-.42.52-.69.12-.28.18-.61.18-.99s-.06-.7-.19-.98-.3-.51-.52-.69c-.22-.18-.48-.32-.78-.4-.3-.09-.62-.13-.97-.13h-1.64v-2.51h-1.52v6.94Zm1.52-1.24v-1.99h1.43c.17 0 .33.02.47.05.15.04.27.09.38.17.11.08.19.18.25.31s.09.28.09.46c0 .37-.1.63-.31.78-.21.15-.5.22-.87.22h-1.44Z" style="fill:#fff"/>
</svg>
