<svg xmlns="http://www.w3.org/2000/svg" viewBox="0 0 175.61 71.24">
    <path d="M65.31 7.07C69.32 1.21 76.68-1.44 87.16.8c7.9 1.69 11.4 6.44 17.41 2.05-2.98 5.18-6.2 7.2-15.16 5.77-9.97-1.6-16.22-5.76-24.1-1.55Z" style="fill:#f0801a"/>
    <path d="M0 13.85v50.76h12.47c2.13 0 3.77-1.31 4.59-2.47 1.04-1.43 1.15-2.97 1.15-4.3V32.89c0-1.48.05-2.64-.93-4.18-2.02-3.08-5.08-2.97-6.61-2.97l-3.13.08v-5.99h10.08l-1.86-5.98H0Zm7.54 45.46V31.86h.36c1.2 0 2.12.05 2.34.43.33.61.44 1.38.44 2.48V55.6c0 .55 0 1.93-.22 2.48-.38 1.04-1.2 1.15-1.8 1.15l-1.11.08ZM23.04 64.61V13.85h7.23v24.46l-.45 4.05h.22l5.54-28.51h6.89v50.76h-7.23V44.65l.4-4.37h-.17l-5.54 24.33h-6.89z" style="fill:#004884"/>
    <path d="m117 45.18 1.44-16.37h.22l1.43 16.37H117Zm4.79 19.44h7.29l-5.46-50.76h-10.11l-5.58 50.76h7.37l1.21-13.74h4.09l1.2 13.74Z" style="fill:#f0801a"/>
    <path d="M62.74 7.11s-2.46.05-3.21.23c-.76.18-1.41.47-1.97.89-.55.42-.99.96-1.32 1.62-.33.66-.5 1.5-.5 2.51v53.95l-7.99 4.93V12.27c0-2.23.32-4.12.97-5.66.65-1.54 1.53-2.78 2.65-3.74 1.12-.96 2.42-1.65 3.91-2.07C56.76.38 66.7.2 66.7.2l-3.96 6.9Z" style="fill:#004884"/>
    <path d="M83.48 13.85H59.55v5.98h8.17v44.78h7.54V19.83h10.08l-1.86-5.98ZM95.74 31.8h5.46v-5.98h-5.46v-5.99h10.08l-1.86-5.98H88.2v50.76h17.62v-5.98H95.74V31.8ZM152.8 13.85h-23.93v5.98h8.17v44.78h7.54V19.83h10.08l-1.86-5.98ZM157.4 64.61V13.85h12.47c2.13 0 3.77 1.31 4.59 2.47 1.04 1.43 1.15 2.98 1.15 4.3v24.95c0 1.48.05 2.64-.93 4.18-2.02 3.08-5.08 2.97-6.61 2.97l-3.13-.08v11.97h-7.54Zm7.54-45.45v27.45h.36c1.2 0 2.12-.05 2.34-.43.33-.61.43-1.38.43-2.48V22.87c0-.55 0-1.93-.22-2.48-.38-1.04-1.2-1.15-1.8-1.15l-1.11-.08Z" style="fill:#f0801a"/>
</svg>
