<svg xmlns="http://www.w3.org/2000/svg" viewBox="0 0 224.08 148.73">
    <path d="M5.52 136.93c-.33 1.8-2.14 3.64-1.58 5.38-.01-.14.18-.32.26-.03-.2.08-.28.25-.21.54.38.07.47.27.78-.08 1.57-.62 2.44-1.81 3.66-2.7.46-.57 1.14-.96 1.41-1.7.83.03 1.18-1.55 1.74-.95l.6 6.22c-.26 1.06-.71 1.96-1.02 2.97-.43.28-.62 1.02.1 1.04.09.44-1.37 1.16-.16 1.06 1.88.39 3-1.79 3.9-2.99 1.21-1.22 1.53-3.2 2.43-4.68.04-2.11.69-3.73.75-5.83-1-3.95-1.64-7.7-2.91-11.23-1.24-3.47-2.81-6.7-4.57-9.5-1.18-5.74-3.52-12.57-2.3-18.61 1.63-2.15 3.1-4.44 5.72-5.78 8.51-1.88 13.27 2.39 20.19 3.3 2.6-.16 5.12-.39 6.38-1.66 3.56 4.07 6.85 8.48 10.6 12.32 1.53 2.39 3.49 4.26 5.31 6.29.9 1.03 1.94 1.9 2.89 2.86.79 1.17 2.29 1.46 2.89 2.86 4.08 3.54 8.16 7.09 13.43 9.17 4.81 2.65 11.62 2.89 17.88 3.78 3.14-.43 5.29.33 7.9.55 1.9-.18 3.8-.36 5.7-.55 6.13-2.34 10.53-6.11 14.44-10.28.97-1.75 2.05-3.4 3.18-5.01 1.97 2.33 4.51 3.99 6.61 6.17 2.87 1.15 5.5 2.6 9.16 2.78 3.58.29 7.81-.21 11.27.23 1.21-.11 2.42-.23 3.63-.35 1.89-.65 3.6-.93 5.06-1.79 1.47-.87 2.26-2.36 3.61-3.22 3.62-1.63 6.71-3.69 9.35-6.13 4.08-5.79 8.31-11.44 10.49-18.79 1.13-3.6 2.03-7.4 1.99-11.96.29-3.18.33-6.57.35-9.97 0-1.2-.61-2.89.2-3.42.23.69-.13 2.09.48 2.31-.12-3.28-.27-6.59-.71-10.13 1.76-1.81 3.26-3.83 4.66-5.94.66-2.24 1.36-4.44 2.26-6.49.46-3.52.57-7.32-.08-11.76-1.37-6.92-4.87-11.26-7.6-16.53-.92-3.05-3.23-7.86-1.3-10.86 2.42-.33 4.63-.4 6.53-.1.42.27.71.69 1.37.65 4.65 4.48 6.82 11.99 7.29 21.53-.2 4.29 0 8.92.54 13.81.58 1.99 1.34 3.78 2.1 5.55.67.44 1.15 1.12 1.73 1.66.83.63 2 .86 3 1.28 3 2.22 8.91-.31 11.07-1.84.39-.27.98-.43 1.25-.64.11-.09.09-.44.21-.54.21-.19.57-.15.75-.33.35-.34.65-.83.94-1.14 1.38-1.48 2.54-3 2.97-4.47-.4-.86-2.27.06-2.92-.51.29-1.94-.1-5.18-.9-6.71-.86-.15-.29.88-.68 1.11-.4.3-.18 1.13-.37 1.6-.69.7-.8 1.89-1.59 2.51-.97 1.74-1.86 3.55-4.31 4.08-1.36.21-1.49-1.09-2.48-1.33-.28-1.11-1.47-1.12-1.78-2.18-1.58-3.13-3.08-6.84-3.4-10.92-.07-.91.11-1.74.01-2.62-.76-7.12-3.38-13.57-5.96-18.52-1.18-1.18-2.21-2.53-3.48-3.59-1.52-.86-3.07-1.68-4.68-2.43-3.61-.54-7.25 0-10.89 1.04-3.04 2.35-4.67 5.86-5.02 10.42.87 10.81 9.78 12.81 11.54 22.17.09 4.29-.13 8.33-1.81 11.16-.29-5.82-1.45-10.59-2.05-16.02a18.64 18.64 0 0 0-1.9-3.48c-7.28 1.48-15.52 3.09-22.3 4.75-2.48.61-4.97 1.36-7.42 1.76-1.73.28-3.41.25-5.18.5-1.82.26-3.59.79-5.39 1.04-3.68.52-7.48.88-11.15 1.07-1.68.08-3.31-.13-4.97-.05-3.89.2-7.88 1.17-11.53-.2.45-2.18.58-4.61.63-7.12.73-1.79 2.19-3.57 3.96-5.09 1.73-1.48 3.74-3.03 5.92-3.71 3.83-1.19 6.7-.04 10.21.07 3.96-.14 7.48-.51 10.88-1.04 5.64-.89 9.76-2.45 13.41-4.69 3.69-2.26 6.58-5.21 9.72-7.73.67-1.1 1.58-2.06 2.32-3.1.36-.51.52-1.05.89-1.65.34-.55 1.39-.97.86-1.91-2.25.13-2.86 1.62-4.78 2.03.22-1.21.08-2.74-.37-3.89-.76-.46-1.29.88-1.97 1.24-.29.96-.9 1.64-1.62 2.25-4.36 3.37-8.69 6.9-13.72 9.68-5.04 2.79-10.84 5.19-17.98 6.17-3.63-.52-6.89-1.48-11.58-.72-4.8 1.82-8.33 4.78-10.68 8.61-1.9 3.08-2.61 6.73-2.64 10.72 0 1.4.29 2.87-.1 4.45-.06 1.14.62 2.9.09 3.65-1.11-2.22-2.52-4.08-3.73-6.18.7-.78.57-2.23.71-3.47-.08-7.62-2.81-12.02-7.14-14.49-1.08.35-.8-.96-1.65-.89-9.41.09-15.39 4.92-21.41 8.59-.89 1.02-1.75 2.06-2.58 3.12-8.23 4.82-13.15 12.38-26.76 12.76-2.63-1.05-4.44-3.11-6.01-5.44-.33-1.04-1.18-1.46-2.25-1.62-.92 1.23.34 4.26-.23 5.78-1.5-.01-2.93-.11-3.99-.67-.94.18-1.47-.15-2.12-.32-.13-.19-.39-.2-.54-.21-.33-.02-.57-.36-.49.31.81 4.8 4.36 6.29 6.88 9.02.76-.05 1.02.5 1.4.91 1.66.27 3.32 1.37 5.12 1.6.99.13 2.08-.09 3.13-.04 1.16.06 2.18.34 3.16.22 1.1-.14 2.31-.72 3.55-1.13 1.2-.39 2.4-.72 3.55-1.12 3.5-1.23 6.56-2.95 9.24-4.55 1.57-.93 3.91-2.19 4.91-3.35.84-.97 1.84-1.75 2.63-2.61 3.35-2.64 6.51-5.45 9.95-8.02 1.53-1.44 3.11-2.84 5.4-3.66 2.07-1 3.76-2.31 6.82-2.48 2.24.56 3.75 2.01 4.12 4.84-1.15.04-1.7-.64-3.16-.22-7.07 9.12-15.22 17.35-25.43 23.88-9.63 7.01-22.38 11.45-37.08 14.28-.85-.28-1.5.79-1.81.17-.54-.47-1.24 0-1.82.17-.63.67-1.11 1.47-1.33 2.48.45 3.5 2.77 4.74 4.32 6.91.27.75 1.65 1.65 1.26 2.23-1.72.06-3.01-.41-4.5-.61-1.88-1.39-4.12-2.33-6.57-3.03-1.73.17-3.45.33-5.18.5-6.12 1.87-9.72 5.83-13.46 9.66-1.96 3.31-3.38 7.08-3.85 11.62.72 10.94 6.06 17.87 6.77 29.69-.36 2.09-.58 4.3-1.24 6.13Z" style="fill:#391616"/>
    <path d="M115.74 34.31c.28-1.2.99-2.04.97-3.49.72-1.08 1.54-2.07 2.03-3.33-2.61.23-2.52 2.7-3.52 4.26.24.77-.12 2.26.51 2.57Z" style="fill:#391616"/>
    <path d="M165.6 3.38c.33.65.27 1.52.25 2.59.88.6 1.71-.36 2.57-.51-2.25 3.08-5.56 5.28-8.4 7.87-3.3 2.2-6.91 4.16-11.24 5.52-3.28.32-6.56.63-9.85.94 5.12-1.98 10.56-3.7 14.82-6.39 4.42-2.56 7.68-6.07 11.41-9.2.2-.23.09-.73.44-.83ZM208.47 49.49c-.85.73-1.99-.67-2.95-.76-.66-.83-1.62-1.32-2.3-2.13-2.21-5.31-1.67-13.3-1.83-19.18-.83-7.67-2.62-14.18-6.22-18.5-.9-1.12-2.18-1.79-3.38-2.55-1.9-.21-3.91-.28-6.27.08.13-.53.63-.76 1.22-.9.43.03.42-.29.76-.33 3.97-.29 6.27 1.46 8.66 3.09.45.61.78 1.37 1.47 1.69 1.59 3.08 3.28 6.05 4.1 10.07.98 8.74 1.2 18.4 3.73 25.27.93 1.48 1.83 2.99 3.01 4.16ZM123.02 20.27c-6.53 3.6-12.49 7.68-11.39 17.57-.77.24-2.26-.12-2.57.51-.74-1.02.09-2.79-.14-4.17 1.07-1.65 1.58-3.79 2.61-5.48.52-.84 1.27-1.42 1.88-2.27.15-.21.05-.59.18-.8.17-.27 1.05-1.35 1.41-1.7.2-.2.57-.13.75-.33.31-.35.86-.95 1.69-1.47 1.25-.78 3.23-1.83 5.58-1.84ZM102.25 38.22c-2.33-1.83-1.19-6.09-2.68-8.9-.84-1.49-2.35-2.16-3.69-3.05-.41.02-.98.22-1.06-.16-3.17.17-5.58.96-7.93 1.81-5.48 3.51-9.89 7.91-14.82 11.88-2.35 2.04-4.59 4.17-6.99 6.16-2.95 1.55-5.82 3.16-9.27 4.29 3.12-2.12 6.01-4.43 9.04-6.62 3.07-2.09 5.44-4.75 8.5-6.83 2.47-2.66 5.7-4.68 8.48-7.09 2.94-2.18 5.69-4.53 9.63-5.89.86-.08 1.73-.17 2.59-.25.11.35.67.15 1.06.16 4.63 1.91 7.65 6.87 7.14 14.49Z" style="fill:#fff"/>
    <path d="M203.21 24.62c.1-.41.27-.04.28.23.03.35.07.69.1 1.04.07.69.13 1.38.2 2.07.13 1.38.27 2.76.4 4.15-.1.41-.27.04-.28-.23-.03-.35-.07-.69-.1-1.04-.07-.69-.14-1.38-.2-2.07-.13-1.38-.26-2.76-.4-4.15ZM95.97 35.42c.76.57-.77 1.26-.58 2.15-.49.55-.99 1.1-1.12 1.94-3.82 3.45-7.23 7.24-10.72 10.96-3.89 3.32-7.79 6.62-12.16 9.54-4.6 2.73-9.48 5.23-14.44 7.66-2.54 1.31-5.59 1.79-8.64 2.66-5.28 1.51-11.03 3.56-17.78 2.75.08-.92 1.25-.4 1.79-.43 2.56-.19 5.07-.75 7.73-1.26 12.12-2.35 22.95-7.01 30.93-12.9 9.59-6.65 18.61-13.76 24.99-23.06ZM178.49 31.43c.35-.03.69-.06 1.04-.1.33 1.15-1.04.89-1.71 1.21-2.01.81-4.29 1.39-6.33 2.17-6.9 1.5-14.71 2.51-21.83 4.18-11.93 2.8-26.53 2.86-38.06 1.29-.47-.2-1.39.14-1.37-.65.86-.9 1.4.45 2.38.3 5.92 1.31 13.48.63 20.7.37 3.21-1 8.25-1.42 12.62-1.99 3.14-.41 6.1-1.35 8.99-1.65 1.1-.11 2.34.03 3.4-.06 3.03-.26 5.95-1.17 8.71-1.88s5.51-1.38 7.86-2.58c1.17-.23 2.88-.01 3.6-.61ZM188.07 33.13c.02-.3.25-.17.26-.02-.02.3-.25.17-.26.02ZM204.54 35.74c1.48 3.22 2.19 7.38 4.34 9.79.7 1.07 2.02 1.4 2.84 2.34 4.11.42 6.15-2.42 7.35-5.15.46.99.69 2.26 2.27 1.87-1.07 1.11-2.38 2.01-3.92 2.73-1.05 1.04-2.63 1.65-3.95 2.47-.6.06-1.21.11-1.81.17-1.17-.16-1.84-1.28-2.56-2.11-2.38-2.77-4.08-6.49-4.56-12.12ZM52.3 51.89c-.15-.12.16-.35.23-.28.15.12-.15.35-.23.28ZM189.54 40.31c.59 2.9.02 6.12-.45 8.94-.48 2.8-1.15 5.26-2.7 7.32-.58-1.13-.81-2.68-.94-4.36.9-1.8 2.22-3.25 2.61-5.48.79-1.89 1.32-4 1.48-6.42ZM102.61 63.81c-.67 1.12-.1 3.26-1.75 3.57.75-1.05.04-3.31 1.75-3.57ZM97.19 64.59c.69.28-.27 1.19-.09 1.84-.65-.24-.4-1.74.09-1.84ZM105.56 64.57c1.01-.03-.27 1.73-.29 2.38-.68-.5.4-1.57.29-2.38ZM107.24 65.72c.54.02.57.65 1.11.68-.07.87-.94.46-1.53.41.1-.4.32-.69.42-1.09ZM94.89 70.57c.02-.3.25-.17.26-.02-.02.3-.25.17-.26.02ZM126.3 68.08c-.02-.25.3-.23.49-.31.02.25-.3.23-.49.31ZM165.69 64.31c-.02-.25.3-.23.49-.31.02.25-.3.23-.49.31ZM123.59 69.91c-.02-.25.3-.23.49-.31.02.25-.3.23-.49.31ZM168.69 65.59c-.02-.25.3-.23.49-.31.02.25-.3.23-.49.31ZM121.1 71.19c-.02-.65.87-.16 1.04-.1-.1.79-.58-.2-1.04.1ZM171.87 66.07c-.13.36-.51.54-.99.62.02-.46.39-.63.99-.62ZM131.54 70.98c-.14.36-.51.54-.99.62-.34-.76.53-.51.99-.62ZM161.63 68.36c-.13-.45 1.41-.6 1.06.16-.46.08-.58-.27-1.06-.16ZM37.15 87.6c-3.48-.32-6.18-1.57-9.37-2.24-2.82-1.12-6.71-.93-9.84-1.67-.86.08-1.73.17-2.59.25 1-.92 2.64-1.32 4-1.95 3.85-.13 6.59 1.08 9.14 2.52 1.62.35 2.93 1.08 4.58 1.39.89 1.13 4.03-.45 4.09 1.7ZM175.41 67.56c-.14-.12.16-.35.23-.28.15.12-.15.35-.23.28Z" style="fill:#fff"/>
    <path d="M39.47 90c-.94.9-2.36 1.39-4.31 1.46-3.38-.82-6.21-2.31-9.23-3.56-2.54-.4-5.43-.36-7.93-.81-1.38.13-2.76.27-4.15.4-1.44.72-2.8 1.51-3.95 2.47-1.89 1.46-2.43 4.04-3.88 5.86-.54-.46.18-1.91.55-2.41.07-.98.58-1.59.81-2.43.55-.26.56-.97.91-1.4 2.15-1.8 4.4-3.53 7.12-4.87.6-.06 1.21-.12 1.82-.17 3.2.17 5.85 1.01 9.01 1.23 2.8 1.53 6.41 2.07 9.47 3.28.86-.08 1.73-.17 2.59-.25.51.24.65.95 1.16 1.2ZM12.37 85.53c-.15-.12.16-.35.23-.28.15.12-.15.35-.23.28ZM11.87 85.84c-.15-.12.16-.35.24-.28.15.12-.16.35-.24.28Z" style="fill:#fff"/>
    <path d="M13.95 140.3c-.89-1.53-.98-4.02-1.84-5.58-1.77.85-2.89 2.23-4.68 3.06 1.47-4.59 1.57-9.67.63-15.23-1.03-6.1-5.01-12.17-5.49-19.09-.23-4.65.42-8.57 1.73-11.93 1.71-2.32 4.35-3.89 6.79-5.62.83-.27.45.48.05.52-.37.17-.62.45-.99.62-.5.46-.97.95-1.71 1.21-.81 1-1.29 2.28-2.32 3.1-.93 3.93-3.39 6.59-2.23 12.24 1.18 2.04 1.48 5.15 2.53 7.34.78 2.52 1.73 4.85 2.77 7.06 1.73 4.75 3.33 9.65 4.57 14.99l.42 4.41c-.08.97-.34 1.79-.25 2.9ZM70.82 84.12c.64.32-.02 1.56-.06 2.1-.77-.43.23-1.39.06-2.1ZM71.88 84.28c.91.06.25.99.15 1.55-.73-.17.29-.85-.15-1.55ZM73.51 84.91c.4.1.69.32 1.09.42-.05.58-1.48.49-1.09-.42ZM69.67 85.8c-.15-.12.15-.35.23-.28.15.12-.16.35-.23.28Z" style="fill:#fff"/>
    <path d="M5.3 96.41c.79.1-.19.58.1 1.04-.65.02-.16-.87-.1-1.04ZM4.93 98.01c.02-.3.25-.17.26-.02-.02.3-.25.17-.26.02ZM4.75 98.82c.1-.41.27-.04.28.24-.1.41-.27.04-.28-.24ZM4.61 100.14c.16-.49.29.13.31.49-.16.49-.29-.13-.31-.49ZM144.65 101.37c.31.01.26.45.33.75-.6.14-.93.5-1.79.43.23-.61 1.23-.58 1.45-1.19ZM156.08 100.53c-.02-.25.3-.23.49-.31.02.25-.3.23-.49.31ZM157.14 100.69c-.02-.25.3-.23.49-.31.02.25-.3.23-.49.31ZM140.3 102.31c1.06.97-1.11 1.3-1.38 1.96-.61-.59 1.09-1.32 1.38-1.96ZM9.98 117.93c-.15-.12.16-.35.23-.28.15.12-.16.35-.23.28ZM10.26 118.17c1.4 1.87 2.06 4.64 3.26 6.75.77 2.54 1.74 4.83 2.3 7.62.31 4 .27 7.71-1.1 10.31-.39-1.52.4-4.12.47-6.06-.75-7.28-2.94-12.82-4.92-18.62ZM86.53 111.64c.05-.36.63-.28 1.01-.36-.01.3.1.46.31.49-.3.89-.68-.48-1.32-.13ZM89.67 111.6c.05-.36.63-.28 1.01-.36 2.35.91 3.93 2.75 6.12 3.86-.3.62-1.33-.29-1.63-.63-.86-.02-1.21-.65-1.91-.86-1.1-.78-2.41-1.32-3.59-2.01ZM93.27 111c2.02-.33 2.18 1.6 3.59 2.01-.82.4-2.18-1.01-3.02-1.54-.43.14-.51-.15-.57-.47ZM159.46 116.69c-.15-.12.16-.35.23-.28.15.12-.16.35-.23.28ZM182.35 6.22c-.99 2.05-1.37 4.59-.81 7.92 1.94 6.23 5.54 10.44 8.3 15.68.77 3.7 2.01 6.83 2.13 11.3-.26.9-.02 2.21-.51 2.92.26.77-.17.97-.11 1.58-.12.22-.23.45-.19.8-.02.3-.25.17-.26.02.4-1.59-.07-3.87.26-5.52-.63-6.28-2.84-10.63-5.56-14.37-2-2.79-4.06-5.5-5.79-8.6-.54-2.05-.71-4.54-.93-6.97.34-.11.15-.67.16-1.06.8-1.49 1.62-2.96 3.3-3.72Z" style="fill:#fff"/>
    <path d="M178.02 12.91c1.08.33.55 2.61.89 3.84.48 1.73 1.3 3.05 2 4.52 1.11.97 1.47 2.85 2.71 3.66.58 1.61 1.75 2.51 2.47 3.95.48.58.73 1.43 1.24 1.97-.05.64.53.52.38 1.27.48.1.11.72.02.26-2.72-5.47-7.49-8.47-9.52-14.78-.15-1.63-.43-3.38-.19-4.69ZM82.16 27.85c.61-.06-.03.71-.47.57.14.59-.72.36-.7.85-.97.15-1 1.08-1.97 1.23-.56 1.09-1.8 1.39-2.68 2.09-.09.07-.13.5-.21.54-.34.2-.57.27-.99.62-1.91 1.6-4.33 3.65-6.27 5.57-1.5.67-1.99 2.18-3.66 2.7-.95 1.12-2.33 1.89-3.66 2.7-2.18 2.02-5.07 3.46-7.33 5.41-2.31.96-5.04 1.57-7.63 2.3l-3.11.3c-5.98-.08-9.02-3.72-12.43-6.92.51-.51 1.76.55 2.43.81.94.21 1.5.89 2.69.79 1.15.54 1.57 1.95 3.31 1.77.43-1.92-1.55-3.29-1.58-5.6 1.72 1.87 3.42 3.76 6.41 4.09 1.12.05 1.7-.35 2.57-.51 2.63.34 5.89-.44 8.55-.82 2.83-1.08 5.09-2.64 7.45-4.11.99-.85 1.81-1.85 3.17-2.4 1.14-.73 1.75-1.9 2.89-2.63 3.15-4.16 8.56-6.46 13.22-9.37Z" style="fill:#fff"/>
    <path d="M31.29 75.61c11.24-.2 21.17-3.53 29.69-6.77 7.5-3.04 14.46-6.52 18.99-12.02 4.64-2.62 8.17-6.15 11.9-9.51 1.27-1.57 2.22-3.42 3.72-4.8.45-.98 1.4-1.54 1.85-2.53.97-.25.96-2.25 1.92-1.75 1 2.26 2.53 3.88 3.94 5.64.95 2.23 2.3 3.96 3.21 6.23 2.36 3.88 4.28 8.31 6.19 12.74 2.43 3.77 4.14 8.47 5.98 13.29.05.13.56.63.59.73.29.88.49 1.85.79 2.8 1.01 3.27 2.55 7.34 3.17 11.2.74 4.63.26 9.42.33 14.35-.59.63-.18 2.08-1.07 2.46.32 1.38-.09 2.15-.22 3.16-2.38 3.61-5.09 6.94-8.49 9.71-3.75 2.48-8.35 4.25-13.31 5.72-10.7.73-18.09-2.57-26.35-4.8-5.94-4.47-11.24-9.71-16.83-14.6-1.92-2.97-4.07-5.67-6.29-8.29-4.29-5.41-8.86-10.48-13.28-15.73-.92-1.49-2.32-2.39-3.25-3.87-.9-.26-1.05-1.43-1.99-1.64-.29-.32-.5-.74-.88-.96.1-.39-1.07-.54-.33-.75ZM63 111.8c2.58 2.37 5.37 4.49 8.21 6.54 1.51.93 3.04 1.69 4.68 2.43 1.58.72 3.36 1.77 5.64 1.55-.72-1.25-2.25-1.52-3.59-2.01-1-1.01-2.75-1.11-3.62-2.27-2.73-1.03-4.46-3.27-7.21-4.28a32.567 32.567 0 0 0-4.26-3.51c-.54.05-1.11-1.32-1.37-.65.63.58 1.22 1.22 1.52 2.21Zm31.92-57.2c-3.6.57-6.65 3.96-8.29 6.29-.4.57-.84 1.87-1.1 2.2-.9 1.14-.86 2.61-1.47 3.8-1.33.58-3.37.56-3.17 2.4.62.79 1.79.92 3.21.74 3.02-1.25 3.94-4.23 4.8-7.26 1.88-1.87 3.4-4.04 6.03-5.29.36-.02.56-.18.75-.33 1.88.23 4.13.02 6.04.21 1.51.5 4.47 1.03 4.87-.99-4.44-.15-7.36-2.44-11.67-1.76Zm15.54 12.11c-.31-.87-.71-1.65-1.49-1.95.07-1.33-.8-1.54-1.26-2.23-2.99-1.2-6.57-1.68-11.08-1.03-2.05.86-3.2 2.45-4.6 3.84-1.4 4.02-3.29 7.63-2.93 13.1 3.28.16 3.91-1.87 4.89-3.61 2.01-1.21 3.14-3.14 5.35-4.17 3.24-.98 7.7-.96 10.78-2.08.59-.73-.53-1.38.34-1.86Zm-9.14 5.58c-2.09.82-4.33 1.52-4.6 3.84 1.59-.12 2.12-1.12 3.25-1.62 2.1-.82 4.16-1.66 6.87-1.96.17-.58 1.31-.35 1.48-.93-1.7-.64-5.43-.23-7 .67Zm-34.55 5.14c-.86-.4-1.88-.62-2.72-1.05-3.12-.51-7.17.93-9.21 2.19-.85.53-1.37 1.11-1.69 1.47-.18.2-.56.14-.75.33-.33.33-.65.81-.94 1.14-1.14 1.29-1.72 2.36-2.27 3.62-.2.46-.62.86-.68 1.11-.39 1.69.04 3.5-.02 5.23.61.81.93 1.96 2.27 1.88.27-3.12.96-5.89 2.08-8.31 2.19-2.89 5.36-4.96 9.61-6.15.81.18 1.45.56 2.17.84 1.65-.36 2.59.14 4.17-.14.8-1.01 2.62-1.18 2.32-3.1-1.67-.74-2.91.72-4.35.94Zm5.16 4.74c-1.95-.33-3.91-.65-5.85-1.01-2.47-.12-3.32 1.07-4.8 1.77-1.68 2.35-3.74 4.39-4.51 7.49-.48 2.87-2.07 6.82-.35 9.97 1.74-.22 2-2.08 2.84-3.15.51-.65 1.25-1.05 1.69-1.47.2-.19.25-.62.44-.83.59-.62 1.55-1.32 1.92-1.75.18-.21.27-.11.5-.31.36-.32.6-.86.94-1.14.21-.17.57-.2.75-.33 1.17-.85 2.26-1.96 3.69-2.45 2.35-.13 4.22-.65 6.17-1.11.65-.4.14-1.4.37-1.6.39-.55 1.25-.72.86-1.91-.87-1.55-3.35-1.15-4.65-2.17Zm37.18 5.86c-1.61 3.53-2.95 7.27-4.17 11.12-.49.39-.79.94-.89 1.65-1.08 1.25-2.41 2.3-3.31 3.72-2.65 1.95-5.26 3.93-8.93 5.04-4.96.85-9.19-.55-13.32.23-.24.91-.26 2.01-.5 2.93 3.26 1.35 6.83 2.33 10.04 3.74 3.84.75 6.83 2.52 11.23 2.59l4.67-.45c.01-.39.6-.3 1.01-.36 1.53-1.2 3.1-2.37 4.63-3.58 1.47-3.21 3.43-7.39 3.34-11.57-.03-1.38-.48-2.67-.66-4.12-.25-2.06-.43-4.52-.36-6.5.08-2.04 1.21-3.79 0-5.49-.61.07-.81-.37-1.58-.11-.59.23-.61.93-1.2 1.16Zm-39.65 3.8c-.68.47-1.36.94-2.23 1.26-.58.63-1.01 1.39-1.92 1.75-.45 1.54-2.66 2.89-1.63 4.86 1.15-1.52 2.05-3.24 3.49-4.52.94-1.29 3.18-1.51 3.61-3.22-.32-.19-.73-.28-1.32-.14Zm26.42.08c-1.27 2.29-1.2 5.69-4.07 6.67-1.44-.47-1.69-2.39-3.85-1.98-.33 1.19 1.1 1.73.48 2.31l-4.4.42c-.39.06-1.15.58-1.22.9-.19.83.53 1.01.69 1.76 2.79-1.63 6.88-1.31 10.27-2.03 1.83-1.51 2.58-3.92 3.32-6.33.68-1.19 2.52-1.42 2.29-3.36-1.83 0-2 1.37-3.5 1.64Zm25.45 3.58c-.78 2.85-.8 5.87-1.25 8.75-.47 2.97-1.32 5.8-1.51 8.77 1.81-1.05 2.3-3.19 2.9-5.25 1.9-3.24 1.51-8.2.34-12.85-.08-.2-.25-.28-.54-.21.02.26.05.52.07.78Zm-62.22 11.19c.07-.34.28-.56.73-.59-.43-1.4-1.68-1.83-2.37-2.91-.26.02-.52.05-.78.07.27 1.79 1.3 2.67 2.42 3.43Z" style="fill:#ef7d00"/>
    <path d="M131.81 112.01c.65 2.39 2.5 3.33 4.1 4.58 2.66.35 4.87 1.23 7.48 1.64 1.41-.19 3.13-.12 4.12-.66 3.15.59 8.25-.22 11.69-.86-1.84 1.18-4.3 1.86-6.26 2.95-2.43-.33-5.76.43-8.58.56-4.2-.6-7.77-1.96-11.31-3.36-2.6-2.25-4.91-4.85-7.25-7.41 1.32-9.77-.47-23.48-3.65-32.6 1.64 0 2.72-.46 4.12-.66 2.51-.79 4.64-1.9 7.06-2.77 3.39-1.98 5.58-4.94 7.6-8.05.17-1.11-.04-1.15-.22-2.33.43-.39.66-1.58.06-2.1-.61-.95-2.29-.63-3.42-.2-1.66-.02-2.46.68-4.12.66-2.62 1.33-5.65 2.34-7.71 4.14-1.34.64-2.23 1.66-3.71 2.19-.57.91-3.65 1.82-3.68-.17-.75-.79 1.06-1.07 1.69-1.47.68-.55 1.22-1.22 2.21-1.52.98-1.42 3.3-1.73 4.7-2.8 1.99-.47 3.88-1.25 5.84-1.87.98-.31 2.18-.45 3.06-.82.96-.4 1.46-1.26 2.49-1.29 1-1.48 2.18-2.82 1.84-5.41-.6-.62-.44-2.17-1.75-1.93-1.71-.47-1.62 2.44-2.27 3.62-1.94 1.51-4.3 2.66-6.42 4.01-5.18 1.22-9.14 3.43-13.34 5.46-1.63-3.81-3.41-7.44-5.24-11.01-.39-3.48-1.32-6.3-1.49-10.06 5.92 1.4 13.16 1.21 19.79 1.76 6.11-.63 11.77-1.11 18.12-2 2.78-.39 5.55-1.11 8.22-1.57 5.3-.91 10.81-1.75 16.18-3.12 2.54-.65 4.83-1.82 7.39-2.02.3 3.49.73 6.83 1.46 9.8-.08 2.42 1.1 3.3 1.3 5.37.87-.24-.04-1.94.55-2.41-.1-4.99-1.85-9.52-2.07-13.4.84-.34.88.28.87.96.03.64.08 1.25.41 1.53.02 1.24.29 2.16.56 3.09 1.1 8.61 1.07 17.14 1.37 25.24.19 5.24.76 10.25.14 15.15-.9 4.27-1.27 8.98-2.7 12.81-1.36 3.9-3.35 7.26-5.25 10.7-1.06.64-1.86 1.49-2.65 2.35-1.06.56-1.76 1.42-2.68 2.09-5.76 2.25-10.01 5.74-16.28 7.57-5.42.78-9.58.05-14.14-.21-1.11-.68-2.5-1.02-3.57-1.75-1.16-.24-2.14-2.22-3.28-1.52.53 1.3-.82-.86-1.4-.91Zm41.83-54.75c-3.47-.62-6.66-1.57-10.15-2.17-3.99-.08-6.78-1.62-9.7-2.99-.65-1.48-1.2-3.79-3.15-2.84-.52.68-.79 1.58-.79 2.69.29 2.06 1.42 3.11 2.49 4.21 3.33 1.47 7.39 1.16 11.16 1.81 3.72.64 6.92 2.07 9.75 3.51 1.57.02 2.73.54 4.48.36 1.01-.52 2.77-.42 2.42-2.06-1.79-1.29-4.77-1.16-6.52-2.51Zm3 6.77c-1.55-.19-3.1-.56-4.74-.33-.08-.2-.25-.28-.54-.21-4.16-1.71-8.31-3.43-12.99-4.51-2.44.26-4.45 0-6.79.13-.51.05-.26.74-.99.62-.1.59-.47 1.99.46 2.05.14 1.31-.19 1.51.25 2.59 2.48 2.69 5.3 4.96 8.73 6.49 4.3.57 7.87 2.03 13.44 1.07.01-.31.38-.32.75-.33 1.59-1.15 2.9-2.54 4.06-4.05 1.32-.42 2.64-.84 2.37-2.58-.97-.95-2.64-.76-4.01-.92Zm-42.63 10.88c-.93.67-2.02 1.2-2.96 1.85-.98.68-2.65.99-2.94 2.11.87.59 1.84-.25 2.85-.27 1.02-1.31 3.51-1.4 3.59-3.48-.08-.2-.25-.28-.54-.21Zm27.98-.06c-.31.14-.5.38-.44.83 3.08 1 6.47 1.61 10.82 1.06.15-.59 1.19-.45 1.2-1.16-.2-.43-1.23.14-1.35-.39-2.05.37-3.59.11-5.47.26-1.95-.82-4.37-1.07-6.21-2.02-.3.07-.74.03-.75.33.62.5 1.6.57 2.2 1.1Zm-20.7 13.23c-1.72.09-3.1.47-3.22 1.88 1.27.2 2.79.09 4.2.12 1.99.74 4.29 1.94 6.96 1.69 1.25-.12 2.94-.74 4.07-1.18 1.36-.53 2.52-1.3 3.48-1.9.93-.03 1.54-.32 1.74-.95-.48-.19-.86-.5-1.14-.94-2.87.33-4.03 2.08-6.25 2.95-.9-.16-1.93-.16-2.9-.25-.58-.36-.6-1.4-1.21-1.71-.35.43-.36 1.14-.91 1.39-1.26-.79-3.41-.49-4.81-1.11Zm21.25 11.56c-1.06-.74-2.17-1.42-2.86-2.6-1.97-.88-3.87-1.86-6-2.56-1.17.26-1.66-.3-2.88.01-2.7.87-5.72.77-8.24 1.31-2.06.85-3.65 2.09-5.45 3.14-1.93 2.78-3.87 5.55-4.31 9.57.52-.19 2.35.96 2.85-.27 1.09-.53 1.9-1.29 2.96-1.85 4.75-2.24 12.12-3.89 17.78-2.75 2.82 1.4 5.22 3.32 8.04 4.72.88-.7 2.25-1 2.39-2.32-1-2.64-3.12-3.93-4.27-6.39Zm-8.45 7.35c-1.08-.04-2.07-.18-3.16-.22-1.26-.08-1.63.57-2.83.53-1.4.84-3.57 1.03-3.92 2.73 3.56-.98 8.81-1.48 11.66-1.12.45-.9-1.2-1.32-1.75-1.92Z" style="fill:#4991ce"/>
    <path d="M99.5 64.11c.58 1.04-.39 2.85-.66 3.99-.33-.84.61-2.67.66-3.99ZM103.98 64.46c.51-.67-.08.54.1 1.04-.43.28-.39.95-.65 1.37-.64-.54.49-1.65.55-2.41ZM175.16 67.58c-.64.74-1.75 1.1-2.73 1.57.64-.74 1.75-1.1 2.73-1.57ZM127.52 72.67c0-.67.48.31 1.04-.1.02.65-.87.16-1.04.1ZM165.62 69.02c.3-.8.26.58-.49.31-.49-.16.13-.29.49-.31ZM67.61 83.38c.39.26-.13 1.79-.29 2.38-.17.81.24 2.11-.84 2.17.41-1.49.83-2.98 1.13-4.55ZM70.01 83.93c.67 0-.31.48.1 1.04-.65.02-.16-.87-.1-1.04ZM159.03 101.3c-.22-.19-.62-.24-.83-.44-.54-.53.67-.38.83.44ZM79.36 110.5c.38.08 1.82 1.1 1.11.68-.51-.06-1.12.01-1.11-.68ZM83.09 111.19c-.78-.72.85.63 0 0ZM99.13 109.39c.86-.28.52.91 1.14.94-.12.49-1.13-.34-1.14-.94ZM96.61 110.42c1.29-.02 1.27 1.55 2.27 1.87-.12.58-.91-.41-1.11-.68-.73-.02-1.6-.63-1.16-1.2ZM107.46 111.73c.72.24-.61.74-.68 1.11-1.11-.56.55-.79.68-1.11Z" style="fill:#fff"/>
</svg>
