<svg xmlns="http://www.w3.org/2000/svg" viewBox="0 0 56.15 41.35">
    <path d="M9.91 29.95c.94.49 1.49 1.11 2.62 1.65 6.55 3.13 14.89.52 18.16-4.76.53-.85.96-2.15 1.56-2.93-.11 7.2-7.35 15.32-16.88 10.89-2.27-1.06-4.42-2.99-5.46-4.85Zm-4.55-6.46c.6-2.38 2.62-4.17 5.09-4.83 2.88-.77 5.88.53 6.65 2.47-5.11.12-7.58.63-11.74 2.36Zm16.03-3.66c.78-7.21 10.14-6.19 11.26-3.62-2.24.21-4.16.67-6.14 1.35-2.06.72-4.72 2.19-5.12 2.27ZM.02 10.06c.24 1.87 1.55 5.67 2.11 7.83 1.25 4.79 2.34 11.05 5.06 14.89 2.8 3.95 6.58 7.1 11.54 8.17 3.54.76 5.74.47 8.43-1.15 3.76-2.26 6.75-6.27 7.86-11.87 1.34-6.77-.76-10.64-2.28-16.76-.65-2.62-1.45-5.28-2.11-7.86-.41-1.59-.44-2.53-2.56-2.32-1.2.12-2.58 1.09-3.26 1.66-1.85 1.55-3.15 3.06-4.89 5.09-3.01 3.51-2.56 4.21-5.63 3.08-2.46-.91-4.83-1.89-7.45-2.52-2.17-.53-7.2-1.16-6.82 1.76Z"/>
    <path d="M52.87 17.07c-3.77-1.01-4.95-1.46-9.34-1.34 1.68-3.96 8.09-2.59 9.34 1.34Zm-18.94-6.39c3.26.24 5.64 1.06 5.96 4.3-1.66-.73-3.28-1.72-5.26-1.85l2.11 8c3.21-.41 3.57-1.01 6.3.86 1.27.87 2.95 2.81 3.07 5.24-1.31-1.81-1.31-2.41-3.37-3.54-1.68-.92-3.73-1.21-5.87-1.06-.1 1.49-.12 2.77-.35 4.28-.2 1.35-.77 2.92-.82 4.05 2.8 1.85 6.7 1.17 9.52-.25 2.8-1.42 4.75-3.66 6.27-6.02 1.83-2.84 2.09-5.76 2.85-9.41.34-1.64 2.26-9.13 1.73-9.99-1.42-2.33-7.65.49-9.48 1.29-4.79 2.11-3.25 1.46-7.42-2.5-1.13-1.07-1.73-1.9-3.14-2.89-.78-.55-3.75-2.16-4.38-.24-.33 1.01 1.9 8.15 2.27 9.76Z"/>
</svg>
