<svg xmlns="http://www.w3.org/2000/svg" viewBox="0 0 198.46 244.71">
    <path d="M17.64 240.63q-2.24-.09-4.81-1.34c.3-.55.6-1.09.9-1.65-1.19-.78-1.86-.31-2.4.76-3.05-.59-5.11-2.08-6.38-5.18-1.27-3.1-1.27-5.99-.49-9.09 2.29-9.17 5.97-17.72 11.15-25.62 1.39-2.12 2.88-4.17 4.26-6.3 1.43-2.2 2.82-4.4 3.39-7.05.26-1.19.84-2.36 2.3-2.8.65-.19 1.17-.84 1.84-1.35-.64 2.41-1.2 4.64-1.83 6.85-.34 1.19-.06 2.32.14 3.47.05.27.2.71.37.75 1.45.31 1.46 1.67 1.96 2.64 1.3 2.57 3.35 3.68 6.23 3.13 2.23-.42 4.26-1.37 6.1-2.69 4.15-2.99 7.59-6.7 10.88-10.57.75-.89 1.51-1.8 2.41-2.53 6.48-5.29 11.82-11.6 16.61-18.39 3.54-5.03 6.71-10.29 9.51-15.77 1.92-3.75 3.42-7.65 4.63-11.67.51-1.68 1.04-3.35 1.6-5.01.11-.32.37-.58.74-1.14.3.58.56.87.61 1.2.87 5.59 1.72 11.18 2.54 16.78.1.66.05 1.35 0 2.02-.15 1.93-.84 3.79-.71 5.77.05.7-.19 1.58-1.28 1.64-.25.01-.59.22-.69.43-1.2 2.52-3.29 4.66-3.32 7.64-1.56 1.42-2.83 2.95-3.83 4.79-1.02 1.88-2.3 3.6-2.83 5.72-.09.35-.35.82-.64.92-2.31.82-2.52 3.25-3.78 4.86-.51.65-.55 1.6-1.69 1.75-.4.06-.71.76-1.42 1.58.16-1.15.21-1.8.35-2.42.32-1.42.75-2.83 1.02-4.26.08-.4-.15-.93-.41-1.28-.22-.3-.99.2-1.25.89-.68 1.83-1.32 3.67-1.97 5.5-.42 1.19-.84 2.38-1.22 3.59-.35 1.11-.71 2.23-.93 3.37-.45 2.29-.78 4.56-2.01 6.66-.82 1.4-1.14 3.09-1.7 4.65-.23.64-.51 1.26-.87 2.13-.33-.35-.51-.63-.78-.81-.51-.34-1.1-.21-1.19.27-.49 2.74-1.91 5.09-2.99 7.59-.23.53-.4 1.11-.47 1.68-.12 1.01-.54 1.85-1.11 2.66-.33.47-.66 1-.79 1.55-.61 2.48-2.35 4.2-3.79 6.13-.74-.45-.37-.89-.26-1.32.23-.92.96-1.72.61-2.92-.35.06-.85 0-1 .19-.4.54-.67 1.17-.94 1.79-1.46 3.3-2.89 6.61-4.36 9.9-.23.52-.57 1.05-.99 1.43-2.18 1.96-4.54 3.68-7.2 4.95-.15.07-.38-.01-.57-.02-.38-.48-.12-.9.11-1.33.4-.77.84-1.54 1.18-2.33.09-.2-.03-.61-.19-.75-.18-.15-.56-.2-.79-.13-.5.16-.96.43-1.46.66-.09-.28-.16-.39-.13-.44.23-.41.4-.9.73-1.18.83-.69 1.13-1.58 1.17-2.58.01-.26-.36-.53-.56-.8-.93.98-1.75 1.78-2.5 2.64-.85 1-1.49 2.23-.92 3.48.38.84.93 1.6 1.17 2.54.13.49.65.72 1.19.59.37-.09.71-.3 1.06-.45-2.07 2.04-4.58 3.21-7.42 3.72-2.99.53-5.98.85-8.99.3-.35-.07-.68-.29-1.03-.44 1.15-.07 1.82-.67 1.85-1.83.02-.75-.13-1.49-.22-2.42-1.03.17-1.9.09-2.55.87-.36 1.35.14 2.45 1.02 3.44Zm24.54-18.85c-.44.34-.75.46-.85.67-1.41 2.86-2.8 5.73-4.15 8.62-.19.41-.2.95-.14 1.4.08.63.56 1.09 1.17 1.08.41 0 .94-.29 1.19-.62.33-.44.48-1.04.64-1.59.46-1.57.89-3.15 1.32-4.73.33-1.21.69-2.42.97-3.64.07-.3-.09-.66-.17-1.19Zm-14.77 15.78c-.13-.11-.26-.23-.4-.34.68-1.47 1.37-2.94 2.01-4.42.09-.22.03-.71-.1-.77-.31-.14-.7-.11-1.06-.12-.07 0-.15.1-.23.17-1.45 1.36-2.05 3.23-2.89 4.94-.3.6.21 1.66.79 1.58 1.18-.17 1.47 1.15 2.62 1.27.37-.49.86-.95 1.12-1.52.29-.64-.38-1.27-1.14-1.13-.25.05-.48.23-.72.35ZM179.87 234.38c-2.22 1.55-4.13.24-6-.64-.49-.23-.66-1.14-.97-1.74-.49-.95-.93-1.92-1.49-2.82-.15-.24-.7-.4-.99-.32-.6.17-.53.72-.37 1.2.31.89 1.09 1.65.71 2.91-.3-.03-.7.04-.97-.11-.76-.42-1.46-.94-2.08-1.34-.1-.92-.15-1.6-.24-2.27-.05-.38-.08-.83-.28-1.13-.84-1.24-1.75-2.44-2.74-3.8-1.55 2.19.95 3.39.98 5.25-1.86-.73-3.22-1.62-3.81-3.43-.75-2.31-1.55-4.61-2.36-6.91-.21-.61-.52-1.18-.78-1.78-.89.43-.66 1.05-.65 1.62.01.55 0 1.1-.01 1.75-1.37-.58-1.86-1.63-2.42-2.66-.74-1.36-1.59-2.67-2.38-4.01-.49-.83-1.01-1.66-1.45-2.52-.96-1.92-1.78-3.89-3.24-5.53-.42-.48-.61-1.19-.83-1.83-.47-1.38-.83-2.79-1.32-4.16-2.03-5.69-4.09-11.37-6.15-17.05-1.13-3.11-2.3-6.21-3.45-9.32-.2-.55-.54-1.08-.59-1.64-.33-3.47-2.28-6.41-3.09-9.72-.15-.63-.54-1.21-.95-2.11-.33.53-.66.81-.67 1.1-.06 1.8-.06 3.61-.08 5.68-.22-.6-.31-.97-.48-1.31-2.69-5.02-4.26-10.46-5.9-15.87-.37-1.21-.65-2.45-.86-3.7-.84-5.1-1.63-10.21-2.45-15.31-.4-2.46-.27-4.83 1.05-7.05.38-.64.52-1.41.89-2.47.41.56.71.8.78 1.09.21.95.32 1.92.49 2.88.76 4.42 1.52 8.84 2.29 13.26.3 1.73.82 3.39 1.49 5.03l1.6-.03c.26.47.57.97.81 1.49 1.43 3.2 2.84 6.41 4.26 9.61.16.35.34.71.59 1 1.65 1.97 2.67 4.28 3.68 6.61.46 1.06 1.08 2.06 1.52 3.13.9 2.16 1.82 4.31 2.55 6.52.83 2.51 1.7 4.98 3.17 7.19.27.4.5.84.69 1.29 2.28 5.39 5.98 9.79 9.98 13.94 1 1.04 2.23 1.93 3.5 2.6 1.64.87 3.28 1.72 4.73 2.88 1.15.93 2.42 1.19 3.84.85.66-.16 1.37-.2 2-.44 1.85-.72 3.49-1.64 4.07-3.8.32-1.2 1.1-2.28 1.46-3.48.72-2.43 1.28-4.91.15-7.39-.96-2.13-1.95-4.25-2.23-6.62-.07-.55-.47-1.06-.71-1.59-.31-.71-.75-1.41-.88-2.16-.29-1.65-.77-3.22-1.58-4.68-.09-.17-.13-.37-.17-.56-.1-.48-.2-1 .3-1.3.59-.35 1.13-.1 1.54.38.44.52.96 1.01 1.24 1.62 1.24 2.63 2.91 5.07 3.67 7.94.14.52.42 1.13.84 1.43 1.12.83 1.61 2.01 1.75 3.26.23 1.99 1.03 3.76 1.86 5.51 1.25 2.64 2.76 5.15 4.01 7.79 1.5 3.17 2.88 6.39 4.24 9.62.34.79.46 1.69.59 2.56.44 3.09.83 6.19 1.27 9.27.3 2.09.25 4.09-1.18 5.82-.12.15-.21.34-.26.52-.77 3.11-3.06 5.13-5.23 7.21-.59.57-1.1 1.05-.93 1.97.12.68-.41 1.05-.96 1.29-.82.35-1.65.56-2.54.18-.62-.27-1.27-.47-1.88-.68Z" style="fill:#f5acb4"/>
    <path d="M92.97 8.5c-.4 1.74-.33 3.48-.05 5.22.32 2.02.61 4.05.89 6.07.08.57.17 1.17.08 1.73-.57 3.39-.48 6.8-.14 10.18.32 3.23.04 6.43-.11 9.63-.08 1.77-.03 3.5.3 5.23.38 2.02.43 4.05.49 6.1.15 5.26.49 10.51.66 15.77.1 3.12.24 6.23 1 9.2-.74 1.51-1.42 2.92-2.13 4.37-3.2-2.5-5.75-6.5-6.36-10.02-.65-3.75-1.33-7.49-1.77-11.27-.37-3.19-.44-6.39.06-9.61 1.2-7.6 2.25-15.22 3.38-22.83.26-1.73.63-3.45.9-5.18.2-1.25.35-2.51.44-3.77.19-2.52.33-5.05.46-7.58.06-1.11.4-2.11 1.12-2.94.15-.18.49-.19.75-.28l.02-.02Z" style="fill:#ef7a78"/>
    <path d="M141.95 63.11c-2.77-3.2-5.68-6.11-8.02-9.41-1.91-2.69-3.93-5.29-5.92-7.91-1.16-1.52-2.49-3.04-2.08-5.22-.53-1.04-.94-2.16-1.61-3.1-2.27-3.17-4.8-6.15-7.78-8.67-1.37-1.16-2.48-2.45-3.32-4-.42-.77-.79-1.56-1.25-2.31-.45-.75-.84-1.62-1.49-2.15-2.95-2.4-4.31-5.95-6.58-8.84-.88-1.11-1.76-2.35-1.7-4.01.32.04.64 0 .83.12 2.82 1.93 5.55 3.96 7.97 6.38.75.75 1.37 1.64 2.05 2.46 1.56 1.87 3.04 3.8 4.69 5.58 3.52 3.79 6.67 7.87 9.67 12.07.28.39.68.81.73 1.25.24 1.92 1.47 3.37 2.25 5.02.08.18.15.37.26.52 1.51 2.14 2.94 4.34 4.56 6.39.98 1.23 1.84 2.5 2.51 3.91 1.29 2.73 2.61 5.43 3.94 8.14.56 1.14 1.07 2.26.29 3.77Z" style="fill:#ed6966"/>
    <path d="M130.38 122.46c-.63.21-1.26.41-1.95.63-.65-.94-.68-1.92-.86-2.85-.18-.96-.31-1.92-.47-2.89-.2-1.24-.15-2.52-.93-3.64-.31-.45-.34-1.11-.43-1.68a271.5 271.5 0 0 1-.95-6.37c-.09-.67-.23-1.4-.06-2.03.86-3.14.11-6.22-.31-9.28-.61-4.34-1.46-8.65-2.26-12.96-.37-2.01-.82-4.01-1.34-5.99-1.02-3.86-1.83-7.77-2.53-12.05.78.37 1.29.62 1.76.84.77-.63.5-1.29.3-1.94-2.04-6.61-4.42-13.09-7.15-19.44-.22-.5-.28-1.07-.54-2.14 1.56 1.43 2.32 2.76 3.06 4.11 1.04 1.87 2.15 3.71 3.07 5.64 1 2.11 1.98 4.25 2.67 6.47.81 2.6 1.46 5.27 1.88 7.96 2.12 13.78 4.13 27.59 6.17 41.38.13.86.26 1.76.16 2.6-.13 1.02.04 1.87.48 2.79.6 1.24.86 2.62.39 3.98-.6 1.73-.51 3.44-.24 5.19.09.57.02 1.15.02 1.73l.06-.07ZM142.65 65.01c.09 1.07.16 1.94.22 2.68-.44.8-1.34.43-1.83 1.31-.69 1.25-1.47 1.2-2.71.44-1.49-.92-2.86-1.95-3.97-3.38-1.73-2.23-3.68-4.28-5.51-6.43-2.71-3.19-5.24-6.52-7.07-10.31-.16-.33-.36-.79-.65-.89-1.46-.51-1.98-1.8-2.66-2.96-.98-1.68-1.95-3.37-2.85-5.1-1.08-2.07-2.05-4.18-3.81-5.82-.55-.51-.92-1.26-1.22-1.97-1.04-2.41-2.52-4.59-3.4-7.09-.51-1.44-1.52-2.71-2.32-4.05-1.04-1.76-1.23-3.61-.68-5.87.49.68.85 1.12 1.15 1.59 2.57 4.13 5.11 8.28 7.7 12.41 1.34 2.13 2.81 4.17 4.06 6.37.96 1.67 2.25 3.18 3.55 4.61 1.84 2.03 3.52 4.15 4.85 6.55.28.51.56 1.04.96 1.46 3.32 3.44 6.08 7.29 8.53 11.38 1.56 1.25 2.4 3.18 4.18 4.25 1.32.79 1.25.9 3.46.84ZM82.42 112.23c-1.04-.65-1.77-1.1-2.55-1.58.15-.78.22-1.45.41-2.09.35-1.17.43-2.36-.19-3.41-.51-.87-.34-1.7-.21-2.54.55-3.75.94-7.54 1.76-11.23.54-2.46.65-4.95 1.14-7.4.47-2.37.38-4.84.57-7.27.07-.96.23-1.91.35-2.95 1.41 2.61 2.75 5.07 4.18 7.71-.44 2.83-.91 5.89-1.39 8.96-.01.1-.03.2-.07.28-1.17 2.92-1.42 6.05-2.07 9.08-.5 2.3-.88 4.59-.88 6.93 0 1.77-.42 3.44-1.06 5.5Z" style="fill:#ef7a78"/>
    <path d="M89.82 82.72c1.31.86 2.27 1.48 3.37 2.2-1.12 3.68-.98 7.52-2.29 11.14-.96 2.65-1.46 5.45-1.41 8.32.02.97-.11 1.95-.32 2.9-1 4.52-.6 9.12-.74 13.69-.03.86.25 1.73.39 2.59.14.86.34 1.72.42 2.59.06.6-.11 1.17-.81 1.36-.62.18-1.2.03-1.58-.45-.29-.36-.55-.84-.62-1.29-.37-2.5-.68-5.01-.1-7.51.29-1.24.59-2.45.28-3.74-.12-.55 0-1.16.04-1.74.17-2.62.34-5.25.54-7.87.07-.97.23-1.93.37-2.89.28-1.93.58-3.85.88-5.77.07-.48.07-.99.22-1.44 1.07-3.1 1.11-6.31 1.11-9.54 0-.67.12-1.34.24-2.55ZM128.5 79.57c.08.03.2.05.22.1.52 1.57 1.02 3.14 1.53 4.71.48 1.48.81 3.05 1.5 4.43 1.94 3.85 3.31 7.91 4.49 12.04 1.08 3.78 2.79 7.27 4.46 10.79.37.78.78 1.55 1.18 2.35-.69.38-.91-.16-1.19-.45-.87-.92-1.81-1.8-2.56-2.81-.98-1.32-2.17-2.22-3.79-2.52-.37-.07-.72-.25-1.02-.36-.85-2.55-4.69-25.05-4.83-28.27Z" style="fill:#ee7573"/>
    <path d="M99.46 54.73c.17.63.35 1.24.5 1.86.21.95.38 1.91.6 2.86.23.98.53 1.93 1.91 1.89-.07 1.21-.16 2.17-.18 3.14-.03 1.55 0 3.1-.02 4.65 0 .58.05 1.22-.18 1.71-.89 1.91-1.89 3.78-3.2 5.52-.86-1.41-1.27-2.79-.98-4.43.28-1.57.06-3.09-.05-4.64-.31-4.2-.05-8.35 1.19-12.41.02-.06.17-.07.42-.16ZM96.42 21.29c1.66 1.56 2.16 3.01 2.38 4.55 1.26 9.07 2.5 18.15 3.72 27.23.15 1.14.15 2.29.23 3.53-.96-.35-.78-1.07-.87-1.62-.96-5.87-1.9-11.74-2.82-17.61-.27-1.74-.68-3.42-1.41-5.04-.47-1.05-.66-2.22-.95-3.34-.16-.65-.22-1.32-.4-1.96-.48-1.73-.2-3.42.12-5.73Z" style="fill:#ed6966"/>
    <path d="M94.65 3.75c.77-.18 1.3.15 1.67.8 1.08 1.88 1.88 3.89 1.78 6.07-.07 1.58.11 3.07.43 4.58.16.75.14 1.54.2 2.28-.85.6-1.39.09-1.7-.51-1.02-1.99-1.85-4.05-2-6.34-.14-2.13-.38-4.24-.56-6.37-.01-.16.11-.33.18-.52Z" style="fill:#ef7a78"/>
    <path d="M71.76 115.98c-5.61 7.69-11.16 15.42-16.73 23.14-.54-.45-.35-.91-.06-1.31 1.37-1.89 2.77-3.76 4.13-5.66 1.13-1.58 2.21-3.2 3.34-4.78 2.08-2.94 4.16-5.88 6.28-8.79.79-1.09 1.75-2.02 3.05-2.6Z" style="fill:#f5acb4"/>
    <path d="M130.32 122.53c.28.22.75.4.81.67.48 2.17.8 4.36 1.11 7.07-.7-.68-1.05-1.02-1.51-1.47-.44.27-.88.54-1.47.9-.13-.55-.25-1-.33-1.46-.13-.76-.24-1.52-.38-2.35 1.25.27 1.47.19 1.56-.54.11-.96.18-1.93.26-2.9l-.06.06ZM82.46 123.26c.77 2.68.61 4.7-.44 7.45-1.01-2.67.12-5.02.44-7.45Z" style="fill:#d18e92"/>
    <path d="M100.42 10.74c-.69-1-.59-2-.85-2.89-.26-.92-.55-1.83-.85-2.79.93-.34 1.32.22 1.75.76.02.83.07 1.69.06 2.55 0 .69.6 1.4-.12 2.36Z" style="fill:#ef7a78"/>
    <path d="M98.01 49.42c.21 1.38-.24 2.57-1.17 4.35-.07-1.51-.16-2.34-.12-3.18.03-.83.61-1.12 1.38-1.12l-.08-.05Z" style="fill:#ed6966"/>
    <path d="M150.82 166.37c-.38.34-.75.52-.74.7.01.87.11 1.74.2 2.61.32 3.01.66 6.01.98 9.02.03.26-.07.53-.16 1.08-1.36-1.19-1.86-2.66-2.62-4.14.63-.95 1.02-1.99.18-3.14-.33-.44-.41-1.08-.55-1.64-.55-2.27-1.11-4.54-1.63-6.82-.69-3.04-1.39-6.08-1.99-9.14-.34-1.74-.85-3.39-1.64-4.98-.6-1.22-1.14-2.48-1.68-3.73-.26-.61-.61-1.13-1.38-2.13.48 2.64.71 4.67 1.6 6.56.2.43.34.91.4 1.38.45 3.38.88 6.77 1.3 10.16.02.18-.05.38-.07.57-.65.18-.86-.26-.96-.75-.52-2.68-1-5.37-1.53-8.05-.31-1.53-.65-3.05-1.05-4.56-.08-.29-.51-.67-.77-.66-.26 0-.51.44-.88.8-.31-.31-.29-.88-.34-1.36-.48-4.65-1.44-9.24-1.28-13.97.07-2.11-.52-4.25-.86-6.37-.47-2.89-.88-5.77-.9-8.72-.01-2.13-.31-4.26-.48-6.34.85-.81 1.65-.85 2.34-.03 1.75 2.08 3.69 3.97 5.19 6.31 1.46 2.29 3.06 4.47 4.26 6.92.46.95 1.2 1.77 1.86 2.62 1.44 1.86 2.7 3.81 3.51 6.04.23.63.53 1.28.96 1.79 1.4 1.65 2.48 3.48 3.3 5.48.21.5.67.93 1.1 1.29 1.29 1.09 2.19 2.43 2.88 3.97 1.56 3.46 3.23 6.86 4.85 10.29.08.18.2.34.24.53.88 3.43 3.08 6.27 4.25 9.56 1.01 2.83 2.4 5.55 2.7 8.61.02.19.03.4.11.57 1.43 2.96 1.53 6.22 2.1 9.38.16.86.41 1.7.66 2.72-.26.86-.69 1.79-1.62 2.71-1.21-2.27-.82-4.91-2.35-7.36-.35.81-.67 1.21-.65 1.58.06 1.36.2 2.72.37 4.08.14 1.16.36 2.3.56 3.55-1.83-.61-2.04-.75-2.36-2.2-.49-2.19-.92-4.39-1.35-6.6-.3-1.53-.78-2.99-1.63-4.67-.33.55-.65.84-.65 1.13.01 1.65.03 3.31.18 4.96.18 2.04.51 4.07.74 6.1.06.55.28 1.16-.25 1.63-.83.31-.86-.59-1.3-.83-.47-.26-1.06-.31-1.77-.5-.51-2.48-1.05-5.05-1.57-7.62-.67-3.35-1.33-6.7-2.01-10.05-.11-.55-.15-1.2-1.13-1.3-.02.65-.13 1.3-.06 1.93.41 3.78.88 7.56 1.28 11.34.08.73.46 1.53-.21 2.25-.95-.4-1.55-1.15-1.96-2.04-.37-.8-.72-1.52-1.5-2.08-.45-.32-.63-1.14-.76-1.77-.98-4.78-1.91-9.57-2.88-14.35-.15-.74-.39-1.46-.63-2.35ZM39.55 183.78c-1.73 1.03-1.91 3.18-3.44 4.46-.46-1.19.51-2.15.3-3.18-.32-.4-.72-.34-.91.05-1.22 2.53-2.4 5.08-3.57 7.63-.3.66-.7 1.16-1.63 1.25-1.15-1.83-1.58-3.9-1.27-6.05.19-1.33.71-2.62 1.11-3.91.12-.37.48-.71.47-1.06-.08-1.92 1.16-3.23 2.05-4.71 1.91-3.18 3.8-6.36 5.74-9.52.61-.99 1.33-1.91 2-2.86.17-.24.44-.44.51-.7.64-2.52 2.5-4.39 3.56-6.68.37-.79.9-1.5 1.36-2.24 2.16-3.46 4.39-6.86 7.15-9.91 1.48-1.64 2.49-3.71 3.71-5.59.9-1.39 1.74-2.82 2.7-4.17 3.69-5.15 7.43-10.27 11.12-15.42 1.03-1.43 2.05-2.84 3.53-3.86.47-.32.82-.8 1.25-1.24-.23-.6-.42-1.11-.6-1.6.19-.18.3-.39.45-.42 1.15-.19 2.3-.46 3.45-.49 1.5-.04 2.34.9 2.26 2.39-.05.97-.19 1.94-.32 2.9-.04.26-.2.5-.38.93-.89-.52-1.68-1.04-2.52-1.46-.67-.34-1.33-.31-1.66.54.07.19.09.48.2.52 1.82.64 2.33 2.02 2.58 3.82.36 2.64.55 5.21-.15 7.82-.23.84-.33 1.73-.33 2.6-.01 1.31.72 1.73 2.15 1.34.17-.05.35-.09.73-.18-.01 1.09-.37 2-.83 3.01-.47-.4-.83-.7-1.31-1.11-3.06 3.46-4.15 7.91-6.31 11.74-.89-.14-.62-.77-.59-1.14.08-1.16.3-2.32.4-3.48.04-.44-.08-.9-.16-1.63-.52.4-.95.56-1.07.85-.31.81-.56 1.65-.71 2.51-.3 1.73-.58 3.46-.74 5.2-.15 1.62-.81 2.98-1.69 4.29-1.74 2.61-3.05 5.42-4.05 8.39-.24.72-.65 1.39-.98 2.08-.29.6-.72 1.18-.84 1.81-.27 1.48-1.37 2.16-2.72 3.34.07-.83 0-1.23.14-1.51 1.52-3.05 3.08-6.08 4.62-9.11.05-.09.13-.19.11-.26-.08-.34-.14-.73-.34-1-.07-.1-.62-.03-.76.13-.68.82-1.36 1.65-1.92 2.55-.51.82-.82 1.77-1.29 2.62-.65 1.19-1.44 2.31-2.05 3.52-.94 1.89-2.2 3.62-2.66 5.77-.44 2.02-1.75 3.71-3 5.27-1.64 2.04-3.61 3.81-5.39 5.65-.63-.26-.61-.61-.41-.97.53-.93 1.09-1.85 1.63-2.77.59-1.01 1.16-2.03 1.75-3.04.89-1.51 1.8-3.01 2.67-4.52 1.03-1.77 2.05-3.54 3.04-5.33.16-.3.13-.7.19-1.03-.32-.1-.52-.24-.67-.19-.26.09-.56.24-.7.45-1.91 2.94-3.79 5.9-5.69 8.84-.9 1.39-1.86 2.73-2.77 4.11-1.23 1.88-2.43 3.76-3.63 5.66-1.1 1.74-1.08 1.75.16 3.62-.41.23-.81.45-1.2.68-.36-.66-.55-1.54-1.01-1.7-.95-.35-1.24.66-1.63 1.3-.3.5-.55 1.03-.83 1.54-.23.41-.46.81-.7 1.23-.95-.55-.38-1.14-.18-1.54.78-1.57 1.68-3.07 2.5-4.62.22-.42.39-.9.46-1.37.03-.21-.25-.46-.47-.82Z" style="fill:#d18e92"/>
    <path d="M143.23 164.52c1.26.86 1.13 2.14 1.46 3.48q-1.57-1.74-1.46-3.48ZM138.36 156c-.43-.83-.77-1.48-1.1-2.1.16-.22.25-.45.37-.48.25-.05.67-.07.75.06.44.74.62 1.53-.03 2.51ZM67.25 160.79l.89-1.61c.64 1.14-.32 1.35-.89 1.61Z" style="fill:#d18e92"/>
    <path d="m127.65 74.22-.21-1.32c.05 0 .1-.02.15-.02.07.42.13.84.2 1.27-.05.02-.09.05-.15.07Z" style="fill:#ee7573"/>
    <path d="M102.81 13.38c.14.23.32.45.41.7.04.11-.12.28-.18.43-.15-.1-.37-.16-.43-.29-.1-.24-.1-.52-.14-.78l.34-.06Z" style="fill:#ef7a78"/>
    <path d="M98.09 49.47c0-.45-.02-.9-.02-1.44.5.57.6 1.01-.05 1.39l.08.05Z" style="fill:#ed6966"/>
    <path d="M164.18 233.81c-.21-.07-.43-.12-.63-.21-.04-.02-.04-.15-.05-.23.12.03.27.02.34.1.12.12.19.28.28.42l.06-.08Z" style="fill:#f5acb4"/>
    <path d="m92.96 8.53-.12-.5c.05.15.09.31.14.47l-.02.03Z" style="fill:#ef7a78"/>
    <path d="M197.36 215.76c-.06-.07-.07-.18-.08-.28-.22-1.77-.99-3.35-1.69-4.96-.26-.6-.53-1.38-.36-1.94.33-1.06 0-1.9-.35-2.81-1.65-4.17-3.5-8.25-5.78-12.13-.63-1.08-1.27-2.24-1.53-3.44a25.26 25.26 0 0 0-2.58-6.81c-2.63-4.78-5.06-9.66-7.92-14.32-2.6-4.24-4.92-8.64-7.5-12.89-1.62-2.66-3.38-5.26-5.32-7.68-.81-1.01-1.5-1.99-2-3.16-.81-1.88-1.67-3.73-2.62-5.83-1.83.67-2.38-.71-3.05-1.93-.89-1.62-1.8-3.24-2.67-4.87-.64-1.2-1.19-2.45-1.82-3.65-1-1.89-1.98-3.79-3.06-5.63-1.09-1.86-2.1-3.75-2.7-5.82-.6-2.08-1.53-4-2.53-5.9-2.23-4.23-4.21-8.57-5.54-13.19-1-3.47-2.42-6.78-3.83-10.1-1.98-4.65-3.93-9.34-4.84-14.38-.19-1.05-.61-2.05-.94-3.07-.42-1.29-.89-2.57-1.25-3.87-.21-.75-.36-1.44-1.08-1.97-.84-.63-.8-1.6-.54-2.97.53.62.89.93 1.12 1.32.95 1.66 2.37 2.82 3.89 3.9 2.06 1.47 4.07 3.01 6.13 4.48.62.45 1.32 1.06 2.01 1.09 1.72.08 3.42.18 5.02-.99 2.51-1.83 2.84-2.43 2.1-5.33-.33-1.31-.71-2.67-.73-4-.01-1.88-.32-3.7-1.05-5.38-1.33-3.03-2.84-5.98-4.32-8.94-.39-.78-.95-1.47-1.44-2.19-1.14-1.7-2.3-3.38-3.42-5.09-.95-1.47-1.8-3.01-2.78-4.45-1.64-2.42-3.26-4.84-5.03-7.15-2.48-3.25-5.1-6.4-7.65-9.6-1.34-1.67-2.73-3.31-3.98-5.05a27.803 27.803 0 0 0-3.67-4.14c-3.31-3.07-7.09-5.49-10.79-8.01-.55-.38-1.21-.72-1.86-.8-1.41-.19-2.54-.86-3.54-1.8-1.04.9-1.98 1.71-2.93 2.53-.06 1.18-.13 2.29-1.03 3.26-.85.91-1.43 2.08-2.09 3.15-.3.49-.63 1.02-.73 1.57-.41 2.3-.88 4.61-1.04 6.93-.16 2.36-.55 4.64-1.15 6.9-.25.94-.43 1.9-.59 2.86-1.18 7.21-2.27 14.44-3.54 21.64-.76 4.36-1.09 8.69-.5 13.09.13.95.06 1.95-.07 2.91-.27 2.02-.65 4.03-.98 6.04-.46 2.78-1.08 5.55-1.36 8.35-.32 3.19-.28 6.41-.96 9.58-.37 1.71-.5 3.46-.84 5.18-.74 3.72-1.53 7.44-2.34 11.15-.52 2.41-1.76 4.53-2.96 6.64-.27.47-.82.82-1.31 1.13-2.1 1.31-3.82 3.03-5.29 4.99-1.52 2.03-3.09 4.04-4.43 6.18-4.96 7.94-9.86 15.92-14.74 23.91-1.16 1.9-2.07 3.96-4.01 5.27-.31.21-.51.58-.78.87-2.83 3.11-5.43 6.39-7.87 9.81-5.1 7.15-10.24 14.26-15.28 21.45-1.16 1.66-2.19 3.5-2.85 5.41-.46 1.33-1.06 2.49-1.86 3.58-2.72 3.7-5.17 7.57-7.27 11.66A70.68 70.68 0 0 0 .3 225.65c-.81 4.42-.16 8.58 3.7 11.62.46.36.84.81 1.28 1.2 4.01 3.49 8.56 5.71 13.93 6.15 3.04.25 6.05.07 9.02-.52 1.43-.28 2.89-.64 4.17-1.28 4.01-2.02 7.9-4.24 11.42-7.07 1.53-1.23 2.86-2.63 3.98-4.25 1.94-2.81 4.04-5.51 5.92-8.36 3.17-4.8 6.34-9.61 8.48-15 1.04-2.63 2.06-5.27 3.13-7.88.21-.51.54-1.25.95-1.36 1.29-.35 1.61-1.32 1.86-2.38.92-3.93 3.1-7.11 5.87-9.95.61-.63 1.25-1.23 1.82-1.9 1.77-2.07 3.67-4.06 5.23-6.29 2.8-3.99 5.38-8.13 8.05-12.21.27-.41.49-.84.72-1.27 1.55-2.85 2.49-5.89 3.23-9.05.62-2.65.49-5.21.11-7.82-.31-2.12-.59-4.25-.98-6.37-.56-3.08-1.07-6.15-.04-9.24.09-.27.07-.58.08-.87.4-5.81 1.51-11.6.69-17.46-.04-.29 0-.58 0-.88.06-1.82.57-3.68-.35-5.45-.08-.15-.04-.38-.02-.58.29-3.59.36-7.21 1.54-10.67.67-1.95 1.07-3.96 1.15-6.01.09-2.43.92-4.54 2.42-6.43.35-.44.82-1 .79-1.47-.06-.94.39-1.43 1.02-1.95 1.76-1.46 3.05-3.24 3.8-5.43.24-.71.68-1.39 1.12-2.01.89-1.25 1.26-2.6 1.11-4.13-.1-1.06-.15-2.14-.11-3.21.09-2.53.25-5.06.35-7.59.09-2.34-.02-4.66-.44-6.99-1.02-5.57-1.82-11.17-2.95-16.71-.85-4.17-1.05-8.51-3.19-12.5 1.06-.54 2.07-.7 3-.78.27.26.45.36.54.52 3.02 5.24 5.81 10.58 6.97 16.61.18.95.44 1.91.82 2.8 1.31 3.07 2.18 6.25 2.84 9.51 1.15 5.64 2.75 11.17 3.49 16.9.38 2.99 1.17 5.92 1.79 8.88.3 1.43.73 2.84.96 4.28.88 5.49 1.8 10.98 2.51 16.49.38 2.98.54 6-.25 8.99-.3 1.12-.51 2.32-.43 3.46.09 1.22-.06 2.31-.53 3.4-.5 1.16-.98 2.33-1.44 3.51-.17.45-.43.94-.38 1.38.39 2.96-.4 5.82-.69 8.71-.16 1.57-.19 3.1.06 4.65.63 3.85 1.25 7.7 1.83 11.56 1.14 7.57 3.36 14.81 6.57 21.76.53 1.15.93 2.35 1.36 3.55 1.08 3.03 2.38 5.94 3.98 8.76 1.43 2.52 2.9 5.09 3.2 8.1.08.75.41 1.52.81 2.17.9 1.44 1.36 3.01 1.6 4.67.11.75.3 1.49.47 2.32.69-.24 1.27-.45 1.88-.66.5 1.36.95 2.54 1.38 3.73.85 2.38 1.83 4.74 2.49 7.17.62 2.28 1.71 4.34 2.61 6.49.29.68.86 1.3 1.44 1.77 1.58 1.28 2.67 2.95 3.12 4.81.66 2.72 2.07 5.03 3.28 7.47.15.3.47.53.68.75.56-.25.03-1.07.86-1.04.84 1.36 1.69 2.76 2.74 4.48-.87-.29-1.33-.45-1.93-.65.47 1.73 2.02 2.27 2.9 3.41.86 1.12 1.62 2.39 3.02 3.03.5-.43.92-.79 1.33-1.14a.673.673 0 0 0-.07-.11c-.16-.05-.33-.1-.49-.16-.04-.02-.04-.15-.05-.23.12.03.27.02.34.1.08.08.15.19.2.29.05.01.09.03.14.05-.02.02-.05.04-.07.07 0 0 0 .01.01.02.79.35 1.66.59 2.35 1.08 1.54 1.09 3.1 1.99 5.06 2.05.65.02 1.4.26 1.91.65 1.88 1.39 4.04 1.82 6.28 2.17 3.79.59 7.18-.13 9.87-2.97.98-1.04 1.7-2.32 2.67-3.67.82-.41 1.85-.94 2.76-1.4.6-1.06 1.07-2.04 1.68-2.91.59-.85.77-1.77.87-2.75.14-1.35.21-2.71.47-4.04.43-2.2.92-4.37-.68-6.34ZM98.02 49.48v-.06c.03-.02.05-.04.08-.05 0-.41-.01-.83-.02-1.33.48.54.59.97.02 1.33v.11h-.07c.19 1.35-.26 2.53-1.18 4.29-.07-1.51-.16-2.34-.12-3.18.03-.8.58-1.1 1.3-1.11Zm-17.93 55.67c-.51-.87-.34-1.7-.21-2.54.55-3.75.94-7.54 1.76-11.23.54-2.46.65-4.95 1.14-7.4.47-2.37.38-4.84.57-7.27.07-.96.23-1.91.35-2.95 1.41 2.61 2.75 5.07 4.18 7.71-.44 2.83-.91 5.89-1.39 8.96-.01.1-.03.2-.07.28-1.17 2.92-1.42 6.05-2.07 9.08-.5 2.3-.88 4.59-.88 6.93 0 1.77-.42 3.44-1.06 5.5-1.04-.65-1.77-1.1-2.55-1.58.15-.78.22-1.45.41-2.09.35-1.17.43-2.36-.19-3.41Zm1.93 25.56c-1.01-2.67.12-5.02.44-7.45.77 2.68.61 4.7-.44 7.45Zm-27.05 7.09c1.37-1.89 2.77-3.76 4.13-5.66 1.13-1.58 2.21-3.2 3.34-4.78 2.08-2.94 4.16-5.88 6.28-8.79.79-1.09 1.75-2.02 3.05-2.6-5.61 7.69-11.16 15.42-16.73 23.14-.54-.45-.35-.91-.06-1.31Zm-25.93 50.13c.19-1.33.71-2.62 1.11-3.91.12-.37.48-.71.47-1.06-.08-1.92 1.16-3.23 2.05-4.71 1.91-3.18 3.8-6.36 5.74-9.52.61-.99 1.33-1.91 2-2.86.17-.24.44-.44.51-.7.64-2.52 2.5-4.39 3.56-6.68.37-.79.9-1.5 1.36-2.24 2.16-3.46 4.39-6.86 7.15-9.91 1.48-1.64 2.49-3.71 3.71-5.59.9-1.39 1.74-2.82 2.7-4.17 3.69-5.15 7.43-10.27 11.12-15.42 1.03-1.43 2.05-2.84 3.53-3.86.47-.32.82-.8 1.25-1.24-.23-.6-.42-1.11-.6-1.6.19-.18.3-.39.45-.42 1.15-.19 2.3-.46 3.45-.49 1.5-.04 2.34.9 2.26 2.39-.05.97-.19 1.94-.32 2.9-.04.26-.2.5-.38.93-.89-.52-1.68-1.04-2.52-1.46-.67-.34-1.33-.31-1.66.54.07.19.09.48.2.52 1.82.64 2.33 2.02 2.58 3.82.36 2.64.55 5.21-.15 7.82-.23.84-.33 1.73-.33 2.6-.01 1.31.72 1.73 2.15 1.34.17-.05.35-.09.73-.18-.01 1.09-.37 2-.83 3.01-.47-.4-.83-.7-1.31-1.11-3.06 3.46-4.15 7.91-6.31 11.74-.89-.14-.62-.77-.59-1.14.08-1.16.3-2.32.4-3.48.04-.44-.08-.9-.16-1.63-.52.4-.95.56-1.07.85-.31.81-.56 1.65-.71 2.51-.3 1.73-.58 3.46-.74 5.2-.15 1.62-.81 2.98-1.69 4.29-1.74 2.61-3.05 5.42-4.05 8.39-.24.72-.65 1.39-.98 2.08-.29.6-.72 1.18-.84 1.81-.27 1.48-1.37 2.16-2.72 3.34.07-.83 0-1.23.14-1.51 1.52-3.05 3.08-6.08 4.62-9.11.05-.09.13-.19.11-.26-.08-.34-.14-.73-.34-1-.07-.1-.62-.03-.76.13-.68.82-1.36 1.65-1.92 2.55-.51.82-.82 1.77-1.29 2.62-.65 1.19-1.44 2.31-2.05 3.52-.94 1.89-2.2 3.62-2.66 5.77-.44 2.02-1.75 3.71-3 5.27-1.64 2.04-3.61 3.81-5.39 5.65-.63-.26-.61-.61-.41-.97.53-.93 1.09-1.85 1.63-2.77.59-1.01 1.16-2.03 1.75-3.04.89-1.51 1.8-3.01 2.67-4.52 1.03-1.77 2.05-3.54 3.04-5.33.16-.3.13-.7.19-1.03-.32-.1-.52-.24-.67-.19-.26.09-.56.24-.7.45-1.91 2.94-3.79 5.9-5.69 8.84-.9 1.39-1.86 2.73-2.77 4.11-1.23 1.88-2.43 3.76-3.63 5.66-1.1 1.74-1.08 1.75.16 3.62-.41.23-.81.45-1.2.68-.36-.66-.55-1.54-1.01-1.7-.95-.35-1.24.66-1.63 1.3-.3.5-.55 1.03-.83 1.54-.23.41-.46.81-.7 1.23-.95-.55-.38-1.14-.18-1.54.78-1.57 1.68-3.07 2.5-4.62.22-.42.39-.9.46-1.37.03-.21-.25-.46-.47-.82-1.73 1.03-1.91 3.18-3.44 4.46-.46-1.19.51-2.15.3-3.18-.32-.4-.72-.34-.91.05-1.22 2.53-2.4 5.08-3.57 7.63-.3.66-.7 1.16-1.63 1.25-1.15-1.83-1.58-3.9-1.27-6.05Zm38.21-27.15.89-1.61c.64 1.14-.32 1.35-.89 1.61Zm22.65-10.72c-.15 1.93-.84 3.79-.71 5.77.05.7-.19 1.58-1.28 1.64-.25.01-.59.22-.69.43-1.2 2.52-3.29 4.66-3.32 7.64-1.56 1.42-2.83 2.95-3.83 4.79-1.02 1.88-2.3 3.6-2.83 5.72-.09.35-.35.82-.64.92-2.31.82-2.52 3.25-3.78 4.86-.51.65-.55 1.6-1.69 1.75-.4.06-.71.76-1.42 1.58.16-1.15.21-1.8.35-2.42.32-1.42.75-2.83 1.02-4.26.08-.4-.15-.93-.41-1.28-.22-.3-.99.2-1.25.89-.68 1.83-1.32 3.67-1.97 5.5-.42 1.19-.84 2.38-1.22 3.59-.35 1.11-.71 2.23-.93 3.37-.45 2.29-.78 4.56-2.01 6.66-.82 1.4-1.14 3.09-1.7 4.65-.23.64-.51 1.26-.87 2.13-.33-.35-.51-.63-.78-.81-.51-.34-1.1-.21-1.19.27-.49 2.74-1.91 5.09-2.99 7.59-.23.53-.4 1.11-.47 1.68-.12 1.01-.54 1.85-1.11 2.66-.33.47-.66 1-.79 1.55-.61 2.48-2.35 4.2-3.79 6.13-.74-.45-.37-.89-.26-1.32.23-.92.96-1.72.61-2.92-.35.06-.85 0-1 .19-.4.54-.67 1.17-.94 1.79-1.46 3.3-2.89 6.61-4.36 9.9-.23.52-.57 1.05-.99 1.43-2.18 1.96-4.54 3.68-7.2 4.95-.15.07-.38-.01-.57-.03.01-.01.06-.08.06-.08-.03.01-.06.03-.1.05 0 0 .01.02.02.03-2.06 2-4.54 3.15-7.34 3.64-2.99.53-5.98.85-8.99.3-.33-.06-.63-.25-.94-.4-.01-.02-.03-.03-.04-.05h-.04l.11.07q-2.24-.09-4.81-1.34c.3-.55.6-1.09.9-1.65-1.19-.78-1.86-.31-2.4.76-3.05-.59-5.11-2.08-6.38-5.18-1.27-3.1-1.27-5.99-.49-9.09 2.29-9.17 5.97-17.72 11.15-25.62 1.39-2.12 2.88-4.17 4.26-6.3 1.43-2.2 2.82-4.4 3.39-7.05.26-1.19.84-2.36 2.3-2.8.65-.19 1.17-.84 1.84-1.35-.64 2.41-1.2 4.64-1.83 6.85-.34 1.19-.06 2.32.14 3.47.05.27.2.71.37.75 1.45.31 1.46 1.67 1.96 2.64 1.3 2.57 3.35 3.68 6.23 3.13 2.23-.42 4.26-1.37 6.1-2.69 4.15-2.99 7.59-6.7 10.88-10.57.75-.89 1.51-1.8 2.41-2.53 6.48-5.29 11.82-11.6 16.61-18.39 3.54-5.03 6.71-10.29 9.51-15.77 1.92-3.75 3.42-7.65 4.63-11.67.51-1.68 1.04-3.35 1.6-5.01.11-.32.37-.58.74-1.14.3.58.56.87.61 1.2.87 5.59 1.72 11.18 2.54 16.78.1.66.05 1.35 0 2.02Zm1-54.02c-.96 2.65-1.46 5.45-1.41 8.32.02.97-.11 1.95-.32 2.9-1 4.52-.6 9.12-.74 13.69-.03.86.25 1.73.39 2.59.14.86.34 1.72.42 2.59.06.6-.11 1.17-.81 1.36-.62.18-1.2.03-1.58-.45-.29-.36-.55-.84-.62-1.29-.37-2.5-.68-5.01-.1-7.51.29-1.24.59-2.45.28-3.74-.12-.55 0-1.16.04-1.74.17-2.62.34-5.25.54-7.87.07-.97.23-1.93.37-2.89.28-1.93.58-3.85.88-5.77.07-.48.07-.99.22-1.44 1.07-3.1 1.11-6.31 1.11-9.54 0-.67.12-1.34.24-2.55 1.31.86 2.27 1.48 3.37 2.2-1.12 3.68-.98 7.52-2.29 11.14Zm2.76-54.71c-.08 1.77-.03 3.5.3 5.23.38 2.02.43 4.05.49 6.1.15 5.26.49 10.51.66 15.77.1 3.12.24 6.23 1 9.2-.74 1.51-1.42 2.92-2.13 4.37-3.2-2.5-5.75-6.5-6.36-10.02-.65-3.75-1.33-7.49-1.77-11.27-.37-3.19-.44-6.39.06-9.61 1.2-7.6 2.25-15.22 3.38-22.83.26-1.73.63-3.45.9-5.18.2-1.25.35-2.51.44-3.77.19-2.52.33-5.05.46-7.58.06-1.11.4-2.11 1.12-2.94.15-.18.49-.19.75-.28l-.12-.5c.05.15.09.31.14.46-.4 1.75-.33 3.49-.05 5.23.32 2.02.61 4.05.89 6.07.08.57.17 1.17.08 1.73-.57 3.39-.48 6.8-.14 10.18.32 3.23.04 6.43-.11 9.63Zm8.65 23.14c-.03 1.55 0 3.1-.02 4.65 0 .58.05 1.22-.18 1.71-.89 1.91-1.89 3.78-3.2 5.52-.86-1.41-1.27-2.79-.98-4.43.28-1.57.06-3.09-.05-4.64-.31-4.2-.05-8.35 1.19-12.41.02-.06.17-.07.42-.16.17.63.35 1.24.5 1.86.21.95.38 1.91.6 2.86.23.98.53 1.93 1.91 1.89-.07 1.21-.16 2.17-.18 3.14Zm.22-11.41c.15 1.14.15 2.29.23 3.53-.96-.35-.78-1.07-.87-1.62-.96-5.87-1.9-11.74-2.82-17.61-.27-1.74-.68-3.42-1.41-5.04-.47-1.05-.66-2.22-.95-3.34-.16-.65-.22-1.32-.4-1.96-.48-1.73-.2-3.42.12-5.73 1.66 1.56 2.16 3.01 2.38 4.55 1.26 9.07 2.5 18.15 3.72 27.23Zm-4.41-42.45c-.07 1.58.11 3.07.43 4.58.16.75.14 1.54.2 2.28-.85.6-1.39.09-1.7-.51-1.02-1.99-1.85-4.05-2-6.34-.14-2.13-.38-4.24-.56-6.37-.01-.16.11-.33.18-.52.77-.18 1.3.15 1.67.8 1.08 1.88 1.88 3.89 1.78 6.07Zm2.32.12c-.69-1-.59-2-.85-2.89-.26-.92-.55-1.83-.85-2.79.93-.34 1.32.22 1.75.76.02.83.07 1.69.06 2.55 0 .69.6 1.4-.12 2.36Zm45.35 115.21c.46.95 1.2 1.77 1.86 2.62 1.44 1.86 2.7 3.81 3.51 6.04.23.63.53 1.28.96 1.79 1.4 1.65 2.48 3.48 3.3 5.48.21.5.67.93 1.1 1.29 1.29 1.09 2.19 2.43 2.88 3.97 1.56 3.46 3.23 6.86 4.85 10.29.08.18.2.34.24.53.88 3.43 3.08 6.27 4.25 9.56 1.01 2.83 2.4 5.55 2.7 8.61.02.19.03.4.11.57 1.43 2.96 1.53 6.22 2.1 9.38.16.86.41 1.7.66 2.72-.26.86-.69 1.79-1.62 2.71-1.21-2.27-.82-4.91-2.35-7.36-.35.81-.67 1.21-.65 1.58.06 1.36.2 2.72.37 4.08.14 1.16.36 2.3.56 3.55-1.83-.61-2.04-.75-2.36-2.2-.49-2.19-.92-4.39-1.35-6.6-.3-1.53-.78-2.99-1.63-4.67-.33.55-.65.84-.65 1.13.01 1.65.03 3.31.18 4.96.18 2.04.51 4.07.74 6.1.06.55.28 1.16-.25 1.63-.83.31-.86-.59-1.3-.83-.47-.26-1.06-.31-1.77-.5-.51-2.48-1.05-5.05-1.57-7.62-.67-3.35-1.33-6.7-2.01-10.05-.11-.55-.15-1.2-1.13-1.3-.02.65-.13 1.3-.06 1.93.41 3.78.88 7.56 1.28 11.34.08.73.46 1.53-.21 2.25-.95-.4-1.55-1.15-1.96-2.04-.37-.8-.72-1.52-1.5-2.08-.45-.32-.63-1.14-.76-1.77-.98-4.78-1.91-9.57-2.88-14.35-.15-.74-.39-1.46-.63-2.35-.38.34-.75.52-.74.7.01.87.11 1.74.2 2.61.32 3.01.66 6.01.98 9.02.03.26-.07.53-.16 1.08-1.36-1.19-1.86-2.66-2.62-4.14.63-.95 1.02-1.99.18-3.14-.33-.44-.41-1.08-.55-1.64-.55-2.27-1.11-4.54-1.63-6.82-.69-3.04-1.39-6.08-1.99-9.14-.34-1.74-.85-3.39-1.64-4.98-.6-1.22-1.14-2.48-1.68-3.73-.26-.61-.61-1.13-1.38-2.13.48 2.64.71 4.67 1.6 6.56.2.43.34.91.4 1.38.45 3.38.88 6.77 1.3 10.16.02.18-.05.38-.07.57-.65.18-.86-.26-.95-.75-.52-2.68-1-5.37-1.53-8.05-.31-1.53-.65-3.05-1.05-4.56-.08-.29-.51-.67-.77-.66-.26 0-.51.44-.88.8-.31-.31-.29-.88-.34-1.36-.48-4.65-1.44-9.24-1.28-13.97.07-2.11-.52-4.25-.86-6.37-.47-2.89-.88-5.77-.9-8.72-.01-2.13-.31-4.26-.48-6.34.85-.81 1.65-.85 2.34-.03 1.75 2.08 3.69 3.97 5.19 6.31 1.46 2.29 3.06 4.47 4.26 6.92ZM144.71 168q-1.57-1.74-1.46-3.48c1.26.86 1.13 2.14 1.46 3.48Zm-6.33-12.01c-.43-.83-.77-1.48-1.1-2.1.16-.22.25-.45.37-.48.25-.05.67-.07.75.06.44.74.62 1.53-.03 2.51Zm-9.86-76.44c.08.03.2.05.22.1.52 1.57 1.02 3.14 1.53 4.71.48 1.48.81 3.05 1.5 4.43 1.94 3.85 3.31 7.91 4.49 12.04 1.08 3.78 2.79 7.27 4.46 10.79.37.78.78 1.55 1.18 2.35-.69.38-.91-.16-1.19-.45-.87-.92-1.81-1.8-2.56-2.81-.98-1.32-2.17-2.22-3.79-2.52-.37-.07-.72-.25-1.02-.36-.85-2.55-4.69-25.05-4.83-28.27Zm-.91-6.69c.07.42.13.84.2 1.27-.05.02-.09.05-.15.07l-.21-1.32c.05 0 .1-.02.15-.02ZM102.19 7.49c.32.04.64 0 .83.12 2.82 1.93 5.55 3.96 7.97 6.38.75.75 1.37 1.64 2.05 2.46 1.56 1.87 3.04 3.8 4.69 5.58 3.52 3.79 6.67 7.87 9.67 12.07.28.39.68.81.73 1.25.24 1.92 1.47 3.37 2.25 5.02.08.18.15.37.26.52 1.51 2.14 2.94 4.34 4.56 6.39.98 1.23 1.84 2.5 2.51 3.91 1.29 2.73 2.61 5.43 3.94 8.14.56 1.14 1.07 2.26.29 3.77-2.77-3.2-5.68-6.11-8.02-9.41-1.91-2.69-3.93-5.29-5.92-7.91-1.16-1.52-2.49-3.04-2.08-5.22-.53-1.04-.94-2.16-1.61-3.1-2.27-3.17-4.8-6.15-7.78-8.67-1.37-1.16-2.48-2.45-3.32-4-.42-.77-.79-1.56-1.25-2.31-.45-.75-.84-1.62-1.49-2.15-2.95-2.4-4.31-5.95-6.58-8.84-.88-1.11-1.76-2.35-1.7-4.01Zm.84 7.02c-.15-.1-.37-.16-.43-.29-.1-.24-.1-.52-.14-.78l.34-.06c.14.23.32.45.41.7.04.11-.12.28-.18.43Zm7.55 18.06c-1.04-2.41-2.52-4.59-3.4-7.09-.51-1.44-1.52-2.71-2.32-4.05-1.04-1.76-1.23-3.61-.68-5.87.49.68.85 1.12 1.15 1.59 2.57 4.13 5.11 8.28 7.7 12.41 1.34 2.13 2.81 4.17 4.06 6.37.96 1.67 2.25 3.18 3.55 4.61 1.84 2.03 3.52 4.15 4.85 6.55.28.51.56 1.04.96 1.46 3.32 3.44 6.08 7.29 8.53 11.38 1.56 1.25 2.4 3.18 4.18 4.25 1.32.79 1.25.9 3.46.84.09 1.07.16 1.94.22 2.68-.44.8-1.34.43-1.83 1.31-.69 1.25-1.47 1.2-2.71.44-1.49-.92-2.86-1.95-3.97-3.38-1.73-2.23-3.68-4.28-5.51-6.43-2.71-3.19-5.24-6.52-7.07-10.31-.16-.33-.36-.79-.65-.89-1.46-.51-1.98-1.8-2.66-2.96-.98-1.68-1.95-3.37-2.85-5.1-1.08-2.07-2.05-4.18-3.81-5.82-.55-.51-.92-1.26-1.22-1.97Zm7.7 30.79c.78.37 1.29.62 1.76.84.77-.63.5-1.29.3-1.94-2.04-6.61-4.42-13.09-7.15-19.44-.22-.5-.28-1.07-.54-2.14 1.56 1.43 2.32 2.76 3.06 4.11 1.04 1.87 2.15 3.71 3.07 5.64 1 2.11 1.98 4.25 2.67 6.47.81 2.6 1.46 5.27 1.88 7.96 2.12 13.78 4.13 27.59 6.17 41.38.13.86.26 1.76.16 2.6-.13 1.02.04 1.87.48 2.79.6 1.24.86 2.62.39 3.98-.6 1.73-.51 3.44-.24 5.19.08.55.02 1.12.02 1.69.02 0 .04-.01.06-.02v.1c.28.2.7.38.75.63.48 2.17.8 4.36 1.11 7.07-.7-.68-1.05-1.02-1.51-1.47-.44.27-.88.54-1.47.9-.13-.55-.25-1-.33-1.46-.13-.76-.24-1.52-.38-2.35 1.25.27 1.47.19 1.56-.54.11-.93.17-1.86.26-2.79-.02-.01-.04-.02-.05-.04v-.05c-.61.2-1.22.4-1.88.61-.65-.94-.68-1.92-.86-2.85-.18-.96-.31-1.92-.47-2.89-.2-1.24-.15-2.52-.93-3.64-.31-.45-.34-1.11-.43-1.68a271.5 271.5 0 0 1-.95-6.37c-.09-.67-.23-1.4-.06-2.03.86-3.14.11-6.22-.31-9.28-.61-4.34-1.46-8.65-2.26-12.96-.37-2.01-.82-4.01-1.34-5.99-1.02-3.86-1.83-7.77-2.53-12.05Zm73.39 160.53c-.12.15-.21.34-.26.52-.77 3.11-3.06 5.13-5.23 7.21-.59.57-1.1 1.05-.93 1.97.12.68-.41 1.05-.96 1.29-.82.35-1.65.56-2.54.18-.62-.27-1.27-.47-1.88-.68-2.22 1.55-4.13.24-6-.64-.49-.23-.66-1.14-.97-1.74-.49-.95-.93-1.92-1.49-2.82-.15-.24-.7-.4-.99-.32-.6.17-.53.72-.37 1.2.31.89 1.09 1.65.71 2.91-.3-.03-.7.04-.97-.11-.76-.42-1.46-.94-2.08-1.34-.1-.92-.15-1.6-.24-2.27-.05-.38-.08-.83-.28-1.13-.84-1.24-1.75-2.44-2.74-3.8-1.55 2.19.95 3.39.98 5.25-1.86-.73-3.22-1.62-3.81-3.43-.75-2.31-1.55-4.61-2.36-6.91-.21-.61-.52-1.18-.78-1.78-.89.43-.66 1.05-.65 1.62.01.55 0 1.1-.01 1.75-1.37-.58-1.86-1.63-2.42-2.66-.74-1.36-1.59-2.67-2.38-4.01-.49-.83-1.01-1.66-1.45-2.52-.96-1.92-1.78-3.89-3.24-5.53-.42-.48-.61-1.19-.83-1.83-.47-1.38-.83-2.79-1.32-4.16-2.03-5.69-4.09-11.37-6.15-17.05-1.13-3.11-2.3-6.21-3.45-9.32-.2-.55-.54-1.08-.59-1.64-.33-3.47-2.28-6.41-3.09-9.72-.15-.63-.54-1.21-.95-2.11-.33.53-.66.81-.67 1.1-.06 1.8-.06 3.61-.08 5.68-.22-.6-.31-.97-.48-1.31-2.69-5.02-4.26-10.46-5.9-15.87-.37-1.21-.65-2.45-.86-3.7-.84-5.1-1.63-10.21-2.45-15.31-.4-2.46-.27-4.83 1.05-7.05.38-.64.52-1.41.89-2.47.41.56.71.8.78 1.09.21.95.32 1.92.49 2.88.76 4.42 1.52 8.84 2.29 13.26.3 1.73.82 3.39 1.49 5.03l1.6-.03c.26.47.57.97.81 1.49 1.43 3.2 2.84 6.41 4.26 9.61.16.35.34.71.59 1 1.65 1.97 2.67 4.28 3.68 6.61.46 1.06 1.08 2.06 1.52 3.13.9 2.16 1.82 4.31 2.55 6.52.83 2.51 1.7 4.98 3.17 7.19.27.4.5.84.69 1.29 2.28 5.39 5.98 9.79 9.98 13.94 1 1.04 2.23 1.93 3.5 2.6 1.64.87 3.28 1.72 4.73 2.88 1.15.93 2.42 1.19 3.84.85.66-.16 1.37-.2 2-.44 1.85-.72 3.49-1.64 4.07-3.8.32-1.2 1.1-2.28 1.46-3.48.72-2.43 1.28-4.91.15-7.39-.96-2.13-1.95-4.25-2.23-6.62-.07-.55-.47-1.06-.71-1.59-.31-.71-.75-1.41-.88-2.16-.29-1.65-.77-3.22-1.58-4.68-.09-.17-.13-.37-.17-.56-.1-.48-.2-1 .3-1.3.59-.35 1.13-.1 1.54.38.44.52.96 1.01 1.24 1.62 1.24 2.63 2.91 5.07 3.67 7.94.14.52.42 1.13.84 1.43 1.12.83 1.61 2.01 1.75 3.26.23 1.99 1.03 3.76 1.86 5.51 1.25 2.64 2.76 5.15 4.01 7.79 1.5 3.17 2.88 6.39 4.24 9.62.34.79.46 1.69.59 2.56.44 3.09.83 6.19 1.27 9.27.3 2.09.25 4.09-1.18 5.82Z"/>
    <path d="M35.01 235.74c.4-.77.84-1.54 1.18-2.33.09-.2-.03-.61-.19-.75-.18-.15-.56-.2-.79-.13-.5.16-.96.43-1.46.66-.09-.28-.16-.39-.13-.44.23-.41.4-.9.73-1.18.83-.69 1.13-1.58 1.17-2.58.01-.26-.36-.53-.56-.8-.93.98-1.75 1.78-2.5 2.64-.85 1-1.49 2.23-.92 3.48.38.84.93 1.6 1.17 2.54.13.49.65.72 1.19.59.34-.08.65-.26.97-.41-.33-.46-.08-.87.14-1.29ZM41.33 222.45c-1.41 2.86-2.8 5.73-4.15 8.62-.19.41-.2.95-.14 1.4.08.63.56 1.09 1.17 1.08.41 0 .94-.29 1.19-.62.33-.44.48-1.04.64-1.59.46-1.57.89-3.15 1.32-4.73.33-1.21.69-2.42.97-3.64.07-.3-.09-.66-.17-1.19-.44.34-.75.46-.85.67ZM27.87 231.91c-.07 0-.15.1-.23.17-1.45 1.36-2.05 3.23-2.89 4.94-.3.6.21 1.66.79 1.58 1.18-.17 1.47 1.15 2.62 1.27.37-.49.86-.95 1.12-1.52.29-.64-.38-1.27-1.14-1.13-.25.05-.48.23-.72.35-.13-.11-.26-.23-.4-.34.68-1.47 1.37-2.94 2.01-4.42.09-.22.03-.71-.1-.77-.31-.14-.7-.11-1.06-.12ZM19.38 238.73c.02-.75-.13-1.49-.22-2.42-1.03.17-1.9.09-2.55.87-.35 1.31.11 2.4.96 3.37 1.12-.08 1.78-.69 1.81-1.82Z"/>
</svg>
