<svg xmlns="http://www.w3.org/2000/svg" viewBox="0 0 176.16 265.92">
    <path d="M173.76 26.52c-.78-.91-2.4.63-3.18-.77.55-2.65 1.22-6.23.32-9.13-18.47-.56-31.7-6.46-47.33-9.91-7.96-1.31-15.96-2.91-24.26-4.16C90.89 1.28 82.13.94 73.09 0c-.51.03-.54.52-1.19.41-4.47.33-6.42 3.14-9.09 5.24C57.45 24 51.34 41.6 46.22 60.18c-5.98 17.74-10.5 36.91-15.4 55.72-2.86 8.99-6.23 17.49-8.9 26.68-1.15 4.78-2.7 9.16-3.85 13.93-1.4 4.53-3.45 8.42-4.65 13.14-1.89 4.05-3.24 8.62-4.65 13.14-2.11 3.83-2.65 9.2-4.25 13.54-.79 5.13-1.71 10.13-2.65 15.11.27 5.83-2.2 10.87-1.85 15.5 1.32 1.19 4.17.83 5.18 2.33 1.83.81 3.5 1.79 5.18 2.73 3.29 1.86 6.69 3.61 9.97 5.47 9.8 6.06 19.82 10.94 30.31 16.01 10.35 5.01 22.06 9.69 37.01 9.6 5.99.8 11.81 3.62 18.29 2.62 4.53-1.84 4.48-8.19 6.64-12.37 1.61-4.84 2.88-10.03 4.64-14.73.87-5.45 3.15-9.5 3.84-15.12 1.59-4.87 2.24-10.66 4.24-15.12 2.56-10.2 5.91-19.65 8.87-29.45 2.58-10.32 6.1-19.72 8.87-29.85 1.41-4.91 2.8-9.85 3.84-15.12 1.6-4.85 3.09-9.82 4.24-15.12 3.9-8.89 3.7-21.81 7.67-30.63 3.56-9.22 5.77-19.78 8.87-29.46 1.77-4.69 3.54-9.38 4.64-14.73 1.4-5.05 3.66-9.26 3.84-15.51-1.31-.14-.82-2.11-2.4-1.97Z" style="fill:#391616"/>
    <path d="M168.14 19.82c-.61 2-1.17 5.34-1.13 6.76-8.19-.21-13.54-3.31-19.9-5.39-11.65-5.23-26.29-7.42-40.19-10.37C96.3 9.08 85.36 7.66 73.15 7.54c-1.19-1.06-2.98-1.51-4.39-2.34.05-1.14 1.65-.74 2.77-.82.57-.62 2.03-.37 3.17-.42 6.37.72 13.52.66 19.47 1.81 6.41.56 12.32 2.08 18.29 3.02 6.02.94 11.8 1.72 17.5 3.42 5.46 1.63 10.7 3.31 16.32 4.62 5.62 1.31 11.53 2.18 17.5 3.42 1.88.28 2.73-.47 4.36-.43ZM56.79 43.81c-.21-.2.29-.51.4-.4.21.2-.28.51-.4.4ZM85.87 54.28c.71-.06.84.48 1.59.38.13.7-2.22.73-1.59-.38ZM98.2 57.74c-.54.91-2.76.17-3.96.43.68-1.34 2.61-.59 3.96-.43ZM93.05 58.19c-.01 1.43-1.64 1.27-3.17 1.22.51-.94 2.14-.78 3.17-1.22ZM102.2 60.09c-.15 1.87-2.21.99-3.57.82.86-.6 2.23-.7 3.57-.82ZM109.77 63.6c-.07-.86 1.41-.19 1.98-.42-.26 1.25-1.05.53-1.98.42ZM122.5 66.66c1.33-.68 5.4-.71 6.75-.06.13 1.51-1.73.52-2.78.42-1.24-.12-2.3-.18-3.18-.37h-.79ZM83.6 67.8c.16 1.2-1.29.84-1.97 1.21-.33.59-.99.86-1.98.81.84-1.14 1.76-2.21 3.95-2.02ZM89.18 69.73c-.48.57-1.36.76-2.38.82.04-1.01 1.32-.8 2.38-.82ZM94.75 72.07c-.03 1.01-1.32.8-2.37.81.03-1.01 1.32-.8 2.37-.81ZM88.41 72.92c.06.74.27 1.33.81 1.58-.82 1.07-1.9-.97-3.18-.76.4-.66 1.68-.45 2.37-.82ZM101.53 74.79c-.29.9-2.23.18-3.17.42.75-.86 2.06-.89 3.17-.42ZM89.63 75.29c-.21-.2.28-.51.39-.4.21.2-.28.51-.39.4ZM91.61 76.06c-.13-.7 2.22-.73 1.59.39-.35-.31-.9-.42-1.59-.39ZM106.7 76.33c.96-.17.87.72 1.99.38.08.65-2.59.83-1.99-.38ZM107.93 79.89c.64-.12.69.37 1.19.39.16.77-1.81.6-1.19-.39ZM114.69 82.21c.16-.88 2.1-.33 2.38-.02-.48 1.21-1.37-.42-2.38.02ZM79.41 87.68c.92.93.17 3.56.44 5.16-1.37.33-1.53-.58-2.78-.37.36-2.01 1.9-2.86 2.34-4.78ZM99.69 91.08c1.18.13 2.02.62 2.79 1.17.16 2.66-.64 4.35-3.54 4-.14-2.1.66-3.29.75-5.17ZM98.17 99.03c1.66-.23 2.23.67 3.58.76.35 2.96-.79 4.48-2.33 5.58-1.25.21-1.41-.7-2.78-.37.54-1.96.85-4.15 1.53-5.97ZM113.74 63.57c.77-1.8 3.38-.11 4.76-.04-.6.58-3.05-.35-4.76.04Z" style="fill:#fff"/>
    <path d="M171.41 30.9c-9.51.46-16.72-2.38-23.46-4.16-11.1-2.95-20.91-6.14-33.02-8.05-7.2-1.5-14.67-3.71-22.67-4.57-7.95-.86-16.15-2.09-24.24-2.96-2.75 12.78-6.58 24.49-9.6 37.01-4.32 11.36-6.44 24.89-10 37-2.47 13.05-6.25 24.82-9.6 37-3.28 10.42-6.48 20.92-10.45 30.67-.16.75-.85 1-.78 1.99-.7-.11-.71 2.38-1.18 1.2 1.88-9.95 5.33-18.38 7.7-27.85 3.55-8.45 4.67-19.29 8.1-27.86.63-3.45 1.73-6.93 2.69-10.34 3.02-10.75 4.91-21.87 8.45-31.84.27-2.75 1.14-4.91 1.92-7.16.13-2.11 1.22-3.26 1.15-5.57-2.59 7.18-5.72 15.13-7.35 22.69-.03.15-.73.99-.79 1.2-.85 3.04-1.43 5.53-2.31 8.36-1.16 3.76-2.16 7.71-3.08 11.54-3.6 15.05-9.25 29.57-13.11 44.18-8.46 29.86-17.65 59-25.82 89.16.21 1.25 1.82 1.08 2.79 1.56 6.22 3.95 13.08 7.25 19.16 11.34 7.01 4.61 14.93 8.31 23.13 11.71 15.19 8.05 37.46 8.88 56.09 13.41.44-2.46 2.22-3.6 1.93-6.76 1.63-7.19 4.03-13.62 5.37-21.09 2.78-8.94 4.85-18.6 8.5-26.68 2.45-9.27 6.55-16.92 8.5-26.67 2.58-9.27 4.43-19.27 7.3-28.25 3.35-13.83 7.54-27.52 11.15-41.39 1.83-7.05 3.18-14.25 5.38-21.09 2.18-6.78 4.76-13.23 6.57-19.91 3.14-8.72 6.3-17.42 8.1-27.45 1.42-3.19 2.77-6.46 3.48-10.35ZM99.86 247.89c-.62-.7-1.11-1.55-1.61-2.36.09-3.34 2.77-6.02 5.92-4.03 1.21 3.36-.23 6.99-4.31 6.39Zm-13.46 4.09c-.07-.34.15-.38.39-.4.67.66 2.34.3 3.58.37 2.19.44 4.36.91 6.36 1.53 1.79.72 4.43.57 4.79 2.73-6.13-.29-10.23-2.67-15.12-4.23Zm-74.49-28.73c0-.38.49-.31.79-.41 2.71.31 4.18 1.89 6.77 2.33 7.95 5 15.71 10.18 24.34 14.48 8.84 2.48 16.71 5.96 26.27 7.71.55 1.04 2.99.16 2.8 1.96-1.82-.15-3.37-.57-5.56-.34-11.5-2.05-21.69-5.43-30.26-10.46-9.04-4.41-16.4-10.55-25.15-15.26Zm7.91-3.25c-2.03-.06-3.06-1.16-3.99-2.34-.75-4.2 3.09-7.29 5.92-4.42.91 2.48.64 6.46-1.93 6.76Zm3.92-51.64c-3.2 14.17-7.66 27.11-10.36 41.78-.73 2.17-.71 5.07-1.53 7.16.04 1.48-.38 2.52-.76 3.58-.45.87-.06 2.57-1.17 2.79-1.72.28-1.08-1.83-1.22-3.16-.29-1.73.66-2.24.36-3.97 1.36-7.32 2.65-14.72 4.98-21.08 1.04-4.76 2.46-9.13 3.85-13.54 1.43-4.37 2.5-9.09 4.65-12.75-.12-.64.37-.68.39-1.19.46-.07.71.08.8.39Zm2.29-10.74c.21.2-.28.51-.39.4-.21-.2.28-.51.39-.4Zm0-.39c-.21-.2.28-.51.39-.4.21.2-.28.51-.39.4ZM73.71 26.2c-3.12.18-4.37-3.03-3.23-5.93 1.98-1.24 4.49-1.49 5.96.35.43 3.17-.68 4.84-2.73 5.58Zm79.92 13.99c.27 3.46 1.54 5.91 2.85 8.32 1.47 1.44 4.32 1.48 5.59 3.12-.65 7.22-3.39 13.27-5.39 19.5-1.96 6.12-3.77 12.35-5.79 18.71-1.49 2.77-2.27 5.95-3.5 8.77-1.26 2.89-2.78 5.54-3.9 8.37-1.88 6.28-3.29 13.03-5.79 18.71-.87-.07-1.26.34-1.18 1.2-6.61 2.3-10.52 7.24-14.59 12.04-1.57 4.36-3.44 8.43-3.45 14.32.42.9.27 2.39.82 3.16 1.72 4.25 6.32 5.58 8.02 9.86-2.64 12.62-7.25 23.31-10.01 35.82-1.89 5.75-3.76 11.53-5.41 17.52-.7 3.12-1.91 5.74-2.3 9.15-.81 1.17-1.08 2.87-1.55 4.38-.62 1.47-1.59 1.98-1.56 3.19-2.32.25-4.4-.48-6.35-.34-4.85.35-7.93 3.08-10.27 6.04-.68 2.34-1.31 4.74-2.32 6.77-1.56.94-1.22-.74-2.79-.77-.94-.51-2.74-.14-3.58-.76-1.9-.87-4.91-.61-6.37-1.93-4.65-.88-7.88-3.2-11.56-5.06-.99-1.68.48-3.87-.05-6.35.33-2.74-.77-4.02-1.64-5.55-2.78-.91-6.66-.16-9.12.47-2.02 1.7-3.58 3.83-4.71 6.39-5.23-.15-7.94-2.87-12.34-3.86-3.85-1.42-6.48-4.08-9.98-5.87 1.36-4.04 3.62-7.2 3.06-13.13-1.69-3.62-4.96-5.63-8.8-7.07.54-6.82 2.79-11.96 4.61-17.51 1.51-5.87 3.42-11.33 5.41-16.72 1.94-5.44 3.56-11.2 5.01-17.11 1.57-5.41 3.58-12.05 4.22-17.11 1.34-.98 3.02.68 4.36-.44 2.01-.39 3.33-1.45 5.14-2.03 3.69-4.25 5.51-10.33 7-16.73-.45-2.74-.79-5.61-1.66-7.93-.7-1.55-1.93-2.58-2.81-3.95-1.01-.73-2.98-2.07-2.01-3.55 3.26.16 3.82 3.05 5.6 4.71.91 2.41 1.79 4.86 2.45 7.52.11 11-2.1 19.71-8.93 23.89-2.84.23-4.63 1.48-7.53 1.66-1.4 12.4-5.61 22.04-8.45 33.02-1.84 3.86-2.67 7.65-4.26 11.95-1.49 4.02-3.95 9.51-4.63 15.13-.47.2.22 2.83-1.16 3.19 3.89 2.18 7.28 4.88 9.21 9.05.33 2.16-.79 2.9-1.15 4.38.25 3.14-.51 5.27-1.12 7.56.49 1.63 2.18 2.05 3.6 2.75.93 1.19 3.3.91 4.38 1.94 3.34.88 6.9 1.53 9.16 3.5 2.82-3.39 5.6-6.82 11.45-7.25 2.83.32 5.11 1.21 6.77 2.72 1.06 3 2.19 6.91 1.29 10.71 1.75 1.29 4.6 1.46 5.98 3.12 2.3.73 4.79 1.26 6.77 2.32 3.02-.14 5.43.35 7.55 1.12.83-.37 1.2-1.18 1.17-2.39.15-1.03 1.17-1.21 1.17-2.39 2.14-1.83 3.98-3.96 6.3-5.62 2.75-.89 6.33-1.05 9.53-.48 1.25-.74.83-3.12 1.55-4.38.54-1.31 1.02-2.68 1.55-3.98 1.1-2.59 1.7-5.68 2.71-8.36 3.15-11.59 6.89-22.62 10.43-33.84 1.2-6.16 3.99-10.77 4.61-17.51-.56-1.84-2.6-2.16-4-3.14-.81-1.98-2.74-2.82-3.62-4.73-2.86-11.29 2.05-21.47 7.7-27.86 3.53-1.64 5.87-4.46 10.28-5.25.15-3.92 2.44-5.73 3.1-9.16.69-3.18 2.11-6.09 3.1-9.16.97-3.01 1.67-6.18 2.7-9.15 2.06-5.94 4.61-11.66 6.6-17.53 2.71-9.27 5.98-18 8.89-27.08-1-.98-2.85-1.1-3.98-1.95-1.35-1.56-2.65-3.17-4.01-4.73-.77-4.16-.2-8.32 1.49-11.12-9.56-2.69-17.8-6.72-27.87-8.89-1.87.52-1.88 2.87-3.14 4-2.58 1.14-4.32 3.1-7.91 3.25-6.42-1.34-11.45-4.11-12.4-11.01-5.27-1.32-11.33-1.82-17.49-2.23-.91 1.09 1.19 2.5.44 4.76-.1 1.34-.61 2.29-.36 3.98-.93.92-1.25 2.45-1.95 3.59-2.15 2.31-7.5 4.44-11.49 2.48-3.01 11-6.15 21.52-9.64 32.24-2.02 6.21-4.52 12.11-6.59 18.32-1.3 2.39-1.76 5.61-2.71 8.36-.56 1.29-.97 2.71-1.15 4.38-1 .86-.54 3.15-2.36 3.2.89-6.74 2.76-12.52 4.21-18.7 1.45-6.19 3.25-12.03 5.4-17.52 3.16-11.98 7.15-23.15 10.81-34.63 3.06-.31 2.89 2.66 6.37 1.93 5.5-.5 6.91-5.02 6.65-11.18.65-2.26-2.29-.87-2.01-2.76 3.32-2.04 8.49-.84 13.1-.91 1.91.46 3.35 1.39 5.57 1.53 1.88.36 2.79 1.71 4.78 1.95.86 2.46 1.96 4.68 3.63 6.32 2.38 1.31 5.29 2.09 7.57 3.51 1.77-.62 3.62-1.17 5.15-2.03 2.01-1.04 2.31-3.76 3.93-5.2 10.04 1.39 18.44 4.46 26.27 8.11 2 .69 4.68.27 5.96.74-.55 2.61-1.69 4.63-2.32 7.17Zm-21.2 27.18c-.14 1.47 1.62 1.02 1.22 2.77-.95.77-3.19.27-4.76.44-8.1-.84-15.29-2.59-22.27-4.57-6.04-2.8-13.96-3.68-20.3-6.17-.63-1.4 1.35-.25 1.18-1.2-.84-1.95-2.43 1.36-3.97.04-1.71-1.77-.57-5.91.73-7.16 1.27-.35 1.23.61 1.99.78 9.66.31 15.99 4.01 24.27 5.74 4.41.59 8.03 1.98 11.94 3.07 3.62 1.12 7.93 1.55 11.15 3.48.23 1.54-1 1.64-1.17 2.79Zm1.31 13.48c1.27.29 2.27.18 3.58.37.37 1.99-.08 2.66.05 5.16.12 1.57-1.69 1.23-1.56 2.8-.86.6-.91 1.99-2.36 2-.36-.97-.51-2.15-1.61-2.37-6.4-.16-10.58-2.58-16.31-3.43-3.44-1.81-7.2-2.11-11.54-3.08-5.73-1.28-12.47-4.01-18.31-5.8-2.29-1-5.16-1.42-7.17-2.71-2.47-.69-5.41-.9-6.77-2.72-.7-2.23 1.17-5.07 1.92-7.16 12.2 1.47 20.85 6.55 32.23 8.85 3.17 2.27 7.4 2.47 11.94 3.47 3.54.78 8.36 1.82 12.33 3.07.21.07.65.75.8.79.36.11.83-.12 1.19 0 .53.16 1.07.66 1.6.78Zm28.65-37.57c-3.68.13-4.7-3.16-4.02-6.32 4.18-5.07 10.21 3.73 4.02 6.32ZM56.41 45.4Z" style="fill:#fff"/>
    <path d="M59.67 87.65a.67.67 0 0 0 .34-.24h.11l-.19 1.71c-.17 1.5-.45 3.22-.86 5.16-.42 1.97-.63 3.09-.65 3.34l-.02.35c-.02.17.03.32.15.45.11.13.25.2.41.21.16 0 .31-.04.44-.15a.6.6 0 0 0 .22-.41l.02-.35c0-.19.22-1.25.62-3.18.41-1.97.71-3.73.88-5.28l.18-1.75c.41.06.85.13 1.34.22.83.16 1.58.36 2.27.58.53.19.91.32 1.14.41-.08.26-.2.62-.35 1.1-.33.97-.56 1.97-.67 2.99-.09 1-.27 2.04-.54 3.12-.27 1.12-.44 1.8-.49 2.06l-.09.41c-.04.15-.01.3.08.44s.22.24.38.27c.16.04.31.01.45-.08s.24-.22.28-.38l.08-.39c.06-.26.22-.94.49-2.05.28-1.14.47-2.22.58-3.24.09-.96.29-1.88.59-2.76.05-.17.12-.38.21-.62.09-.23.15-.4.18-.5.03-.1.05-.21.08-.35s.02-.26 0-.39c-.05-.29-.26-.52-.64-.69-.19-.08-.65-.25-1.37-.5-.73-.24-1.54-.45-2.43-.63-.89-.17-1.65-.28-2.3-.31-.04 0-.13-.02-.28-.04-.15-.02-.27-.03-.37-.03-.1 0-.21 0-.34.03-.13.02-.25.07-.35.16-.1.09-.18.2-.24.34l-.06.15a.61.61 0 0 0 0 .46c.06.16.16.27.31.35.14.05.28.05.41.01Zm10 1.58-.14.86c-.12.79-.28 1.79-.47 3.02l-.46-.1c-.17-.03-.32 0-.46.11-.14.1-.22.23-.25.39s.01.31.11.45.23.22.38.25l.48.1c-.05.27-.09.55-.14.82-.35 2.19-.55 3.46-.58 3.79l-.03.49c-.02.17.03.32.14.45.11.13.24.2.42.21.17.01.32-.04.45-.14.13-.11.19-.25.2-.42l.04-.49c.03-.3.21-1.53.56-3.69.05-.32.1-.61.15-.87.56.02 1.2-.04 1.92-.17.61-.12 1.1-.4 1.47-.84.37-.44.6-.99.69-1.66.09-.68-.02-1.3-.32-1.84-.31-.55-.78-.98-1.42-1.31-.77-.38-1.3-.61-1.59-.69a.493.493 0 0 0-.3-.16c-.14-.02-.28 0-.42.1-.06.01-.13.03-.21.04l-.41.15a.52.52 0 0 0-.36.3c-.08.15-.09.31-.04.46.1.29.3.42.61.41Zm1.05 1.04.15-1c.31.13.63.27.97.44.45.23.76.5.93.8.17.3.22.67.16 1.13-.06.45-.19.79-.37 1.02-.18.23-.45.37-.81.43-.56.1-1.05.15-1.49.15.19-1.19.34-2.18.46-2.97Zm9.39 1.54c.05.13.13.22.25.29l.62.36c.35.2.62.44.82.7.2.26.45.94.76 2.04.31 1.08.39 1.94.25 2.59-.14.6-.51 1.13-1.13 1.59-.62.48-1.58.73-2.89.73-1.3 0-2.13-.18-2.5-.53-.13-.12-.23-.44-.31-.97-.08-.53-.08-1.23 0-2.11.15-1.79.64-3.09 1.46-3.9.8-.81 1.6-1.21 2.42-1.19.07.01.14.02.22.02-.02.13 0 .26.05.38Zm3.66 1.37c.12-.12.17-.26.17-.43a.51.51 0 0 0-.18-.41l-1-.96c-.12-.13-.26-.25-.42-.36-.68-.51-1.51-.78-2.47-.82-1.17-.04-2.28.48-3.32 1.54-1.03 1.04-1.63 2.59-1.81 4.65-.08 1.06-.08 1.92 0 2.57.09.65.32 1.15.69 1.49.6.58 1.71.87 3.32.87 1.59 0 2.8-.33 3.63-.97.84-.64 1.37-1.4 1.57-2.29.19-.85.11-1.91-.25-3.2-.18-.61-.34-1.1-.48-1.49.2.03.38-.03.53-.19Zm2.72-1.34-.19.92c-.21.96-.45 2.46-.74 4.52-.29 2.03-.48 3.36-.57 3.98l-.16.93c-.03.15.01.3.11.44s.23.22.39.25.31 0 .45-.11c.14-.1.22-.23.25-.4l.15-.91c.09-.63.29-1.97.58-4.01.28-2.03.52-3.51.72-4.43l.14-.75c.29.02.76.06 1.41.11.94.06 1.48.1 1.61.12l.2.03c.16.01.3-.03.44-.13s.22-.23.24-.4a.563.563 0 0 0-.13-.45.56.56 0 0 0-.39-.22l-.21-.04c-.14-.02-.7-.07-1.67-.13-.71-.05-1.23-.08-1.54-.11a.497.497 0 0 0-.29-.16c-.22-.05-.41 0-.56.16-.19.1-.29.25-.31.44-.02.12 0 .23.05.34Zm7.25 1.42-.14.86c-.12.79-.28 1.8-.47 3.02l-.46-.1c-.17-.03-.32 0-.46.11-.14.1-.22.23-.25.39s0 .31.11.45c.1.14.23.22.38.25l.48.1c-.05.27-.09.55-.14.82-.35 2.19-.55 3.46-.58 3.79l-.03.49c-.02.17.03.32.14.45.11.13.24.2.41.21.17.01.32-.04.45-.14.13-.11.19-.25.2-.42l.05-.49c.03-.3.21-1.53.56-3.69.05-.32.1-.61.15-.88.56.02 1.2-.04 1.92-.17.61-.12 1.1-.4 1.47-.84s.6-.99.69-1.66c.09-.68-.02-1.3-.32-1.84-.31-.55-.78-.98-1.42-1.31-.77-.38-1.3-.61-1.59-.69a.493.493 0 0 0-.3-.16c-.14-.02-.28 0-.42.1-.06.01-.13.03-.21.04l-.41.15a.52.52 0 0 0-.36.3c-.08.15-.09.31-.04.46.1.29.3.42.61.41Zm1.06 1.04.15-1c.31.12.63.27.97.44.45.23.76.5.93.8.17.3.22.67.16 1.13-.06.45-.19.79-.37 1.02-.19.23-.45.37-.81.43-.56.1-1.05.15-1.49.15.19-1.19.34-2.18.46-2.97Zm9.44.4c.07-.15.08-.3.03-.46a.552.552 0 0 0-.3-.35.613.613 0 0 0-.46-.04c-.16.05-.28.14-.35.29l-.25.49c-.2.16-.46.49-.79.97-.23.34-.5.81-.8 1.41-.26.51-.55 1.11-.87 1.8-.58 1.26-1.04 2.31-1.39 3.14-.09.14-.18.31-.29.49-.1.18-.18.32-.22.39-.04.08-.1.19-.17.34-.07.15-.1.25-.1.31v.33c.08.7.45.65 1.11-.14l.6-.85c.06-.11.11-.23.15-.36.18-.35.39-.75.64-1.2.13-.25.26-.49.4-.74l.47.06c.61.08 1.25.17 1.92.28h.07c.17 1.29.33 2.19.5 2.72l.25.81c.05.15.15.27.3.35.15.08.3.09.46.04.16-.05.27-.15.35-.3.08-.15.1-.3.05-.45l-.26-.83c-.13-.4-.26-1.14-.4-2.21.22-.07.35-.23.39-.47.03-.17 0-.32-.11-.45a.618.618 0 0 0-.4-.24h-.04c-.16-1.38-.29-2.51-.37-3.39-.08-.72-.16-1.21-.27-1.48l.14-.27Zm-1.95 3.75c.32-.58.61-1.15.89-1.69.08.78.18 1.74.31 2.86-.59-.09-1.14-.17-1.67-.24h-.02c.16-.32.32-.63.48-.93Zm6.14-3.14-.12 1.48c-.08.98-.18 1.98-.3 3-.12 1.03-.28 2.14-.47 3.34-.09.55-.17 1.01-.23 1.37-.09.54-.14.85-.16.93l.05.12c.03.07.07.14.14.23s.15.17.22.25c.08.07.17.11.28.11s.22-.06.32-.18c.12-.13.19-.22.22-.28.03-.06.03-.11 0-.15a.224.224 0 0 1-.03-.1c.02-.1.06-.34.12-.73.08-.39.17-.9.28-1.53.23-1.2.48-2.26.76-3.19.07-.21.14-.41.19-.61.27-.79.48-1.49.65-2.11.15.54.3 1.21.45 2.02.23 1.38.43 2.61.6 3.68.17 1.08.32 1.91.43 2.49.06.32.19.54.4.67.1.05.2.09.3.11.1.02.2.02.28 0 .09-.02.17-.05.25-.1.08-.04.16-.1.23-.19l.2-.23c.06-.07.12-.16.19-.27.07-.11.12-.2.16-.28.04-.07.08-.16.14-.26.05-.1.1-.17.13-.22.67-1.21 1.3-2.43 1.9-3.66.57-1.2 1.01-2.03 1.32-2.49 0-.01.01-.03.03-.05-.01.16-.03.32-.05.5-.09.78-.23 1.78-.41 3-.18 1.23-.31 2.27-.39 3.13-.07.86-.1 1.42-.1 1.69l.03.37c0 .16.06.29.19.41.13.11.27.17.44.16.16 0 .3-.07.42-.2.11-.13.17-.27.15-.43v-.37c-.02-.22 0-.74.08-1.54.08-.82.2-1.83.38-3.04.18-1.23.32-2.24.42-3.03.11-.87.11-1.51-.01-1.91-.19-.63-.53-.87-1.02-.72-.14.05-.27.14-.4.28-.18.21-.44.57-.76 1.06-.34.52-.82 1.4-1.41 2.64-.58 1.21-1.2 2.41-1.87 3.6-.05.11-.12.22-.18.32-.07-.45-.16-1-.26-1.64-.16-1.08-.36-2.31-.61-3.7-.25-1.44-.53-2.48-.83-3.15-.31-.69-.71-.92-1.19-.69-.15.07-.27.19-.37.36v-.18a.53.53 0 0 0-.13-.45.621.621 0 0 0-.41-.22.567.567 0 0 0-.44.15c-.13.11-.2.25-.22.41Zm12.23 2.04-.12 1.48c-.08.98-.18 1.98-.3 3-.12 1.03-.28 2.14-.47 3.34-.09.55-.17 1.01-.23 1.37-.09.54-.14.85-.16.93l.05.12c.03.07.07.14.14.24.07.09.15.17.22.25.08.07.17.11.28.11s.22-.06.32-.18c.12-.13.19-.22.22-.28.03-.06.03-.11 0-.15a.224.224 0 0 1-.03-.1c.02-.1.06-.34.12-.73.08-.39.17-.9.27-1.53.23-1.2.48-2.26.76-3.19.07-.21.13-.41.19-.61.27-.79.48-1.49.65-2.11.15.54.3 1.21.45 2.02.23 1.38.43 2.61.6 3.68.17 1.08.32 1.91.43 2.49.06.32.19.54.4.67.1.05.2.09.3.11.1.02.19.02.28 0 .09-.02.17-.05.25-.1.08-.04.16-.1.23-.19.08-.08.14-.16.2-.23s.12-.16.19-.27c.07-.11.12-.2.16-.28.04-.07.08-.16.14-.26.05-.1.1-.17.13-.22.67-1.21 1.3-2.43 1.9-3.66.57-1.2 1.01-2.03 1.32-2.49 0-.01 0-.03.03-.05-.01.16-.03.32-.05.51-.09.78-.23 1.78-.41 3-.18 1.23-.31 2.27-.39 3.13-.07.86-.1 1.42-.1 1.69l.03.37c0 .16.06.29.19.41.13.11.28.17.44.17.17 0 .31-.07.42-.2.11-.13.16-.27.15-.43v-.37c-.02-.22 0-.74.08-1.54.08-.82.2-1.83.38-3.04.18-1.23.32-2.24.42-3.03.11-.87.11-1.51-.01-1.91-.19-.63-.53-.87-1.02-.72-.14.05-.28.14-.4.28-.18.21-.44.57-.76 1.06-.34.52-.82 1.4-1.42 2.64-.58 1.21-1.21 2.41-1.87 3.6-.06.11-.12.22-.18.32-.07-.45-.16-1-.26-1.64-.16-1.08-.37-2.31-.61-3.7-.25-1.44-.53-2.48-.83-3.15-.31-.69-.71-.92-1.19-.69-.15.07-.27.19-.37.36v-.18a.53.53 0 0 0-.13-.45.621.621 0 0 0-.41-.22.533.533 0 0 0-.44.15c-.13.11-.2.25-.21.4Zm16.57 2.86c.07-.15.08-.3.03-.46a.552.552 0 0 0-.3-.35.613.613 0 0 0-.46-.04c-.16.05-.28.14-.35.29l-.25.49c-.2.16-.46.49-.79.97-.23.34-.5.81-.8 1.41-.26.51-.55 1.11-.87 1.8-.58 1.26-1.04 2.31-1.39 3.14-.08.14-.18.31-.28.49-.1.18-.18.32-.22.39-.04.08-.1.19-.17.34-.07.15-.1.25-.1.31v.33c.08.7.45.65 1.11-.15l.6-.85c.05-.11.11-.23.15-.36.18-.35.39-.75.64-1.2.13-.25.26-.49.4-.74l.47.06c.61.08 1.25.17 1.92.28h.07c.17 1.29.33 2.19.5 2.72l.25.81c.05.15.15.27.3.35.15.08.31.1.46.04.15-.05.27-.15.35-.3.08-.14.1-.3.05-.45l-.26-.83c-.13-.4-.26-1.14-.4-2.21.22-.07.35-.23.39-.47.03-.17 0-.32-.11-.45a.618.618 0 0 0-.4-.24h-.04c-.16-1.38-.28-2.51-.37-3.39-.07-.72-.16-1.21-.27-1.48l.14-.27Zm-1.95 3.75c.32-.58.61-1.14.89-1.69.08.78.18 1.74.31 2.86-.59-.09-1.14-.17-1.67-.24h-.02c.16-.32.32-.63.48-.93Z" style="fill:#391616"/>
</svg>
