<svg xmlns="http://www.w3.org/2000/svg" viewBox="0 0 61.22 56.64">
    <path d="M61.22 0 49.59 3.78l.14 4.16c-.05-.06-.11-.15-.15-.2-1.84-2.32-1-.8-1.4-.89-.65-.14-.28-.71-1.33-1.29-1.25.58-1.11.05-1.26 1.7-.1 1.11-.07 1.91-.32 3.08l-.95-2.92c-.75.27-3.91 2.45-4.26 3.03-.5.82-.72 3.53-1.21 4.81-.27.69-.16.39-.35.67l-.26-4.19-6.51 5.35-.16 6.24-1.01-4.16c-.62.32-4.24 3.57-4.68 4.26-1.05 1.66-.77 5.17-1.61 6.99l-.21-5.01c-6.05 3.5-8.82 16.73-9.39 17.36L0 54.27c.52.86.62.75 1.55 1.38.58.39.97.69 1.58.98 1-.54 2.52-2.47 3.41-3.45l10.02-10.21c6.04.04 11.17-.96 15.36-3.96l-3.75-.89c1.77-.11 4.13.47 5.53-.33 1.12-.64 2.25-1.7 3.44-2.27-.32-.46-.77-1.02-1.3-1.41l1.94.79 1.11-1.43c-1.79-.59-3.55-1.63-5.11-2.22l6.9 1.74c.7-1.38 2.95-3.06 3.29-4.17l-4.03-1.03c4.47-.04 4.71 1.31 7.49-1.88l-6.5-2c3.85-.32 6.92 1.82 7.89-.28l-3.51-1.01 4.7.13c.86-.54 2.48-3.55 2.79-4.43-1.16-.69-2.37-.52-3.89-1.25-.05-.02-.17-.02-.21-.12-.04-.1-.14-.08-.21-.15l5.6-.58L61.22 0Z"/>
</svg>
