<svg xmlns="http://www.w3.org/2000/svg" viewBox="0 0 25.06 24.42">
    <path d="M24.42 0c-2.86 1.16-5.63 3.2-8.33 6.11s-4.04 6.87-4.04 11.9c0 1.53.45 2.99 1.35 4.36.9 1.37 2.17 2.06 3.81 2.06 1.43 0 2.59-.45 3.49-1.35s1.35-2.12 1.35-3.65c0-1.06-.34-2.01-1.03-2.86-.69-.85-1.59-1.27-2.7-1.27s-1.88-.19-2.3-.56c-.48-.42-.71-1.03-.71-1.82 0-2.48.98-4.72 2.93-6.7 1.96-1.98 4.23-3.63 6.82-4.96l-.63-1.27ZM12.37 0C9.51 1.16 6.74 3.2 4.04 6.11 1.35 9.01 0 12.98 0 18c0 1.53.45 2.99 1.35 4.36.9 1.37 2.17 2.06 3.81 2.06 1.43 0 2.59-.45 3.49-1.35.9-.9 1.35-2.12 1.35-3.65 0-1.06-.34-2.01-1.03-2.86-.69-.85-1.59-1.27-2.7-1.27s-1.88-.19-2.3-.56c-.48-.42-.71-1.03-.71-1.82 0-2.48.98-4.72 2.93-6.7 1.96-1.98 4.23-3.63 6.82-4.96l-.63-1.27Z" style="fill:#ef7d00"/>
</svg>
