<svg xmlns="http://www.w3.org/2000/svg" viewBox="0 0 25.06 24.42">
    <path d="M.63 24.42c2.86-1.16 5.63-3.2 8.33-6.11S13 11.44 13 6.42c0-1.53-.45-2.99-1.35-4.36C10.75.69 9.48 0 7.84 0 6.41 0 5.25.45 4.35 1.35 3.45 2.25 3 3.46 3 5c0 1.06.34 2.01 1.03 2.85.69.85 1.59 1.27 2.7 1.27s1.88.19 2.3.55c.48.42.71 1.03.71 1.82 0 2.49-.98 4.72-2.93 6.7-1.96 1.98-4.23 3.63-6.82 4.96l.63 1.27h.01Zm12.05 0c2.86-1.16 5.63-3.2 8.33-6.11s4.05-6.87 4.05-11.89c0-1.53-.45-2.99-1.35-4.36C22.81.69 21.54 0 19.9 0c-1.43 0-2.59.45-3.49 1.35-.9.9-1.35 2.11-1.35 3.65 0 1.06.34 2.01 1.03 2.85.69.85 1.59 1.27 2.7 1.27s1.88.19 2.3.55c.48.42.71 1.03.71 1.82 0 2.49-.98 4.72-2.93 6.7-1.96 1.98-4.23 3.63-6.82 4.96l.63 1.27Z" style="fill:#ef7d00"/>
</svg>
