<svg xmlns="http://www.w3.org/2000/svg" viewBox="0 0 169.65 150.21">
    <path d="M97.42 34.92c.46.03.84.01 1.2.09 3.12.71 6.27.61 9.43.39 1.67-.12 3.34-.17 5.01-.3.66-.05 1.32-.19 1.96-.38 1.01-.3 2-.65 2.98-1.03 1.98-.76 4.04-1.18 6.09-1.63.22-.05.45-.03.73-.04-.03.88-.1 1.67-.53 2.41-.16.28-.28.61-.33.94-.32 1.94-.63 3.87-.93 5.81-.04.28 0 .57 0 .85.64.66 1.34 1.07 2.26 1.14.72.05 1.35.08 1.65-.8.05.32.08.64.16.96.1.43.36.64.81.66.43.01.85.02 1.23-.27.25-.2.56-.33.92-.54.26.32.5.6.73.89.85 1.06 2.12.96 2.8-.23.11-.2.18-.43.29-.71.43.08.74.41.83.69.17.57.6.68 1.07.83.29 1.13.3 2.27.17 3.41-.18 1.53-.08 3.05.11 4.58.43 3.51.8 7.03 1.15 10.56.07.65 0 1.34-.12 1.99-.36 2.08-.79 4.14-1.13 6.22-.19 1.18-.27 2.37-.39 3.56-.1 1.05-.18 2.09-.3 3.14-.08.67-.21 1.32-.31 1.99-.33 2.08-.67 4.15-.73 6.27-.04 1.38-.3 2.76-.43 4.14-.15 1.48-.26 2.95-.4 4.43-.18 1.76-.37 3.52-.57 5.28-.29 2.52-.59 5.04-.88 7.56-.03.31-.16.67.29.96.1-.13.26-.24.3-.38.18-.65.34-1.3.47-1.95.89-4.41 1.82-8.81 2.07-13.32.06-1.05.32-2.08.44-3.13.18-1.52.33-3.04.49-4.57.07-.71.12-1.43.22-2.14.16-1.14.34-2.27.54-3.41.32-1.89.52-3.78.61-5.7.1-1.91.41-3.8.64-5.7 0-.07.1-.12.2-.23.35.25.35.66.45 1 .73 2.38 1.42 4.77 2.16 7.14.21.68.52 1.34.86 1.96.7 1.31 1.43 2.6 2.2 3.87.52.86 1.13 1.66 1.71 2.48.14.19.32.36.5.51.93.75 1.86 1.49 2.8 2.24.79.63 1.63 1.17 2.65 1.37.18.03.34.15.59.27-.07.42-.11.85-.2 1.26-.15.68.04 1.22.61 1.63.23.16.43.36.61.5 0 .17.03.29-.01.36-1.16 1.98-2.08 4.09-3.32 6.03-1.08 1.69-1.97 3.5-2.97 5.24-.43.75-.87 1.49-1.36 2.19-.64.9-1.22 1.83-1.68 2.83-.89 1.91-1.88 3.76-2.62 5.74-.38 1.02-.95 1.98-1.46 3.01-.54-.05-1.14-.28-1.58.29-.05.06-.18.1-.26.09-.72-.15-1.41-.1-2.12.11-.16.05-.45-.14-.61-.3-.31-.29-.58-.63-.85-.97-.59-.75-1.34-1.22-2.32-1.25-.14 0-.28-.04-.39-.06-.11-.07-.22-.1-.27-.18-.76-1.19-1.91-1.34-3.15-1.14-.88.14-1.55-.19-2.16-.75-.54-.49-.66-.46-1.08.4-.89.04-1.78-.11-2.58-.53-.48-.25-.97-.38-1.49-.46-1.51-.24-3.04-.42-4.54-.71-1.56-.31-3.12-.27-4.69-.14-.47.04-.95-.04-1.42-.11-3.17-.45-6.35-.92-9.52-1.38-.82-.12-1.56-.39-2.26-.85-.3-.2-.68-.35-1.04-.41-2.17-.37-4.35-.66-6.52-1.07-1.3-.25-2.56-.03-3.83.1-.4.04-.71.02-1.08-.19-.66-.38-1.38-.64-2.05-1-.37-.2-.78-.42-1.03-.74-.23-.3-.42-.49-.79-.5-.09 0-.22-.04-.26-.1-.56-.93-1.48-1.13-2.39-1.14-.37-.42-.25-.81-.19-1.17.62-3.83 1.23-7.66 1.87-11.48.39-2.31.85-4.61 1.22-6.93 1.27-7.99 2.52-15.98 3.75-23.98.51-3.31.93-6.64 1.38-9.96.04-.3 0-.62-.01-1.04-.23.14-.4.18-.44.28-.09.22-.14.45-.18.69-.76 4.34-1.55 8.67-2.26 13.02-1.17 7.13-2.26 14.28-3.45 21.41-.41 2.45-.99 4.88-1.57 7.3-.82 3.45-1.35 6.95-1.9 10.45-.07.47-.05.95-.07 1.43-.01.33-.17.54-.48.64-.31.1-.54-.07-.73-.51-.02-.04 0-.1-.03-.14-.35-.85-.49-.89-1.35-.39-.15.09-.33.18-.5.2-1.51.16-3.02.35-4.54.45-.92.06-1.83-.08-2.51-.81-.57-.62-1.31-.89-2.08-1.19-1.67-.66-3.43-.93-5.18-1.03-1.1-.07-2.27-.14-3.38.3-.6.24-1.29.24-1.97.36-.48-.64-.94-1.25-1.38-1.86-.27-.37-.61-.58-1.07-.65-.75-.1-1.47-.29-2.23.15-.56.33-1.19.21-1.75-.21-.42-.31-.87-.62-1.35-.77-.79-.25-1.61-.29-2.26.47-.56-.78-.68-1.53-.79-2.27-.08-.56-.03-1.14 0-1.71.03-.86.09-1.72.13-2.57l.12-2.14c.05-.81.08-1.62.14-2.43.05-.76.09-1.53.2-2.28 1-6.92 2.03-13.83 3-20.75.2-1.42.23-2.86.34-4.29.07-.95.12-1.91.24-2.86.3-2.37.65-4.74.96-7.11.1-.77-.04-1.17-.3-1.08-.46.16-.4.61-.46.95-.51 2.73-.99 5.46-1.48 8.2-.06.33-.09.67-.1 1-.02 1.97-.34 3.9-.68 5.84-1.16 6.65-2.29 13.3-3.41 19.96-.1.61-.13 1.24-.15 1.85-.03 1.24.02 2.49-.27 3.71-.05.23-.06.47-.07.71l-.15 4.17c-.88.5-1.66 1.02-2.21 1.83-.1.15-.28.32-.45.34-1.15.18-2.24.67-3.46-.01-1.16-.65-2.45-.71-3.71-.02-.71.39-1.5.63-2.13 1.16-.31.26-.69.31-1.08.25-.71-.11-1.43-.17-2.13-.31-.55-.11-1.03-.04-1.49.3-.42.31-.87.57-1.38.9-.07-.28-.15-.5-.17-.73-.04-.38 0-.77-.05-1.15-.42-3.46-.85-6.93-1.29-10.39-.06-.47-.16-.95-.32-1.39-.49-1.41-.78-2.85-1.04-4.32-.31-1.74-.63-3.49-1.09-5.19-.57-2.13-.72-4.34-1.24-6.48-.02-.08.04-.18.09-.36.25-.1.55-.22.86-.34.58-.23.93-.64 1.01-1.28.05-.42.13-.84.2-1.3.22-.03.4-.11.58-.09 1.29.17 2.45-.27 3.61-.72.76-.29 1.51-.6 2.28-.86 1.22-.4 2.18-1.21 3.12-2.01 1.39-1.17 2.71-2.43 4.04-3.67.35-.32.64-.71.92-1.1 1.11-1.56 2.2-3.14 3.29-4.7.27-.39.55-.78.81-1.15.4.09.32.35.28.57-.34 1.93-.7 3.86-1.02 5.8-.64 3.87-1.25 7.75-1.86 11.63-.46 2.93-.95 5.86-1.67 8.74-.35 1.39-.53 2.82-.82 4.23-.32 1.54-.73 3.07-1.02 4.62-.36 1.88-.66 3.77-.96 5.66-.06.41-.04.85.35 1.22.44-.23.6-.61.69-1.03.12-.61.25-1.22.32-1.84.23-1.86.73-3.66 1.21-5.46.21-.79.4-1.58.52-2.38.35-2.22.72-4.44 1.35-6.61.24-.82.38-1.68.52-2.53 1.23-8 2.45-15.99 3.65-23.99.12-.78.35-1.46.8-2.12.4-.59.73-1.23 1.03-1.88 1.71-3.74 3.38-7.5 5.09-11.24.54-1.19.76-2.46 1.1-3.71.24-.88.56-1.72 1.06-2.56.98.36 1.35-.88 2.3-.86.07.58-.05 1.15.39 1.64.57.62 1.34.8 2.04.36.36-.22.7-.48 1.09-.74.21.19.39.34.55.51.16.17.28.4.45.55.86.76 1.65.53 2.05-.57.05-.13.11-.26.16-.39.05.04.1.05.13.09.26.33.04.93.56 1.09.63.21 1.28.41 1.97.27.28-.06.55-.15.82-.25.35-.12.56-.36.64-.71.07-.33.13-.66.19-.99.22-1.37.43-2.74.65-4.11.13-.8.25-1.59.04-2.42-.17-.65.03-1.32.25-2.05.29.11.56.18.79.3 2.5 1.33 4.8 2.97 6.99 4.75 1.06.86 2.22 1.47 3.49 1.93 1.84.67 3.67 1.38 5.5 2.09.21.08.4.22.64.35-.24.52-.49.96-.65 1.44-.15.45-.2.93-.28 1.41-.89 5.14-1.81 10.28-2.64 15.43-1.43 8.89-2.79 17.78-4.2 26.67-.16 1.04-.37 2.08-.66 3.09-.45 1.57-.71 3.17-.91 4.79-.2 1.57-.54 3.11-.95 4.63-.33 1.24-.47 2.54-.69 3.81-.02.13-.01.3.04.42.05.11.18.25.29.25.11 0 .26-.1.34-.2.08-.11.12-.26.14-.4.31-2.14.96-4.19 1.5-6.28.26-1.02.36-2.08.58-3.1.4-1.82.84-3.63 1.26-5.45.15-.65.32-1.3.43-1.96 1.95-12.29 3.9-24.59 5.83-36.88.29-1.84.48-3.7.69-5.56.08-.63.19-1.23.76-1.77.21.05.47.13.73.19.74.18 1.48.39 2.23.52 3.02.52 6.04 1.02 9.06 1.54.37.06.74.15 1.2.24-.03.3-.04.57-.09.84-.23 1.32-.48 2.63-.34 3.99.04.37-.02.77-.1 1.14-.36 1.74-.46 3.51-.49 5.28-.04 2.83-.35 5.63-.79 8.42-.25 1.55-.26 3.14-.38 4.72-.05.67-.07 1.34-.17 2-.6 3.84-.78 7.71-1.17 11.57-.02.14-.03.29-.03.43 0 .24.02.52.32.53.28 0 .36-.28.4-.51.05-.33.09-.66.13-1 .19-1.47.35-2.95.57-4.42.31-2.08.68-4.16.98-6.24.22-1.56.36-3.13.55-4.7.17-1.38.29-2.76.54-4.12.37-2.04.44-4.09.51-6.15.07-1.86.06-3.73.44-5.57.07-.33.13-.67.1-1-.16-1.64.06-3.24.35-5.02Zm19.74 1.37c-.58.22-.63.57-.7.88-.3 1.31-.58 2.61-.85 3.93-.07.32-.07.67-.06 1 .08 2.69-.23 5.36-.64 8-1.44 9.41-2.98 18.81-4.48 28.21-.11.66-.17 1.33-.25 1.99-.27 2.42-.54 4.85-.79 7.27-.05.47-.05.95-.02 1.43.1 1.89-.39 3.7-.63 5.55a.86.86 0 0 1-.09.27c-.16.3-.36.57-.75.58-.37.02-.66-.11-.85-.42-.15-.25-.3-.5-.38-.77-.31-1-.77-1.96-.61-3.06.02-.11-.19-.28-.32-.37-.03-.02-.25.14-.3.25-.22.54-.29 1.1-.09 1.68.2.59.38 1.18.56 1.78.34 1.13.99 1.91 2.23 2.17.91.19.97.21 1.6-.48.35-.38.49-.81.57-1.28.22-1.32.45-2.64.65-3.97.07-.42.13-.86.09-1.29-.1-1.11.06-2.19.23-3.28.11-.71.16-1.43.24-2.14.26-2.38.43-4.77.79-7.13 1.35-8.89 2.81-17.77 4.14-26.66.34-2.26.5-4.57.53-6.86.02-1.63.07-3.24.24-4.86.05-.52.11-1.05.12-1.57 0-.27-.11-.53-.18-.86ZM100.8 74.31h.07c-1.15 7.28-2.32 14.56-3.45 21.85-.26 1.7-.44 3.42-.64 5.13-.03.27.02.56.08.83 0 .04.32.09.34.05.14-.24.28-.49.34-.76.35-1.74.71-3.47 1-5.22 1.37-8.41 2.75-16.82 4.07-25.24 1.19-7.57 2.3-15.14 3.46-22.72.08-.52.17-1.04.36-1.53.55-1.45.67-2.98.89-4.5a.839.839 0 0 0-.06-.41c-.03-.07-.13-.13-.21-.14-.08-.01-.21.03-.24.08-.1.21-.2.43-.24.66-.25 1.51-.49 3.02-1.16 4.43-.12.25-.15.55-.2.83-.39 2.12-.82 4.23-1.16 6.36-1.09 6.76-2.15 13.52-3.22 20.28Zm28.52-14.66c-.07.19-.18.38-.22.59-.69 3.67-1.37 7.34-2.05 11.01-.27 1.46-.46 2.93-.46 4.42 0 .67-.12 1.33-.22 2-.4 2.5-.81 5.01-1.23 7.51-.2 1.18-.34 2.36-.32 3.57.01.76-.1 1.53-.21 2.28-.51 3.31-1.06 6.62-1.56 9.93-.12.8-.17 1.62-.15 2.43.02.87-.03 1.72-.17 2.57-.17 1.04-.32 2.08-.45 3.12-.09.68-.01 1.35.45 1.9.08.09.25.17.36.15.11-.02.25-.16.27-.26.11-.51.19-1.02.28-1.54.33-2.07.87-4.12.74-6.26-.04-.61.06-1.24.15-1.85.5-3.26 1.04-6.52 1.53-9.79.15-.99.18-2 .26-3 .07-.86.09-1.72.21-2.57.38-2.65.81-5.3 1.2-7.95.09-.61.13-1.24.14-1.86.03-1.77.12-3.54.45-5.28.11-.61.2-1.23.28-1.85.37-2.9.73-5.79 1.09-8.69.03-.23.06-.49-.36-.58ZM60.63 35.23c-.54.19-.53.61-.59.96-.64 3.63-1.32 7.25-1.87 10.89-.44 2.88-.61 5.81-1.08 8.69-.81 4.96-1.31 9.96-1.97 14.94-.06.43-.1.85-.13 1.28-.2 3.2-.46 6.4-1.09 9.54-.6 2.97-.73 5.97-.93 8.98-.03.5.14 1.03.26 1.54.05.23.23.47.51.36.14-.05.3-.26.31-.4.11-1.09.26-2.19.27-3.28.01-1.87.2-3.72.53-5.56.28-1.6.53-3.21.76-4.82.14-.95.24-1.9.33-2.85.15-1.62.21-3.25.41-4.86.58-4.7 1.03-9.42 1.84-14.09.18-1.04.31-2.08.4-3.13.44-4.96 1.13-9.88 1.83-14.81.13-.9.24-1.8.33-2.71.02-.21-.07-.43-.12-.67Zm5.1 57.55c-.31.49-.52.98-.87 1.35-.68.74-1.73.45-2-.52-.1-.36-.19-.75-.17-1.12.07-1.38.17-2.76.29-4.14.09-1.05.24-2.09.34-3.14.2-2.05.32-4.1.58-6.14.5-3.94 1.05-7.87 1.64-11.79 1.04-7 2.12-13.99 3.18-20.99.07-.47.14-.95.18-1.42.01-.16-.09-.34-.19-.65-.19.26-.34.4-.38.55-.12.51-.21 1.03-.3 1.55-1.72 10.18-3.47 20.36-5.15 30.55-.49 2.97-.78 5.97-1.17 8.96-.25 1.94-.69 3.86-.67 5.83.01.82.02 1.62.22 2.41.27 1.06.96 1.61 2.05 1.57 1.19-.04 2.41-1.04 2.67-2.2.05-.21.12-.47-.26-.68Z" style="fill:#9e2b2d"/>
    <path d="M42.33 123.46c-.08-.87-.51-1.57-1.23-2.12-.25-.19-.39-.53-.54-.82-.46-.85-1.1-1.53-1.94-2.3-.08.35-.19.54-.13.66.17.39.4.76.61 1.14.16.29.4.56.49.87.19.62.52 1.11 1.05 1.49.17.12.25.37.43.67-.78-.07-1.32-.37-1.87-.64-.9-.44-1.79-.91-2.7-1.33-1.13-.53-2.26-1.04-3.48-1.33-1.17-.28-2.22-.86-3.28-1.43-1.26-.68-2.51-1.39-3.89-1.83-.49-.15-.93-.47-1.39-.72-.37-.21-.71-.49-1.1-.67-.63-.29-1.12-.69-1.56-1.23-.32-.4-.76-.71-1.2-1.12.2-.15.35-.33.55-.4.75-.27 1.25-.87 1.83-1.36.26-.22.41-.64.49-.99.15-.65.22-1.31.33-1.96.42-.03.43.25.5.45.38 1.15.94 2.2 1.65 3.17.17.23.35.48.69.41.23-.04.24-.47-.04-.86-1.1-1.54-1.66-3.33-2.29-5.08-.03-.09-.08-.18-.09-.27-.06-1.05-.1-2.09-.16-3.19.57-.11 1-.28 1.38-.71.47-.53 1.18-.8 1.95-.65.61.12 1.23.23 1.83.39.59.16 1.15.17 1.63-.25.67-.58 1.5-.83 2.25-1.25.75-.42 1.45-.33 2.18.05 1.62.85 3.29.83 4.97.2.3-.11.59-.32.8-.56.34-.4.68-.78 1.21-1.01.08.19.16.31.17.43.02.56.23 1 .71 1.33.51.36 1.07.38 1.65.31.19-.02.41-.05.54-.17.86-.72 1.59-.36 2.29.24.9.78 1.88.85 2.94.42.18-.07.35-.18.53-.22.7-.15 1.34-.06 1.76.61.35.56.69 1.13 1.1 1.79 1.02.48 2.21.34 3.22-.14.91-.44 1.86-.54 2.77-.58 1.08-.05 2.17.28 3.26.46.13.02.24.14.36.22.69.49 1.32 1.08 2.08 1.48.35.19.6.6.85.94.27.37.61.59 1.06.66.71.1 1.42.24 2.13.33.88.12 1.69-.24 2.49-.48.81-.24 1.58-.64 2.46-1.02.05.5.05.91.14 1.3.08.4.52.62.89.42.93-.48 1.88-.53 2.95-.19.2-.19.42-.43.67-.63.37-.3.75-.21.92.21.06.13.08.28.12.42.1.43.41.66.82.69.52.03 1.04 0 1.65-.02.85.54 1.78 1.11 2.69 1.71.42.27.89.35 1.37.33.62-.02 1.26 0 1.84-.17.83-.23 1.61-.11 2.41.01 1.8.28 3.6.55 5.39.82.52.08.99.23 1.43.58.76.6 1.66.98 2.61 1.14 3.44.59 6.89 1.15 10.34 1.7.36.06.76-.02 1.13-.08 1.32-.2 2.63-.38 3.97-.08 1.26.27 2.55.41 3.82.63.7.12 1.36.33 2.04.61 1.15.48 2.4.61 3.65.3.95.66 1.97.93 3.11.65.51-.13.94 0 1.26.45.03.04.06.08.09.11 1.02 1 1.13 1.04 2.57.84.28.41.58.83.86 1.27.75 1.18 2.09 1.78 3.44 1.5.51-.1 1.01-.21 1.55-.32.2.34.36.63.56.97-.16.28-.34.55-.49.84-.44.86-.78 1.74-.91 2.71-.16 1.19-.35 2.37-.55 3.55-.11.64.04 1.16.36 1.75.52.96 1.38 1.58 2.06 2.37.17.19.49.29.76.36.36.1.73.13 1.14.19-.64.81-.66.8-1.5 1.04-.73.21-1.46.45-2.18.71-.26.1-.58.21-.73.42-.5.68-1.26.76-1.93.7-.98-.08-1.9.1-2.84.24-.24.03-.49.15-.7.09-1.07-.27-2.08-.03-3.11.19-.32.07-.67.09-.99.05-1.72-.24-3.43-.13-5.14.15-.51.09-1.05.12-1.56.05-.72-.1-1.42-.06-2.14.03-1.18.15-2.38.25-3.57.35-.28.02-.58 0-.86-.05-.76-.14-1.52-.16-2.28-.06-1.01.14-2.01-.1-2.99-.29-1.37-.27-2.73-.5-4.13-.33h-.14c-1.75-.33-3.53-.2-5.28-.43-1.82-.25-3.62-.21-5.44-.18-.43 0-.87.05-1.29-.02-1.7-.27-3.44-.43-5.08-.91-3.55-1.05-7.19-1.58-10.83-2.16-1.51-.24-3.02-.49-4.54-.72-1.23-.19-2.45-.42-3.63-.85-.54-.19-1.11-.3-1.68-.38-1.38-.19-2.72-.55-4.05-.93-.92-.26-1.85-.48-2.79-.65-1.27-.23-2.52-.51-3.77-.89-4.44-1.36-8.89-2.65-13.34-3.97-.13-.04-.26-.12-.44-.2Zm23.88-2.02c0 .2-.06.44.03.55.48.65.94 1.34 1.53 1.89 1.05.97 2.19 1.85 3.28 2.78.71.61 1.6.85 2.42 1.22.11.05.35-.08.47-.19.06-.06.05-.3-.01-.38-.24-.29-.49-.62-.8-.8-.89-.51-1.58-1.23-2.33-1.9-.39-.35-.78-.71-1.2-1.02-.61-.46-1.23-.89-1.69-1.53-.39-.53-.95-.77-1.69-.61Zm61.97 7.12c-.1.13-.32.27-.3.39.03.32.11.65.24.95.55 1.19 1.65 1.8 2.67 2.48.14.1.47.03.65-.07.28-.16.34-.49.16-.75-.2-.31-.45-.66-.76-.82-.67-.34-1.16-.82-1.58-1.41-.16-.23-.4-.41-.62-.59-.1-.08-.26-.11-.47-.19Zm-97.35-16.61c.45-.42.28-.69.12-.91-1.2-1.71-2.42-3.41-3.64-5.1-.13-.18-.36-.28-.62-.49-.1.24-.26.41-.22.54.09.31.23.63.42.89.97 1.35 1.95 2.69 2.95 4.02.28.37.64.68.99 1.05Zm-2.09 1.4c1.32 3.34 1.62 3.76 3.42 4.82.07-.11.23-.24.21-.32-.07-.22-.17-.47-.34-.61a6.689 6.689 0 0 1-2.03-2.7c-.19-.45-.51-.88-1.25-1.19Zm58.5 16.57c-.14-.38-.17-.63-.3-.77-.3-.3-.63-.61-1.01-.79-1.1-.53-1.99-1.3-2.74-2.25-.1-.13-.26-.3-.47-.14-.02.05-.07.09-.06.13.03.14.04.28.11.4.54.87 1.27 1.54 2.12 2.08.56.36 1.1.74 1.66 1.1.14.09.32.12.68.24Zm46.63-.35c-.67-.63-1.19-1.38-2.05-1.76-.23-.1-.35-.43-.54-.62-.08-.08-.21-.1-.41-.19-.06.64.05 1.12.58 1.38.49.24.81.62 1.12 1.06.16.22.38.43.62.56.27.14.56.09.69-.42Zm-97.29-10.36c.25.48.5.97.81 1.57.17-.23.37-.37.35-.49-.06-.59-.4-1-1.16-1.08Zm41.98 7.52c.35.33.65.61.95.9.17.16.31.17.44-.04-.59-.93-.63-.95-1.39-.87Zm-44.03-8.09q.29 1 .97 1.16c-.15-.5-.32-.89-.97-1.16Zm100.29 9.06c-.18-.33-.4-.57-.82-.65q.11.8.82.65Zm.74-5.89c.15-.07.22-.11.3-.14-.09-.15-.17-.3-.26-.45-.1.06-.2.12-.3.17.09.14.17.29.26.43Z" style="fill:#c37c60"/>
    <path d="M147.68 142.32c.11.17.21.45.59.28-.03-.31-.06-.63-.1-.95-.14-.93-.74-1.71-.82-2.67-.03-.41-.18-.82-.28-1.24-.79.2-1.5.42-2.23.56-.71.14-1.02-.06-1.38-.71-.46-.85-.85-1.7-.78-2.7.01-.16-.06-.32-.14-.66-.81.86-1.79 1.06-2.75 1.46.25.32.39.58.6.76.32.29.71.5 1.02.79.27.25.52.55.71.87.07.12.02.4-.08.5-.1.1-.33.07-.51.09-.03 0-.07-.06-.11-.09-.88-.73-1.93-1.26-2.55-2.28-.07-.12-.19-.22-.3-.31-.34-.3-.65-.31-1.02-.04-.22.17-.42.43-.67.48-.6.13-1.24.27-1.84.21-.93-.1-1.8.15-2.7.22-.47.04-.95.09-1.42.03-.58-.07-1.13 0-1.7.11-.65.13-1.33.23-1.99.17-1.73-.16-3.44-.14-5.14.21-.61.13-1.23.11-1.85.03-.56-.07-1.14-.04-1.7 0-1.81.13-3.6.53-5.42.12-.36-.08-.76.03-1.14.02-.76-.03-1.53-.04-2.28-.14-1.66-.21-3.29-.62-4.99-.44-.33.03-.67-.02-1-.08-1.18-.23-2.38-.22-3.57-.21-.33 0-.68.04-1-.03-1.94-.41-3.91-.24-5.86-.2-.48.01-.96.02-1.43-.05-2.41-.37-4.84-.64-7.19-1.35-.73-.22-1.5-.33-2.25-.45-3.64-.58-7.28-1.13-10.92-1.73-.99-.16-1.95-.45-2.93-.68-1.07-.25-2.15-.48-3.22-.72-1.02-.24-2.05-.48-3.07-.73-.74-.18-1.48-.38-2.23-.53-.94-.19-1.9-.27-2.82-.52-1.52-.4-3.03-.9-4.54-1.35-3.25-.98-6.5-1.95-9.76-2.93-2.06-.62-4.1-1.27-6-2.33-1.2-.68-2.48-1.26-3.79-1.68a19.31 19.31 0 0 1-4.16-1.89c-1.23-.74-2.51-1.37-3.82-1.97-1.16-.53-2.18-1.36-3.26-2.06a.548.548 0 0 1-.2-.2c-.46-.86-1.22-1.44-1.91-2.14-.26-.02-.54-.04-.82-.09-.3-.06-.61-.13-.91-.2-.25.16-.51.18-.85.18-.25 0-.45 0-.64-.05-.24.54-.5 1.02-.64 1.53-.28 1-.82 1.79-1.56 2.51-.48.47-.91.64-1.52.43-.12-.04-.26 0-.43 0 .28 1.8 1.17 3.23 2.28 4.56.06.07.22.05.36.06-.24-.54-.62-1.05-.24-1.79.21.64.89.74 1.17 1.34.47 1.04 1.07 2.02 1.56 3.06.55 1.16 1.28 2.11 2.47 2.68.9.43 1.77.94 2.66 1.41.15.08.33.11.57.19-.11-.97-1.21-1.54-.79-2.57.13.03.27.02.3.07.43.74.91 1.46 1.26 2.24.29.65.78 1.07 1.27 1.5.25.22.6.49 1.1.26-.11-.21-.22-.42-.32-.62-.27-.56-.56-1.11-.81-1.67-.12-.27-.03-.46.35-.45.52.88 1.1 1.76 1.57 2.69.24.48.58.71 1.06.86 1.93.57 3.85 1.16 5.77 1.74.2.06.44.2.71-.11-.26-.61-.56-1.26-.82-1.92-.31-.8-.6-1.61-.88-2.42-.09-.26-.03-.46.36-.46.09.2.18.41.27.63.46 1.1.93 2.2 1.38 3.31.56 1.4 1.66 2 3.15 2.16-.05-.27-.05-.52-.15-.72-.29-.65-.6-1.3-.94-1.93-.35-.64-.59-1.28-.28-2.15.18.23.33.35.39.5.15.4.18.87.42 1.2.58.83 1.03 1.72 1.41 2.65.24.6.71 1.04 1.33 1.23 1.73.54 3.48 1.05 5.22 1.56.22.06.47.12.62-.16.05-.48-.57-.77-.39-1.33.86.28 1.59.68 2.11 1.42.18.26.45.54.74.63 1.92.6 3.82 1.3 5.78 1.68 1.98.39 3.9.94 5.82 1.52 2.24.68 4.41 1.6 6.78 1.81.23.02.47.11.69.18 1.36.44 2.72.92 4.09 1.33 1.69.5 3.34 1.13 5.11 1.39 5.21.78 10.41 1.62 15.6 2.46 1.38.22 2.75.3 4.14.27 1.19-.03 2.39-.03 3.57.11 1.1.12 2.18.21 3.29.15.9-.05 1.83-.15 2.72-.01 1.63.24 3.24.11 4.86.05 1.67-.06 3.34-.29 5 .1.32.07.67.01 1-.02 1.38-.11 2.76-.31 4.14-.04.18.03.38 0 .57 0 .57 0 1.14 0 1.71.01.24 0 .48.01.71 0 1.9-.1 3.8-.26 5.71-.28 1.43-.02 2.86-.08 4.27-.31 1.08-.18 2.18-.35 3.2-.72.94-.34 1.97-.43 2.81-1.05.14-.1.36-.08.55-.11 1.5-.22 3.02-.36 4.44-.97.81-.35 1.64-.69 2.57-1.07-.29-.44-.54-.77-.74-1.13-.2-.37-.38-.76-.52-1.16-.04-.11.09-.28.19-.57.38.64.65 1.13.95 1.6ZM17.29 122.43c-.26-.26-.46-.6-.58-.95-.28-.8-.5-1.63-.95-2.36-.03-.05.05-.16.12-.38.67.37.97.9 1.2 1.47.16.4.26.82.45 1.2.16.32.42.59.62.86-.27.46-.61.42-.86.16Zm2.13-1.33c-.19-.18-.44-.35-.58-.57-1.01-1.67-1.67-3.49-2.09-5.52.21.06.44.05.51.15.23.35.47.73.6 1.13.43 1.38 1.09 2.63 1.94 3.79.32.44.27.52-.37 1.02Zm5.25 2.98c-.64-.94-1.31-1.87-1.92-2.84-.63-1.01-1.2-2.05-1.79-3.08a.974.974 0 0 1-.12-.41c-.05-.69-.39-1.25-.74-1.83-.29-.47-.45-1.03-.67-1.54.09-.07.17-.13.26-.19.13.11.3.19.39.32.36.56.7 1.13 1.05 1.7.07.12.17.24.2.38.51 2.08 1.75 3.78 2.96 5.48.47.66.82 1.36.91 2.14-.3.2-.42.04-.52-.12Zm61.5 19.8c-.54.31-1.08.23-1.54-.24-.43-.43-.87-.86-1.28-1.32-.39-.42-.8-.79-1.32-1.05-.51-.25-.59-.68-.36-1.28.77.05 1.35.23 1.82.66.95.85 1.87 1.73 2.79 2.6.16.15.08.52-.1.63Zm5.35.44c-.17.2-.41.21-.64.06-.12-.08-.24-.15-.34-.25-.76-.76-1.49-1.56-2.88-1.86.68-.5 1.05-.42 1.39-.27.92.4 1.72.99 2.44 1.68.19.19.19.44.03.64Zm43.62 1.31c-.35.21-.71.2-1.28-.06.56-.34.94-.57 1.33-.8.35.37.3.64-.05.86Zm2.65-1.44c-.57-.52-1.19-.91-1.86-1.26-.06-.03-.06-.16-.09-.26.29-.35.7-.34 1.03-.18.78.39 1.64.71 2.08 1.56-.38.48-.87.39-1.16.13Zm3.44-.9c-.12.24-.41.3-.61.15-.6-.43-1.26-.82-1.69-1.65.25-.06.4-.16.5-.12.67.24 1.28.6 1.77 1.12.09.1.1.36.03.5Zm2.06-.46c-.49-.45-.87-.79-1.24-1.14-.15-.14-.1-.31.18-.69 1.16.78 1.33 1.05 1.06 1.83Z" style="fill:#a76948"/>
    <path d="M14.19 114.55c.58-1.46 1.38-2.84 1.46-4.46 0-.14.04-.29.11-.41.22-.45.44-.92.98-1.2.06 1.2-.4 2.32-.35 3.41.24-.03.48-.01.72-.02h.18c.14-.1.32-.13.49-.14.33-.02.67.05 1 .07.98.05 1.7-.53 2.46-1.01.13-.08.2-.33.22-.51.37-2.4 1.09-4.77.66-7.24-.02-.14-.01-.29-.02-.43-.04-1.87-.12-3.73-.49-5.57-.1-.51-.09-1.05-.13-1.57-.27-2.95-.52-5.91-1.46-8.75-.19-.59-.3-1.2-.41-1.82-.35-2.02-.66-4.06-1.04-6.08-.3-1.6-.67-3.18-.73-4.82-.03-.71-.14-1.43-.25-2.14-.04-.27-.17-.52-.27-.79-.74.02-1.4.09-2.06.04-.71-.05-1.42-.21-2.13-.32-.19-.03-.38-.08-.57-.08-.27 0-.54.02-.82.03-.38 1.27-.46 2.51-.56 3.75-.2 2.43-.39 4.86-.56 7.3-.08 1.14-.08 2.29-.1 3.44-.03 1.48.03 2.97-.07 4.45-.18 2.67-.32 5.34-.22 8.03.1 2.58.38 5.15.2 7.74-.07 1.04-.08 2.09-.45 3.06-.39.14-.65.03-.7-.31-.14-1.09-.28-2.18-.35-3.27-.08-1.38-.06-2.77-.12-4.16-.14-3.01-.36-6.02-.07-9.03.21-2.15.24-4.3.19-6.45-.02-.91 0-1.82.06-2.72.22-2.96.47-5.91.71-8.87.08-1 .18-1.99.26-2.85-.23-.45-.4-.78-.58-1.1-.37.54-.31 1.18-.39 1.78-.56 4.08-1.1 8.15-1.66 12.23-.08.61-.28 1.21-.42 1.81-.25 1.07-.58 2.13-.75 3.21-1.49 9.3-2.94 18.61-4.41 27.92-.07.42-.15.85-.19 1.28-.07.81.02 1.6.4 2.4.21-.08.44-.11.54-.23.35-.47.67-.93 1.35-.92.12 0 .26-.13.35-.24.42-.48.94-.41 1.46-.27.35.1.68.27.99.4.52-.34.73-.8.81-1.35.16-1.08.35-2.17.53-3.25.04-.26.19-.43.46-.47.29-.04.56.14.64.45.06.26.08.53.12.88.23-.13.35-.19.45-.27.11-.09.21-.2.32-.28.84-.59 1.28-.58 2 .16.35.36.7.63 1.19.71.76-.5.78-.49 1.02-1.12Zm1.75-25.87c-.15-1.85-.05-3.72 0-5.58.02-.77-.07-1.52-.2-2.27-.14-.75-.21-1.51-.27-2.27-.02-.26.1-.54.15-.77.48-.08.58.21.64.49.58 2.66.97 5.35.84 8.09-.03.62-.03 1.25.06 1.86.39 2.62.22 5.24.11 7.87-.11 2.86-.29 5.72-.43 8.58-.03.67 0 1.34-.02 2.01 0 .23-.08.46-.16.68-.02.06-.15.11-.23.12-.08 0-.22-.03-.24-.09-.09-.21-.21-.43-.21-.66-.13-3.87-.18-7.73.02-11.6.11-2.15.12-4.29-.05-6.44ZM132.06 16.02c-.13.31-.16.46-.24.56a13.464 13.464 0 0 1-3.82 3.43c-.94.57-1.92 1.08-2.84 1.68-2.59 1.69-5.4 2.86-8.37 3.68-1.43.4-2.86.79-4.27 1.25-2.33.75-4.72 1.22-7.11 1.68-1.24.23-2.48.07-3.72.04-2.06-.05-4.11-.14-6.17-.25a8.12 8.12 0 0 1-1.83-.29c-2.63-.72-5.25-1.48-7.87-2.23-.37-.11-.74-.2-1.07-.38-1.43-.77-2.9-1.48-4.26-2.36-2.61-1.69-5.19-3.42-7.71-5.25-1.62-1.18-3.16-2.48-4.45-4.04-.94-1.15-1.95-2.24-2.93-3.35-1.16-1.3-2.02-2.78-2.63-4.41-.06-.17-.09-.35-.12-.5.22-.31.48-.18.69-.15 1.46.22 2.93.41 4.33.97.57.23.99.52 1.31 1.04 1.44 2.27 3.2 4.29 5.07 6.21 1.38 1.42 2.98 2.54 4.75 3.42.37.18.78.28 1.36.49-.12-.35-.12-.56-.23-.66-.31-.29-.63-.58-.99-.81-1.68-1.09-3.32-2.25-4.71-3.72-.46-.48-.9-1-1.31-1.52-.88-1.11-1.74-2.24-2.64-3.4.1-.05.23-.16.34-.14.38.04.71.16.99.49.46.54.99 1.03 1.5 1.53.21.2.42.41.67.53 1.7.83 2.81 2.29 3.87 3.75 1.09 1.51 2.42 2.69 3.96 3.68.8.51 1.54 1.13 2.32 1.68.47.32.95.63 1.46.88 1.03.5 2.1.91 3.12 1.43 2.27 1.16 4.7 1.55 7.22 1.55.21 0 .42-.09.61-.14.03-.47-.25-.6-.51-.67-.69-.19-1.39-.38-2.1-.49-2.01-.32-3.85-1.06-5.67-1.95-1.71-.84-3.48-1.56-4.91-2.87-.31-.29-.73-.45-1.09-.68-1.26-.79-2.41-1.71-3.29-2.95-.41-.58-.91-1.11-1.41-1.62-.66-.69-1.36-1.35-2.04-2.02-.36-.36-.71-.72-1-1.37.63.08 1.09.11 1.54.19 4.49.72 8.97 1.47 13.47 2.15 1.65.25 3.34.28 5 .48 2.85.33 5.69.77 8.46 1.55.78.22 1.59.37 2.39.5 4.92.77 9.83 1.53 14.75 2.3.56.09 1.13.18 1.65.26.17.39-.09.49-.28.61-1.09.69-2.17 1.4-3.29 2.06-.45.27-.94.46-1.43.64-1.12.4-2.27.74-3.39 1.16-1.78.67-3.6.93-5.49.73-.19-.02-.4-.07-.57 0-.7.28-1.44.47-2.11.83.09.17.13.3.18.32.79.18 1.58.38 2.37.51.32.05.66-.02.99-.07 1.93-.31 3.87-.59 5.8-.96 2.16-.41 4.29-1 6.33-1.83 1.05-.43 1.99-1.14 2.96-1.74.33-.2.66-.42.91-.7 1.16-1.3 2.68-1.34 4.23-1.19 1.04.1 2.08.32 3.25.5Zm-32.51-.11c-.24-.58-.63-.71-.97-.76-1.38-.23-2.68-.68-3.98-1.18-.18-.07-.37-.09-.56-.11-.84-.08-1.56-.44-2.24-.9-.75-.51-1.48-1.08-2.28-1.49-.6-.31-1.12-.67-1.44-1.24-.5.13-.62.46-.47.79.15.33.39.68.68.89 1 .74 2.03 1.43 3.07 2.12.6.4 1.22.78 1.95.87.87.11 1.66.41 2.47.72 1.18.45 2.39.59 3.77.3ZM19.48 66.46c.32-.26.59-.49.87-.72.48-.39.48-.43.05-1.17-.35.15-.71.29-1.05.46-.34.17-.73.3-.96.57-.41.48-.95.65-1.5.76-.7.13-1.42.18-2.12.21-.18 0-.37-.21-.61-.35 2.07-1.09 3.28-2.86 4.42-4.68.03-.05-.04-.17-.07-.26-.3-.15-.43.09-.57.26-.76.92-1.53 1.84-2.27 2.77-.64.8-1.49 1.17-2.47 1.31-.37.05-.65-.2-.65-.57 0-.09.01-.19.03-.29.58-3.3.85-6.64 1.81-9.87.23-.77.27-1.6.37-2.41.12-1 .18-2 .35-2.99.14-.84.39-1.67.6-2.5.29-1.15.59-2.31.87-3.4.74-.69 1.46-1.35 2.27-2.1-.13.79-.36 1.45-.3 2.09.14 1.42-.35 2.72-.59 4.06-.13.7-.37 1.39-.54 2.08-.12.46-.24.93-.31 1.4-.06.36.12.71.46.81.78.2 1.58.34 2.38.48.17.03.4-.04.54-.14.66-.47 1.32-.95 1.94-1.47.2-.17.27-.49.38-.75.15-.35.27-.71.4-1.05.33-.09.62-.12.87-.24.54-.25.62-.58.31-1.13q-.26-.46-.08-1.16c.09 0 .19-.03.27-.01 1.2.21 1.55-.02 1.98-1.04.6-1.42 1.01-2.88 1.14-4.46.72-.38 1.34-.89 2.13-1.12 1.06-.31 1.64-1.01 1.79-2.16.32-2.66.74-5.31 1.11-7.96.11-.76.26-1.5.56-2.21.24-.57.39-1.19.45-1.8.14-1.59.67-3.05 1.29-4.49 1.6.28 3.19.58 4.78.83 1.7.28 3.4.54 5.11.76.51.07 1.05.02 1.56-.06 1.04-.18 2.06-.42 3.09-.63.37-.08.74-.13 1.21-.22-.03.37-.03.64-.08.9-.41 2.06-.82 4.13-1.27 6.18-.11.51-.3 1.01-.54 1.47-.68 1.32-1.19 2.71-1.58 4.14-.23.82-.55 1.63-.91 2.41-1.62 3.52-3.27 7.02-4.89 10.53-.42.92-.9 1.79-1.48 2.62-1.92 2.74-3.83 5.49-5.73 8.25-.44.64-.95 1.19-1.54 1.69-1.5 1.26-2.99 2.54-4.48 3.8-.59.5-1.27.84-2.02 1.05-.55.16-1.08.4-1.6.63-1.41.64-2.9.94-4.43 1.08-.14.01-.29 0-.43-.01-.09-.01-.17-.08-.35-.17Zm20.95-43.93c-.1-.01-.2-.03-.29-.04-.09.3-.23.59-.28.89-.23 1.49-.73 2.86-1.49 4.16-.65 1.11-1.21 2.28-1.78 3.44-3.09 6.21-6.09 12.46-10.02 18.21-1.32 1.93-2.49 3.97-4.08 5.71-.16.17-.31.37-.43.57-.13.23-.12.51.11.62.18.08.47.07.65-.02.24-.13.42-.38.62-.59 1.39-1.46 2.58-3.07 3.74-4.71 3.02-4.27 5.57-8.82 7.93-13.47 1.49-2.94 2.75-6 4.14-8.99.62-1.36 1.18-2.72 1.12-4.25-.01-.33.1-.66.12-1 .01-.17-.04-.35-.06-.53ZM20.99 63.94c.28.83.44.98.94.91 1.11-.15 2.1-.57 2.91-1.37.78-.77 1.59-1.52 2.38-2.28.31-.3.65-.58.9-.92 1.04-1.43 2.08-2.86 3.06-4.34 1.95-2.96 3.62-6.08 5.14-9.28.84-1.77 1.63-3.57 2.38-5.37.55-1.32 1.02-2.68 1.52-4.03.55-1.48 1.09-2.96 1.61-4.45.1-.28.33-.59-.14-1.04-.07.12-.16.24-.22.36-.2.43-.39.87-.59 1.31-1.52 3.4-2.97 6.85-4.58 10.21-2.52 5.27-5.29 10.4-8.82 15.09-.43.57-.92 1.1-1.43 1.6-.79.77-1.67 1.42-2.34 2.32-.36.49-.88.87-1.49 1.06-.19-.15-.36-.28-.55-.43-.22.21-.43.41-.7.66ZM155.74 67.23c.32.9-.52 1.05-.84 1.43-.02.79.51 1.04 1.02 1.28.04.18.11.32.09.45-.2 1.43.59 2.46 1.44 3.45.23.27.62.46.97.55.55.13 1.13.18 1.71.2.71.02 1.07-.31 1.11-1.02.07-.95.07-1.91.14-2.87.06-.86.15-1.72.24-2.57.05-.47.15-.92.36-1.37.23-.5.26-1.1.37-1.66.04-.17.07-.34.12-.55.64.23.43.86.72 1.21.31.36.54.78.78 1.14-.07 1.43-.1 2.86-.22 4.29-.1 1.09-.28 2.18-.49 3.26-.43 2.16-.83 4.32-.86 6.54 0 .62-.15 1.23-.24 1.85-.31 1.98-.63 3.97-.93 5.88-.34.31-.6.39-.97.19-.93-.5-1.57-1.2-1.92-2.21-.37-1.08-.83-2.14-1.26-3.2-.05-.12-.17-.21-.35-.41-.08.23-.21.4-.18.52.17.65.36 1.29.58 1.92.21.59.41 1.18.71 1.72.39.69.88 1.32 1.38 2.05-.2.04-.45.16-.63.1-.62-.23-1.25-.48-1.83-.8-.54-.29-1.06-.62-1.31-1.26-.11-.29-.38-.53-.62-.76-.31-.29-.65-.54-1.04-.86-.18.19-.35.39-.56.61.31.48.59.92.87 1.35-.15.35-.41.2-.6.12-1.48-.58-2.84-1.37-4.02-2.44-.32-.29-.61-.63-.97-.84-1.2-.72-1.96-1.8-2.67-2.95-.9-1.47-1.79-2.95-2.65-4.44-.24-.41-.42-.86-.56-1.31-1.09-3.57-2.17-7.14-3.23-10.72-.16-.54-.23-1.12-.3-1.69-.5-4.03-1.02-8.06-1.49-12.1-.11-.94-.11-1.91-.07-2.86.06-1.35-.05-2.67-.24-4-.1-.7-.08-1.43-.01-2.14.2-2.05.45-4.09.68-6.13.01-.09.06-.17.14-.36.24.08.5.14.72.26 1.04.59 2.07 1.2 3.1 1.79.59.34 1.22.54 1.89.64 1.75.27 3.49.58 5.24.85 1.41.22 2.83.4 4.33.6-.06 1.13.2 2.29-.06 3.48-.26 1.22-.41 2.44-.29 3.7.05.51-.08 1.05-.17 1.56-.45 2.64-.87 5.29-1.39 7.92-.24 1.21.17 2.01 1.08 2.72.59.47 1.09 1.05 1.65 1.6-.05.31-.07.6-.14.88-.37 1.32-.18 2.66-.18 3.99 0 .79.5 1.26 1.34 1.39.18.03.35.04.5.05Zm-7.72-27.93c-.24.39-.4.56-.45.76-.14.51-.2 1.03-.33 1.54-.24.89-.27 1.78-.19 2.7.55 5.76 1.18 11.51 2.38 17.18.26 1.21.46 2.44.78 3.65.53 2.03 1.16 4.05 1.69 6.08.47 1.82 1.24 3.51 2.02 5.21.1.21.21.44.38.59.12.1.38.16.51.09.13-.06.27-.31.25-.45-.04-.33-.14-.66-.27-.95-.89-1.97-1.44-4.05-1.94-6.14-.39-1.63-.87-3.23-1.3-4.85-.15-.55-.3-1.11-.39-1.67-.75-4.53-1.49-9.06-2.22-13.59-.18-1.13-.3-2.28-.53-3.4-.41-1.93-.64-3.86-.28-5.83.04-.21-.05-.44-.11-.9Zm-4.24 8.72c-.11-.01-.21-.03-.32-.04-.06.15-.17.31-.17.46.15 3.77.17 7.56.5 11.32.45 5 1.24 9.96 2.61 14.81.74 2.62 1.4 5.27 3.04 7.54.22.3.33.69.49 1.04.51 1.14 1.4 1.9 2.52 2.4.28.12.56.08.8-.14.25-.23.27-.5.12-.78-.11-.21-.26-.39-.39-.6-.2.11-.36.2-.54.31-.59-.36-.96-.94-1.17-1.56-.31-.92-.81-1.73-1.31-2.54-.45-.74-.79-1.52-1.07-2.34-1.63-4.77-2.58-9.7-3.36-14.66-.72-4.58-1.01-9.21-1.57-13.82l-.18-1.4Z" style="fill:#e03d3f"/>
    <path d="M57.5 4.28c1.46.11 2.76.36 4.05.59.11.36.22.62.27.9.42 2.23 1.49 4.11 3.01 5.77.58.63 1.15 1.29 1.67 1.97 2.01 2.6 4.52 4.64 7.16 6.56 2.97 2.16 6.24 3.69 9.63 5.03 1.96.77 3.96 1.42 5.91 2.2 1.68.67 3.39 1.3 4.92 2.31.27.17.61.25.93.31 4.76.95 9.57 1.22 14.42 1.08.47-.01.95-.12 1.42-.21 2.68-.51 5.37-.94 8.02-1.57 2.13-.51 4.23-1.2 6.3-1.92 1.71-.59 3.43-1.19 5-2.14.05-.03.16.02.37.05-.28.26-.48.5-.74.67-1.79 1.19-3.58 2.39-5.4 3.54-.43.27-.96.44-1.46.56-2.23.53-4.46 1.11-6.71 1.52-2.82.52-5.67.84-8.54.99-3.25.17-6.5.19-9.75.14-.38 0-.76-.04-1.14-.08-.38-.04-.76-.13-1.14-.17-4.37-.45-8.5-1.79-12.6-3.27-2.83-1.03-5.62-2.15-8.31-3.51-.89-.45-1.8-.89-2.66-1.4a243.19 243.19 0 0 1-5.17-3.09c-.4-.25-.81-.53-1.12-.87a51.438 51.438 0 0 1-4.37-5.5c-.28-.4-.73-.78-.37-1.39.05-.08-.17-.32-.28-.47-.78-1.14-1.55-2.3-2.36-3.43-.91-1.26-1.35-2.62-1.07-4.18.05-.28.05-.57.09-.99Z" style="fill:#e03d3f"/>
    <path d="M164.24 37.78c-.08.15-.19.29-.23.45-.29 1.31-.56 2.62-.85 3.93-.67 2.95-.83 5.97-1.07 8.97-.17 2.1-.39 4.19-.59 6.29-.03.33-.11.67-.08 1 .14 1.35-.07 2.68-.34 3.99-.23 1.16-.02 2.29.07 3.43.05.63.04 1.24-.09 1.85-.32 1.45-.66 2.89-1 4.34-.05.22-.18.43-.26.62-.57.14-.99.03-1.32-.41-.37-.5-.68-1-.88-1.62-.38-1.17-.49-2.31-.19-3.51.14-.56.18-1.13.27-1.7.33-2.08.65-4.16 1.19-6.2.35-1.34.58-2.72.77-4.09.41-2.94 1.03-5.84 1.63-8.75.42-2.01.6-4.07.87-6.11.03-.26-.08-.53-.12-.79-.54.05-.56.43-.62.74-.26 1.31-.49 2.64-.77 3.95-.25 1.17-.55 2.33-.83 3.49-.32 1.4-.7 2.79-.94 4.2-.49 2.88-.98 5.75-1.81 8.56-.3 1-.42 2.06-.66 3.29-.15.09-.42.27-.73.46-.09-.17-.22-.29-.21-.41.02-.48.07-.95.14-1.42.62-4.17 1.28-8.33 1.86-12.5.48-3.5.87-7.02 1.32-10.62.16-.04.38-.14.61-.16 1.3-.17 2.46-.75 3.64-1.26 1.11-.48 1.74-1.33 2.1-2.4.34-.99.96-1.88 1-2.97 0-.21.23-.41.31-.64.33-.94.94-1.75 1.12-2.77.16-.85.63-1.64.96-2.46.34.1.2.32.18.47-.12.76-.25 1.51-.4 2.26-.23 1.13-.38 2.26-.29 3.42.04.52-.08 1.05-.15 1.57-.3 1.99-.56 3.97-.7 5.98-.16 2.38-.49 4.75-.67 7.13-.12 1.66-.45 3.31-.38 5 .02.47-.1.95-.18 1.42-.15.85-.19 1.7-.19 2.57 0 1-.16 2-.3 2.99-.11.76-.2 1.51-.06 2.28.05.28.06.57.02.85-.13.94-.29 1.89-.43 2.76-.35.23-.54.09-.66-.13-1.19-2.19-1.56-4.58-1.6-7.03 0-.14.01-.29.04-.43.57-3.55.62-7.15.86-10.73.04-.62.13-1.24.2-1.85.26-2.24.52-4.47.77-6.71.02-.18-.03-.36-.05-.54l-.27-.06Z" style="fill:#c62218"/>
    <path d="M26.87 6.71c.18.43.33.71.42 1.01.15.53.45.91.94 1.19 1.97 1.13 4 2.02 6.31 2.2 1.48.11 2.94.37 4.41.61 1.89.32 3.71.14 5.48-.6.97-.4 1.97-.74 2.93-1.17.56-.25 1.09-.58 1.61-.91.4-.25.77-.53 1.19-.83.92 1.04 1.42 2.24 2.16 3.29a66.29 66.29 0 0 0 2.23 2.99c.79 1 1.88 1.73 2.84 2.84-1.12-.01-1.61.7-2.15 1.24-.47.47-.94.76-1.59.86-.42.06-.83.21-1.24.34-1.92.62-3.88 1.03-5.87 1.31-.58.08-1.13.1-1.71 0-2.5-.42-5.02-.77-7.51-1.24-1.17-.22-2.35-.55-3.42-1.05-2.04-.94-4-2.04-5.99-3.08-.21-.11-.4-.26-.58-.39-.29-.9-.3-1.79-.35-2.7-.1-1.8.13-3.61-.31-5.39-.03-.11.09-.25.2-.55Zm24.98 4.97c-.48-.21-.65-.02-.8.15-.71.81-1.61 1.33-2.58 1.76-2.07.91-4.26 1.38-6.45 1.82-.27.05-.58.04-.85-.01-1.98-.37-3.98-.44-5.98-.61-.47-.04-.94-.13-1.41-.24-.79-.17-1.58-.39-2.37-.56-.94-.2-1.86-.42-2.69-.94-.2-.12-.43-.23-.66-.26-.15-.02-.39.08-.47.21-.08.12-.07.4.02.51.65.77 1.37 1.45 2.42 1.67.84.18 1.68.39 2.5.62 1.2.34 2.42.52 3.67.58 1.29.06 2.58.11 3.85.32 1.27.21 2.47.11 3.67-.27 1.96-.61 3.93-1.19 5.67-2.33.96-.63 1.81-1.36 2.46-2.43Z" style="fill:#e03d3f"/>
    <path d="M25.22 15.45c-.21.55-.34.8-.4 1.07-.26 1.17-.55 2.33-.74 3.51-.52 3.22-1.42 6.35-2.19 9.51-.44 1.81-.83 3.64-1.26 5.45-.12.51-.25 1.03-.43 1.51-.52 1.34-1.13 2.62-1.99 3.79-.48.65-1.14 1.1-1.73 1.96-.13-.44-.24-.61-.21-.75.22-1.36.25-2.76.93-4.03.22-.4.23-.92.3-1.39.18-1.23.4-2.45.86-3.62.21-.53.27-1.11.4-1.67.25-1.02.49-2.04.75-3.06.08-.32.26-.63.29-.96.27-2.87 1.44-5.56 1.71-8.43.06-.66.31-1.3.52-1.94.48-1.47.62-2.99.87-4.5.11-.66.17-1.35.41-1.96.7-1.76.88-3.62 1.08-5.47.03-.24-.11-.6.3-.69.04.03.11.05.11.07.01 1.13-.01 2.27.04 3.4.03.71.16 1.41.25 2.12.04.28.16.59.09.85-.29 1.05.03 2.09.05 3.13.01 1.05.34 2.04 1.22 2.8.98.84 1.87 1.78 3.07 2.33.21.1.39.26.62.41-1.82 8.14-3.07 16.37-4.53 24.62-.64-.24-.82-.62-.76-1.15.12-1.19.3-2.38.34-3.57.07-2.4.42-4.77.83-7.12.32-1.85.41-3.71.53-5.57.07-1.1.17-2.19.28-3.29.13-1.29.28-2.57.41-3.85.02-.26-.05-.53-.1-1.01-.25.27-.44.38-.46.51-.43 2.16-.99 4.3-1.22 6.48-.27 2.67-.54 5.33-1.05 7.97-.44 2.26-.5 4.56-.79 6.84-.32 2.52-.75 5.02-1.13 7.53-.01.09 0 .2-.06.28-.62.95-1.07 2.03-2.09 2.67-.55.34-.54.35-1.51.17-.2-.64-.1-1.31-.05-1.96.1-1.19.23-2.38.4-3.57.08-.51.23-1.03.45-1.5.64-1.36 1.03-2.77 1.22-4.25.09-.7.3-1.4.53-2.08.31-.91.51-1.84.7-2.77.45-2.15.88-4.32 1.48-6.43 1.04-3.71 1.4-7.52 1.83-11.32.03-.24-.09-.5-.2-1.04Z" style="fill:#c62218"/>
    <path d="M133.44 29.29c1.53-.91 3.24-1.45 4.63-2.55 1.34-1.07 2.72-2.08 4.06-3.1 1.83 1.16 3.63 2.21 5.18 3.64 1.52 1.4 3.33 2.19 5.38 2.48 1.7.25 3.4.56 5.09.89 1.38.27 2.75.27 4.13 0 .28-.05.56-.12.85-.14 1.06-.08 1.95-.41 2.45-1.45.07-.15.28-.22.49-.37 0 .23.04.39-.01.5-.32.69-.66 1.37-.99 2.05-.06.13-.17.25-.18.39-.11 1.06-.59 2-.98 2.97-.28.7-.58 1.4-.85 2.07-1.14.42-2.22.58-3.3.76-.94.16-1.89.28-2.83.43-1.95.33-3.9.3-5.85-.02-2.12-.34-4.25-.67-6.38-.98-.72-.1-1.38-.32-2.03-.65-1.66-.85-3.29-1.75-4.81-2.84-.12-.08-.23-.18-.35-.25-1.28-.65-2.19-1.61-2.77-2.93-.15-.34-.55-.56-.91-.91Zm6.99-3.89c0 .46-.04.7.03.89.32.91.8 1.73 1.42 2.47 1.55 1.86 3.52 3.21 5.53 4.51.53.35 1.11.54 1.72.68 1.68.38 3.35.8 5.03 1.17.84.19 1.69.33 2.54.43 1.05.11 2.1.11 3.15.23 1.07.12 1.97-.27 2.85-.77.22-.12.39-.37.25-.59-.1-.16-.37-.26-.58-.31-.18-.04-.38 0-.57.05-.9.23-1.8.16-2.71.06-.71-.07-1.43-.11-2.14-.19-.76-.09-1.51-.2-2.26-.36-1.73-.35-3.46-.72-5.19-1.11-.46-.1-.95-.21-1.35-.45-1.47-.89-2.96-1.76-4.35-2.78-1.15-.85-2.21-1.84-2.8-3.21-.08-.2-.28-.35-.59-.72Z" style="fill:#e03d3f"/>
    <path d="M167.57 23.94c-.15.53-.17.95-.38 1.22-.42.56-.6 1.17-.74 1.84-.11.55-.29.68-.89.64-.68-.04-1.22.24-1.68.66-.34.31-.7.45-1.14.53-1.75.32-3.49.47-5.27.12-1.59-.31-3.21-.49-4.83-.69-1.54-.2-2.96-.69-4.24-1.6-.74-.52-1.51-1-2.31-1.44-1.17-.65-1.93-1.66-2.71-2.79.69-1.15 1.81-1.97 2.35-3.29 1.44.48 2.77 1.01 4.15 1.35 1.58.39 3.09 1.02 4.67 1.33 2.95.58 5.95.95 8.93 1.4.32.05.66-.02.99.02.22.03.5.07.64.22.52.56 1.14.65 1.83.5.13-.03.27 0 .62-.02ZM26.67 5.63c-.04-.37-.14-.7-.1-1.01.07-.58.11-1.12-.13-1.68-.18-.4-.09-.83.08-1.35.26.11.47.19.66.28.44.22.93.38 1.38.16.52-.26.94-.24 1.47 0 .51.23 1.11.25 1.68.35 2.45.39 4.9.79 7.36 1.17.47.07.95.09 1.42.08 1-.02 2-.06 3 .12.42.07.86.03 1.28 0 1-.05 2-.09 3.09.14.48 1.34.98 2.71 1.49 4.12-.69.67-1.54 1.14-2.56 1.36-1.26.27-2.5.63-3.75.93-1.03.26-2.08.27-3.12.09-2.26-.37-4.52-.76-6.78-1.17-1.48-.27-2.75-1.06-4.06-1.75-.15-.08-.27-.27-.36-.43-.42-.81-1.07-1.31-2.05-1.41ZM112.22 28.75c.02-.14 0-.35.08-.39.25-.14.52-.22.8-.31 1.19-.37 2.37-.75 3.57-1.07a34.79 34.79 0 0 0 5.77-2.15c.56-.26 1.11-.56 1.64-.88 1.43-.87 2.84-1.77 4.28-2.64 1.7-1.04 3.13-2.34 4.12-4.09.18-.33.42-.63.68-1.01.67.1 1.33.17 1.98.3.65.12 1.34.1 1.96.45-.03.94-.36 1.73-.86 2.52-.83 1.29-1.9 2.13-3.31 2.79-4.31 2.01-8.77 3.57-13.33 4.86-2.06.59-4.21.86-6.32 1.29-.36.08-.71.22-1.07.33Z" style="fill:#e03d3f"/>
    <path d="M137.87 17.47c.46-.03.79-.09 1.12-.08.37.01.77.01 1.11.13.69.23 1.37.39 2.11.34.23-.02.48.03.71.09.42.11.63.38.65.83.02.38 0 .76 0 1.12-.33.33-.63.64-.93.94-.03.04-.05.08-.09.11-.42.37-1.09.24-1.46.72-.3.39-.3.9-.8 1.25-1.21.86-2.4 1.73-3.75 2.37-2.16 1.03-4.3 2.1-6.58 2.84-.2.07-.42.11-.92.23.33-.35.44-.5.58-.6 3.08-2.28 5.49-5.17 7.62-8.32.18-.27.35-.57.45-.89.1-.31.11-.65.18-1.08Z" style="fill:#e03d3f"/>
    <path d="M28.18 38.7c.81-6.44 1.61-12.75 2.41-19.06.02-.13.1-.24.19-.46 1.04.54 2.05 1.06 3.01 1.56.15.57.04 1.05-.2 1.46-.38.64-.51 1.33-.63 2.04-.2 1.23-.39 2.45-.97 3.59-.21.41-.24.92-.33 1.39-.45 2.55-.89 5.09-1.34 7.64-.25 1.4-.25 1.41-1.63 1.81-.13.04-.27.02-.52.04ZM154.52 58.72c-.29-.11-.43-.13-.54-.21-1.17-.89-1.22-.62-.99-2.2.38-2.65.74-5.3 1.1-7.95.06-.42.14-.87.08-1.28-.17-1.16.04-2.28.21-3.41.12-.76.22-1.51.03-2.27-.12-.48-.1-.95.16-1.46 1.11-.2 2.25-.49 3.47-.54-1.18 6.45-2.34 12.83-3.52 19.33Z" style="fill:#c62218"/>
    <path d="M55.01 4.51c.3-.04.53-.1.76-.09.28 0 .55.08.92.14-.38 1.36.15 2.55.52 3.78.93 3.04 2.27 5.88 4.07 8.51.12.18.21.38.44.8-.95-.48-1.59-.98-2.19-1.49a78.23 78.23 0 0 1-2.87-2.6c-1.39-1.31-2.76-2.65-3.79-4.29-.41-.65-.95-1.21-1.36-1.85-.32-.51-.51-1.1-.81-1.62-.28-.49-.66-.93-.95-1.42-.11-.18-.09-.44-.13-.68.68-.06 1.29-.12 1.9-.16.14-.01.32-.02.41.06.61.53 1.43.48 2.19.76-.65 1.57-.1 2.91.65 4.23.26.45.37.97.59 1.44.07.14.28.29.42.29.29 0 .39-.24.37-.5-.05-.62-.16-1.2-.53-1.76-.8-1.21-.89-1.88-.62-3.54Z" style="fill:#e03d3f"/>
    <path d="M129.05 30.84c-.6 3.51-1.17 6.79-1.71 9.93-.28.44-.67.18-.94.5-.71.89-.89.87-1.68.14-.1-.1-.17-.22-.31-.4.26-1.65.53-3.35.8-5.04.03-.19.03-.41.13-.55.76-1.12.79-2.42.91-3.8.84-.23 1.7-.47 2.79-.78ZM130.31 30.41c.68-.22 1.35-.44 2.13-.69.25.39.5.78.76 1.18-.38 1.83-.56 3.7-1.35 5.42-.2.43-.27.91-.36 1.38-.19 1.04-.35 2.08-.53 3.11-.06.32-.16.64-.23.96-.64.13-1.23.25-1.94.4.05-.52.08-.94.13-1.36.36-2.51.74-5.01 1.09-7.53.12-.9.19-1.8.3-2.87ZM61.06 20.14c.83.54 1.54 1 2.27 1.48-.09.55-.17 1.06-.25 1.56-.11.66-.25 1.31-.06 1.98.08.26.04.57 0 .85-.27 1.74-.55 3.48-.82 5.19-.17.11-.28.21-.41.26-.97.42-1.15.36-1.56-.69-.15-.39-.38-.35-.66-.33-.02-1.12.97-7.99 1.5-10.31ZM56.99 18.85c.33-.3.64-.58 1.01-.91.73.4 1.33.91 1.86 1.3-.24 1.17-.47 2.19-.65 3.22-.4 2.31-.76 4.62-1.14 6.92-.08.47-.15.94-.23 1.44-.8 0-1.16-.71-1.88-.8.17-1.17.29-2.26.48-3.33.17-1 .2-1.99.13-2.99-.03-.47-.02-.95.02-1.42.11-1.09.25-2.18.39-3.42Z" style="fill:#c62218"/>
    <path d="M19.79 68.14c-.12.59-.2.94-.28 1.32-.39.13-.75.25-1.11.38-.12-.11-.25-.19-.32-.3-.13-.23-.22-.47-.35-.74-.2.13-.39.18-.42.28-.17.51-.59.61-1.02.64-.42.03-.86.02-1.28-.05-.9-.13-1.79-.25-2.7-.21-.47.02-.95-.07-1.41-.19-.59-.16-.84-.57-.79-1.18.02-.28.1-.56.18-.83.02-.07.14-.12.26-.21.47 0 .72.55 1.29.6.17-.11.39-.36.62-.37.31-.02.64.12.93.26 1.42.66 2.92.8 4.46.71.57-.03 1.13-.05 1.91-.09Z" style="fill:#f6a920"/>
    <path d="M132.26 42.58c-.3-.15-.22-.36-.19-.53.21-1.42.43-2.83.64-4.24 0-.05 0-.1.02-.14.57-1.72.96-3.48 1.07-5.49.62.57 1.1 1 1.53 1.39-.19 1.18-.36 2.26-.53 3.33-.02.14-.04.31-.12.41-.73.91-.74 2.04-.94 3.11-.08.45-.05.99-.71 1.05-.26.38-.52.75-.77 1.12Z" style="fill:#c62218"/>
    <path d="M153.31 89.31c.69.24 1.19.38 1.66.58 1.52.63 3.08 1 4.75.76.75-.11.75-.08 1.43.65.44-.07.89-.15 1.32-.23.32.48.13.9.03 1.31-.11.45-.48.74-.95.71-.52-.03-1.06-.09-1.54-.26-.82-.3-1.65-.48-2.5-.6-.1-.01-.19-.03-.28-.05-.93-.16-1.74-.48-1.93-1.49-.61-.16-.6.47-1.07.61-.28-.17-.62-.39-1.02-.63.03-.4.06-.76.12-1.36Z" style="fill:#f6a920"/>
    <path d="M54.46 30.35c-.39-.14-.28-.44-.36-.64-.09-.22-.04-.58-.18-.67-.7-.46-.44-1.08-.37-1.67.12-.94.37-1.87.09-2.84-.08-.26.03-.57.06-.85.1-.9.2-1.8.3-2.75.43-.6 1.22-.59 1.76-1 .3.24.15.48.09.68-.31 1.21-.46 2.42-.48 3.68-.02 1.18-.29 2.37-.47 3.54-.13.83-.22 1.67-.43 2.51Z" style="fill:#c62218"/>
    <path d="M15.05 122.11c.48.92 1.13 1.76 1.39 2.92-.27-.1-.49-.14-.68-.25-.82-.49-1.63-.98-2.43-1.49-.48-.31-.82-.73-1.11-1.25-.55-1-1.26-1.9-1.9-2.84-.29-.43-.7-.79-.74-1.34.43-.56.85-1.11 1.27-1.65.36.08.52.31.46.62-.26 1.42.53 2.58 1.05 3.76.33.76.99 1.39 1.52 2.06.11.14.3.21.52.36.24-.32.46-.61.68-.91l-.03.01Z" style="fill:#a76948"/>
    <path d="M119.05 18.44c1.24-1.1 2.9-1.64 3.97-3.02.47.08.92.15 1.52.24-.24.24-.38.43-.55.55-1.33.92-2.69 1.78-4.25 2.28-.22.07-.44.2-.68-.05Z" style="fill:#e03d3f"/>
    <path d="M135.4 38.28c.48 1.75.43 2.53-.16 3.95-.38-.68-.48-1.17-.34-1.8.14-.64.3-1.27.5-2.15ZM52.51 25.29c.15 1.56-.12 2.66-.99 3.77-.03-1.43.12-2.66.99-3.77ZM51.76 22.15c.01-.08.03-.17.04-.25 0 0 .07 0 .1.01-.01.08-.03.17-.05.25 0 0-.07 0-.1-.01Z" style="fill:#c62218"/>
    <path d="M112.22 28.75c-.09-.02-.17-.05-.26-.07h-.14c.06-.03.12-.09.17-.07.09.03.16.1.25.15Z" style="fill:#e03d3f"/>
    <path d="M137.19 35.52s.08.02.08.04c.01.03 0 .08 0 .12l-.15-.06c.02-.03.04-.06.06-.1Z" style="fill:#c62218"/>
    <path d="M154.55 144.02c-.1.17-.33.27-.5.42-.16-.18-.31-.28-.33-.39-.15-1-1.19-1.29-1.63-2.07-.07-.13-.34-.17-.52-.2-.33-.04-.67-.03-1-.06-.5-.04-.8-.32-.83-.8-.02-.24 0-.48.04-.71.16-1.04.09-2.11.46-3.12.12-.33-.04-.59-.34-.68-.33-.1-.55.03-.7.32-.13.24-.26.47-.45.8-.2-.35-.32-.61-.48-.84-.59-.81-1.04-.93-1.96-.46-.44.23-.85.41-1.33.31-.48-.36-.66-.82-.66-1.39-.02-1.52-.35-3.03-.01-4.57.1-.48-.1-1.03-.19-1.54-.04-.22-.06-.49-.39-.51-.45 1.23-.22 2.64-.93 3.85-.91-1.03-.9-1.09-1.82-1.23-.96-.16-1.41-.94-2.01-1.51-.44-.42-.2-.98-.07-1.49.03-.13-.04-.29-.02-.43.34-2.46.58-4.94 2.17-7.02.16-.21.25-.54.26-.81 0-1.1.52-2.02 1-2.95.24-.47.54-.92.7-1.41.62-1.87 1.58-3.59 2.41-5.36.51-1.09 1.12-2.11 1.83-3.08.48-.65.87-1.37 1.26-2.08 1.04-1.94 2.04-3.9 3.1-5.83.62-1.13 1.23-2.26 1.72-3.46.39-.96.77-1.95 1.39-2.83.95.26 1.86.53 2.77.76.91.23 1.89.15 2.84.64-.12.74-.18 1.45-.35 2.14-.61 2.56-1.28 5.11-1.87 7.67-.46 2.01-1.08 3.97-1.7 5.93-.49 1.55-.88 3.13-1.32 4.69-.11.42-.19.84-.33 1.25-.88 2.53-1.73 5.07-2.66 7.58-.73 1.98-1.38 3.97-1.77 6.05-.05.28-.12.57-.11.85 0 .15.17.38.29.4.14.03.34-.1.47-.21.1-.08.15-.24.21-.37.43-1.01.87-2.02 1.27-3.04.55-1.43 1.06-2.87 1.57-4.31.95-2.65 2.02-5.27 2.61-8.04.39-1.82.92-3.61 1.56-5.37.42-1.17.75-2.37 1.06-3.57.37-1.39.7-2.79 1.02-4.18.5-2.19.97-4.39 1.46-6.59.03-.14.1-.27.17-.44.41-.16.69-.42.88-.76v.02c-.21.84-.34 2.39-.49 3.23-.63 3.44-1.24 6.88-1.84 10.32-.11.61-.14 1.23-.18 1.85-.08 1.1-.04 2.21-.21 3.29-1.5 9.6-3.04 19.19-4.55 28.79a7.13 7.13 0 0 1-.93 2.54Z" style="fill:#e03d3f"/>
    <path d="M161.43 113.23c.14-.89.15-1.81.22-2.71.09-1.1.14-2.2.28-3.29.37-2.8.8-5.59 1.18-8.39.18-1.33.29-2.66.41-4 .02-.22.07-.49-.24-.59-.29-.01-.44-.38-.51-.3.13-.25.21-.54.25-.86.07-.62.21-1.23.34-1.83.08-.41 0-.76-.27-1.06-.16-.18-.31-.36-.52-.61.35-2.23.73-4.5 1.06-6.77.12-.8.15-1.62.2-2.43.07-1.15.07-2.3.19-3.44.17-1.71.44-3.42.64-5.13.07-.61.11-1.25.05-1.86-.1-.98.1-1.89.32-2.89.2-.04.38-.07.55-.11.36-.09.6-.32.65-.68.22-1.7.79-3.35.55-5.11-.07-.51 0-1.05.08-1.57.2-1.32.42-2.64.28-4-.04-.37.04-.76.11-1.14.18-1.09.29-2.17.27-3.28-.02-.9.11-1.81.2-2.71.07-.71.24-1.43.22-2.14-.03-1.54.14-3.05.35-4.57.07-.52.1-1.05.08-1.57-.07-1.69.18-3.34.47-4.99.2-1.14.29-2.27.22-3.43-.03-.57.01-1.15.08-1.71.14-1.24.33-2.47.48-3.7.05-.42.14-.85-.45-1.05-.14-.05-.23-.4-.23-.62 0-.38.09-.76.11-1.14.03-.6-.18-.9-.77-1.01-.46-.09-.95-.07-1.42-.11-.18-.02-.43-.02-.51-.12-.38-.53-.88-.48-1.42-.4-.23.04-.47 0-.7-.04-.89-.18-1.77-.4-2.66-.56-.81-.14-1.58-.33-2.3-.76-.4-.23-.89-.33-1.36-.41-1.89-.32-3.78-.61-5.67-.93-.47-.08-.96-.14-1.39-.34-.97-.45-2-.63-3.04-.79-.52-.08-1.06-.16-1.52-.39-.75-.38-1.54-.52-2.34-.61-.9-.1-1.81-.2-2.71-.28-.43-.04-.82-.16-1.22-.33-1.31-.57-2.61-1.17-4.07-1.31-.85-.09-1.69-.26-2.51-.39-.08-.32-.15-.57-.22-.83-.21.01-.35 0-.49.03-1.37.33-2.73.28-4.12.05-7.56-1.23-15.12-2.42-22.69-3.6-1.13-.18-2.28-.25-3.43-.34-3.3-.27-6.55-.78-9.77-1.54-1.16-.27-2.33-.57-3.5-.76-7.47-1.2-14.94-2.39-22.41-3.54-1.49-.23-2.9-.6-4.18-1.39-.13-.08-.34-.06-.49-.09-.09.24-.16.42-.26.68-.87-.14-1.78-.23-2.66-.43-1.33-.3-2.67-.15-3.99-.03-.64.06-1.22.04-1.83-.11-.65-.15-1.31-.28-1.97-.42-.98-.21-1.96-.37-2.98-.22-.46.07-.95-.05-1.42-.1-.71-.07-1.44-.28-2.13-.21-1.26.12-2.48-.1-3.71-.28-1.37-.21-2.75-.41-4.12-.64-.71-.12-1.41-.15-2.14 0-.46.09-.95.06-1.42.02-1.1-.09-2.19-.21-3.28-.35-.27-.03-.54-.15-.8-.27-.41-.19-.82-.3-1.22 0-.24.18-.43.09-.65-.02-.21-.1-.44-.17-.68-.23-1.29-.28-1.57-.09-1.85 1.24-.02.09-.02.19-.05.28-.07.22-.1.51-.26.64-.19.16-.49.19-.79.29-.31 1.53-.61 3.02-.93 4.52-.12.56-.28 1.11-.43 1.66-.22.83-.56 1.65-.65 2.49-.36 3.2-1.68 6.19-2.08 9.38-.03.23-.15.45-.23.68-.43 1.37-.78 2.75-1.04 4.17-.39 2.11-1.14 4.14-1.5 6.27-.03.19-.1.37-.18.54-.41.88-.57 1.82-.71 2.77-.14.94-.24 1.9-.74 2.75-.16.28-.21.63-.27.96-.16.94-.32 1.89-.45 2.84-.05.37-.12.8.01 1.12.13.31.5.53.77.79-.04.97-.25 1.89-.59 2.8-.23.62-.4 1.27-.54 1.92-.36 1.73-.62 3.49-1.05 5.2-.67 2.69-1.46 5.35-1.82 8.12-.12.95-.3 1.89-.47 2.83-.07.42-.16.84-.23 1.17-.41.4-1 .48-1.08 1.03-.14 1.03-.24 2.08-.36 3.11h.01v.01l.57 1.11c-.08.86-.18 1.86-.26 2.85-.24 2.96-.49 5.91-.71 8.87-.07.9-.08 1.82-.06 2.72.04 2.15.01 4.3-.19 6.45-.29 3.01-.07 6.02.07 9.03.06 1.38.04 2.77.12 4.16.06 1.09.2 2.19.35 3.27.04.34.31.45.7.31.36-.97.37-2.02.45-3.06.18-2.59-.11-5.16-.2-7.74-.1-2.68.03-5.35.22-8.03.1-1.48.05-2.96.07-4.45.02-1.15.03-2.3.1-3.44.16-2.43.35-4.87.56-7.3.1-1.24.18-2.48.56-3.75.27-.01.55-.04.82-.03.19 0 .38.05.57.08.71.11 1.41.27 2.13.32.66.05 1.32-.02 2.06-.04.09.27.23.52.27.79.11.71.22 1.42.25 2.14.06 1.64.43 3.22.73 4.82.38 2.02.69 4.05 1.04 6.08.11.61.22 1.23.41 1.82.94 2.84 1.19 5.8 1.46 8.75.05.52.03 1.06.13 1.57.37 1.84.45 3.7.49 5.57 0 .14 0 .29.02.43.43 2.47-.3 4.84-.66 7.24-.03.18-.09.43-.22.51-.46.29-.92.62-1.42.82-.52-.02-.99.05-1.49.14-.18-.02-.36-.03-.54-.02-.18.01-.37.04-.51.16-.29.02-.59.04-.87.1-.09-1.12.4-2.28.34-3.5-.55.28-.76.75-.98 1.2-.06.13-.1.27-.11.41-.08 1.62-.88 3.01-1.46 4.46-.25.62-.26.61-1.02 1.12-.49-.08-.84-.35-1.19-.71-.71-.74-1.16-.75-2-.16-.12.08-.21.2-.32.28-.1.08-.22.13-.45.27-.05-.35-.06-.62-.12-.88a.566.566 0 0 0-.64-.45c-.27.04-.42.21-.46.47-.18 1.08-.36 2.17-.53 3.25-.08.55-.29 1.01-.81 1.35-.31-.13-.64-.3-.99-.4-.52-.14-1.04-.21-1.46.27-.09.1-.23.24-.35.24-.67 0-1 .45-1.35.92-.09.13-.33.15-.54.23-.39-.8-.48-1.59-.4-2.4.04-.43.13-.85.19-1.28 1.47-9.31 2.93-18.62 4.41-27.92.17-1.08.5-2.14.75-3.21.14-.6.33-1.2.42-1.81.57-4.07 1.11-8.15 1.66-12.23.08-.6.02-1.24.4-1.78-.26.02-.54.04-.89.06-.12.48-.25.93-.34 1.4-.7 3.76-1.4 7.53-2.08 11.3-.19 1.08-.4 2.16-.75 3.21-.28.86-.48 1.76-.62 2.65-1.35 8.32-2.69 16.63-4.02 24.95-.22 1.37-.45 2.74-.63 4.12-.16 1.2-.04 2.38.38 3.52.24.66.51.82 1.19.73.27-.04.6-.09.79-.26.44-.39.92-.42 1.46-.4.42.02.84-.11 1.29-.18 1.45.87 1.69.83 3.16-.46 1.01.74 1.83 1.69 2.51 2.72.37.55.81.9 1.38 1.18.56.27 1.09.6 1.61.93.8.52 1.6 1.04 2.37 1.61 1.34.99 2.85 1.75 3.96 3.05.14.17.4.32.61.32 1.03 0 1.82.57 2.61 1.08 1.1.72 2.28 1.2 3.51 1.6.87.28 1.73.55 2.6.83 3.87 1.24 7.75 2.47 11.62 3.71.86.28 1.69.68 2.56.9.87.22 1.78.31 2.68.42.82.11 1.59.31 2.27.81.18.13.46.26.65.21.66-.18 1.23.06 1.82.26 1.36.46 2.74.83 4.17 1.02.61.08 1.23.23 1.82.41 1.6.49 3.19 1.02 4.78 1.54 1.37.45 2.73.9 4.17 1.05.38.04.76.13 1.12.25 1.37.43 2.73.89 4.09 1.33 1.91.62 3.82 1.21 5.82 1.51 5.21.79 10.4 1.63 15.6 2.46 1.24.2 2.47.25 3.72.22 1.29-.02 2.58-.04 3.86.08 1.1.1 2.18.22 3.29.15 1.43-.09 2.86-.19 4.29.15.41.1.86.05 1.29.03 1.1-.06 2.19-.16 3.29-.2.81-.03 1.63-.1 2.43 0 .96.12 1.9.12 2.86 0 1.05-.12 2.09-.21 3.14.03.27.06.57.05.85.03 1.24-.05 2.47-.12 3.71-.16 1.81-.06 3.62-.08 5.43-.15.86-.03 1.72-.09 2.56-.2 1.04-.14 2.07-.34 3.1-.56.6-.12 1.21-.28 1.78-.51 1.11-.44 2.27-.73 3.44-.89 1.8-.24 3.55-.66 5.2-1.46.17-.08.36-.14.54-.16 1.15-.13 1.93-.73 2.29-1.8.46-.12.87-.22 1.25-.32.15.1.26.21.39.27.85.39 1.69.72 2.37 1.47.6.66 1.22.46 1.79-.3.75-1.02 1.18-2.16 1.38-3.41 1.49-9.55 3.01-19.1 4.5-28.66Zm-.29-21.92c.44-.07.89-.15 1.32-.23.32.48.13.9.03 1.31-.11.45-.48.74-.95.71-.52-.03-1.06-.09-1.54-.26-.82-.3-1.65-.48-2.5-.6-.1-.01-.19-.03-.28-.05-.93-.16-1.74-.48-1.93-1.49-.61-.16-.6.47-1.07.61-.28-.17-.62-.39-1.02-.63.03-.4.06-.76.12-1.36.69.24 1.19.38 1.66.58 1.52.63 3.08 1 4.75.76.75-.11.75-.08 1.43.65Zm-26.79-61.1c-.15-.34-.55-.56-.91-.91 1.53-.91 3.24-1.45 4.63-2.55 1.34-1.07 2.72-2.08 4.06-3.1 1.83 1.16 3.63 2.21 5.18 3.64 1.52 1.4 3.33 2.19 5.38 2.48 1.7.25 3.4.56 5.09.89 1.38.27 2.75.27 4.13 0 .28-.05.56-.12.85-.14 1.06-.08 1.95-.41 2.45-1.45.07-.15.28-.22.49-.37 0 .23.04.39-.01.5-.32.69-.66 1.37-.99 2.05-.06.13-.17.25-.18.39-.11 1.06-.59 2-.98 2.97-.28.7-.58 1.4-.85 2.07-1.14.42-2.22.58-3.3.76-.94.16-1.89.28-2.83.43-1.95.33-3.9.3-5.85-.02-2.12-.34-4.25-.67-6.38-.98-.72-.1-1.38-.32-2.03-.65-1.66-.85-3.29-1.75-4.81-2.84-.12-.08-.23-.18-.35-.25-1.28-.65-2.19-1.61-2.77-2.93Zm.89 12.03c-.38-.68-.48-1.17-.34-1.8.14-.64.3-1.27.5-2.15.48 1.75.43 2.53-.16 3.95Zm-.56-4.92c-.73.91-.74 2.04-.94 3.11-.08.45-.05.99-.71 1.05-.26.38-.52.75-.77 1.12-.3-.15-.22-.36-.19-.53.21-1.42.43-2.83.64-4.24 0-.05 0-.1.02-.14.57-1.72.96-3.48 1.07-5.49.62.57 1.1 1 1.53 1.39-.19 1.18-.36 2.26-.53 3.33-.02.14-.04.31-.12.41Zm-1.49-6.41c-.38 1.83-.56 3.7-1.35 5.42-.2.43-.27.91-.36 1.38-.19 1.04-.35 2.08-.53 3.11-.06.32-.16.64-.23.96-.64.13-1.23.25-1.94.4.05-.52.08-.94.13-1.36.36-2.51.74-5.01 1.09-7.53.12-.9.19-1.8.3-2.87.68-.22 1.35-.44 2.13-.69.25.39.5.78.76 1.18Zm21.22 10.49c-.12-.48-.1-.95.16-1.46 1.11-.2 2.25-.49 3.47-.54-1.18 6.45-2.34 12.83-3.52 19.33-.29-.11-.43-.13-.54-.21-1.17-.89-1.22-.62-.99-2.2.38-2.65.74-5.3 1.1-7.95.06-.42.14-.87.08-1.28-.17-1.16.04-2.28.21-3.41.12-.76.22-1.51.03-2.27Zm-16.32-5.61c.24.08.5.14.72.26 1.04.59 2.07 1.2 3.1 1.79.59.34 1.22.54 1.89.64 1.75.27 3.49.58 5.24.85 1.41.22 2.83.4 4.33.6-.06 1.13.2 2.29-.06 3.48-.26 1.22-.41 2.44-.29 3.7.05.51-.08 1.05-.17 1.56-.45 2.64-.87 5.29-1.39 7.92-.24 1.21.17 2.01 1.08 2.72.59.47 1.09 1.05 1.65 1.6-.05.31-.07.6-.14.88-.37 1.32-.18 2.66-.18 3.99 0 .79.5 1.26 1.34 1.39.18.03.35.04.5.05.32.9-.52 1.05-.84 1.43-.02.79.51 1.04 1.02 1.28.04.18.11.32.09.45-.2 1.43.59 2.46 1.44 3.45.23.27.62.46.97.55.55.13 1.13.18 1.71.2.71.02 1.07-.31 1.11-1.02.07-.95.07-1.91.14-2.87.06-.86.15-1.72.24-2.57.05-.47.15-.92.36-1.37.23-.5.26-1.1.37-1.66.04-.17.07-.34.12-.55.64.23.43.86.72 1.21.31.36.54.78.78 1.14-.07 1.43-.1 2.86-.22 4.29-.1 1.09-.28 2.18-.49 3.26-.43 2.16-.83 4.32-.86 6.54 0 .62-.15 1.23-.24 1.85-.31 1.98-.63 3.97-.93 5.88-.34.31-.6.39-.97.19-.93-.5-1.57-1.2-1.92-2.21-.37-1.08-.83-2.14-1.26-3.2-.05-.12-.17-.21-.35-.41-.08.23-.21.4-.18.52.17.65.36 1.29.58 1.92.21.59.41 1.18.71 1.72.39.69.88 1.32 1.38 2.05-.2.04-.45.16-.63.1-.62-.23-1.25-.48-1.83-.8-.54-.29-1.06-.62-1.31-1.26-.11-.29-.38-.53-.62-.76-.31-.29-.65-.54-1.04-.86-.18.19-.35.39-.56.61.31.48.59.92.87 1.35-.15.35-.41.2-.6.12-1.48-.58-2.84-1.37-4.02-2.44-.32-.29-.61-.63-.97-.84-1.2-.72-1.96-1.8-2.67-2.95-.9-1.47-1.79-2.95-2.65-4.44-.24-.41-.42-.86-.56-1.31-1.09-3.57-2.17-7.14-3.23-10.72-.16-.54-.23-1.12-.3-1.69-.5-4.03-1.02-8.06-1.49-12.1-.11-.94-.11-1.91-.07-2.86.06-1.35-.05-2.67-.24-4-.1-.7-.08-1.43-.01-2.14.2-2.05.45-4.09.68-6.13.01-.09.06-.17.14-.36Zm29.46-6.77c.16-.85.63-1.64.96-2.46.34.1.2.32.18.47-.12.76-.25 1.51-.4 2.26-.23 1.13-.38 2.26-.29 3.42.04.52-.08 1.05-.15 1.57-.3 1.99-.56 3.97-.7 5.98-.16 2.38-.49 4.75-.67 7.13-.12 1.66-.45 3.31-.38 5 .02.47-.1.95-.18 1.42-.15.85-.19 1.7-.19 2.57 0 1-.16 2-.3 2.99-.11.76-.2 1.51-.06 2.28.05.28.06.57.02.85-.13.94-.29 1.89-.43 2.76-.35.23-.54.09-.66-.13-1.19-2.19-1.56-4.58-1.6-7.03 0-.14.01-.29.04-.43.57-3.55.62-7.15.86-10.73.04-.62.13-1.24.2-1.85.26-2.24.52-4.47.77-6.71.02-.18-.03-.36-.05-.54l-.27-.06c-.08.15-.19.29-.23.45-.29 1.31-.56 2.62-.85 3.93-.67 2.95-.83 5.97-1.07 8.97-.17 2.1-.39 4.19-.59 6.29-.03.33-.11.67-.08 1 .14 1.35-.07 2.68-.34 3.99-.23 1.16-.02 2.29.07 3.43.05.63.04 1.24-.09 1.85-.32 1.45-.66 2.89-1 4.34-.05.22-.18.43-.26.62-.57.14-.99.03-1.32-.41-.37-.5-.68-1-.88-1.62-.38-1.17-.49-2.31-.19-3.51.14-.56.18-1.13.27-1.7.33-2.08.65-4.16 1.19-6.2.35-1.34.58-2.72.77-4.09.41-2.94 1.03-5.84 1.63-8.75.42-2.01.6-4.07.87-6.11.03-.26-.08-.53-.12-.79-.54.05-.56.43-.62.74-.26 1.31-.49 2.64-.77 3.95-.25 1.17-.55 2.33-.83 3.49-.32 1.4-.7 2.79-.94 4.2-.49 2.88-.98 5.75-1.81 8.56-.3 1-.42 2.06-.66 3.29-.15.09-.42.27-.73.46-.09-.17-.22-.29-.21-.41.02-.48.07-.95.14-1.42.62-4.17 1.28-8.33 1.86-12.5.48-3.5.87-7.02 1.32-10.62.16-.04.38-.14.61-.16 1.3-.17 2.46-.75 3.64-1.26 1.11-.48 1.74-1.33 2.1-2.4.34-.99.96-1.88 1-2.97 0-.21.23-.41.31-.64.33-.94.94-1.75 1.12-2.77Zm-21.81-9.88c1.44.48 2.77 1.01 4.15 1.35 1.58.39 3.09 1.02 4.67 1.33 2.95.58 5.95.95 8.93 1.4.32.05.66-.02.99.02.22.03.5.07.64.22.52.56 1.14.65 1.83.5.13-.03.27 0 .62-.02-.15.53-.17.95-.38 1.22-.42.56-.6 1.17-.74 1.84-.11.55-.29.68-.89.64-.68-.04-1.22.24-1.68.66-.34.31-.7.45-1.14.53-1.75.32-3.49.47-5.27.12-1.59-.31-3.21-.49-4.83-.69-1.54-.2-2.96-.69-4.24-1.6-.74-.52-1.51-1-2.31-1.44-1.17-.65-1.93-1.66-2.71-2.79.69-1.15 1.81-1.97 2.35-3.29Zm-8.05-.58c.1-.31.11-.65.18-1.08.46-.03.79-.09 1.12-.08.37.01.77.01 1.11.13.69.23 1.37.39 2.11.34.23-.02.48.03.71.09.42.11.63.38.65.83.02.38 0 .76 0 1.12-.33.33-.63.64-.93.94-.03.04-.05.08-.09.11-.42.37-1.09.24-1.46.72-.3.39-.3.9-.8 1.25-1.21.86-2.4 1.73-3.75 2.37-2.16 1.03-4.3 2.1-6.58 2.84-.2.07-.42.11-.92.23.33-.35.44-.5.58-.6 3.08-2.28 5.49-5.17 7.62-8.32.18-.27.35-.57.45-.89Zm-12.34 16.86c.76-1.12.79-2.42.91-3.8.84-.23 1.7-.47 2.79-.78-.6 3.51-1.17 6.79-1.71 9.93-.28.44-.67.18-.94.5-.71.89-.89.87-1.68.14-.1-.1-.17-.22-.31-.4.26-1.65.53-3.35.8-5.04.03-.19.03-.41.13-.55Zm7.15-18.2c.18-.33.42-.63.68-1.01.67.1 1.33.17 1.98.3.65.12 1.34.1 1.96.45-.03.94-.36 1.73-.86 2.52-.83 1.29-1.9 2.13-3.31 2.79-4.31 2.01-8.77 3.57-13.33 4.86-2.06.59-4.21.86-6.32 1.29-.36.08-.71.22-1.07.33-.09-.02-.17-.05-.26-.07h-.14c.06-.03.12-.09.17-.07.09.03.16.1.24.15.03-.14 0-.35.09-.39.25-.14.52-.22.8-.31 1.19-.37 2.37-.75 3.57-1.07a34.79 34.79 0 0 0 5.77-2.15c.56-.26 1.11-.56 1.64-.88 1.43-.87 2.84-1.77 4.28-2.64 1.7-1.04 3.13-2.34 4.12-4.09Zm-9.48-1.8 1.52.24c-.24.24-.38.43-.55.55-1.33.92-2.69 1.78-4.25 2.28-.22.07-.44.2-.68-.05 1.24-1.1 2.9-1.64 3.97-3.02ZM63.33 5.13c1.46.22 2.93.41 4.33.97.57.23.99.52 1.31 1.04 1.44 2.27 3.2 4.29 5.07 6.21 1.38 1.42 2.98 2.54 4.75 3.42.37.18.78.28 1.36.49-.12-.35-.12-.56-.23-.66-.31-.29-.63-.58-.99-.81-1.68-1.09-3.32-2.25-4.71-3.72-.46-.48-.9-1-1.31-1.52-.88-1.11-1.74-2.24-2.64-3.4.1-.05.23-.16.34-.14.38.04.71.16.99.49.46.54.99 1.03 1.5 1.53.21.2.42.41.67.53 1.7.83 2.81 2.29 3.87 3.75 1.09 1.51 2.42 2.69 3.96 3.68.8.51 1.54 1.13 2.32 1.68.47.32.95.63 1.46.88 1.03.5 2.1.91 3.12 1.43 2.27 1.16 4.7 1.55 7.22 1.55.21 0 .42-.09.61-.14.03-.47-.25-.6-.51-.67-.69-.19-1.39-.38-2.1-.49-2.01-.32-3.85-1.06-5.67-1.95-1.71-.84-3.48-1.56-4.91-2.87-.31-.29-.73-.45-1.09-.68-1.26-.79-2.41-1.71-3.29-2.95-.41-.58-.91-1.11-1.41-1.62-.66-.69-1.36-1.35-2.04-2.02-.36-.36-.71-.72-1-1.37.63.08 1.09.11 1.54.19 4.49.72 8.97 1.47 13.47 2.15 1.65.25 3.34.28 5 .48 2.85.33 5.69.77 8.46 1.55.78.22 1.59.37 2.39.5 4.92.77 9.83 1.53 14.75 2.3.56.09 1.13.18 1.65.26.17.39-.09.49-.28.61-1.09.69-2.17 1.4-3.29 2.06-.45.27-.94.46-1.43.64-1.12.4-2.27.74-3.39 1.16-1.78.67-3.6.93-5.49.73-.19-.02-.4-.07-.57 0-.7.28-1.44.47-2.11.83.09.17.13.3.18.32.79.18 1.58.38 2.37.51.32.05.66-.02.99-.07 1.93-.31 3.87-.59 5.8-.96 2.16-.41 4.29-1 6.33-1.83 1.05-.43 1.99-1.14 2.96-1.74.33-.2.66-.42.91-.7 1.16-1.3 2.68-1.34 4.23-1.19 1.04.1 2.08.32 3.25.5-.13.31-.16.46-.24.56a13.464 13.464 0 0 1-3.82 3.43c-.94.57-1.92 1.08-2.84 1.68-2.59 1.69-5.4 2.86-8.37 3.68-1.43.4-2.86.79-4.27 1.25-2.33.75-4.72 1.22-7.11 1.68-1.24.23-2.48.07-3.72.04-2.06-.05-4.11-.14-6.17-.25a8.12 8.12 0 0 1-1.83-.29c-2.63-.72-5.25-1.48-7.87-2.23-.37-.11-.74-.2-1.07-.38-1.43-.77-2.9-1.48-4.26-2.36-2.61-1.69-5.19-3.42-7.71-5.25-1.62-1.18-3.16-2.48-4.45-4.04-.94-1.15-1.95-2.24-2.93-3.35-1.16-1.3-2.02-2.78-2.63-4.41-.06-.17-.09-.35-.12-.5.22-.31.48-.18.69-.15Zm-1.78-.27c.11.36.22.62.27.9.42 2.23 1.49 4.11 3.01 5.77.58.63 1.15 1.29 1.67 1.97 2.01 2.6 4.52 4.64 7.16 6.56 2.97 2.16 6.24 3.69 9.63 5.03 1.96.77 3.96 1.42 5.91 2.2 1.68.67 3.39 1.3 4.92 2.31.27.17.61.25.93.31 4.76.95 9.57 1.22 14.42 1.08.47-.01.95-.12 1.42-.21 2.68-.51 5.37-.94 8.02-1.57 2.13-.51 4.23-1.2 6.3-1.92 1.71-.59 3.43-1.19 5-2.14.05-.03.16.02.37.05-.28.26-.48.5-.74.67-1.79 1.19-3.58 2.39-5.4 3.54-.43.27-.96.44-1.46.56-2.23.53-4.46 1.11-6.71 1.52-2.82.52-5.67.84-8.54.99-3.25.17-6.5.19-9.75.14-.38 0-.76-.04-1.14-.08-.38-.04-.76-.13-1.14-.17-4.37-.45-8.5-1.79-12.6-3.27-2.83-1.03-5.62-2.15-8.31-3.51-.89-.45-1.8-.89-2.66-1.4a243.19 243.19 0 0 1-5.17-3.09c-.4-.25-.81-.53-1.12-.87a51.438 51.438 0 0 1-4.37-5.5c-.28-.4-.73-.78-.37-1.39.05-.08-.17-.32-.28-.47-.78-1.14-1.55-2.3-2.36-3.43-.91-1.26-1.35-2.62-1.07-4.18.05-.28.05-.57.09-.99 1.46.11 2.76.36 4.05.59Zm1.46 20.3c.08.26.04.57 0 .85-.27 1.74-.55 3.48-.82 5.19-.17.11-.28.21-.41.26-.97.42-1.15.36-1.56-.69-.15-.39-.38-.35-.66-.33-.02-1.12.97-7.99 1.5-10.31.83.54 1.54 1 2.27 1.48-.09.55-.17 1.06-.25 1.56-.11.66-.25 1.31-.06 1.98ZM51.53 3.53c.14-.01.32-.02.41.06.61.53 1.43.48 2.19.76-.65 1.57-.1 2.91.65 4.23.26.45.37.97.59 1.44.07.14.28.29.42.29.29 0 .39-.24.37-.5-.05-.62-.16-1.2-.53-1.76-.8-1.21-.89-1.88-.62-3.54.3-.04.53-.1.76-.09.28 0 .55.08.92.14-.38 1.36.15 2.55.52 3.78.93 3.04 2.27 5.88 4.07 8.51.12.18.21.38.44.8-.95-.48-1.59-.98-2.19-1.49a78.23 78.23 0 0 1-2.87-2.6c-1.39-1.31-2.76-2.65-3.79-4.29-.41-.65-.95-1.21-1.36-1.85-.32-.51-.51-1.1-.81-1.62-.28-.49-.66-.93-.95-1.42-.11-.18-.09-.44-.13-.68.68-.06 1.29-.12 1.9-.16Zm6.31 27.29c-.8 0-1.16-.71-1.88-.8.17-1.17.29-2.26.48-3.33.17-1 .2-1.99.13-2.99-.03-.47-.02-.95.02-1.42.11-1.09.25-2.18.39-3.42.33-.3.64-.58 1.01-.91.73.4 1.33.91 1.86 1.3-.24 1.17-.47 2.19-.65 3.22-.4 2.31-.76 4.62-1.14 6.92-.08.47-.15.94-.23 1.44Zm-3.38-.47c-.39-.14-.28-.44-.36-.64-.09-.22-.04-.58-.18-.67-.7-.46-.44-1.08-.37-1.67.12-.94.37-1.87.09-2.84-.08-.26.03-.57.06-.85.1-.9.2-1.8.3-2.75.43-.6 1.22-.59 1.76-1 .3.24.15.48.09.68-.31 1.21-.46 2.42-.48 3.68-.02 1.18-.29 2.37-.47 3.54-.13.83-.22 1.67-.43 2.51Zm.78-11.76c-.47.47-.94.76-1.59.86-.42.06-.83.21-1.24.34-1.92.62-3.88 1.03-5.87 1.31-.58.08-1.13.1-1.71 0-2.5-.42-5.02-.77-7.51-1.24-1.17-.22-2.35-.55-3.42-1.05-2.04-.94-4-2.04-5.99-3.08-.21-.11-.4-.26-.58-.39-.29-.9-.3-1.79-.35-2.7-.1-1.8.13-3.61-.31-5.39-.03-.11.09-.25.2-.55.18.43.33.71.42 1.01.15.53.45.91.94 1.19 1.97 1.13 4 2.02 6.31 2.2 1.48.11 2.94.37 4.41.61 1.89.32 3.71.14 5.48-.6.97-.4 1.97-.74 2.93-1.17.56-.25 1.09-.58 1.61-.91.4-.25.77-.53 1.19-.83.92 1.04 1.42 2.24 2.16 3.29a66.29 66.29 0 0 0 2.23 2.99c.79 1 1.88 1.73 2.84 2.84-1.12-.01-1.61.7-2.15 1.24Zm-3.72 10.48c-.03-1.43.12-2.66.99-3.77.15 1.56-.12 2.66-.99 3.77Zm.38-7.16c-.01.08-.03.17-.05.25 0 0-.07 0-.1-.01.01-.08.03-.17.04-.25 0 0 .07 0 .1.01ZM20.4 64.58c-.35.15-.71.29-1.05.46-.34.17-.73.3-.96.57-.41.48-.95.65-1.5.76-.7.13-1.42.18-2.12.21-.18 0-.37-.21-.61-.35 2.07-1.09 3.28-2.86 4.42-4.68.03-.05-.04-.17-.07-.26-.3-.15-.43.09-.57.26-.76.92-1.53 1.84-2.27 2.77-.64.8-1.49 1.17-2.47 1.31-.37.05-.65-.2-.65-.57 0-.09.01-.19.03-.29.58-3.3.85-6.64 1.81-9.87.23-.77.27-1.6.37-2.41.12-1 .18-2 .35-2.99.14-.84.39-1.67.6-2.5.29-1.15.59-2.31.87-3.4.74-.69 1.46-1.35 2.27-2.1-.13.79-.36 1.45-.3 2.09.14 1.42-.35 2.72-.59 4.06-.13.7-.37 1.39-.54 2.08-.12.46-.24.93-.31 1.4-.06.36.12.71.46.81.78.2 1.58.34 2.38.48.17.03.4-.04.54-.14.66-.47 1.32-.95 1.94-1.47.2-.17.27-.49.38-.75.15-.35.27-.71.4-1.05.33-.09.62-.12.87-.24.54-.25.62-.58.31-1.13q-.26-.46-.08-1.16c.09 0 .19-.03.27-.01 1.2.21 1.55-.02 1.98-1.04.6-1.42 1.01-2.88 1.14-4.46.72-.38 1.34-.89 2.13-1.12 1.06-.31 1.64-1.01 1.79-2.16.32-2.66.74-5.31 1.11-7.96.11-.76.26-1.5.56-2.21.24-.57.39-1.19.45-1.8.14-1.59.67-3.05 1.29-4.49 1.6.28 3.19.58 4.78.83 1.7.28 3.4.54 5.11.76.51.07 1.05.02 1.56-.06 1.04-.18 2.06-.42 3.09-.63.37-.08.74-.13 1.21-.22-.03.37-.03.64-.08.9-.41 2.06-.82 4.13-1.27 6.18-.11.51-.3 1.01-.54 1.47-.68 1.32-1.19 2.71-1.58 4.14-.23.82-.55 1.63-.91 2.41-1.62 3.52-3.27 7.02-4.89 10.53-.42.92-.9 1.79-1.48 2.62-1.92 2.74-3.83 5.49-5.73 8.25-.44.64-.95 1.19-1.54 1.69-1.5 1.26-2.99 2.54-4.48 3.8-.59.5-1.27.84-2.02 1.05-.55.16-1.08.4-1.6.63-1.41.64-2.9.94-4.43 1.08-.14.01-.29 0-.43-.01-.09-.01-.17-.08-.35-.17.32-.26.59-.49.87-.72.48-.39.48-.43.05-1.17Zm11.27-35.36c-.45 2.55-.89 5.09-1.34 7.64-.25 1.4-.25 1.41-1.63 1.81-.13.04-.27.02-.52.04.81-6.44 1.61-12.75 2.41-19.06.02-.13.1-.24.19-.46 1.04.54 2.05 1.06 3.01 1.56.15.57.04 1.05-.2 1.46-.38.64-.51 1.33-.63 2.04-.2 1.23-.39 2.45-.97 3.59-.21.41-.24.92-.33 1.39ZM26.52 1.59c.26.11.47.19.66.28.44.22.93.38 1.38.16.52-.26.94-.24 1.47 0 .51.23 1.11.25 1.68.35 2.45.39 4.9.79 7.36 1.17.47.07.95.09 1.42.08 1-.02 2-.06 3 .12.42.07.86.03 1.28 0 1-.05 2-.09 3.09.14.48 1.34.98 2.71 1.49 4.12-.69.67-1.54 1.14-2.56 1.36-1.26.27-2.5.63-3.75.93-1.03.26-2.08.27-3.12.09-2.26-.37-4.52-.76-6.78-1.17-1.48-.27-2.75-1.06-4.06-1.75-.15-.08-.27-.27-.36-.43-.42-.81-1.07-1.31-2.05-1.41-.04-.37-.14-.7-.1-1.01.07-.58.11-1.12-.13-1.68-.18-.4-.09-.83.08-1.35Zm-9.31 35.86c.22-.4.23-.92.3-1.39.18-1.23.4-2.45.86-3.62.21-.53.27-1.11.4-1.67.25-1.02.49-2.04.75-3.06.08-.32.26-.63.29-.96.27-2.87 1.44-5.56 1.71-8.43.06-.66.31-1.3.52-1.94.48-1.47.62-2.99.87-4.5.11-.66.17-1.35.41-1.96.7-1.76.88-3.62 1.08-5.47.03-.24-.11-.6.3-.69.04.03.11.05.11.07.01 1.13-.01 2.27.04 3.4.03.71.16 1.41.25 2.12.04.28.16.59.09.85-.29 1.05.03 2.09.05 3.13.01 1.05.34 2.04 1.22 2.8.98.84 1.87 1.78 3.07 2.33.21.1.39.26.62.41-1.82 8.14-3.07 16.37-4.53 24.62-.64-.24-.82-.62-.76-1.15.12-1.19.3-2.38.34-3.57.07-2.4.42-4.77.83-7.12.32-1.85.41-3.71.53-5.57.07-1.1.17-2.19.28-3.29.13-1.29.28-2.57.41-3.85.02-.26-.05-.53-.1-1.01-.25.27-.44.38-.46.51-.43 2.16-.99 4.3-1.22 6.48-.27 2.67-.54 5.33-1.05 7.97-.44 2.26-.5 4.56-.79 6.84-.32 2.52-.75 5.02-1.13 7.53-.01.09 0 .2-.06.28-.62.95-1.07 2.03-2.09 2.67-.55.34-.54.35-1.51.17-.2-.64-.1-1.31-.05-1.96.1-1.19.23-2.38.4-3.57.08-.51.23-1.03.45-1.5.64-1.36 1.03-2.77 1.22-4.25.09-.7.3-1.4.53-2.08.31-.91.51-1.84.7-2.77.45-2.15.88-4.32 1.48-6.43 1.04-3.71 1.4-7.52 1.83-11.32.03-.24-.09-.5-.2-1.04-.21.55-.34.8-.4 1.07-.26 1.17-.55 2.33-.74 3.51-.52 3.22-1.42 6.35-2.19 9.51-.44 1.81-.83 3.64-1.26 5.45-.12.51-.25 1.03-.43 1.51-.52 1.34-1.13 2.62-1.99 3.79-.48.65-1.14 1.1-1.73 1.96-.13-.44-.24-.61-.21-.75.22-1.36.25-2.76.93-4.03Zm1.2 32.38c-.12-.11-.25-.19-.32-.3-.13-.23-.22-.47-.35-.74-.2.13-.39.18-.42.28-.17.51-.59.61-1.02.64-.42.03-.86.02-1.28-.05-.9-.13-1.79-.25-2.7-.21-.47.02-.95-.07-1.41-.19-.59-.16-.84-.57-.79-1.18.02-.28.1-.56.18-.83.02-.07.14-.12.26-.21.47 0 .72.55 1.29.6.17-.11.39-.36.62-.37.31-.02.64.12.93.26 1.42.66 2.92.8 4.46.71.57-.03 1.13-.05 1.91-.09-.12.59-.2.94-.28 1.32-.39.13-.75.25-1.11.38Zm4.19 19.08c-.06-.47-.16-.95-.32-1.39-.49-1.41-.78-2.85-1.04-4.32-.31-1.74-.63-3.49-1.09-5.19-.57-2.13-.72-4.34-1.24-6.48-.02-.08.04-.18.09-.36.25-.1.55-.22.86-.34.58-.23.93-.64 1.01-1.28.05-.42.13-.84.2-1.3.22-.03.4-.11.58-.09 1.29.17 2.45-.27 3.61-.72.76-.29 1.51-.6 2.28-.86 1.22-.4 2.18-1.21 3.12-2.01 1.39-1.17 2.71-2.43 4.04-3.67.35-.32.64-.71.92-1.1 1.11-1.56 2.2-3.14 3.29-4.7.27-.39.55-.78.81-1.15.4.09.32.35.28.57-.34 1.93-.7 3.86-1.02 5.8-.64 3.87-1.25 7.75-1.86 11.63-.46 2.93-.95 5.86-1.67 8.74-.35 1.39-.53 2.82-.82 4.23-.32 1.54-.73 3.07-1.02 4.62-.36 1.88-.66 3.77-.96 5.66-.06.41-.04.85.35 1.22.44-.23.6-.61.69-1.03.12-.61.25-1.22.32-1.84.23-1.86.73-3.66 1.21-5.46.21-.79.4-1.58.52-2.38.35-2.22.72-4.44 1.35-6.61.24-.82.38-1.68.52-2.53 1.23-8 2.45-15.99 3.65-23.99.12-.78.35-1.46.8-2.12.4-.59.73-1.23 1.03-1.88 1.71-3.74 3.38-7.5 5.09-11.24.54-1.19.76-2.46 1.1-3.71.24-.88.56-1.72 1.06-2.56.98.36 1.35-.88 2.3-.86.07.58-.05 1.15.39 1.64.57.62 1.34.8 2.04.36.36-.22.7-.48 1.09-.74.21.19.39.34.55.51.16.17.28.4.45.55.86.76 1.65.53 2.05-.57.05-.13.11-.26.16-.39.05.04.1.05.13.09.26.33.04.93.56 1.09.63.21 1.28.41 1.97.27.28-.06.55-.15.82-.25.35-.12.56-.36.64-.71.07-.33.13-.66.19-.99.22-1.37.43-2.74.65-4.11.13-.8.25-1.59.04-2.42-.17-.65.03-1.32.25-2.05.29.11.56.18.79.3 2.5 1.33 4.8 2.97 6.99 4.75 1.06.86 2.22 1.47 3.49 1.93 1.84.67 3.67 1.38 5.5 2.09.21.08.4.22.64.35-.24.52-.49.96-.65 1.44-.15.45-.2.93-.28 1.41-.89 5.14-1.81 10.28-2.64 15.43-1.43 8.89-2.79 17.78-4.2 26.67-.16 1.04-.37 2.08-.66 3.09-.45 1.57-.71 3.17-.91 4.79-.2 1.57-.54 3.11-.95 4.63-.33 1.24-.47 2.54-.69 3.81-.02.13-.01.3.04.42.05.11.18.25.29.25.11 0 .26-.1.34-.2.08-.11.12-.26.14-.4.31-2.14.96-4.19 1.5-6.28.26-1.02.36-2.08.58-3.1.4-1.82.84-3.63 1.26-5.45.15-.65.32-1.3.43-1.96 1.95-12.29 3.9-24.59 5.83-36.88.29-1.84.48-3.7.69-5.56.08-.63.19-1.23.76-1.77.21.05.47.13.73.19.74.18 1.48.39 2.23.52 3.02.52 6.04 1.02 9.06 1.54.37.06.74.15 1.2.24-.03.3-.04.57-.09.84-.23 1.32-.48 2.63-.34 3.99.04.37-.02.77-.1 1.14-.36 1.74-.46 3.51-.49 5.28-.04 2.83-.35 5.63-.79 8.42-.25 1.55-.26 3.14-.38 4.72-.05.67-.07 1.34-.17 2-.6 3.84-.78 7.71-1.17 11.57-.02.14-.03.29-.03.43 0 .24.02.52.32.53.28 0 .36-.28.4-.51.05-.33.09-.66.13-1 .19-1.47.35-2.95.57-4.42.31-2.08.68-4.16.98-6.24.22-1.56.36-3.13.55-4.7.17-1.38.29-2.76.54-4.12.37-2.04.44-4.09.51-6.15.07-1.86.06-3.73.44-5.57.07-.33.13-.67.1-1-.16-1.64.06-3.24.35-5.02.46.03.84.01 1.2.09 3.12.71 6.27.61 9.43.39 1.67-.12 3.34-.17 5.01-.3.66-.05 1.32-.19 1.96-.38 1.01-.3 2-.65 2.98-1.03 1.98-.76 4.04-1.18 6.09-1.63.22-.05.45-.03.73-.04-.03.88-.1 1.67-.53 2.41-.16.28-.28.61-.33.94-.32 1.94-.63 3.87-.93 5.81-.04.28 0 .57 0 .85.64.66 1.34 1.07 2.26 1.14.72.05 1.35.08 1.65-.8.05.32.08.64.16.96.1.43.36.64.81.66.43.01.85.02 1.23-.27.25-.2.56-.33.92-.54.26.32.5.6.73.89.85 1.06 2.12.96 2.8-.23.11-.2.18-.43.29-.71.43.08.74.41.83.69.17.57.6.68 1.07.83.29 1.13.3 2.27.17 3.41-.18 1.53-.08 3.05.11 4.58.43 3.51.8 7.03 1.15 10.56.07.65 0 1.34-.12 1.99-.36 2.08-.79 4.14-1.13 6.22-.19 1.18-.27 2.37-.39 3.56-.1 1.05-.18 2.09-.3 3.14-.08.67-.21 1.32-.31 1.99-.33 2.08-.67 4.15-.73 6.27-.04 1.38-.3 2.76-.43 4.14-.15 1.48-.26 2.95-.4 4.43-.18 1.76-.37 3.52-.57 5.28-.29 2.52-.59 5.04-.88 7.56-.03.31-.16.67.29.96.1-.13.26-.24.3-.38.18-.65.34-1.3.47-1.95.89-4.41 1.82-8.81 2.07-13.32.06-1.05.32-2.08.44-3.13.18-1.52.33-3.04.49-4.57.07-.71.12-1.43.22-2.14.16-1.14.34-2.27.54-3.41.32-1.89.52-3.78.61-5.7.1-1.91.41-3.8.64-5.7 0-.07.1-.12.2-.23.35.25.35.66.45 1 .73 2.38 1.42 4.77 2.16 7.14.21.68.52 1.34.86 1.96.7 1.31 1.43 2.6 2.2 3.87.52.86 1.13 1.66 1.71 2.48.14.19.32.36.5.51.93.75 1.86 1.49 2.8 2.24.79.63 1.63 1.17 2.65 1.37.18.03.34.15.59.27-.07.42-.11.85-.2 1.26-.15.68.04 1.22.61 1.63.23.16.43.36.61.5 0 .17.03.29-.01.36-1.16 1.98-2.08 4.09-3.32 6.03-1.08 1.69-1.97 3.5-2.97 5.24-.43.75-.87 1.49-1.36 2.19-.64.9-1.22 1.83-1.68 2.83-.89 1.91-1.88 3.76-2.62 5.74-.38 1.02-.95 1.98-1.46 3.01-.54-.05-1.14-.28-1.58.29-.05.06-.18.1-.26.09-.72-.15-1.41-.1-2.12.11-.16.05-.45-.14-.61-.3-.31-.29-.58-.63-.85-.97-.59-.75-1.34-1.22-2.31-1.25-.14 0-.28-.04-.39-.06-.11-.07-.22-.1-.27-.18-.76-1.19-1.91-1.34-3.15-1.14-.88.14-1.55-.19-2.16-.75-.54-.49-.66-.46-1.08.4-.89.04-1.78-.11-2.58-.53-.48-.25-.97-.38-1.49-.46-1.51-.24-3.04-.42-4.54-.71-1.56-.31-3.12-.27-4.69-.14-.47.04-.95-.04-1.42-.11-3.17-.45-6.35-.92-9.52-1.38-.82-.12-1.56-.39-2.26-.85-.3-.2-.68-.35-1.04-.41-2.17-.37-4.35-.66-6.52-1.07-1.3-.25-2.56-.03-3.83.1-.4.04-.71.02-1.08-.19-.66-.38-1.38-.64-2.05-1-.37-.2-.78-.42-1.03-.74-.23-.3-.42-.49-.79-.5-.09 0-.22-.04-.26-.1-.56-.93-1.48-1.13-2.39-1.14-.37-.42-.25-.81-.19-1.17.62-3.83 1.23-7.66 1.87-11.48.39-2.31.85-4.61 1.22-6.93 1.27-7.99 2.52-15.98 3.75-23.98.51-3.31.93-6.64 1.38-9.96.04-.3 0-.62-.01-1.04-.23.14-.4.18-.44.28-.09.22-.14.45-.18.69-.76 4.34-1.55 8.67-2.26 13.02-1.17 7.13-2.26 14.28-3.45 21.41-.41 2.45-.99 4.88-1.57 7.3-.82 3.45-1.35 6.95-1.9 10.45-.07.47-.05.95-.07 1.43-.01.33-.17.54-.48.64-.31.1-.54-.07-.73-.51-.02-.04 0-.1-.03-.14-.35-.85-.49-.89-1.35-.39-.15.09-.33.18-.5.2-1.51.16-3.02.35-4.54.45-.92.06-1.83-.08-2.51-.81-.57-.62-1.31-.89-2.08-1.19-1.67-.66-3.43-.93-5.18-1.03-1.1-.07-2.27-.14-3.38.3-.6.24-1.29.24-1.97.36-.48-.64-.94-1.25-1.38-1.86-.27-.37-.61-.58-1.07-.65-.75-.1-1.47-.29-2.23.15-.56.33-1.19.21-1.75-.21-.42-.31-.87-.62-1.35-.77-.79-.25-1.61-.29-2.26.47-.56-.78-.68-1.53-.79-2.27-.08-.56-.03-1.14 0-1.71.03-.86.09-1.72.13-2.57l.12-2.14c.05-.81.08-1.62.14-2.43.05-.76.09-1.53.2-2.28 1-6.92 2.03-13.83 3-20.75.2-1.42.23-2.86.34-4.29.07-.95.12-1.91.24-2.86.3-2.37.65-4.74.96-7.11.1-.77-.04-1.17-.3-1.08-.46.16-.4.61-.46.95-.51 2.73-.99 5.46-1.48 8.2-.06.33-.09.67-.1 1-.02 1.97-.34 3.9-.68 5.84-1.16 6.65-2.29 13.3-3.41 19.96-.1.61-.13 1.24-.15 1.85-.03 1.24.02 2.49-.27 3.71-.05.23-.06.47-.07.71l-.15 4.17c-.88.5-1.66 1.02-2.21 1.83-.1.15-.28.32-.45.34-1.15.18-2.24.67-3.46-.01-1.16-.65-2.45-.71-3.71-.02-.71.39-1.5.63-2.13 1.16-.31.26-.69.31-1.08.25-.71-.11-1.43-.17-2.13-.31-.55-.11-1.03-.04-1.49.3-.42.31-.87.57-1.38.9-.07-.28-.15-.5-.17-.73-.04-.38 0-.77-.05-1.15-.42-3.46-.85-6.93-1.29-10.39Zm-1.45 23.45c.75-.27 1.25-.87 1.83-1.36.26-.22.41-.64.49-.99.15-.65.22-1.31.33-1.96.42-.03.43.25.5.45.38 1.15.94 2.2 1.65 3.17.17.23.35.48.69.41.23-.04.24-.47-.04-.86-1.1-1.54-1.66-3.33-2.29-5.08-.03-.09-.08-.18-.09-.27-.06-1.05-.1-2.09-.16-3.19.57-.11 1-.28 1.38-.71.47-.53 1.18-.8 1.95-.65.61.12 1.23.23 1.83.39.59.16 1.15.17 1.63-.25.67-.58 1.5-.83 2.25-1.25.75-.42 1.45-.33 2.18.05 1.62.85 3.29.83 4.97.2.3-.11.59-.32.8-.56.34-.4.68-.78 1.21-1.01.08.19.16.31.17.43.02.56.23 1 .71 1.33.51.36 1.07.38 1.65.31.19-.02.41-.05.54-.17.86-.72 1.59-.36 2.29.24.9.78 1.88.85 2.94.42.18-.07.35-.18.53-.22.7-.15 1.34-.06 1.76.61.35.56.69 1.13 1.1 1.79 1.02.48 2.21.34 3.22-.14.91-.44 1.86-.54 2.77-.58 1.08-.05 2.17.28 3.26.46.13.02.24.14.36.22.69.49 1.32 1.08 2.08 1.48.35.19.6.6.85.94.27.37.61.59 1.06.66.71.1 1.42.24 2.13.33.88.12 1.69-.24 2.49-.48.81-.24 1.58-.64 2.46-1.02.05.5.05.91.14 1.3.08.4.52.62.89.42.93-.48 1.88-.53 2.95-.19.2-.19.42-.43.67-.63.37-.3.75-.21.92.21.06.13.08.28.12.42.1.43.41.66.82.69.52.03 1.04 0 1.65-.02.85.54 1.78 1.11 2.69 1.71.42.27.89.35 1.37.33.62-.02 1.26 0 1.84-.17.83-.23 1.61-.11 2.41.01 1.8.28 3.6.55 5.39.82.52.08.99.23 1.43.58.76.6 1.66.98 2.61 1.14 3.44.59 6.89 1.15 10.34 1.7.36.06.76-.02 1.13-.08 1.32-.2 2.63-.38 3.97-.08 1.26.27 2.55.41 3.82.63.7.12 1.36.33 2.04.61 1.15.48 2.4.61 3.65.3.95.66 1.97.93 3.11.65.51-.13.94 0 1.26.45.03.04.06.08.09.11 1.02 1 1.13 1.04 2.57.84.28.41.58.83.86 1.27.75 1.18 2.09 1.78 3.44 1.5.51-.1 1.01-.21 1.55-.32.2.34.36.63.56.97-.16.28-.34.55-.49.84-.44.86-.78 1.74-.91 2.71-.16 1.19-.35 2.37-.55 3.55-.11.64.04 1.16.36 1.75.52.96 1.38 1.58 2.06 2.37.17.19.49.29.76.36.36.1.73.13 1.14.19-.64.81-.66.8-1.5 1.04-.73.21-1.46.45-2.18.71-.26.1-.58.21-.73.42-.5.68-1.26.76-1.93.7-.98-.08-1.9.1-2.84.24-.24.03-.49.15-.7.09-1.07-.27-2.08-.03-3.11.19-.32.07-.67.09-.99.05-1.72-.24-3.43-.13-5.14.15-.51.09-1.05.12-1.56.05-.72-.1-1.42-.06-2.14.03-1.18.15-2.38.25-3.57.35-.28.02-.58 0-.86-.05-.76-.14-1.52-.16-2.28-.06-1.01.14-2.01-.1-2.99-.29-1.37-.27-2.73-.5-4.13-.33h-.14c-1.75-.33-3.53-.2-5.28-.43-1.82-.25-3.62-.21-5.44-.18-.43 0-.87.05-1.29-.02-1.7-.27-3.44-.43-5.08-.91-3.55-1.05-7.19-1.58-10.83-2.16-1.51-.24-3.02-.49-4.54-.72-1.23-.19-2.45-.42-3.63-.85-.54-.19-1.11-.3-1.68-.38-1.38-.19-2.72-.55-4.05-.93-.92-.26-1.85-.48-2.79-.65-1.27-.23-2.52-.51-3.77-.89-4.44-1.36-8.89-2.65-13.34-3.97-.13-.04-.26-.12-.44-.2-.08-.87-.51-1.57-1.23-2.12-.25-.19-.39-.53-.54-.82-.46-.85-1.1-1.53-1.94-2.3-.08.35-.19.54-.13.66.17.39.4.76.61 1.14.16.29.4.56.49.87.19.62.52 1.11 1.05 1.49.17.12.25.37.43.67-.78-.07-1.32-.37-1.87-.64-.9-.44-1.79-.91-2.7-1.33-1.13-.53-2.26-1.04-3.48-1.33-1.17-.28-2.22-.86-3.28-1.43-1.26-.68-2.51-1.39-3.89-1.83-.49-.15-.93-.47-1.39-.72-.37-.21-.71-.49-1.1-.67-.63-.29-1.12-.69-1.56-1.23-.32-.4-.76-.71-1.2-1.12.2-.15.35-.33.55-.4Zm126.54 29.96c-.31-.47-.58-.97-.95-1.6-.1.28-.23.46-.19.57.14.4.32.79.52 1.16.2.36.45.7.74 1.13-.93.39-1.75.72-2.57 1.07-1.42.62-2.94.75-4.44.97-.19.03-.42 0-.55.11-.84.62-1.87.71-2.81 1.05-1.02.37-2.12.54-3.2.72-1.41.23-2.83.3-4.27.31-1.9.02-3.81.19-5.71.28-.24.01-.48 0-.71 0-.57 0-1.14 0-1.71-.01-.19 0-.39.04-.57 0-1.39-.27-2.76-.07-4.14.04-.33.03-.68.09-1 .02-1.66-.4-3.34-.16-5-.1-1.62.06-3.23.19-4.86-.05-.89-.13-1.82-.04-2.72.01-1.11.06-2.19-.02-3.29-.15-1.18-.13-2.38-.13-3.57-.11-1.39.03-2.77-.05-4.14-.27-5.2-.84-10.39-1.69-15.6-2.46-1.77-.26-3.42-.9-5.11-1.39-1.38-.4-2.73-.89-4.09-1.33-.23-.07-.46-.16-.69-.18-2.36-.21-4.54-1.12-6.78-1.81-1.92-.59-3.84-1.14-5.82-1.52-1.96-.38-3.87-1.08-5.78-1.68-.29-.09-.56-.37-.74-.63-.52-.74-1.25-1.13-2.11-1.42-.18.57.43.86.39 1.33-.15.27-.4.22-.62.16-1.74-.51-3.49-1.02-5.22-1.56-.62-.19-1.08-.64-1.33-1.23-.38-.93-.83-1.82-1.41-2.65-.24-.33-.27-.8-.42-1.2-.06-.15-.21-.27-.39-.5-.32.87-.07 1.51.28 2.15.34.63.65 1.28.94 1.93.09.2.09.45.15.72-1.5-.15-2.59-.76-3.15-2.16-.45-1.11-.92-2.21-1.38-3.31-.09-.22-.18-.43-.27-.63-.39 0-.45.19-.36.46.28.81.57 1.62.88 2.42.26.66.55 1.3.82 1.92-.28.32-.51.17-.71.11-1.92-.57-3.84-1.17-5.77-1.74-.48-.15-.81-.38-1.06-.86-.47-.93-1.05-1.81-1.57-2.69-.38-.01-.47.18-.35.45.25.57.54 1.12.81 1.67.1.2.21.41.32.62-.5.23-.85-.04-1.1-.26-.49-.43-.99-.85-1.27-1.5-.34-.78-.82-1.5-1.26-2.24-.03-.05-.17-.04-.3-.07-.43 1.03.68 1.6.79 2.57-.24-.08-.42-.11-.57-.19-.89-.47-1.76-.98-2.66-1.41-1.19-.57-1.92-1.52-2.47-2.68-.49-1.04-1.1-2.02-1.56-3.06-.27-.6-.96-.7-1.17-1.34-.38.74 0 1.26.24 1.79h.04c0 .01-.01.02-.02.03.48.91 1.13 1.75 1.38 2.9-.27-.1-.49-.14-.68-.25-.82-.49-1.63-.98-2.43-1.49-.48-.31-.82-.73-1.11-1.25-.55-1-1.26-1.9-1.9-2.84-.29-.43-.7-.79-.74-1.34.43-.56.85-1.11 1.27-1.65.36.08.52.31.46.62-.26 1.42.53 2.58 1.05 3.76.33.76.99 1.39 1.52 2.06.11.14.3.21.52.36.23-.31.45-.59.66-.88v-.04c-.13-.01-.3 0-.36-.07-1.11-1.33-2-2.76-2.28-4.56.17 0 .32-.04.43 0 .61.2 1.04.04 1.52-.43.74-.72 1.28-1.51 1.56-2.51.13-.45.35-.88.57-1.36.7.22 1.58.12 2.35-.12.04 0 .08.02.13.03.28.06.57.07.82.09.69.69 1.45 1.28 1.91 2.14.04.08.12.15.2.2 1.08.7 2.1 1.54 3.26 2.06 1.31.59 2.59 1.23 3.82 1.97 1.32.79 2.69 1.42 4.16 1.89 1.31.42 2.59 1.01 3.79 1.68 1.9 1.07 3.94 1.71 6 2.33 3.25.98 6.5 1.96 9.76 2.93 1.51.45 3.01.95 4.54 1.35.92.24 1.89.33 2.82.52.75.15 1.48.35 2.23.53 1.02.24 2.04.49 3.07.73 1.07.25 2.15.48 3.22.72.98.22 1.94.52 2.93.68 3.64.6 7.28 1.15 10.92 1.73.76.12 1.52.23 2.25.45 2.35.7 4.78.97 7.19 1.35.47.07.95.07 1.43.05 1.96-.05 3.92-.21 5.86.2.32.07.67.04 1 .03 1.2-.01 2.39-.02 3.57.21.33.07.67.11 1 .08 1.69-.17 3.33.24 4.99.44.75.1 1.52.11 2.28.14.38.01.78-.1 1.14-.02 1.82.4 3.62 0 5.42-.12.57-.04 1.14-.08 1.7 0 .63.08 1.24.09 1.85-.03 1.7-.35 3.41-.37 5.14-.21.65.06 1.34-.04 1.99-.17a5.4 5.4 0 0 1 1.7-.11c.47.05.95 0 1.42-.03.9-.07 1.77-.33 2.7-.22.6.07 1.24-.08 1.84-.21.25-.05.45-.32.67-.48.37-.28.68-.27 1.02.04.11.1.22.19.3.31.62 1.02 1.67 1.55 2.55 2.28.04.03.08.09.11.09.18-.01.41.01.51-.09.1-.1.15-.39.08-.5-.19-.32-.44-.61-.71-.87-.32-.29-.7-.5-1.02-.79-.21-.18-.35-.44-.6-.76.95-.4 1.94-.6 2.75-1.46.07.33.15.5.14.66-.07 1 .32 1.86.78 2.7.35.65.67.86 1.38.71.73-.15 1.45-.36 2.23-.56.1.42.25.82.28 1.24.07.96.68 1.74.82 2.67.05.32.07.65.1.95-.38.17-.48-.11-.59-.28Zm6.86 1.7c-.1.17-.33.27-.5.42-.16-.18-.31-.28-.33-.39-.15-1-1.19-1.29-1.63-2.07-.07-.13-.34-.17-.52-.2-.33-.04-.67-.03-1-.06-.5-.04-.8-.32-.83-.8-.02-.24 0-.48.04-.71.16-1.04.09-2.11.46-3.12.12-.33-.04-.59-.34-.68-.33-.1-.55.03-.7.32-.13.24-.26.47-.45.8-.2-.35-.32-.61-.48-.84-.59-.81-1.04-.93-1.96-.46-.44.23-.85.41-1.33.31-.48-.36-.66-.82-.66-1.39-.02-1.52-.35-3.03-.01-4.57.1-.48-.1-1.03-.19-1.54-.04-.22-.06-.49-.39-.51-.45 1.23-.22 2.64-.93 3.85-.91-1.03-.9-1.09-1.82-1.23-.96-.16-1.41-.94-2.01-1.51-.44-.42-.2-.98-.07-1.49.03-.13-.04-.29-.02-.43.34-2.46.58-4.94 2.17-7.02.16-.21.25-.54.26-.81 0-1.1.52-2.02 1-2.95.24-.47.54-.92.7-1.41.62-1.87 1.58-3.59 2.41-5.36.51-1.09 1.12-2.11 1.83-3.08.48-.65.87-1.37 1.26-2.08 1.04-1.94 2.04-3.9 3.1-5.83.62-1.13 1.23-2.26 1.72-3.46.39-.96.77-1.95 1.39-2.83.95.26 1.86.53 2.77.76.91.23 1.89.15 2.84.64-.12.74-.18 1.45-.35 2.14-.61 2.56-1.28 5.11-1.87 7.67-.46 2.01-1.08 3.97-1.7 5.93-.49 1.55-.88 3.13-1.32 4.69-.11.42-.19.84-.33 1.25-.88 2.53-1.73 5.07-2.66 7.58-.73 1.98-1.38 3.97-1.77 6.05-.05.28-.12.57-.11.85 0 .15.17.38.29.4.14.03.34-.1.47-.21.1-.08.15-.24.21-.37.43-1.01.87-2.02 1.27-3.04.55-1.43 1.06-2.87 1.57-4.31.95-2.65 2.02-5.27 2.61-8.04.39-1.82.92-3.61 1.56-5.37.42-1.17.75-2.37 1.06-3.57.37-1.39.7-2.79 1.02-4.18.5-2.19.97-4.39 1.46-6.59.03-.14.1-.27.17-.44.41-.16.69-.42.88-.76v.02c-.21.84-.34 2.39-.49 3.23-.63 3.44-1.24 6.88-1.84 10.32-.11.61-.14 1.23-.18 1.85-.08 1.1-.04 2.21-.21 3.29-1.5 9.6-3.04 19.19-4.55 28.79a7.13 7.13 0 0 1-.93 2.54Z"/>
    <path d="M154.17 99.68c-.09-.05-.29 0-.37.08-.13.13-.22.31-.31.47-.3.54-.54 1.12-.89 1.63-.68 1-1.13 2.09-1.5 3.23-.61 1.86-1.23 3.72-2.04 5.51-.32.7-.61 1.41-.82 2.14-.75 2.52-1.47 5.05-2.18 7.58-.5 1.8-.95 3.6-1.44 5.4-.12.46-.3.91-.46 1.38 0 .12-.03.27.02.4.05.11.18.21.29.27.06.03.2-.03.25-.09.12-.14.23-.3.29-.48.28-.76.52-1.54.82-2.29 1.03-2.53 1.72-5.17 2.49-7.78.69-2.34 1.27-4.71 2.26-6.95.42-.96.73-1.97 1.04-2.97.57-1.82 1.02-3.68 2.04-5.34.34-.56.5-1.23.7-1.86.03-.09-.09-.28-.2-.33ZM105.91 94.49c.34 1.13.99 1.91 2.23 2.17.91.19.97.21 1.6-.48.35-.38.49-.81.57-1.28.22-1.32.45-2.64.65-3.97.07-.42.13-.86.09-1.29-.1-1.11.06-2.19.23-3.28.11-.71.16-1.43.24-2.14.26-2.38.43-4.77.79-7.13 1.35-8.89 2.81-17.77 4.14-26.66.34-2.26.5-4.57.53-6.86.02-1.63.07-3.24.24-4.86.05-.52.11-1.05.12-1.57 0-.27-.11-.53-.18-.86-.58.22-.63.57-.7.88-.3 1.31-.58 2.61-.85 3.93-.07.32-.07.67-.06 1 .08 2.69-.23 5.36-.64 8-1.44 9.41-2.98 18.81-4.48 28.21-.11.66-.17 1.33-.25 1.99-.27 2.42-.54 4.85-.79 7.27-.05.47-.05.95-.02 1.43.1 1.89-.39 3.7-.63 5.55a.86.86 0 0 1-.09.27c-.16.3-.36.57-.75.58-.37.02-.66-.11-.85-.42-.15-.25-.3-.5-.38-.77-.31-1-.77-1.96-.61-3.06.02-.11-.19-.28-.32-.37-.03-.02-.25.14-.3.25-.22.54-.29 1.1-.09 1.68.2.59.38 1.18.56 1.78ZM100.87 74.32c-1.15 7.28-2.32 14.56-3.45 21.85-.26 1.7-.44 3.42-.64 5.13-.03.27.02.56.08.83 0 .04.32.09.34.05.14-.24.28-.49.34-.76.35-1.74.71-3.47 1-5.22 1.37-8.41 2.75-16.82 4.07-25.24 1.19-7.57 2.3-15.14 3.46-22.72.08-.52.17-1.04.36-1.53.55-1.45.67-2.98.89-4.5a.839.839 0 0 0-.06-.41c-.03-.07-.13-.13-.21-.14-.08-.01-.21.03-.24.08-.1.21-.2.43-.24.66-.25 1.51-.49 3.02-1.16 4.43-.12.25-.15.55-.2.83-.39 2.12-.82 4.23-1.16 6.36-1.09 6.76-2.15 13.52-3.22 20.28h.07ZM126.36 77.67c-.4 2.5-.81 5.01-1.23 7.51-.2 1.18-.34 2.36-.32 3.57.01.76-.1 1.53-.21 2.28-.51 3.31-1.06 6.62-1.56 9.93-.12.8-.17 1.62-.15 2.43.02.87-.03 1.72-.17 2.57-.17 1.04-.32 2.08-.45 3.12-.09.68-.01 1.35.45 1.9.08.09.25.17.36.15.11-.02.25-.16.27-.26.11-.51.19-1.02.28-1.54.33-2.07.87-4.12.74-6.26-.04-.61.06-1.24.15-1.85.5-3.26 1.04-6.52 1.53-9.79.15-.99.18-2 .26-3 .07-.86.09-1.72.21-2.57.38-2.65.81-5.3 1.2-7.95.09-.61.13-1.24.14-1.86.03-1.77.12-3.54.45-5.28.11-.61.2-1.23.28-1.85.37-2.9.73-5.79 1.09-8.69.03-.23.06-.49-.36-.58-.07.19-.18.38-.22.59-.69 3.67-1.37 7.34-2.05 11.01-.27 1.46-.46 2.93-.46 4.42 0 .67-.12 1.33-.22 2ZM57.08 55.77c-.81 4.96-1.31 9.96-1.97 14.94-.06.43-.1.85-.13 1.28-.2 3.2-.46 6.4-1.09 9.54-.6 2.97-.73 5.97-.93 8.98-.03.5.14 1.03.26 1.54.05.23.23.47.51.36.14-.05.3-.26.31-.4.11-1.09.26-2.19.27-3.28.01-1.87.2-3.72.53-5.56.28-1.6.53-3.21.76-4.82.14-.95.24-1.9.33-2.85.15-1.62.21-3.25.41-4.86.58-4.7 1.03-9.42 1.84-14.09.18-1.04.31-2.08.4-3.13.44-4.96 1.13-9.88 1.83-14.81.13-.9.24-1.8.33-2.71.02-.21-.07-.43-.12-.67-.54.19-.53.61-.59.96-.64 3.63-1.32 7.25-1.87 10.89-.44 2.88-.61 5.81-1.08 8.69ZM61.04 91.67c.01.82.02 1.62.22 2.41.27 1.06.96 1.61 2.05 1.57 1.19-.04 2.41-1.04 2.67-2.2.05-.21.12-.47-.26-.68-.31.49-.52.98-.87 1.35-.68.74-1.73.45-2-.52-.1-.36-.19-.75-.17-1.12.07-1.38.17-2.76.29-4.14.09-1.05.24-2.09.34-3.14.2-2.05.32-4.1.58-6.14.5-3.94 1.05-7.87 1.64-11.79 1.04-7 2.12-13.99 3.18-20.99.07-.47.14-.95.18-1.42.01-.16-.09-.34-.19-.65-.19.26-.34.4-.38.55-.12.51-.21 1.03-.3 1.55-1.72 10.18-3.47 20.36-5.15 30.55-.49 2.97-.78 5.97-1.17 8.96-.25 1.94-.69 3.86-.67 5.83ZM73.11 126.51c-.89-.51-1.58-1.23-2.33-1.9-.39-.35-.78-.71-1.2-1.02-.61-.46-1.23-.89-1.69-1.53-.39-.53-.95-.77-1.69-.61 0 .2-.06.44.03.55.48.65.94 1.34 1.53 1.89 1.05.97 2.19 1.85 3.28 2.78.71.61 1.6.85 2.42 1.22.11.05.35-.08.47-.19.06-.06.05-.3-.01-.38-.24-.29-.49-.62-.8-.8ZM130.84 130.74c-.67-.34-1.16-.82-1.58-1.41-.16-.23-.4-.41-.62-.59-.1-.08-.26-.11-.47-.19-.1.13-.32.27-.3.39.03.32.11.65.24.95.55 1.19 1.65 1.8 2.67 2.48.14.1.47.03.65-.07.28-.16.34-.49.16-.75-.2-.31-.45-.66-.76-.82ZM30.83 111.95c.45-.42.28-.69.12-.91-1.2-1.71-2.42-3.41-3.64-5.1-.13-.18-.36-.28-.62-.49-.1.24-.26.41-.22.54.09.31.23.63.42.89.97 1.35 1.95 2.69 2.95 4.02.28.37.64.68.99 1.05ZM32.02 117.24a6.689 6.689 0 0 1-2.03-2.7c-.19-.45-.51-.88-1.25-1.19 1.32 3.34 1.62 3.76 3.42 4.82.07-.11.23-.24.21-.32-.07-.22-.17-.47-.34-.61ZM85.92 128.36c-1.1-.53-1.99-1.3-2.74-2.25-.1-.13-.26-.3-.47-.14-.02.05-.07.09-.06.13.03.14.04.28.11.4.54.87 1.27 1.54 2.12 2.08.56.36 1.1.74 1.66 1.1.14.09.32.12.68.24-.14-.38-.17-.63-.3-.77-.3-.3-.63-.61-1.01-.79ZM131.27 127.19c-.08-.08-.21-.1-.41-.19-.06.64.05 1.12.58 1.38.49.24.81.62 1.12 1.06.16.22.38.43.62.56.27.14.56.09.69-.42-.67-.63-1.19-1.38-2.05-1.76-.23-.1-.35-.43-.54-.62ZM36.57 119.21c.25.48.5.97.81 1.57.17-.23.37-.37.35-.49-.06-.59-.4-1-1.16-1.08ZM78.56 126.73c.35.33.65.61.95.9.17.16.31.17.44-.04-.59-.93-.63-.95-1.39-.87ZM34.52 118.64q.29 1 .97 1.16c-.15-.5-.32-.89-.97-1.16ZM134 127.05q.11.8.82.65c-.18-.33-.4-.57-.82-.65ZM135.29 121.39c.09.14.17.29.26.43.15-.07.22-.11.3-.14-.09-.15-.17-.3-.26-.45-.1.06-.2.12-.3.17ZM15.73 80.82c.14.75.22 1.5.2 2.27-.04 1.86-.14 3.73 0 5.58.17 2.15.16 4.29.05 6.44-.2 3.87-.15 7.73-.02 11.6 0 .22.12.45.21.66.03.06.16.1.24.09.08 0 .21-.06.23-.12.07-.22.15-.45.16-.68.02-.67-.02-1.34.02-2.01.14-2.86.32-5.72.43-8.58.1-2.62.28-5.25-.11-7.87-.09-.61-.1-1.24-.06-1.86.13-2.74-.26-5.42-.84-8.09-.06-.28-.16-.57-.64-.49-.05.24-.17.51-.15.77.05.76.13 1.52.27 2.27ZM20.85 117.75c.01.14.05.29.12.41.59 1.03 1.16 2.07 1.79 3.08.61.97 1.27 1.9 1.92 2.84.11.16.22.32.52.12-.08-.78-.43-1.48-.91-2.14-1.22-1.7-2.45-3.4-2.96-5.48-.03-.13-.13-.25-.2-.38-.35-.57-.68-1.14-1.05-1.7-.09-.13-.26-.22-.39-.32-.08.06-.17.13-.26.19.22.52.38 1.07.67 1.54.35.58.69 1.14.74 1.83ZM82.02 141.28c.53.25.94.62 1.32 1.05.41.45.85.88 1.28 1.32.46.47 1 .55 1.54.24.19-.11.26-.48.1-.63-.93-.87-1.85-1.75-2.79-2.6-.47-.42-1.05-.6-1.82-.66-.22.6-.14 1.03.36 1.28ZM19.42 121.1c.65-.5.69-.58.37-1.02-.84-1.16-1.51-2.41-1.94-3.79-.12-.4-.36-.77-.6-1.13-.07-.1-.3-.1-.51-.15.41 2.03 1.07 3.84 2.09 5.52.14.23.39.39.58.57ZM90.89 144.38c.23.15.47.14.64-.06.17-.2.17-.46-.03-.64-.72-.69-1.52-1.28-2.44-1.68-.34-.15-.72-.22-1.39.27 1.39.3 2.12 1.1 2.88 1.86.1.1.22.17.34.25ZM16.71 121.48c.12.34.33.69.58.95.25.26.59.3.86-.16-.2-.27-.46-.54-.62-.86-.19-.38-.29-.8-.45-1.2-.23-.58-.54-1.1-1.2-1.47-.07.22-.15.33-.12.38.45.74.67 1.56.95 2.36ZM135.94 142.93c.67.34 1.29.74 1.86 1.26.29.26.78.35 1.16-.13-.44-.85-1.3-1.18-2.08-1.56-.33-.16-.74-.17-1.03.18.03.09.04.23.09.26ZM140.63 143.44c.2.14.49.09.61-.15.07-.13.06-.4-.03-.5-.49-.51-1.1-.88-1.77-1.12-.1-.04-.26.06-.5.12.43.83 1.09 1.21 1.69 1.65ZM142.07 141.68c.37.35.75.69 1.24 1.14.27-.78.1-1.05-1.06-1.83-.28.38-.33.55-.18.69ZM135.15 145.63c.35-.21.4-.48.05-.86-.39.23-.77.46-1.33.8.57.26.93.27 1.28.06ZM98.58 15.14c-1.38-.23-2.68-.68-3.98-1.18-.18-.07-.37-.09-.56-.11-.84-.08-1.56-.44-2.24-.9-.75-.51-1.48-1.08-2.28-1.49-.6-.31-1.12-.67-1.44-1.24-.5.13-.62.46-.47.79.15.33.39.68.68.89 1 .74 2.03 1.43 3.07 2.12.6.4 1.22.78 1.95.87.87.11 1.66.41 2.47.72 1.18.45 2.39.59 3.77.3-.24-.58-.63-.71-.97-.76ZM22.82 56.08c.24-.13.42-.38.62-.59 1.39-1.46 2.58-3.07 3.74-4.71 3.02-4.27 5.57-8.82 7.93-13.47 1.49-2.94 2.75-6 4.14-8.99.62-1.36 1.18-2.72 1.12-4.25-.01-.33.1-.66.12-1 .01-.17-.04-.35-.06-.53-.1-.01-.2-.03-.29-.04-.09.3-.23.59-.28.89-.23 1.49-.73 2.86-1.49 4.16-.65 1.11-1.21 2.28-1.78 3.44C33.5 37.2 30.5 43.45 26.57 49.2c-1.32 1.93-2.49 3.97-4.08 5.71-.16.17-.31.37-.43.57-.13.23-.12.51.11.62.18.08.47.07.65-.02ZM27.5 58.74c-.43.57-.92 1.1-1.43 1.6-.79.77-1.67 1.42-2.34 2.32-.36.49-.88.87-1.49 1.06-.19-.15-.36-.28-.55-.43-.22.21-.43.41-.7.66.28.83.44.98.94.91 1.11-.15 2.1-.57 2.91-1.37.78-.77 1.59-1.52 2.38-2.28.31-.3.65-.58.9-.92 1.04-1.43 2.08-2.86 3.06-4.34 1.95-2.96 3.62-6.08 5.14-9.28.84-1.77 1.63-3.57 2.38-5.37.55-1.32 1.02-2.68 1.52-4.03.55-1.48 1.09-2.96 1.61-4.45.1-.28.33-.59-.14-1.04-.07.12-.16.24-.22.36-.2.43-.39.87-.59 1.31-1.52 3.4-2.97 6.85-4.58 10.21-2.52 5.27-5.29 10.4-8.82 15.09ZM149.43 61.48c.26 1.21.46 2.44.78 3.65.53 2.03 1.16 4.05 1.69 6.08.47 1.82 1.24 3.51 2.02 5.21.1.21.21.44.38.59.12.1.38.16.51.09.13-.06.27-.31.25-.45-.04-.33-.14-.66-.27-.95-.89-1.97-1.44-4.05-1.94-6.14-.39-1.63-.87-3.23-1.3-4.85-.15-.55-.3-1.11-.39-1.67-.75-4.53-1.49-9.06-2.22-13.59-.18-1.13-.3-2.28-.53-3.4-.41-1.93-.64-3.86-.28-5.83.04-.21-.05-.44-.11-.9-.24.39-.4.56-.45.76-.14.51-.2 1.03-.33 1.54-.24.89-.27 1.78-.19 2.7.55 5.76 1.18 11.51 2.38 17.18ZM143.78 59.76c.45 5 1.24 9.96 2.61 14.81.74 2.62 1.4 5.27 3.04 7.54.22.3.33.69.49 1.04.51 1.14 1.4 1.9 2.52 2.4.28.12.56.08.8-.14.25-.23.27-.5.12-.78-.11-.21-.26-.39-.39-.6-.2.11-.36.2-.54.31-.59-.36-.96-.94-1.17-1.56-.31-.92-.81-1.73-1.31-2.54-.45-.74-.79-1.52-1.07-2.34-1.63-4.77-2.58-9.7-3.36-14.66-.72-4.58-1.01-9.21-1.57-13.82l-.18-1.4c-.11-.01-.21-.03-.32-.04-.06.15-.17.31-.17.46.15 3.77.17 7.56.5 11.32ZM51.05 11.84c-.71.81-1.61 1.33-2.58 1.76-2.07.91-4.26 1.38-6.45 1.82-.27.05-.58.04-.85-.01-1.98-.37-3.98-.44-5.98-.61-.47-.04-.94-.13-1.41-.24-.79-.17-1.58-.39-2.37-.56-.94-.2-1.86-.42-2.69-.94-.2-.12-.43-.23-.66-.26-.15-.02-.39.08-.47.21-.08.12-.07.4.02.51.65.77 1.37 1.45 2.42 1.67.84.18 1.68.39 2.5.62 1.2.34 2.42.52 3.67.58 1.29.06 2.58.11 3.85.32 1.27.21 2.47.11 3.67-.27 1.96-.61 3.93-1.19 5.67-2.33.96-.63 1.81-1.36 2.46-2.43-.48-.21-.65-.02-.8.15ZM149.14 33.96c1.68.38 3.35.8 5.03 1.17.84.19 1.69.33 2.54.43 1.05.11 2.1.11 3.15.23 1.07.12 1.97-.27 2.85-.77.22-.12.39-.37.25-.59-.1-.16-.37-.26-.58-.31-.18-.04-.38 0-.57.05-.9.23-1.8.16-2.71.06-.71-.07-1.43-.11-2.14-.19-.76-.09-1.51-.2-2.26-.36-1.73-.35-3.46-.72-5.19-1.11-.46-.1-.95-.21-1.35-.45-1.47-.89-2.96-1.76-4.35-2.78-1.15-.85-2.21-1.84-2.8-3.21-.08-.2-.28-.35-.59-.72 0 .46-.04.7.03.89.32.91.8 1.73 1.42 2.47 1.55 1.86 3.52 3.21 5.53 4.51.53.35 1.11.54 1.72.68Z"/>
</svg>
